<?xml version="1.0" encoding="utf-8"?>
<!-- Generator: Adobe Illustrator 27.4.1, SVG Export Plug-In . SVG Version: 6.00 Build 0)  -->
<svg version="1.1" id="Layer_1" xmlns="http://www.w3.org/2000/svg" xmlns:xlink="http://www.w3.org/1999/xlink" x="0px" y="0px"
	 viewBox="0 0 288 288" style="enable-background:new 0 0 288 288;" xml:space="preserve">
<style type="text/css">
	.st0{fill:#FFFFFF;}
	.st1{fill:#3FB270;}
	.st2{fill:#51ED97;}
</style>
<g>
	<path class="st0" d="M211.9,269.7H76.7c-32.2,0-58.3-26.1-58.3-58.3V76.2c0-32.2,26.1-58.3,58.3-58.3h135.5
		c32.2,0,58.3,26.1,58.3,58.3v135.2C270.2,243.6,244.1,269.7,211.9,269.7z"/>
	<g>
		<path class="st1" d="M218.7,193.8v18.1c0,11.3-9,20.4-20.4,20.4h-36.9H90.3c11.3,0,20.4-9,20.4-20.4v-18.1
			c0-5.8,4.5-10.3,10.3-10.3h87.7C214.2,183.5,218.7,188.3,218.7,193.8z"/>
		<path class="st2" d="M131,55.3c5.8,0,10.3,4.5,10.3,10.3v146.5c0,11.3,9,20.4,20.4,20.4H90.3c-11.3,0-20.4-9-20.4-20.4V65.6
			c0-5.8,4.5-10.3,10.3-10.3H131z"/>
	</g>
</g>
</svg>
