<?xml version="1.0" encoding="utf-8"?>
<!-- Generator: Adobe Illustrator 27.4.1, SVG Export Plug-In . SVG Version: 6.00 Build 0)  -->
<svg version="1.1" id="Layer_1" xmlns="http://www.w3.org/2000/svg" xmlns:xlink="http://www.w3.org/1999/xlink" x="0px" y="0px"
	 viewBox="0 0 600 600" style="enable-background:new 0 0 600 600;" xml:space="preserve">
<style type="text/css">
	.st0{fill:#51ED97;}
	.st1{fill:#5AFFA1;}
	.st2{fill:#3FB270;}
	.st3{fill:#D2F9E6;}
</style>
<g>
	<path class="st0" d="M504,503H96c-9.9,0-18-8-18-18V226.3c0-5.8,2.8-11.3,7.6-14.7L273,80.1c16.2-11.4,37.8-11.4,54,0l187.4,131.5
		c4.8,3.4,7.6,8.8,7.6,14.7V485C522,494.9,513.9,503,504,503z"/>
</g>
<g>
	<path class="st1" d="M503.7,469.9l-204.8-114l-202.6,114c-10.9,6.3-6.3,22.6,6.5,22.6h394.5C510,492.5,514.6,476.2,503.7,469.9z"/>
</g>
<path class="st2" d="M98.9,241.6l200,114.3l202.2-114.3c11.2-6.2,6.7-22.7-6.2-22.7H105.1C92.2,218.9,87.7,235.4,98.9,241.6z"/>
<path class="st3" d="M299,356l180-101.7v-114c0-14-11.3-25.3-25.3-25.3H146.3c-14,0-25.3,11.3-25.3,25.3v113.9L299,356z"/>
<g>
	<path class="st2" d="M301,272.8c-6.4,0-12.5-1-18.3-2.9c-5.8-2-11-5-15.6-9s-8.2-9.1-10.8-15.1c-2.6-6.1-3.9-13.2-3.9-21.3
		c0-9,1.5-17.1,4.5-24.4c3-7.3,7.2-13.6,12.6-18.8c5.3-5.3,11.5-9.3,18.5-12c7-2.8,14.4-4.2,22.2-4.2c9.2,0,17.2,1.9,24,5.8
		c6.8,3.9,12,9.2,15.8,16.1c3.7,6.8,5.6,14.7,5.6,23.7c0,5.9-0.9,11.1-2.6,15.5c-1.8,4.4-4,8.1-6.9,11.1c-2.8,2.9-6,5.1-9.4,6.6
		c-3.5,1.5-6.9,2.2-10.2,2.2c-3.8,0-7-0.9-9.7-2.6c-2.7-1.7-4.4-4.1-5.1-7.3h-0.3c-1.7,2.6-4.1,4.8-7,6.3c-3,1.6-5.8,2.4-8.5,2.4
		c-5,0-9.1-1.8-12.3-5.3c-3.2-3.5-4.7-8.3-4.7-14.2c0-3.9,0.7-7.8,2-11.5c1.3-3.8,3.2-7.1,5.6-10.1s5.2-5.4,8.3-7.2
		c3.2-1.8,6.6-2.7,10.3-2.7c2.1,0,4,0.5,5.6,1.5s3,2.6,4.1,4.9h0.3l1.8-5.4h11.7l-5.9,28.3c-0.8,3.8-0.7,6.5,0.3,8.3
		c0.9,1.8,2.8,2.6,5.5,2.6c2.6,0,5-0.9,7.2-2.8c2.2-1.9,4-4.5,5.4-8s2.1-7.5,2.1-12.1c0-4.4-0.6-8.7-1.9-12.8s-3.3-7.7-6-10.9
		s-6.3-5.7-10.6-7.5c-4.4-1.8-9.6-2.8-15.8-2.8c-5.4,0-10.6,1.1-15.8,3.3c-5.1,2.2-9.7,5.3-13.8,9.4c-4.1,4.1-7.3,9-9.7,14.8
		c-2.4,5.8-3.7,12.2-3.7,19.3c0,6.2,1,11.5,2.9,16.1c2,4.6,4.7,8.4,8.1,11.5c3.4,3,7.3,5.3,11.8,6.8c4.4,1.5,9.1,2.2,14,2.2
		c3.2,0,6.6-0.4,10.1-1.3s6.5-2,9.2-3.3l4.4,10.6c-3.9,2-7.9,3.6-12,4.6C309.9,272.3,305.6,272.8,301,272.8z M300,232.7
		c1.4,0,2.7-0.4,4.1-1.3c1.4-0.9,2.8-2.3,4.4-4.5l3.1-17.2c-0.6-1.2-1.4-2.1-2.4-2.7c-1-0.6-2.2-0.9-3.5-0.9c-2.5,0-4.6,1-6.5,2.9
		c-1.8,2-3.2,4.3-4.2,7.1c-0.9,2.8-1.4,5.4-1.4,8c0,2.8,0.6,4.9,1.7,6.3C296.4,232,298,232.7,300,232.7z"/>
</g>
</svg>
