<?xml version="1.0" encoding="utf-8"?>
<!-- Generator: Adobe Illustrator 27.4.1, SVG Export Plug-In . SVG Version: 6.00 Build 0)  -->
<svg version="1.1" id="Layer_1" xmlns="http://www.w3.org/2000/svg" xmlns:xlink="http://www.w3.org/1999/xlink" x="0px" y="0px"
	 viewBox="0 0 144 144" style="enable-background:new 0 0 144 144;" xml:space="preserve">
<style type="text/css">
	.st0{fill:#FFFFFF;}
</style>
<g>
	<circle cx="72" cy="54.6" r="13"/>
	<path d="M72,41.7c-7.2,0-13,5.8-13,13s5.8,13,13,13s13-5.8,13-13S79.2,41.7,72,41.7L72,41.7z"/>
</g>
<g>
	<circle cx="32.5" cy="54.6" r="13"/>
	<path d="M32.5,41.7c-7.2,0-13,5.8-13,13s5.8,13,13,13s13-5.8,13-13S39.6,41.7,32.5,41.7L32.5,41.7z"/>
</g>
<g>
	<circle cx="111.5" cy="54.6" r="13"/>
	<path d="M111.5,41.7c-7.2,0-13,5.8-13,13s5.8,13,13,13s13-5.8,13-13S118.7,41.7,111.5,41.7L111.5,41.7z"/>
</g>
<g>
	<circle cx="72" cy="91.8" r="13"/>
	<path d="M72,78.8c-7.2,0-13,5.8-13,13s5.8,13,13,13s13-5.8,13-13S79.2,78.8,72,78.8L72,78.8z"/>
</g>
<g>
	<circle cx="72" cy="128.9" r="13"/>
	<path d="M72,116c-7.2,0-13,5.8-13,13c0,7.2,5.8,13,13,13s13-5.8,13-13C85,121.8,79.2,116,72,116L72,116z"/>
</g>
<g>
	<circle cx="32.5" cy="91.8" r="13"/>
	<path d="M32.5,78.8c-7.2,0-13,5.8-13,13s5.8,13,13,13s13-5.8,13-13S39.6,78.8,32.5,78.8L32.5,78.8z"/>
</g>
<g>
	<circle cx="111.5" cy="91.8" r="13"/>
	<path d="M111.5,78.8c-7.2,0-13,5.8-13,13s5.8,13,13,13s13-5.8,13-13S118.7,78.8,111.5,78.8L111.5,78.8z"/>
</g>
<g>
	<circle cx="72" cy="17.5" r="13"/>
	<path d="M72,4.5c-7.2,0-13,5.8-13,13s5.8,13,13,13s13-5.8,13-13S79.2,4.5,72,4.5L72,4.5z"/>
</g>
<g>
	<circle cx="32.5" cy="17.5" r="13"/>
	<path d="M32.5,4.5c-7.2,0-13,5.8-13,13s5.8,13,13,13s13-5.8,13-13S39.6,4.5,32.5,4.5L32.5,4.5z"/>
</g>
<g>
	<circle cx="111.5" cy="17.5" r="13"/>
	<path d="M111.5,4.5c-7.2,0-13,5.8-13,13s5.8,13,13,13s13-5.8,13-13S118.7,4.5,111.5,4.5L111.5,4.5z"/>
</g>
<g>
	<path class="st0" d="M29.1,23v-1.5h2.7v-8.4h-2.2v-1.2c0.6-0.1,1.1-0.2,1.5-0.4c0.4-0.2,0.8-0.3,1.2-0.5h1.4v10.5h2.4V23H29.1z"/>
</g>
<g>
	<path class="st0" d="M67.8,23v-1.2c1.2-1.1,2.1-2.1,3-3c0.8-0.9,1.5-1.7,1.9-2.4c0.4-0.7,0.7-1.4,0.7-2c0-0.7-0.2-1.2-0.5-1.6
		c-0.4-0.4-0.9-0.6-1.6-0.6c-0.5,0-0.9,0.1-1.3,0.4c-0.4,0.3-0.8,0.6-1.1,1l-1-1c0.5-0.6,1.1-1.1,1.7-1.4c0.6-0.3,1.3-0.5,2.1-0.5
		c0.7,0,1.4,0.1,2,0.4c0.6,0.3,1,0.7,1.3,1.3c0.3,0.5,0.5,1.2,0.5,1.9c0,0.8-0.2,1.5-0.6,2.3c-0.4,0.7-1,1.5-1.7,2.3
		c-0.7,0.8-1.5,1.7-2.5,2.6c0.3,0,0.7-0.1,1-0.1c0.4,0,0.7,0,1,0h3.4V23H67.8z"/>
</g>
<g>
	<path class="st0" d="M111.7,23.2c-0.6,0-1.2-0.1-1.7-0.2c-0.5-0.2-0.9-0.4-1.3-0.6c-0.4-0.3-0.7-0.5-1-0.8l0.9-1.2
		c0.4,0.4,0.8,0.7,1.3,1c0.5,0.3,1,0.4,1.7,0.4c0.7,0,1.3-0.2,1.7-0.5c0.4-0.4,0.7-0.9,0.7-1.5c0-0.4-0.1-0.8-0.3-1.2
		c-0.2-0.3-0.6-0.6-1.1-0.8c-0.5-0.2-1.3-0.3-2.2-0.3v-1.4c0.8,0,1.5-0.1,1.9-0.3c0.5-0.2,0.8-0.4,1-0.7c0.2-0.3,0.3-0.7,0.3-1.1
		c0-0.5-0.2-1-0.5-1.3c-0.3-0.3-0.8-0.5-1.4-0.5c-0.5,0-0.9,0.1-1.3,0.3c-0.4,0.2-0.8,0.5-1.2,0.9l-1-1.2c0.5-0.5,1-0.8,1.6-1.1
		c0.6-0.3,1.2-0.4,1.9-0.4c0.7,0,1.4,0.1,1.9,0.4c0.6,0.2,1,0.6,1.3,1.1c0.3,0.5,0.5,1,0.5,1.7c0,0.7-0.2,1.3-0.6,1.7
		c-0.4,0.5-0.9,0.8-1.6,1.1v0.1c0.5,0.1,0.9,0.3,1.3,0.6c0.4,0.3,0.7,0.6,0.9,1c0.2,0.4,0.3,0.9,0.3,1.4c0,0.7-0.2,1.4-0.6,1.9
		c-0.4,0.5-0.9,0.9-1.5,1.2C113.2,23.1,112.5,23.2,111.7,23.2z"/>
</g>
<g>
	<path class="st0" d="M32.6,60.1v-7.8c0-0.3,0-0.7,0-1.2c0-0.5,0-0.9,0.1-1.2h-0.1c-0.2,0.3-0.3,0.6-0.5,0.9
		c-0.2,0.3-0.3,0.6-0.5,0.9l-2.5,3.7h6.8v1.5h-8.7v-1.2l4.9-7.6h2.2v12H32.6z"/>
</g>
<g>
	<path class="st0" d="M72,61c-0.7,0-1.2-0.1-1.7-0.2c-0.5-0.2-0.9-0.4-1.3-0.6c-0.4-0.3-0.7-0.5-1-0.8l0.9-1.2
		c0.4,0.4,0.8,0.7,1.2,0.9c0.5,0.3,1,0.4,1.7,0.4c0.5,0,0.9-0.1,1.3-0.3s0.7-0.5,0.9-0.9c0.2-0.4,0.3-0.8,0.3-1.3
		c0-0.8-0.2-1.4-0.7-1.8c-0.4-0.4-1-0.6-1.7-0.6c-0.4,0-0.7,0.1-1,0.2c-0.3,0.1-0.6,0.3-1,0.5l-0.9-0.6l0.4-5.9h6.2v1.6h-4.6
		l-0.3,3.2c0.3-0.2,0.5-0.3,0.8-0.3c0.3-0.1,0.6-0.1,0.9-0.1c0.7,0,1.3,0.1,1.9,0.4c0.6,0.3,1,0.7,1.4,1.2s0.5,1.3,0.5,2.1
		c0,0.9-0.2,1.6-0.6,2.2c-0.4,0.6-0.9,1.1-1.5,1.4S72.7,61,72,61z"/>
</g>
<g>
	<path class="st0" d="M112,60.4c-0.6,0-1.1-0.1-1.7-0.4c-0.5-0.2-1-0.6-1.3-1.1c-0.4-0.5-0.7-1.1-0.9-1.8c-0.2-0.7-0.3-1.6-0.3-2.6
		c0-1.2,0.1-2.2,0.4-3c0.3-0.8,0.6-1.5,1-2.1c0.4-0.5,0.9-0.9,1.5-1.2c0.6-0.3,1.1-0.4,1.8-0.4c0.7,0,1.3,0.1,1.8,0.4
		c0.5,0.3,0.9,0.6,1.3,0.9l-1,1.1c-0.2-0.3-0.5-0.5-0.9-0.7c-0.3-0.2-0.7-0.3-1.1-0.3c-0.6,0-1.1,0.2-1.5,0.5
		c-0.5,0.3-0.8,0.9-1.1,1.6c-0.3,0.7-0.4,1.7-0.4,3c0,1,0.1,1.8,0.3,2.5c0.2,0.6,0.5,1.1,0.9,1.5c0.4,0.3,0.8,0.5,1.3,0.5
		c0.4,0,0.7-0.1,1-0.3c0.3-0.2,0.5-0.5,0.7-0.8c0.2-0.4,0.3-0.8,0.3-1.3c0-0.5-0.1-0.9-0.2-1.3c-0.2-0.4-0.4-0.6-0.7-0.8
		c-0.3-0.2-0.7-0.3-1.1-0.3c-0.4,0-0.8,0.1-1.2,0.4c-0.4,0.2-0.8,0.7-1.2,1.2l-0.1-1.4c0.4-0.5,0.8-0.9,1.3-1.2
		c0.5-0.3,1-0.4,1.5-0.4c0.7,0,1.3,0.1,1.8,0.4c0.5,0.3,0.9,0.7,1.2,1.2c0.3,0.5,0.4,1.2,0.4,2.1c0,0.8-0.2,1.5-0.5,2.1
		c-0.3,0.6-0.8,1-1.3,1.4C113.2,60.2,112.6,60.4,112,60.4z"/>
</g>
<g>
	<path class="st0" d="M30.8,97.7c0.1-1.1,0.2-2.1,0.3-3s0.4-1.8,0.6-2.6c0.3-0.8,0.6-1.6,1.1-2.4c0.4-0.8,0.9-1.6,1.5-2.4h-5.9v-1.6
		h7.9v1.1c-0.7,0.9-1.3,1.8-1.8,2.6c-0.5,0.8-0.8,1.6-1.1,2.5c-0.3,0.8-0.5,1.7-0.6,2.7s-0.2,2-0.3,3.2H30.8z"/>
</g>
<g>
	<path class="st0" d="M71.8,98c-0.8,0-1.5-0.1-2.1-0.4c-0.6-0.3-1.1-0.7-1.4-1.2c-0.3-0.5-0.5-1.1-0.5-1.7c0-0.5,0.1-1,0.3-1.4
		c0.2-0.4,0.5-0.7,0.8-1c0.3-0.3,0.7-0.6,1.1-0.8v-0.1c-0.4-0.3-0.8-0.7-1.2-1.2c-0.3-0.5-0.5-1-0.5-1.6c0-0.6,0.2-1.2,0.5-1.7
		c0.3-0.5,0.7-0.8,1.3-1.1c0.5-0.3,1.1-0.4,1.8-0.4c1.1,0,1.9,0.3,2.5,0.9c0.6,0.6,0.9,1.4,0.9,2.3c0,0.4-0.1,0.8-0.3,1.2
		c-0.2,0.4-0.4,0.7-0.6,1c-0.2,0.3-0.5,0.5-0.8,0.7v0.1c0.4,0.2,0.7,0.4,1,0.7c0.3,0.3,0.6,0.6,0.8,1c0.2,0.4,0.3,0.8,0.3,1.4
		c0,0.6-0.2,1.2-0.5,1.7c-0.3,0.5-0.8,0.9-1.4,1.2C73.3,97.8,72.6,98,71.8,98z M71.8,96.6c0.4,0,0.8-0.1,1.1-0.2
		c0.3-0.2,0.6-0.4,0.8-0.7c0.2-0.3,0.3-0.6,0.3-1c0-0.5-0.1-0.9-0.4-1.2c-0.3-0.3-0.6-0.6-1.1-0.8c-0.5-0.2-1-0.4-1.5-0.7
		c-0.4,0.3-0.8,0.6-1.1,1.1c-0.3,0.4-0.4,0.9-0.4,1.4c0,0.4,0.1,0.8,0.3,1.1c0.2,0.3,0.5,0.6,0.9,0.7C71,96.5,71.4,96.6,71.8,96.6z
		 M72.6,91.1c0.4-0.4,0.6-0.7,0.8-1.1c0.2-0.4,0.3-0.8,0.3-1.2c0-0.4-0.1-0.7-0.2-1c-0.2-0.3-0.4-0.5-0.7-0.7
		c-0.3-0.2-0.6-0.3-1-0.3c-0.5,0-0.9,0.2-1.3,0.5c-0.3,0.3-0.5,0.8-0.5,1.3c0,0.4,0.1,0.8,0.4,1.1c0.2,0.3,0.6,0.5,1,0.8
		C71.7,90.7,72.2,90.9,72.6,91.1z"/>
</g>
<g>
	<path class="st0" d="M72.1,135c-1.2,0-2.2-0.5-2.9-1.6c-0.7-1.1-1.1-2.6-1.1-4.7c0-2,0.4-3.6,1.1-4.6c0.7-1.1,1.7-1.6,2.9-1.6
		c1.2,0,2.2,0.5,2.9,1.6c0.7,1.1,1.1,2.6,1.1,4.6c0,2-0.4,3.6-1.1,4.7C74.3,134.5,73.3,135,72.1,135z M72.1,133.6
		c0.4,0,0.8-0.2,1.1-0.5c0.3-0.3,0.6-0.8,0.8-1.5c0.2-0.7,0.3-1.6,0.3-2.8c0-1.2-0.1-2.1-0.3-2.8c-0.2-0.7-0.4-1.2-0.8-1.5
		c-0.3-0.3-0.7-0.5-1.1-0.5c-0.4,0-0.8,0.2-1.1,0.5c-0.3,0.3-0.6,0.8-0.8,1.5c-0.2,0.7-0.3,1.6-0.3,2.8c0,1.2,0.1,2.1,0.3,2.8
		c0.2,0.7,0.4,1.2,0.8,1.5C71.3,133.4,71.7,133.6,72.1,133.6z"/>
</g>
<g>
	<path class="st0" d="M111.2,98.2c-0.7,0-1.3-0.1-1.8-0.4c-0.5-0.3-0.9-0.6-1.3-0.9l1-1.1c0.2,0.3,0.5,0.5,0.9,0.7
		c0.3,0.2,0.7,0.3,1.1,0.3c0.6,0,1.1-0.2,1.5-0.5c0.5-0.3,0.8-0.9,1.1-1.6c0.3-0.7,0.4-1.7,0.4-3c0-1-0.1-1.8-0.3-2.5
		c-0.2-0.6-0.5-1.1-0.9-1.5c-0.4-0.3-0.8-0.5-1.3-0.5c-0.4,0-0.7,0.1-1,0.3c-0.3,0.2-0.5,0.5-0.7,0.9c-0.2,0.4-0.3,0.8-0.3,1.3
		c0,0.5,0.1,0.9,0.2,1.3s0.4,0.6,0.7,0.8c0.3,0.2,0.7,0.3,1.1,0.3c0.4,0,0.8-0.1,1.2-0.4c0.4-0.2,0.8-0.7,1.2-1.2l0.1,1.4
		c-0.4,0.5-0.8,0.9-1.3,1.2c-0.5,0.3-1,0.4-1.5,0.4c-0.7,0-1.3-0.1-1.8-0.4c-0.5-0.3-0.9-0.7-1.2-1.2c-0.3-0.5-0.4-1.2-0.4-2.1
		c0-0.8,0.2-1.5,0.5-2.1c0.3-0.6,0.8-1,1.3-1.4c0.6-0.3,1.2-0.5,1.8-0.5c0.6,0,1.1,0.1,1.7,0.3s1,0.6,1.4,1.1
		c0.4,0.5,0.7,1.1,0.9,1.8c0.2,0.7,0.3,1.6,0.3,2.6c0,1.2-0.1,2.2-0.4,3c-0.3,0.8-0.6,1.5-1,2.1c-0.4,0.5-0.9,0.9-1.5,1.2
		C112.4,98.1,111.8,98.2,111.2,98.2z"/>
</g>
</svg>
