<?xml version="1.0" encoding="utf-8"?>
<!-- Generator: Adobe Illustrator 27.2.0, SVG Export Plug-In . SVG Version: 6.00 Build 0)  -->
<svg version="1.1" id="Layer_1" xmlns="http://www.w3.org/2000/svg" xmlns:xlink="http://www.w3.org/1999/xlink" x="0px" y="0px"
	 viewBox="0 0 945.7 213.9" style="enable-background:new 0 0 945.7 213.9;" xml:space="preserve">
<style type="text/css">
	.st0{fill:#FFFFFF;}
</style>
<path class="st0" d="M69.8,190.5H35v-86.7H11.3V75.6H35V55.5c0-23.8,10.5-40.9,45.2-40.9c7.3,0,18.9,1.5,18.9,1.5v26.2H86.9
	c-12.3,0-17.1,3.7-17.1,14.1v19.2h28.8L96,103.8H69.8V190.5z M149.6,73.4c-0.5,0-1,0-1.5,0c-32.3,0-47,24.3-47,58.7
	c0,43.4,19.1,60.7,47.3,60.7c16.1,0,26.7-6.8,33.1-19.4v17.1h33.1V75.6h-33.1v17.7C176.1,81.9,165.3,73.5,149.6,73.4z M158,100.5
	c13.5,0,21.7,9.4,21.7,25.5v16.4c0,10.8-6.7,23.5-21.7,23.5c-23,0-22.4-24.9-22.4-33.2C135.6,104.9,147.9,100.5,158,100.5L158,100.5
	z M227.8,133.1c0-14-0.7-59.7,58.9-59.7c23.9,0,33.9,7.6,33.9,7.6l-8,24.9c0,0-10-5.5-23-5.5c-16.6,0-27.2,9.6-27.2,26.6v12.2
	c0,16.3,10.2,27.2,27.3,27.2c11.8,0,22.7-5.5,22.7-5.5l8,24.4c0,0-9.1,7.6-33.5,7.6C230.2,192.9,227.8,151.8,227.8,133.1
	L227.8,133.1z M514.6,73.4c32.3,0,47.2,24.3,47.2,58.7c0,43.4-19.1,60.7-47.3,60.7c-16.1,0-28-6.8-34.4-19.4v17.1h-32.7V18.1l34.7-3
	v76.6C487.2,78.3,503.6,73.4,514.6,73.4L514.6,73.4z M504.8,100.5c-13.5,0-22.7,9.4-22.7,25.5v16.4c0,10.8,6.3,23.5,22.7,23.5
	c23,0,22.4-24.9,22.4-33.2C527.3,104.9,515,100.5,504.8,100.5z M380.8,73.5c-36.6,0-55.9,19.9-55.9,55.4v6.6
	c0,46,27.1,57.8,59.5,57.8c31.4,0,45.7-8.8,45.7-8.8l-6.5-23.4c0,0-16.7,7.1-35,7.1c-18.9,0-27.1-4.8-29.2-23h73.4v-18.8
	C432.7,88,411.1,73.5,380.8,73.5L380.8,73.5z M381.6,96.9c12.7,0,20.9,7.8,20.4,25.8h-42.7C360.1,103.7,369,96.9,381.6,96.9
	L381.6,96.9z M631,73.3c-37.6,0-57.3,21.2-57.3,59.1c0,52.1,34.1,60.4,57.4,60.4c34.1,0,56.8-18.4,56.8-60
	C687.9,89.6,662.3,73.3,631,73.3z M630.5,100.6c16.5,0,23.1,12.4,23.1,26.4v12.1c0,17-9.2,26.9-23.1,26.9
	c-13.1,0-22.2-9.2-22.2-26.9V127C608.2,108.2,619.1,100.6,630.5,100.6z M757,73.3c-37.6,0-57.3,21.2-57.3,59.1
	c0,52.1,34.1,60.4,57.4,60.4c34.1,0,56.8-18.4,56.8-60C813.9,89.6,788.3,73.3,757,73.3z M756.5,100.6c16.5,0,23.1,12.4,23.1,26.4
	v12.1c0,17-9.2,26.9-23.1,26.9c-13.1,0-22.2-9.2-22.2-26.9V127C734.2,108.2,745.1,100.6,756.5,100.6z M827,190.5V18.1l34.8-3v115.6
	l34.5-55.1H933l-36,57l37.4,57.9h-36.8l-35.8-56.2v56.2H827z"/>
</svg>
