<?xml version="1.0" encoding="utf-8"?>
<!-- Generator: Adobe Illustrator 27.4.1, SVG Export Plug-In . SVG Version: 6.00 Build 0)  -->
<svg version="1.1" id="Layer_1" xmlns="http://www.w3.org/2000/svg" xmlns:xlink="http://www.w3.org/1999/xlink" x="0px" y="0px"
	 viewBox="0 0 88 88" style="enable-background:new 0 0 88 88;" xml:space="preserve">
<style type="text/css">
	.881{fill:#C6C6C6;}
</style>
<path class="881" d="M32.7,26c2.2,0,4,3.4,4,7.7s-1.8,7.7-4,7.7s-4-3.4-4-7.7S30.5,26,32.7,26z M53.7,26c-2.6,0-4,4-4,7.7
	s1.4,7.7,4,7.7s4-4,4-7.7S56.3,26,53.7,26z M43.6,57.4c-6.9,0.2-12.9-2.8-18.8-5.9c-2.1-1.2-4.7,0.6-4,2.7c2.8,9,11.9,15.6,23,15.6
	c10.8,0,20-6.5,23-15.6c0.7-2.2-2-4-4.3-2.8c-5.6,3-11.8,5.6-18.2,5.9C43.8,57.4,43.6,57.4,43.6,57.4z M43.6,83.8
	c-22,0-40.1-18.1-40.1-40.1S21.6,3.6,43.6,3.6s40.1,18.1,40.1,40.1S65.6,83.8,43.6,83.8z M43.6,7.6C23.8,7.6,7.5,23.8,7.5,43.7
	s16.3,36.1,36.1,36.1s36.1-16.3,36.1-36.1C79.7,23.8,63.5,7.6,43.6,7.6z"/>
</svg>
