<?xml version="1.0" encoding="utf-8"?>
<!-- Generator: Adobe Illustrator 27.4.1, SVG Export Plug-In . SVG Version: 6.00 Build 0)  -->
<svg version="1.1" id="Layer_1" xmlns="http://www.w3.org/2000/svg" xmlns:xlink="http://www.w3.org/1999/xlink" x="0px" y="0px"
	 viewBox="0 0 144 144" style="enable-background:new 0 0 144 144;" xml:space="preserve">
<path d="M134.6,38.2l-32.2,8.6c-1.2,0.3-1.6,1.8-0.7,2.7l6.4,6.4L81.3,82.7L55.1,56.5c-2.5-2.5-6.6-2.5-9.2,0L9.7,92.8
	c-3,3-3,7.8,0,10.8c1.5,1.5,3.5,2.2,5.4,2.2s3.9-0.7,5.4-2.2l30-30l26.2,26.2c2.5,2.5,6.6,2.5,9.2,0l33-33l6.4,6.4
	c0.9,0.9,2.4,0.5,2.7-0.7l8.6-32.2C136.9,39,135.8,37.9,134.6,38.2z"/>
</svg>
