<?xml version="1.0" encoding="utf-8"?>
<!-- Generator: Adobe Illustrator 27.2.0, SVG Export Plug-In . SVG Version: 6.00 Build 0)  -->
<svg version="1.1" id="Layer_1" xmlns="http://www.w3.org/2000/svg" xmlns:xlink="http://www.w3.org/1999/xlink" x="0px" y="0px"
	 viewBox="0 0 37 32.6" style="enable-background:new 0 0 37 32.6;" xml:space="preserve">
<style type="text/css">
	.st0{fill:#F47788;}
</style>
<path class="st0" d="M36.4,27.8L21.3,1.9C20.6,0.7,19.6,0,18.5,0s-2.1,0.7-2.8,1.9L0.6,27.8c-0.7,1.2-0.8,2.4-0.2,3.3
	c0.5,0.9,1.6,1.5,3,1.5h30.4c1.4,0,2.5-0.5,3-1.5C37.2,30.2,37.1,29,36.4,27.8z M18.5,28.3c-1,0-1.7-0.7-1.7-1.7s0.7-1.7,1.7-1.7
	s1.7,0.7,1.7,1.7C20.3,27.6,19.4,28.3,18.5,28.3z M20.3,20.9c0,1-0.7,1.7-1.7,1.7s-1.7-0.7-1.7-1.7V10c0-1,0.7-1.7,1.7-1.7
	S20.3,9,20.3,10V20.9z"/>
</svg>
