<?xml version="1.0" encoding="utf-8"?>
<!-- Generator: Adobe Illustrator 27.4.1, SVG Export Plug-In . SVG Version: 6.00 Build 0)  -->
<svg version="1.1" id="Layer_1" xmlns="http://www.w3.org/2000/svg" xmlns:xlink="http://www.w3.org/1999/xlink" x="0px" y="0px"
	 viewBox="0 0 768 768" enable-background="new 0 0 768 768" xml:space="preserve">
<path fill="#FDFDFD" d="M240,120h288c61.9,0,112,50.1,112,112v288c0,61.9-50.1,112-112,112H240c-61.9,0-112-50.1-112-112V232
	C128,170.1,178.1,120,240,120z"/>
<path fill="none" stroke="#DBDBDB" stroke-width="4" d="M240,122h288c60.8,0,110,49.2,110,110v288c0,60.8-49.2,110-110,110H240
	c-60.8,0-110-49.2-110-110V232C130,171.2,179.2,122,240,122z"/>
<path fill="#222222" d="M407.8,460.3h-59V336.9h20.4v-41.2h-83.7v41.2h20.4v123.4h-20.4v41.2h165.3v-67.1h-43V460.3z"/>
<path fill="#222222" stroke="#222222" stroke-width="1.5" d="M491.1,293.7l-0.4-0.4c-4.4-4-11.4-7.5-20.8-10.4l-0.5-0.2v-0.6v-27.4
	V254l0.8,0.1c2.9,0.3,5.7,0.8,8.3,1.5l0.6,0.2v0.6v12.4h14.8v-22.4l-1.3-0.6c-7-3.1-14.5-5-22.5-5.6l-0.7-0.1v-0.7v-15.1h-13.9v15.3
	v0.6l-0.6,0.1c-8.1,1.3-14.3,4.2-18.5,8.5c-4.7,4.8-7.1,10.9-7.1,18.3c0,7.3,2.5,13.5,7.3,18l0,0c4.3,3.9,10.4,7.2,18.4,9.8l0.5,0.2
	v0.5v21.6l0,7.7c-0.3-0.1-9.7-1.8-10-1.9l-0.5-0.2v-0.6v-12.4h-14.8v22.6l1.3,0.5c7.6,3.1,15.4,4.9,23.3,5.4l0.7,0v0.7v15.1h13.9
	V339v-0.7l0.7-0.1c8.4-1.1,15.1-3.7,19.9-7.7c5.5-4.6,8.3-11.2,8.3-19.8C498.2,303.9,495.9,298.2,491.1,293.7z M453.7,254.7v22.5
	v1.1l-1-0.4c-3.1-1.3-5.5-3-7.1-5c-1.6-2-2.4-4.4-2.4-7.2c0-3.1,0.8-5.7,2.4-7.7c1.6-2,4.1-3.3,7.2-4.1l0.9-0.2V254.7z M479.5,320.1
	c-2.1,2.1-5.2,3.4-9.2,4.1l-0.9,0.2v-0.9v-25l4.2,1.8c3.4,1.7,5.3,3.4,5.9,4c2.1,2.2,3.1,4.7,3.1,7.6
	C482.6,315.3,481.6,318.1,479.5,320.1z"/>
</svg>
