<?xml version="1.0" encoding="utf-8"?>
<!-- Generator: Adobe Illustrator 27.4.1, SVG Export Plug-In . SVG Version: 6.00 Build 0)  -->
<svg version="1.1" id="Layer_1" xmlns="http://www.w3.org/2000/svg" xmlns:xlink="http://www.w3.org/1999/xlink" x="0px" y="0px"
	 viewBox="0 0 25 25" style="enable-background:new 0 0 25 25;" xml:space="preserve">
<style type="text/css">
	.st0{fill:#4149B0;}
	.st1{fill:url(#SVGID_1_);}
	.st2{fill:#FFFFFF;enable-background:new    ;}
</style>
<g>
	<path class="st0" d="M18.3,23.4H6.5c-2.8,0-5.2-2.3-5.2-5.2V6.4c0-2.8,2.3-5.2,5.2-5.2h11.8c2.8,0,5.2,2.3,5.2,5.2v11.8
		C23.4,21.1,21.1,23.4,18.3,23.4z"/>
	<g>
		<linearGradient id="SVGID_1_" gradientUnits="userSpaceOnUse" x1="8.3725" y1="17.3851" x2="18.2158" y2="17.3851">
			<stop  offset="0" style="stop-color:#BDC2DB"/>
			<stop  offset="1" style="stop-color:#FFFFFF"/>
		</linearGradient>
		<path class="st1" d="M18.2,16.3v1.4c0,0.9-0.7,1.6-1.6,1.6h-2.9H8.4c0.9,0,1.6-0.7,1.6-1.6v-1.4c0-0.4,0.4-0.8,0.8-0.8h6.6
			C17.9,15.5,18.2,15.8,18.2,16.3z"/>
		<path class="st2" d="M11.3,5.4c0.4,0,0.8,0.4,0.8,0.8v11.5c0,0.9,0.7,1.6,1.6,1.6H8.4c-0.9,0-1.6-0.7-1.6-1.6V6.2
			c0-0.4,0.4-0.8,0.8-0.8H11.3z"/>
	</g>
</g>
</svg>
