<?xml version="1.0" encoding="utf-8"?>
<!-- Generator: Adobe Illustrator 27.4.1, SVG Export Plug-In . SVG Version: 6.00 Build 0)  -->
<svg version="1.1" id="Layer_1" xmlns="http://www.w3.org/2000/svg" xmlns:xlink="http://www.w3.org/1999/xlink" x="0px" y="0px"
	 viewBox="0 0 144 144" style="enable-background:new 0 0 144 144;" xml:space="preserve">
<g transform="translate(1.4065934065934016 1.4065934065934016) scale(2.81 2.81)">
	<path d="M26.1,23l6.3-6.3L9.1,3.4C8,2.8,7,2.7,6.3,3L26.1,23z"/>
	<path d="M4.7,5.7c0,0.1,0,0.2,0,0.3v38.4v0.1L24,25.1L4.7,5.7z"/>
	<path d="M26.1,27.2L6.1,47.4C6.8,47.8,7.8,47.7,9,47l23.5-13.4L26.1,27.2z"/>
	<path d="M43,22.7l-7.7-4.4l-6.9,6.8l7,7l7.6-4.4C45.4,26.3,45.4,24,43,22.7z"/>
</g>
</svg>
