<?xml version="1.0" encoding="utf-8"?>
<!-- Generator: Adobe Illustrator 27.4.1, SVG Export Plug-In . SVG Version: 6.00 Build 0)  -->
<svg version="1.1" id="Layer_1" xmlns="http://www.w3.org/2000/svg" xmlns:xlink="http://www.w3.org/1999/xlink" x="0px" y="0px"
	 viewBox="0 0 600 600" style="enable-background:new 0 0 600 600;" xml:space="preserve">
<style type="text/css">
	.st0{fill:url(#SVGID_1_);}
	.st1{fill:#FFFFFF;enable-background:new    ;}
</style>
<g>
	<linearGradient id="SVGID_1_" gradientUnits="userSpaceOnUse" x1="164.4033" y1="510.1139" x2="540.9678" y2="510.1139">
		<stop  offset="0" style="stop-color:#B0B5CC"/>
		<stop  offset="1" style="stop-color:#FFFFFF"/>
	</linearGradient>
	<path class="st0" d="M541,478.9v29.2c0,45.1-36.6,81.7-81.7,81.7H352.8H164.4c36.8,0,34.4-29.9,34.4-66.7v-44.1
		c0-26.8,21.7-48.5,48.5-48.5h245.2C519.3,430.5,541,452.2,541,478.9z"/>
	<path class="st1" d="M230.7,10.3c31.1,0,56.4,25.2,56.4,56.4v456.3c0,36.8,29.9,66.7,66.7,66.7H155c-49.5,0-89.6-40.1-89.6-89.6
		V66.7c0-31.1,25.2-56.4,56.4-56.4H230.7z"/>
</g>
</svg>
