<?xml version="1.0" encoding="utf-8"?>
<!-- Generator: Adobe Illustrator 27.4.1, SVG Export Plug-In . SVG Version: 6.00 Build 0)  -->
<svg version="1.1" id="Layer_1" xmlns="http://www.w3.org/2000/svg" xmlns:xlink="http://www.w3.org/1999/xlink" x="0px" y="0px"
	 viewBox="0 0 363.3 111.9" style="enable-background:new 0 0 363.3 111.9;" xml:space="preserve">
<style type="text/css">
	.st0{fill:#0A0C1C;}
	.st1{fill:#4149B0;}
	.st2{fill:url(#SVGID_1_);}
	.st3{fill:#FFFFFF;}
</style>
<g>
	<g>
		<path class="st0" d="M132.9,82.7V33.1h8.8v42.1h20.6v7.4L132.9,82.7L132.9,82.7z"/>
		<path class="st0" d="M185.2,83.6c-3.5,0-6.6-0.8-9.4-2.3s-5-3.8-6.6-6.7c-1.6-2.9-2.4-6.4-2.4-10.6c0-4,0.8-7.5,2.5-10.4
			s3.8-5.1,6.4-6.7c2.6-1.6,5.4-2.3,8.3-2.3c3.4,0,6.2,0.8,8.5,2.3s4,3.6,5.1,6.3s1.7,5.7,1.7,9.1c0,0.8,0,1.6-0.1,2.3
			c-0.1,0.8-0.2,1.5-0.3,2.2h-25.6v-6.7h18.3c0-2.7-0.6-4.8-1.8-6.3s-3.1-2.3-5.6-2.3c-1.4,0-2.8,0.4-4.1,1.1
			c-1.3,0.8-2.5,2-3.3,3.9c-0.9,1.8-1.3,4.3-1.3,7.6c0,2.9,0.5,5.3,1.5,7.2c1,1.8,2.3,3.2,4,4.1s3.5,1.3,5.4,1.3
			c1.6,0,3.1-0.2,4.6-0.7c1.4-0.5,2.8-1.1,4.1-1.9l3,5.6c-1.7,1.2-3.7,2.2-5.9,2.9C189.9,83.2,187.6,83.6,185.2,83.6z"/>
		<path class="st0" d="M220.7,83.6c-4.6,0-8.4-1.7-11.1-5.2c-2.8-3.4-4.2-8.2-4.2-14.3c0-4,0.7-7.5,2.2-10.5
			c1.5-2.9,3.4-5.2,5.8-6.7c2.4-1.6,5-2.3,7.7-2.3c2.1,0,3.9,0.4,5.4,1.1c1.5,0.7,2.9,1.7,4.4,3l-0.3-6V29.1h8.7v53.5h-7.2l-0.6-4
			h-0.3c-1.4,1.4-3,2.5-4.8,3.5C224.6,83.1,222.7,83.6,220.7,83.6z M222.8,76.4c1.5,0,2.8-0.3,4.1-1s2.5-1.7,3.7-3.1V54.8
			c-1.3-1.2-2.5-2-3.8-2.4c-1.3-0.5-2.5-0.7-3.8-0.7c-1.6,0-3.1,0.5-4.4,1.4c-1.3,1-2.3,2.3-3.1,4.2c-0.8,1.8-1.2,4-1.2,6.7
			c0,4,0.7,7,2.2,9.2C218,75.3,220.1,76.4,222.8,76.4z"/>
		<path class="st0" d="M263.3,99.1c-3,0-5.6-0.4-8-1.1c-2.3-0.7-4.2-1.8-5.5-3.2c-1.3-1.4-2-3.2-2-5.4c0-1.6,0.5-3,1.4-4.4
			c0.9-1.3,2.2-2.5,3.9-3.6v-0.3c-0.9-0.6-1.7-1.4-2.3-2.4c-0.7-1-1-2.3-1-3.8c0-1.4,0.4-2.7,1.2-3.9c0.8-1.2,1.8-2.2,2.8-3v-0.3
			c-1.3-1-2.4-2.3-3.4-4c-1-1.7-1.5-3.7-1.5-5.8c0-2.8,0.7-5.2,2-7.2c1.4-2,3.2-3.5,5.4-4.5s4.6-1.6,7.3-1.6c1,0,2,0.1,3,0.2
			c1,0.2,1.8,0.4,2.5,0.7h13.3v6.4h-7v0.3c0.7,0.8,1.3,1.6,1.7,2.6c0.4,1,0.6,2.1,0.6,3.4c0,2.7-0.6,5-1.9,6.9
			c-1.3,1.9-3,3.3-5.1,4.2c-2.1,1-4.5,1.4-7.1,1.4c-0.8,0-1.6-0.1-2.5-0.2c-0.9-0.2-1.7-0.4-2.6-0.8c-0.5,0.5-0.9,1-1.3,1.5
			s-0.5,1.2-0.5,2c0,1.1,0.5,1.9,1.4,2.5s2.5,0.9,4.7,0.9h6.6c4.5,0,7.9,0.7,10.2,2.2c2.3,1.4,3.4,3.8,3.4,7c0,2.4-0.8,4.6-2.4,6.6
			s-3.9,3.6-6.9,4.7C270.9,98.5,267.4,99.1,263.3,99.1z M264.7,93.4c2,0,3.7-0.3,5.2-0.8s2.7-1.3,3.6-2.2c0.9-0.9,1.3-1.9,1.3-3
			c0-1.5-0.6-2.5-1.7-3s-2.8-0.8-4.9-0.8h-5.1c-1,0-1.9-0.1-2.7-0.2c-0.8-0.1-1.6-0.2-2.4-0.4c-1,0.8-1.7,1.5-2.2,2.3
			s-0.7,1.7-0.7,2.6c0,1.7,0.9,3,2.6,3.9C259.5,93,261.8,93.4,264.7,93.4z M263.8,65.4c1.2,0,2.2-0.3,3.2-0.9s1.8-1.4,2.3-2.6
			c0.6-1.1,0.9-2.5,0.9-4.1c0-2.4-0.6-4.2-1.9-5.5c-1.2-1.3-2.8-1.9-4.6-1.9c-1.8,0-3.4,0.6-4.6,1.9c-1.3,1.3-1.9,3.1-1.9,5.5
			c0,1.6,0.3,2.9,0.9,4.1s1.4,2,2.3,2.6C261.5,65.1,262.6,65.4,263.8,65.4z"/>
		<path class="st0" d="M304.6,83.6c-3.5,0-6.6-0.8-9.4-2.3s-5-3.8-6.6-6.7c-1.6-2.9-2.4-6.4-2.4-10.6c0-4,0.8-7.5,2.5-10.4
			s3.8-5.1,6.4-6.7c2.6-1.6,5.4-2.3,8.3-2.3c3.4,0,6.2,0.8,8.5,2.3s4,3.6,5.1,6.3s1.7,5.7,1.7,9.1c0,0.8,0,1.6-0.1,2.3
			c-0.1,0.8-0.2,1.5-0.3,2.2h-25.6v-6.7H311c0-2.7-0.6-4.8-1.8-6.3c-1.2-1.5-3.1-2.3-5.6-2.3c-1.4,0-2.8,0.4-4.1,1.1
			c-1.3,0.8-2.5,2-3.3,3.9c-0.9,1.8-1.3,4.3-1.3,7.6c0,2.9,0.5,5.3,1.5,7.2c1,1.8,2.4,3.2,4,4.1c1.7,0.9,3.5,1.3,5.4,1.3
			c1.6,0,3.1-0.2,4.6-0.7s2.8-1.1,4.1-1.9l3,5.6c-1.7,1.2-3.7,2.2-5.9,2.9S307,83.6,304.6,83.6z"/>
		<path class="st0" d="M339.4,83.4c-4.3,0-7.3-1.3-9.1-3.8c-1.8-2.5-2.7-5.7-2.7-9.7V52.3h-5.3v-6.5l5.8-0.4l1.1-11.7h7.3v11.7h9.5
			v6.9h-9.5v17.6c0,2.2,0.4,3.8,1.3,4.9s2.2,1.6,3.9,1.6c0.7,0,1.3,0,2-0.2c0.7-0.1,1.3-0.3,1.9-0.6l1.6,6.1c-1,0.5-2.1,0.8-3.4,1.1
			C342.3,83.3,340.9,83.4,339.4,83.4z"/>
	</g>
</g>
<g>
	<path class="st1" d="M85.1,101.1H32.4c-9.9,0-18.1-8.1-18.1-18.1V30.2c0-9.9,8.1-18.1,18.1-18.1h52.9c9.9,0,18.1,8.1,18.1,18.1V83
		C103.3,93,95.1,101.1,85.1,101.1z"/>
	<g>
		
			<linearGradient id="SVGID_1_" gradientUnits="userSpaceOnUse" x1="45.9062" y1="37.0016" x2="82.2851" y2="37.0016" gradientTransform="matrix(1 0 0 -1 0 114)">
			<stop  offset="0" style="stop-color:#B0B5CC"/>
			<stop  offset="1" style="stop-color:#FFFFFF"/>
		</linearGradient>
		<path class="st2" d="M82.3,73.9v2.9c0,4.3-3.5,7.9-7.9,7.9H64H45.9c3.6,0,3.3-2.9,3.3-6.4V74c0-2.6,2.1-4.7,4.7-4.7h23.7
			C80.2,69.2,82.3,71.3,82.3,73.9z"/>
		<path class="st3" d="M52.3,28.6c3,0,5.4,2.4,5.4,5.4v44.1c0,3.6,2.9,6.4,6.4,6.4H45c-4.8,0-8.7-3.9-8.7-8.7V34
			c0-3,2.4-5.4,5.4-5.4C41.8,28.6,52.3,28.6,52.3,28.6z"/>
	</g>
</g>
</svg>
