<?xml version="1.0" encoding="utf-8"?>
<!-- Generator: Adobe Illustrator 27.4.1, SVG Export Plug-In . SVG Version: 6.00 Build 0)  -->
<svg version="1.1" id="Layer_1" xmlns="http://www.w3.org/2000/svg" xmlns:xlink="http://www.w3.org/1999/xlink" x="0px" y="0px"
	 viewBox="0 0 413.1 127.2" style="enable-background:new 0 0 413.1 127.2;" xml:space="preserve">
<style type="text/css">
	.st0{fill:#F4F4F4;}
	.st1{fill:#4149B0;}
	.st2{fill:url(#SVGID_1_);}
	.st3{fill:#FFFFFF;enable-background:new    ;}
</style>
<g>
	<g>
		<path class="st0" d="M158.5,94.3V38.5h9.9V86h23.2v8.4L158.5,94.3L158.5,94.3z"/>
		<path class="st0" d="M217.3,95.3c-3.9,0-7.5-0.9-10.6-2.6c-3.2-1.7-5.6-4.2-7.5-7.5c-1.8-3.3-2.7-7.2-2.7-11.9
			c0-4.5,0.9-8.5,2.8-11.7c1.9-3.3,4.3-5.8,7.3-7.5c3-1.8,6.1-2.6,9.4-2.6c3.8,0,7,0.9,9.6,2.6c2.6,1.7,4.5,4.1,5.8,7
			c1.3,3,1.9,6.4,1.9,10.3c0,0.9,0,1.8-0.1,2.6c-0.1,0.9-0.2,1.7-0.4,2.5H204V69h20.6c0-3-0.7-5.4-2-7.1c-1.4-1.7-3.5-2.6-6.3-2.6
			c-1.6,0-3.1,0.4-4.6,1.3c-1.5,0.9-2.8,2.3-3.8,4.4c-1,2-1.5,4.9-1.5,8.5c0,3.3,0.6,6,1.7,8.1c1.1,2.1,2.6,3.6,4.5,4.6
			s3.9,1.5,6.1,1.5c1.8,0,3.5-0.3,5.2-0.8c1.6-0.5,3.1-1.2,4.6-2.1l3.4,6.3c-1.9,1.4-4.1,2.4-6.6,3.2
			C222.6,94.9,220,95.3,217.3,95.3z"/>
		<path class="st0" d="M257.3,95.3c-5.2,0-9.4-1.9-12.5-5.8s-4.7-9.2-4.7-16.1c0-4.5,0.8-8.5,2.5-11.8s3.9-5.8,6.6-7.6
			c2.7-1.8,5.6-2.6,8.7-2.6c2.4,0,4.4,0.4,6.1,1.2s3.3,1.9,4.9,3.4l-0.3-6.7V34.1h9.8v60.2h-8.1l-0.7-4.5h-0.3
			c-1.5,1.5-3.3,2.8-5.4,3.9C261.7,94.8,259.5,95.3,257.3,95.3z M259.7,87.2c1.6,0,3.2-0.4,4.6-1.2c1.4-0.8,2.8-1.9,4.2-3.5V63
			c-1.4-1.3-2.8-2.2-4.3-2.7c-1.4-0.5-2.8-0.8-4.3-0.8c-1.8,0-3.5,0.5-4.9,1.6s-2.6,2.6-3.5,4.7c-0.9,2-1.3,4.5-1.3,7.5
			c0,4.5,0.8,7.9,2.5,10.3C254.3,86,256.6,87.2,259.7,87.2z"/>
		<path class="st0" d="M305.3,112.8c-3.4,0-6.3-0.4-9-1.2c-2.6-0.8-4.7-2-6.2-3.6s-2.3-3.7-2.3-6.1c0-1.8,0.5-3.4,1.6-4.9
			s2.5-2.9,4.4-4.1v-0.3c-1-0.7-1.9-1.6-2.6-2.7s-1.1-2.6-1.1-4.3c0-1.6,0.5-3.1,1.4-4.4c0.9-1.4,2-2.5,3.2-3.3v-0.3
			c-1.4-1.1-2.7-2.6-3.8-4.5c-1.1-1.9-1.7-4.1-1.7-6.6c0-3.2,0.8-5.9,2.3-8.1c1.5-2.2,3.6-4,6.1-5.1c2.5-1.2,5.2-1.7,8.2-1.7
			c1.1,0,2.2,0.1,3.3,0.3c1.1,0.2,2,0.4,2.8,0.8h15V60h-7.8l0,0c0.8,0.9,1.4,1.8,1.9,2.9c0.5,1.1,0.7,2.4,0.7,3.9
			c0,3.1-0.7,5.7-2.1,7.8c-1.4,2.1-3.3,3.7-5.7,4.8c-2.4,1.1-5.1,1.6-8,1.6c-0.9,0-1.8-0.1-2.8-0.3c-1-0.2-1.9-0.5-2.9-0.9
			c-0.6,0.6-1.1,1.1-1.5,1.7s-0.6,1.3-0.6,2.3c0,1.2,0.5,2.1,1.5,2.8c1,0.7,2.8,1,5.3,1h7.4c5.1,0,8.9,0.8,11.5,2.4s3.9,4.2,3.9,7.9
			c0,2.7-0.9,5.2-2.7,7.5c-1.8,2.2-4.4,4-7.8,5.3C313.8,112.2,309.8,112.8,305.3,112.8z M306.8,106.4c2.2,0,4.2-0.3,5.9-0.9
			c1.7-0.6,3-1.4,4-2.5s1.5-2.2,1.5-3.4c0-1.7-0.6-2.8-1.9-3.3c-1.3-0.6-3.1-0.9-5.5-0.9H305c-1.1,0-2.2-0.1-3.1-0.2
			s-1.8-0.3-2.6-0.4c-1.1,0.9-1.9,1.7-2.4,2.6s-0.8,1.9-0.8,2.9c0,1.9,1,3.3,2.9,4.4C300.9,105.9,303.5,106.4,306.8,106.4z
			 M305.8,74.9c1.3,0,2.5-0.3,3.6-1s2-1.6,2.6-2.9c0.7-1.3,1-2.8,1-4.6c0-2.7-0.7-4.7-2.1-6.1c-1.4-1.4-3.1-2.1-5.2-2.1
			c-2,0-3.8,0.7-5.2,2.1c-1.4,1.4-2.1,3.5-2.1,6.1c0,1.8,0.3,3.3,1,4.6c0.7,1.3,1.6,2.2,2.6,2.9C303.2,74.5,304.4,74.9,305.8,74.9z"
			/>
		<path class="st0" d="M351.7,95.3c-3.9,0-7.5-0.9-10.6-2.6c-3.2-1.7-5.6-4.2-7.5-7.5c-1.8-3.3-2.7-7.2-2.7-11.9
			c0-4.5,0.9-8.5,2.8-11.7c1.9-3.3,4.3-5.8,7.3-7.5c3-1.8,6.1-2.6,9.4-2.6c3.8,0,7,0.9,9.6,2.6c2.6,1.7,4.5,4.1,5.8,7
			c1.3,3,1.9,6.4,1.9,10.3c0,0.9,0,1.8-0.1,2.6c-0.1,0.9-0.2,1.7-0.4,2.5h-28.8V69H359c0-3-0.7-5.4-2-7.1c-1.4-1.7-3.5-2.6-6.3-2.6
			c-1.6,0-3.1,0.4-4.6,1.3c-1.5,0.9-2.8,2.3-3.8,4.4c-1,2-1.5,4.9-1.5,8.5c0,3.3,0.6,6,1.7,8.1s2.6,3.6,4.5,4.6s3.9,1.5,6.1,1.5
			c1.8,0,3.5-0.3,5.2-0.8s3.1-1.2,4.6-2.1l3.4,6.3c-1.9,1.4-4.1,2.4-6.6,3.2C356.9,94.9,354.4,95.3,351.7,95.3z"/>
		<path class="st0" d="M390.9,95.2c-4.8,0-8.3-1.4-10.3-4.2c-2-2.8-3-6.5-3-11V60.2h-6v-7.3l6.5-0.4l1.2-13.1h8.2v13.1h10.7v7.8
			h-10.7V80c0,2.4,0.5,4.3,1.5,5.5s2.4,1.8,4.4,1.8c0.7,0,1.5-0.1,2.2-0.2s1.4-0.3,2.1-0.7l1.8,6.9c-1.1,0.5-2.4,0.9-3.8,1.3
			C394.1,95,392.6,95.2,390.9,95.2z"/>
	</g>
</g>
<g>
	<path class="st1" d="M95.4,112.9H38.1c-10.8,0-19.6-8.8-19.6-19.6V35.9c0-10.8,8.8-19.6,19.6-19.6h57.4c10.8,0,19.6,8.8,19.6,19.6
		v57.4C115.1,104.1,106.2,112.9,95.4,112.9z"/>
	<g>
		<linearGradient id="SVGID_1_" gradientUnits="userSpaceOnUse" x1="52.7744" y1="86.6537" x2="92.2917" y2="86.6537">
			<stop  offset="0" style="stop-color:#B0B5CC"/>
			<stop  offset="1" style="stop-color:#FFFFFF"/>
		</linearGradient>
		<path class="st2" d="M92.3,83.4v3.1c0,4.7-3.8,8.6-8.6,8.6H72.5H52.8c3.9,0,3.6-3.1,3.6-7v-4.6c0-2.8,2.3-5.1,5.1-5.1h25.7
			C90,78.3,92.3,80.6,92.3,83.4z"/>
		<path class="st3" d="M59.7,34.2c3.3,0,5.9,2.6,5.9,5.9V88c0,3.9,3.1,7,7,7H51.8c-5.2,0-9.4-4.2-9.4-9.4V40.1
			c0-3.3,2.6-5.9,5.9-5.9H59.7z"/>
	</g>
</g>
</svg>
