<?xml version="1.0" encoding="utf-8"?>
<!-- Generator: Adobe Illustrator 27.4.1, SVG Export Plug-In . SVG Version: 6.00 Build 0)  -->
<svg version="1.1" id="Layer_1" xmlns="http://www.w3.org/2000/svg" xmlns:xlink="http://www.w3.org/1999/xlink" x="0px" y="0px"
	 viewBox="0 0 144 144" style="enable-background:new 0 0 144 144;" xml:space="preserve">
<style type="text/css">
	.st0{fill:#FFFFFF;stroke:#000000;stroke-width:7;stroke-miterlimit:10;}
	.st1{fill:none;stroke:#000000;stroke-width:7;stroke-miterlimit:10;}
</style>
<g>
	<path class="st0" d="M108.7,128.6H35.3c-9.3,0-16.8-7.5-16.8-16.8V43.3c0-9.3,7.5-16.8,16.8-16.8h73.4c9.3,0,16.8,7.5,16.8,16.8
		v68.4C125.6,121,118,128.6,108.7,128.6z"/>
	<g>
		<line class="st1" x1="72" y1="15.4" x2="72" y2="37.5"/>
		<line class="st1" x1="95" y1="15.4" x2="95" y2="37.5"/>
		<line class="st1" x1="49" y1="15.4" x2="49" y2="37.5"/>
	</g>
	<g>
		<path d="M66.4,67.9h11.2c0.8,0,1.4-0.6,1.4-1.4V55.3c0-0.8-0.6-1.4-1.4-1.4H66.4c-0.8,0-1.4,0.6-1.4,1.4v11.2
			C65,67.3,65.6,67.9,66.4,67.9z"/>
		<path d="M88,55.3v11.2c0,0.8,0.6,1.4,1.4,1.4h11.2c0.8,0,1.4-0.6,1.4-1.4V55.3c0-0.8-0.6-1.4-1.4-1.4H89.4
			C88.6,53.9,88,54.5,88,55.3z"/>
		<path d="M43.4,67.9h11.2c0.8,0,1.4-0.6,1.4-1.4V55.3c0-0.8-0.6-1.4-1.4-1.4H43.4c-0.8,0-1.4,0.6-1.4,1.4v11.2
			C42,67.3,42.6,67.9,43.4,67.9z"/>
		<path d="M66.4,87h11.2c0.8,0,1.4-0.6,1.4-1.4V74.4c0-0.8-0.6-1.4-1.4-1.4H66.4c-0.8,0-1.4,0.6-1.4,1.4v11.2
			C65,86.4,65.6,87,66.4,87z"/>
		<path d="M89.4,87h11.2c0.8,0,1.4-0.6,1.4-1.4V74.4c0-0.8-0.6-1.4-1.4-1.4H89.4c-0.8,0-1.4,0.6-1.4,1.4v11.2
			C88,86.4,88.6,87,89.4,87z"/>
		<path d="M43.4,87h11.2c0.8,0,1.4-0.6,1.4-1.4V74.4c0-0.8-0.6-1.4-1.4-1.4H43.4c-0.8,0-1.4,0.6-1.4,1.4v11.2
			C42,86.4,42.6,87,43.4,87z"/>
		<path d="M66.4,106.2h11.2c0.8,0,1.4-0.6,1.4-1.4V93.5c0-0.8-0.6-1.4-1.4-1.4H66.4c-0.8,0-1.4,0.6-1.4,1.4v11.2
			C65,105.5,65.6,106.2,66.4,106.2z"/>
		<path d="M89.4,106.2h11.2c0.8,0,1.4-0.6,1.4-1.4V93.5c0-0.8-0.6-1.4-1.4-1.4H89.4c-0.8,0-1.4,0.6-1.4,1.4v11.2
			C88,105.5,88.6,106.2,89.4,106.2z"/>
		<path d="M43.4,106.2h11.2c0.8,0,1.4-0.6,1.4-1.4V93.5c0-0.8-0.6-1.4-1.4-1.4H43.4c-0.8,0-1.4,0.6-1.4,1.4v11.2
			C42,105.5,42.6,106.2,43.4,106.2z"/>
	</g>
</g>
</svg>
