<?xml version="1.0" encoding="utf-8"?>
<!-- Generator: Adobe Illustrator 27.4.1, SVG Export Plug-In . SVG Version: 6.00 Build 0)  -->
<svg version="1.1" id="Layer_1" xmlns="http://www.w3.org/2000/svg" xmlns:xlink="http://www.w3.org/1999/xlink" x="0px" y="0px"
	 viewBox="0 0 144 144" style="enable-background:new 0 0 144 144;" xml:space="preserve">
<g>
	<path d="M72,9C37.2,9,9,37.2,9,72c0,34.8,28.2,63,63,63s63-28.2,63-63C135,37.2,106.8,9,72,9z M106.1,79.5H72
		c-4.1,0-7.5-3.4-7.5-7.5V27.1c0-4.1,3.4-7.5,7.5-7.5c4.1,0,7.5,3.4,7.5,7.5v37.4h26.6c4.1,0,7.5,3.4,7.5,7.5
		C113.6,76.1,110.2,79.5,106.1,79.5z"/>
</g>
</svg>
