<?xml version="1.0" encoding="utf-8"?>
<!-- Generator: Adobe Illustrator 27.4.1, SVG Export Plug-In . SVG Version: 6.00 Build 0)  -->
<svg version="1.1" id="Layer_1" xmlns="http://www.w3.org/2000/svg" xmlns:xlink="http://www.w3.org/1999/xlink" x="0px" y="0px"
	 viewBox="0 0 88 88" style="enable-background:new 0 0 88 88;" xml:space="preserve">
<style type="text/css">
	.st32{fill:#C6C6C6;}
</style>
<path class="st32" d="M84,24.9V81h-5.1V30h-23v4.2h-5.1v-24H26.2v30.6H8.3V81H3.2V35.7h17.9V5.1h34.8v19.8H84z M31.3,19.7h4.9v-4.9
	h-4.9V19.7z M41.2,19.7H46v-4.9h-4.9V19.7z M31.3,30h4.9v-4.9h-4.9V30z M13.6,50.2h4.9v-4.9h-4.9V50.2z M41.2,30H46v-4.9h-4.9V30z
	 M69.2,39.7h4.9v-4.9h-4.9V39.7z M69.2,49.8h4.9V45h-4.9V49.8z M70.3,62.9V73c0,1.5-1.1,2.7-2.5,3.2V81c0,0.6-0.4,1.3-1.3,1.3h-7.2
	c-0.6,0-1.3-0.4-1.3-1.3v-4.6H29.4V81c0,0.6-0.4,1.3-1.3,1.3h-7.2c-0.6,0-1.3-0.4-1.3-1.3v-4.9c-1.7,0-3-1.5-3-3.2V62.9
	c0-1.9,1.5-3.4,3.4-3.4l4.2-1.1v-7c0-7,5.7-12.7,12.7-12.7h13.7c7,0,12.7,5.7,12.7,12.7v7l4.2,1.1C69.2,59.5,70.7,61,70.3,62.9z
	 M29.4,57.6h28.9v-6.1c0-4.2-3.4-7.6-7.6-7.6H37c-4.2,0-7.6,3.4-7.6,7.6C29.4,51.5,29.4,57.6,29.4,57.6z M22.6,66.3
	c0,1.5,1.1,2.5,2.5,2.5c1.5,0,2.5-1.3,2.5-2.5c0-1.5-1.3-2.5-2.5-2.5C23.9,63.7,22.6,65,22.6,66.3z M64.8,72.8
	c0-0.6-0.6-1.3-1.3-1.3h-7.2c0-0.2,0.2-0.2,0.2-0.4c0-0.6-0.6-1.3-1.3-1.3H32.1c-0.6,0-1.3,0.6-1.3,1.3c0,0.2,0.2,0.2,0.2,0.4h-7.2
	c-0.6,0-1.3,0.6-1.3,1.3s0.6,1.3,1.3,1.3h39.9C64.4,74.1,64.8,73.4,64.8,72.8z M65.6,66.3c0-1.5-1.3-2.5-2.5-2.5
	c-1.5,0-2.5,1.3-2.5,2.5c0,1.5,1.3,2.5,2.5,2.5S65.4,67.5,65.6,66.3z"/>
</svg>
