<?xml version="1.0" encoding="utf-8"?>
<!-- Generator: Adobe Illustrator 27.4.1, SVG Export Plug-In . SVG Version: 6.00 Build 0)  -->
<svg version="1.1" id="Layer_1" xmlns="http://www.w3.org/2000/svg" xmlns:xlink="http://www.w3.org/1999/xlink" x="0px" y="0px"
	 viewBox="0 0 88 88" style="enable-background:new 0 0 88 88;" xml:space="preserve">
<style type="text/css">
	.st284{fill:none;stroke:#C6C6C6;stroke-width:8;stroke-miterlimit:10;}
</style>
<g>
	<path class="st284" d="M15.6,83.3"/>
	<path class="st284" d="M72.4,47.2c0,1.2-1.6,2-2.4,1.2c-2-1.8-5.4-3.8-11.3-3.8c-11.9,0-13.5,7.7-25.6,7.7c-10.1,0-17.4-7.1-17.4-7.1
		V12.1c0-1.2,1.4-1.8,2.2-1.2c2.6,1.8,7.5,4.4,15.1,4.4c12.1,0,13.7-7.7,25.6-7.7c10.5,0,13.1,6.1,13.7,7.5c0,0.2,0,0.4,0,0.4V47.2z
		"/>
	<line class="st284" x1="15.8" y1="44.6" x2="15.8" y2="84.3"/>
</g>
</svg>
