<?xml version="1.0" encoding="utf-8"?>
<!-- Generator: Adobe Illustrator 27.4.1, SVG Export Plug-In . SVG Version: 6.00 Build 0)  -->
<svg version="1.1" id="Layer_1" xmlns="http://www.w3.org/2000/svg" xmlns:xlink="http://www.w3.org/1999/xlink" x="0px" y="0px"
	 viewBox="0 0 288 288" style="enable-background:new 0 0 288 288;" xml:space="preserve">
<style type="text/css">
	.st0{fill:#292929;}
</style>
<g>
	<polygon class="st0" points="278.2,111.3 207.6,126.7 225.9,145.1 168.5,202.4 106.2,140.2 9.8,236.6 30.1,256.9 106.2,180.9 
		168.5,243.1 246.2,165.4 264.9,184.1 	"/>
	<path class="st0" d="M142.3,31.1c-24.8,0-44.9,20.1-44.9,44.9s20.1,44.9,44.9,44.9s44.9-20.1,44.9-44.9S167.1,31.1,142.3,31.1z
		 M148.3,50.7l-0.4,10.4l-1.6,21.7h-7.7l-1.6-21.7l-0.4-10.4H148.3z M147.3,99.2c-1.3,1.4-3,2.1-5,2.1c-2,0-3.6-0.7-5-2.1
		c-1.3-1.4-2-3.1-2-5.2c0-2.1,0.7-3.8,2-5.2c1.3-1.4,3-2.1,5-2.1c2,0,3.7,0.7,5,2.1c1.3,1.4,2,3.2,2,5.2
		C149.3,96.1,148.6,97.8,147.3,99.2z"/>
</g>
</svg>
