<?xml version="1.0" encoding="utf-8"?>
<!-- Generator: Adobe Illustrator 27.4.1, SVG Export Plug-In . SVG Version: 6.00 Build 0)  -->
<svg version="1.1" id="Layer_1" xmlns="http://www.w3.org/2000/svg" xmlns:xlink="http://www.w3.org/1999/xlink" x="0px" y="0px"
	 viewBox="0 0 144 144" style="enable-background:new 0 0 144 144;" xml:space="preserve">
<path d="M130.6,70.9c0-7.3,4.8-13.5,11.4-15.6c-1.9-8.2-5.3-15.9-9.8-22.8c-6.2,3.5-14.3,2.6-19.6-2.7c-5.2-5.2-6.2-13-2.9-19.2
	c-7-4.3-14.7-7.4-23-9.2c-1.9,6.9-8.3,11.9-15.8,11.9c-7.3,0-13.5-4.8-15.6-11.4c-8.2,2-15.9,5.3-22.8,9.8C36,18,35.1,26,29.8,31.3
	c-5.2,5.2-13,6.2-19.2,2.9c-4.3,7-7.4,14.7-9.2,23c6.9,2,11.9,8.3,11.9,15.8c0,7.3-4.8,13.5-11.4,15.6c2,8.2,5.3,15.9,9.8,22.8
	c6.2-3.5,14.3-2.6,19.5,2.7c5.2,5.2,6.2,13,3,19.2c7,4.3,14.7,7.4,23,9.2c2-6.9,8.3-11.9,15.8-11.9c7.3,0,13.5,4.8,15.6,11.4
	c8.2-1.9,15.9-5.3,22.8-9.8c-3.5-6.2-2.6-14.3,2.7-19.6c5.2-5.2,13-6.2,19.2-2.9c4.3-7,7.4-14.7,9.2-23
	C135.6,84.8,130.6,78.5,130.6,70.9z M72,98.9c-14.7,0-26.5-12-26.5-26.8S57.3,45.3,72,45.3s26.5,12,26.5,26.8S86.7,98.9,72,98.9z"/>
</svg>
