<?xml version="1.0" encoding="utf-8"?>
<!-- Generator: Adobe Illustrator 27.4.1, SVG Export Plug-In . SVG Version: 6.00 Build 0)  -->
<svg version="1.1" id="Layer_1" xmlns="http://www.w3.org/2000/svg" xmlns:xlink="http://www.w3.org/1999/xlink" x="0px" y="0px"
	 viewBox="0 0 288 288" style="enable-background:new 0 0 288 288;" xml:space="preserve">
<g>
	<polygon points="281.6,125 273.7,117 254.4,136.4 247.1,136.4 258.5,125 250.5,117 231.2,136.4 223.9,136.4 235.3,125 227.4,117 
		208,136.4 105.8,136.4 94.7,144.2 105.8,152 208,152 227.4,171.3 235.3,163.4 223.9,152 231.2,152 250.5,171.3 258.5,163.4 
		247.1,152 254.4,152 273.7,171.3 281.6,163.4 262.4,144.2 	"/>
	<path d="M125.3,161.2c-4.9,5.8-12.2,9.6-20.4,9.6c-14.6,0-26.6-11.9-26.6-26.6c0-14.6,11.9-26.6,26.6-26.6c8.2,0,15.5,3.7,20.4,9.6
		h25.5c-6.9-18.7-24.9-32-45.9-32c-27,0-49,22-49,49c0,27,22,49,49,49c21,0,39-13.4,45.9-32H125.3z"/>
	<path d="M179.1,161.2c-7.7,33.8-38,59.1-74.2,59.1c-42,0-76.1-34.1-76.1-76.1c0-42,34.1-76.1,76.1-76.1c36.1,0,66.4,25.3,74.2,59.1
		H202c-8.1-46.3-48.5-81.6-97.1-81.6c-54.3,0-98.6,44.2-98.6,98.6c0,54.3,44.2,98.6,98.6,98.6c48.5,0,89-35.3,97.1-81.6H179.1z"/>
</g>
</svg>
