<?xml version="1.0" encoding="utf-8"?>
<!-- Generator: Adobe Illustrator 27.4.1, SVG Export Plug-In . SVG Version: 6.00 Build 0)  -->
<svg version="1.1" id="Layer_1" xmlns="http://www.w3.org/2000/svg" xmlns:xlink="http://www.w3.org/1999/xlink" x="0px" y="0px"
	 viewBox="0 0 588 298.4" style="enable-background:new 0 0 588 298.4;" xml:space="preserve">
<style type="text/css">
	.st0{fill:#545454;}
	.st1{fill:#292929;}
	.st2{fill:#B0B0B0;}
</style>
<g>
	<g>
		<path class="st0" d="M538.7,217.5H262.8c-3.6,0-5.2-4.6-2.3-6.8l125.4-96.9c8.7-6.8,21-6.8,29.7,0L541,210.7
			C543.9,212.9,542.3,217.5,538.7,217.5z"/>
		<path class="st1" d="M421.1,217.5c8.3-7.5,16.7-14.9,23.7-23.7c5.3-6.6,16.5-20.9,10.9-29.7c-4-6.3-14.6-4.7-20.7-3.9
			c-12.9,1.8-28,7.8-40.9,4.1c-4-1.2-6.5-4-4.7-8.3c3.1-7.2,8.9-12.6,13.6-18.6c5-6.4,9.1-13.5,12-20.7c1-2.5-0.9-4.1-0.9-4.1
			l122.3,94.2l4.7,3.9c2.9,2.2,1.3,6.8-2.3,6.8L421.1,217.5L421.1,217.5z"/>
	</g>
	<g>
		<path class="st0" d="M428,217.5H50.7c-5,0-7.1-6.3-3.2-9.3L219,75.6c12-9.3,28.7-9.3,40.6,0l171.6,132.6
			C435.1,211.2,433,217.5,428,217.5z"/>
		<path class="st1" d="M267.2,217.5c11.3-10.3,22.9-20.4,32.5-32.4c7.2-9,22.5-28.6,14.9-40.6c-11.3-17.7-81.8-13.1-84.9-33.7
			c-1.2-7.5,9.9-14.5,14.8-18.6c5.4-4.5,12.1-9.7,14.4-12.6c2.3-2.9-1.3-5.7-1.3-5.7l167.3,128.9l6.4,5.4l11.4,9.3H428L267.2,217.5
			L267.2,217.5z"/>
	</g>
	<circle class="st0" cx="342.6" cy="73.9" r="18.7"/>
	<path class="st2" d="M435.8,235.8H135.1c-3.9,0-7.1,1.6-7.1,3.5v9.8c0,1.9,3.2,3.5,7.1,3.5h44.3c3.9,0,7.1,1.6,7.1,3.5v2.8
		c0,1.9,3.2,3.5,7.1,3.5h93.7c3.9,0,7.1,1.6,7.1,3.5v0.6c0,1.9,3.2,3.5,7.1,3.5h90c3.9,0,7.1-1.6,7.1-3.5v-0.6
		c0-1.9,3.2-3.5,7.1-3.5h6.1c3.9,0,7.1-1.6,7.1-3.5v-2.8c0-1.9,3.2-3.5,7.1-3.5h9.6c3.9,0,7.1-1.6,7.1-3.5v-9.9
		C442.9,237.3,439.7,235.8,435.8,235.8z"/>
</g>
</svg>
