<?xml version="1.0" encoding="utf-8"?>
<!-- Generator: Adobe Illustrator 27.4.1, SVG Export Plug-In . SVG Version: 6.00 Build 0)  -->
<svg version="1.1" id="Layer_1" xmlns="http://www.w3.org/2000/svg" xmlns:xlink="http://www.w3.org/1999/xlink" x="0px" y="0px"
	 viewBox="0 0 413.1 127.2" style="enable-background:new 0 0 413.1 127.2;" xml:space="preserve">
<style type="text/css">
	.st0{fill:#F4F4F4;}
	.st1{fill:#4149B0;}
	.st2{fill:url(#SVGID_1_);}
	.st3{fill:#FFFFFF;}
</style>
<g>
	<g>
		<path class="st0" d="M158.5,94.3V38.5h9.9V86h23.2v8.4H158.5z"/>
		<path class="st0" d="M217.3,95.3c-3.9,0-7.5-0.9-10.6-2.6c-3.2-1.7-5.6-4.2-7.5-7.5c-1.8-3.3-2.7-7.2-2.7-11.9
			c0-4.5,0.9-8.5,2.8-11.7c1.9-3.3,4.3-5.8,7.3-7.5c3-1.8,6.1-2.6,9.4-2.6c3.8,0,7,0.9,9.6,2.6c2.6,1.7,4.5,4.1,5.8,7
			c1.3,3,1.9,6.4,1.9,10.3c0,0.9,0,1.8-0.1,2.6c-0.1,0.9-0.2,1.7-0.4,2.5h-28.8v-7.5h20.6c0-3-0.7-5.4-2-7.1
			c-1.4-1.7-3.5-2.6-6.3-2.6c-1.6,0-3.1,0.4-4.6,1.3c-1.5,0.9-2.8,2.3-3.8,4.4c-1,2-1.5,4.9-1.5,8.5c0,3.3,0.6,6,1.7,8.1
			c1.1,2.1,2.6,3.6,4.5,4.6c1.9,1,3.9,1.5,6.1,1.5c1.8,0,3.5-0.3,5.2-0.8c1.6-0.5,3.1-1.2,4.6-2.1l3.4,6.3c-1.9,1.4-4.1,2.4-6.6,3.2
			C222.6,94.9,220,95.3,217.3,95.3z"/>
		<path class="st0" d="M257.3,95.3c-5.2,0-9.4-1.9-12.5-5.8c-3.1-3.9-4.7-9.2-4.7-16.1c0-4.5,0.8-8.5,2.5-11.8
			c1.7-3.3,3.9-5.8,6.6-7.6c2.7-1.8,5.6-2.6,8.7-2.6c2.4,0,4.4,0.4,6.1,1.2c1.7,0.8,3.3,1.9,4.9,3.4l-0.3-6.7V34.1h9.8v60.2h-8.1
			l-0.7-4.5h-0.3c-1.5,1.5-3.3,2.8-5.4,3.9C261.7,94.8,259.5,95.3,257.3,95.3z M259.7,87.2c1.6,0,3.2-0.4,4.6-1.2
			c1.4-0.8,2.8-1.9,4.2-3.5V63c-1.4-1.3-2.8-2.2-4.3-2.7c-1.4-0.5-2.8-0.8-4.3-0.8c-1.8,0-3.5,0.5-4.9,1.6c-1.4,1.1-2.6,2.6-3.5,4.7
			c-0.9,2-1.3,4.5-1.3,7.5c0,4.5,0.8,7.9,2.5,10.3C254.3,86,256.6,87.2,259.7,87.2z"/>
		<path class="st0" d="M305.3,112.8c-3.4,0-6.3-0.4-9-1.2c-2.6-0.8-4.7-2-6.2-3.6c-1.5-1.6-2.3-3.7-2.3-6.1c0-1.8,0.5-3.4,1.6-4.9
			c1.1-1.5,2.5-2.9,4.4-4.1v-0.3c-1-0.7-1.9-1.6-2.6-2.7c-0.7-1.1-1.1-2.6-1.1-4.3c0-1.6,0.5-3.1,1.4-4.4c0.9-1.4,2-2.5,3.2-3.3
			v-0.3c-1.4-1.1-2.7-2.6-3.8-4.5c-1.1-1.9-1.7-4.1-1.7-6.6c0-3.2,0.8-5.9,2.3-8.1c1.5-2.2,3.6-4,6.1-5.1c2.5-1.2,5.2-1.7,8.2-1.7
			c1.1,0,2.2,0.1,3.3,0.3c1.1,0.2,2,0.4,2.8,0.8h15v7.3h-7.8V60c0.8,0.9,1.4,1.8,1.9,2.9c0.5,1.1,0.7,2.4,0.7,3.9
			c0,3.1-0.7,5.7-2.1,7.8c-1.4,2.1-3.3,3.7-5.7,4.8c-2.4,1.1-5.1,1.6-8,1.6c-0.9,0-1.8-0.1-2.8-0.3c-1-0.2-1.9-0.5-2.9-0.9
			c-0.6,0.6-1.1,1.1-1.5,1.7c-0.4,0.6-0.6,1.3-0.6,2.3c0,1.2,0.5,2.1,1.5,2.8c1,0.7,2.8,1,5.3,1h7.4c5.1,0,8.9,0.8,11.5,2.4
			c2.6,1.6,3.9,4.2,3.9,7.9c0,2.7-0.9,5.2-2.7,7.5c-1.8,2.2-4.4,4-7.8,5.3C313.8,112.2,309.8,112.8,305.3,112.8z M306.8,106.4
			c2.2,0,4.2-0.3,5.9-0.9c1.7-0.6,3-1.4,4-2.5c1-1.1,1.5-2.2,1.5-3.4c0-1.7-0.6-2.8-1.9-3.3c-1.3-0.6-3.1-0.9-5.5-0.9H305
			c-1.1,0-2.2-0.1-3.1-0.2c-0.9-0.1-1.8-0.3-2.6-0.4c-1.1,0.9-1.9,1.7-2.4,2.6c-0.5,0.9-0.8,1.9-0.8,2.9c0,1.9,1,3.3,2.9,4.4
			C300.9,105.9,303.5,106.4,306.8,106.4z M305.8,74.9c1.3,0,2.5-0.3,3.6-1c1.1-0.7,2-1.6,2.6-2.9c0.7-1.3,1-2.8,1-4.6
			c0-2.7-0.7-4.7-2.1-6.1c-1.4-1.4-3.1-2.1-5.2-2.1c-2,0-3.8,0.7-5.2,2.1c-1.4,1.4-2.1,3.5-2.1,6.1c0,1.8,0.3,3.3,1,4.6
			c0.7,1.3,1.6,2.2,2.6,2.9C303.2,74.5,304.4,74.9,305.8,74.9z"/>
		<path class="st0" d="M351.7,95.3c-3.9,0-7.5-0.9-10.6-2.6c-3.2-1.7-5.6-4.2-7.5-7.5c-1.8-3.3-2.7-7.2-2.7-11.9
			c0-4.5,0.9-8.5,2.8-11.7c1.9-3.3,4.3-5.8,7.3-7.5c3-1.8,6.1-2.6,9.4-2.6c3.8,0,7,0.9,9.6,2.6c2.6,1.7,4.5,4.1,5.8,7
			c1.3,3,1.9,6.4,1.9,10.3c0,0.9,0,1.8-0.1,2.6c-0.1,0.9-0.2,1.7-0.4,2.5h-28.8v-7.5h20.6c0-3-0.7-5.4-2-7.1
			c-1.4-1.7-3.5-2.6-6.3-2.6c-1.6,0-3.1,0.4-4.6,1.3c-1.5,0.9-2.8,2.3-3.8,4.4c-1,2-1.5,4.9-1.5,8.5c0,3.3,0.6,6,1.7,8.1
			c1.1,2.1,2.6,3.6,4.5,4.6c1.9,1,3.9,1.5,6.1,1.5c1.8,0,3.5-0.3,5.2-0.8s3.1-1.2,4.6-2.1l3.4,6.3c-1.9,1.4-4.1,2.4-6.6,3.2
			C356.9,94.9,354.4,95.3,351.7,95.3z"/>
		<path class="st0" d="M390.9,95.2c-4.8,0-8.3-1.4-10.3-4.2c-2-2.8-3-6.5-3-11V60.2h-6v-7.3l6.5-0.4l1.2-13.1h8.2v13.1h10.7v7.8
			h-10.7V80c0,2.4,0.5,4.3,1.5,5.5c1,1.2,2.4,1.8,4.4,1.8c0.7,0,1.5-0.1,2.2-0.2c0.7-0.1,1.4-0.3,2.1-0.7l1.8,6.9
			c-1.1,0.5-2.4,0.9-3.8,1.3C394.1,95,392.6,95.2,390.9,95.2z"/>
	</g>
</g>
<path class="st1" d="M104.6,113.9H28.9c-6.5,0-11.7-5.3-11.7-11.7V26.4c0-6.5,5.3-11.7,11.7-11.7h75.7c6.5,0,11.7,5.3,11.7,11.7
	v75.7C116.4,108.6,111.1,113.9,104.6,113.9L104.6,113.9z"/>
<g>
	
		<linearGradient id="SVGID_1_" gradientUnits="userSpaceOnUse" x1="49.7401" y1="509.8403" x2="91.9162" y2="509.8403" gradientTransform="matrix(1 0 0 1 0 -424)">
		<stop  offset="1.276376e-03" style="stop-color:#A5A9BF"/>
		<stop  offset="1" style="stop-color:#FFFFFF"/>
	</linearGradient>
	<path class="st2" d="M91.9,81.1v6.1c0,3.8-3.1,6.8-6.8,6.8H49.7c3.8,0,6.8-3.1,6.8-6.8v-6.1c0-1.9,1.5-3.4,3.4-3.4h28.4
		C90.4,77.7,91.9,79.2,91.9,81.1L91.9,81.1z"/>
	<path class="st3" d="M62.4,34.5c1.9,0,3.4,1.5,3.4,3.4v49.2c0,3.8,3.1,6.8,6.8,6.8h-23c-3.8,0-6.8-3.1-6.8-6.8V38
		c0-1.9,1.5-3.4,3.4-3.4H62.4L62.4,34.5z"/>
</g>
</svg>
