<?xml version="1.0" encoding="utf-8"?>
<!-- Generator: Adobe Illustrator 27.4.1, SVG Export Plug-In . SVG Version: 6.00 Build 0)  -->
<svg version="1.1" id="Layer_1" xmlns="http://www.w3.org/2000/svg" xmlns:xlink="http://www.w3.org/1999/xlink" x="0px" y="0px"
	 viewBox="0 0 600 600" style="enable-background:new 0 0 600 600;" xml:space="preserve">
<style type="text/css">
	.st0{fill:#202457;}
	.st1{fill:url(#SVGID_1_);}
	.st2{fill:#FFFFFF;}
</style>
<path class="st0" d="M514.8,581.2h-429c-36.7,0-66.5-29.9-66.5-66.5V85.6c0-36.7,29.9-66.5,66.5-66.5h429.1
	c36.7,0,66.5,29.9,66.5,66.5v429.1C581.4,551.4,551.5,581.2,514.8,581.2L514.8,581.2z"/>
<g>
	
		<linearGradient id="SVGID_1_" gradientUnits="userSpaceOnUse" x1="201.948" y1="846.4153" x2="441.948" y2="846.4153" gradientTransform="matrix(1 0 0 1 0 -424)">
		<stop  offset="0" style="stop-color:#BDC2DB"/>
		<stop  offset="1" style="stop-color:#FFFFFF"/>
	</linearGradient>
	<path class="st1" d="M441.9,395.6V430c0,21.4-17.4,38.8-38.8,38.8H201.9c21.4,0,38.8-17.4,38.8-38.8v-34.4
		c0-10.8,8.7-19.5,19.5-19.5h162.2C433.2,376.1,441.9,384.8,441.9,395.6L441.9,395.6z"/>
	<path class="st2" d="M279.7,131.6c10.8,0,14.5,8.7,14.5,19.5V430c0,21.4,17.4,38.8,38.8,38.8H201.9c-21.4,0-38.8-17.4-38.8-38.8
		V151.1c0-10.8,8.7-19.5,19.5-19.5H279.7L279.7,131.6z"/>
</g>
</svg>
