<?xml version="1.0" encoding="utf-8"?>
<!-- Generator: Adobe Illustrator 27.4.1, SVG Export Plug-In . SVG Version: 6.00 Build 0)  -->
<svg version="1.1" id="Layer_1" xmlns="http://www.w3.org/2000/svg" xmlns:xlink="http://www.w3.org/1999/xlink" x="0px" y="0px"
	 viewBox="0 0 88 88" style="enable-background:new 0 0 88 88;" xml:space="preserve">
<style type="text/css">
	.st474{fill:#C6C6C6;}
</style>
<path class="st474" d="M81.8,56.6c-0.8,1.2-2,2.2-3.6,2.6l-28.6,7.2c-0.6,0.2-1.2,0.2-1.8,0.2s-1.2,0-1.8-0.2l-28.4-7.2
	c-1-0.2-1.8-0.8-2.6-1.4c-0.4,0.6-0.8,1.2-0.8,2v4.4c0,1.8,1.6,3.4,3.4,3.4h3c-1.6,0.4-2.8,2-2.8,3.8v6.4h-3.2L9.3,26.6h30.8
	L39.4,35c-12.4,1.4-23,5.4-23,12.2c0,1.4,0.4,2.6,1.2,3.8c-3,1-3,4.8,0.6,5.8l28.6,7.4c0.6,0.2,1.4,0.2,2.2,0l28.6-7.4
	c3.4-0.8,3.6-4.4,0.6-5.8c0.8-1.2,1.4-2.4,1.4-3.8c0-8.2-15.8-12.6-31.6-12.6c-1.2,0-2.4,0-3.8,0l1.2-12.8h-8l2.4-11l11,4.2l1.8-4.4
	L36.2,4.3l-3.8,17.4H4.1l6,60.9h9c0.6,0.6,1.6,1,2.6,1h54.9c2.2,0,4-1.8,4-4v-8.2c0-1.8-1.2-3.4-2.8-3.8h2.6c1.8,0,3.4-1.6,3.4-3.4
	v-4.4C84,58.4,83,57.2,81.8,56.6z M74.8,47.2c0,3.2-10.6,7.8-26.8,7.8s-26.8-4.8-26.8-7.8c0-3.2,10.6-7.8,26.8-7.8
	S74.8,44,74.8,47.2z M75.8,78.8H22.6v-6.6h53.3V78.8z M76.6,72.2v-2.4V72.2L76.6,72.2z"/>
</svg>
