<?xml version="1.0" encoding="utf-8"?>
<!-- Generator: Adobe Illustrator 27.4.1, SVG Export Plug-In . SVG Version: 6.00 Build 0)  -->
<svg version="1.1" id="Layer_1" xmlns="http://www.w3.org/2000/svg" xmlns:xlink="http://www.w3.org/1999/xlink" x="0px" y="0px"
	 viewBox="0 0 600 600" style="enable-background:new 0 0 600 600;" xml:space="preserve">
<style type="text/css">
	.st0{fill:#B0B5DE;}
	.st1{fill:url(#SVGID_1_);}
	.st2{fill:#FFFFFF;}
</style>
<path class="st0" d="M514.8,581.8h-429c-36.7,0-66.5-29.9-66.5-66.5V86.2c0-36.7,29.9-66.5,66.5-66.5h429.1
	c36.7,0,66.5,29.9,66.5,66.5v429.1C581.4,552,551.5,581.8,514.8,581.8L514.8,581.8z"/>
<g>
	
		<linearGradient id="SVGID_1_" gradientUnits="userSpaceOnUse" x1="203.9" y1="847.05" x2="442.9" y2="847.05" gradientTransform="matrix(1 0 0 1 0 -424)">
		<stop  offset="0" style="stop-color:#BDC2DB"/>
		<stop  offset="1" style="stop-color:#FFFFFF"/>
	</linearGradient>
	<path class="st1" d="M442.9,396.2v34.4c0,21.4-17.4,38.8-38.8,38.8H203.9c21.4,0,38.8-17.4,38.8-38.8v-34.4
		c0-10.8,8.7-19.5,19.5-19.5h161.2C434.2,376.7,442.9,385.4,442.9,396.2L442.9,396.2z"/>
	<path class="st2" d="M275.7,132.2c10.8,0,19.5,8.7,19.5,19.5v278.9c0,21.4,17.4,38.8,38.8,38.8H203.9c-21.4,0-38.8-17.4-38.8-38.8
		V151.7c0-10.8,8.7-19.5,19.5-19.5H275.7L275.7,132.2z"/>
</g>
</svg>
