<?xml version="1.0" encoding="utf-8"?>
<!-- Generator: Adobe Illustrator 27.4.1, SVG Export Plug-In . SVG Version: 6.00 Build 0)  -->
<svg version="1.1" id="Layer_1" xmlns="http://www.w3.org/2000/svg" xmlns:xlink="http://www.w3.org/1999/xlink" x="0px" y="0px"
	 viewBox="0 0 363.3 111.9" style="enable-background:new 0 0 363.3 111.9;" xml:space="preserve">
<style type="text/css">
	.st0{fill:#333333;}
	.st1{fill:#D2F9E6;}
	.st2{fill:#3FB270;}
	.st3{fill:#51ED97;enable-background:new    ;}
</style>
<g>
	<g>
		<path class="st0" d="M168.4,65.7c0-11.6,8.3-18.7,16.9-18.7c10.3,0,15.2,7.4,15.2,17.2c0,1.9-0.2,3.7-0.4,4.8h-21.4
			c1.2,5.5,5.2,7.4,9.3,7.4c2.7,0,5.2-0.8,7.8-2.3l3.5,6.5c-3.7,2.6-8.5,3.9-12.7,3.9C176.2,84.5,168.4,77.7,168.4,65.7z
			 M178.7,61.6h12.7c0-3.7-1.7-6.5-5.9-6.5C182.6,55.2,179.7,56.7,178.7,61.6z"/>
		<path class="st0" d="M206,65.7C206,54,213.3,47,220.9,47c3.9,0,6.3,1.5,8.8,3.7l0.3-17.7h10v50.6h-8.7l-0.7-3.6h-0.3
			c-2.6,2.6-6,4.4-9.6,4.4C211.7,84.5,206,77.5,206,65.7z M229.2,72.6V57.9c-1.9-1.8-3.9-2.3-5.9-2.3c-3.4,0-6.4,3.2-6.4,10
			c0,7.1,2.4,10.3,6.5,10.3C225.7,75.9,227.5,75,229.2,72.6z"/>
		<path class="st0" d="M247.1,89.8c0-3,1.8-5.3,5.1-7.2v-0.3c-1.9-1.2-3.4-3.1-3.4-6c0-2.6,1.8-5.1,4-6.7v-0.3
			c-2.6-1.8-4.8-5.1-4.8-9.3c0-8.6,7.1-12.9,14.8-12.9c2,0,3.9,0.3,5.5,0.9h13v7.7h-6V56c1,1.2,1.5,2.8,1.5,4.5
			c0,8.1-6.2,11.9-14.1,11.9c-1.3,0-2.8-0.2-4.3-0.7c-1,0.8-1.3,1.5-1.3,2.7c0,1.8,1.5,2.7,5.4,2.7h5.8c8.8,0,13.6,2.7,13.6,9.1
			c0,7.4-7.7,12.8-20,12.8C253.7,98.9,247.1,96.1,247.1,89.8z M271.9,87.8c0-2.3-2-2.9-5.5-2.9h-3.7c-2.5,0-3.9-0.1-5-0.4
			c-1.3,1.2-2,2.3-2,3.6c0,2.7,3.2,4.1,7.9,4.1C268.5,92.3,271.9,90.3,271.9,87.8z M267.8,59.9c0-3.8-2.1-5.8-4.9-5.8
			c-2.9,0-4.9,2-4.9,5.8c0,3.9,2.1,6,4.9,6C265.6,65.9,267.8,63.8,267.8,59.9z"/>
		<path class="st0" d="M284.5,65.7c0-11.6,8.3-18.7,16.9-18.7c10.3,0,15.2,7.4,15.2,17.2c0,1.9-0.2,3.7-0.4,4.8h-21.4
			c1.2,5.5,5.2,7.4,9.3,7.4c2.7,0,5.2-0.8,7.8-2.3l3.5,6.5c-3.7,2.6-8.5,3.9-12.7,3.9C292.2,84.5,284.5,77.7,284.5,65.7z
			 M294.7,61.6h12.7c0-3.7-1.7-6.5-5.9-6.5C298.8,55.2,295.7,56.7,294.7,61.6z"/>
		<path class="st0" d="M324.6,70.6V56.2h-4.9v-7.9l5.5-0.4l1.2-11h8.8v11h8.6v8.3h-8.5v14.3c0,4,1.8,5.7,4.6,5.7
			c1.2,0,2.4-0.1,3.4-0.6L345,83c-1.9,0.8-4.6,1.5-8,1.5C328.1,84.5,324.6,78.8,324.6,70.6z"/>
	</g>
	<polygon class="st0" points="165.9,84.1 134.1,84.1 134.1,33.7 144.1,33.7 144.1,74.1 165.9,74.1 	"/>
</g>
<g>
	<path class="st1" d="M86.3,102.6H18.5c-5.8,0-10.5-4.7-10.5-10.5V24.2c0-5.8,4.7-10.5,10.5-10.5h67.9c5.8,0,10.5,4.7,10.5,10.5
		v67.9C96.9,97.9,92.1,102.6,86.3,102.6z"/>
	<g>
		<path class="st2" d="M78.7,75.8v6.4c0,4-3.2,7.2-7.2,7.2H58.4H33.3c4,0,7.2-3.2,7.2-7.2v-6.4c0-2,1.6-3.6,3.6-3.6h31
			C77.1,72.1,78.7,73.8,78.7,75.8z"/>
		<path class="st3" d="M47.7,26.9c2,0,3.6,1.6,3.6,3.6v51.7c0,4,3.2,7.2,7.2,7.2H33.3c-4,0-7.2-3.2-7.2-7.2V30.5
			c0-2,1.6-3.6,3.6-3.6H47.7z"/>
	</g>
</g>
</svg>
