<?xml version="1.0" encoding="utf-8"?>
<!-- Generator: Adobe Illustrator 27.2.0, SVG Export Plug-In . SVG Version: 6.00 Build 0)  -->
<svg version="1.1" id="Layer_1" xmlns="http://www.w3.org/2000/svg" xmlns:xlink="http://www.w3.org/1999/xlink" x="0px" y="0px"
	 viewBox="0 0 101.9 70.9" style="enable-background:new 0 0 101.9 70.9;" xml:space="preserve">
<style type="text/css">
	.st0{fill:#333333;}
</style>
<path class="st0" d="M90.3,31.5v-8H73.2V9.4h-4.9c-1.7,0-3.1,1.4-3.1,3.1v10.9h-9.8V9.4h-4.9c-1.7,0-3.1,1.4-3.1,3.1v10.9h-9.8V9.1
	h-4.9c-1.7,0-3.1,1.4-3.1,3.1v11.3H14.7c-1.7,0-3.1,1.4-3.1,3.1v4.9h18.1v9.4H14.7c-1.7,0-3.1,1.4-3.1,3.1v4.9h18.1v12.7h8V48.9h9.8
	v13h8v-13h9.8v13h8v-13h17.2v-8H73.2v-9.4H90.3z M37.6,40.9v-9.4h9.8v9.4H37.6z M65.2,40.9h-9.8v-9.4h9.8V40.9z"/>
</svg>
