<?xml version="1.0" encoding="utf-8"?>
<!-- Generator: Adobe Illustrator 27.2.0, SVG Export Plug-In . SVG Version: 6.00 Build 0)  -->
<svg version="1.1" id="Layer_1" xmlns="http://www.w3.org/2000/svg" xmlns:xlink="http://www.w3.org/1999/xlink" x="0px" y="0px"
	 viewBox="0 0 113.3 40.3" style="enable-background:new 0 0 113.3 40.3;" xml:space="preserve">
<style type="text/css">
	.st0{fill:#FFFFFF;}
</style>
<path class="st0" d="M29,15.4H16.5v3.7h8.9c-0.4,5.2-4.8,7.4-8.9,7.4c-5.4,0-9.8-4.3-9.8-9.7c0-0.1,0-0.1,0-0.2c0-5.6,4.4-10,9.8-10
	c4.2,0,6.7,2.7,6.7,2.7l2.6-2.7c0,0-3.3-3.7-9.4-3.7C8.6,3,2.6,9.5,2.6,16.6c0,6.9,5.6,13.7,14,13.7c7.3,0,12.7-5,12.7-12.4
	C29.2,16.3,29,15.4,29,15.4L29,15.4z"/>
<g>
	<path id="A" class="st0" d="M39.3,12.7c-5.1,0-8.8,4-8.8,8.7c0,4.8,3.6,8.8,8.9,8.8c4.8,0,8.7-3.7,8.7-8.7
		C48.1,15.7,43.5,12.7,39.3,12.7L39.3,12.7z M39.3,16.2c2.5,0,4.9,2,4.9,5.3c0,3.2-2.4,5.3-4.9,5.3c-2.8,0-5-2.2-5-5.3
		S36.5,16.2,39.3,16.2L39.3,16.2z"/>
</g>
<g>
	<path id="A_00000020373220506527931150000011999975814535815312_" class="st0" d="M58.5,12.7c-5.1,0-8.8,4-8.8,8.7
		c0,4.8,3.6,8.8,8.9,8.8c4.8,0,8.7-3.7,8.7-8.7C67.3,15.7,62.7,12.7,58.5,12.7L58.5,12.7z M58.5,16.2c2.5,0,4.9,2,4.9,5.3
		c0,3.2-2.4,5.3-4.9,5.3c-2.8,0-5-2.2-5-5.3S55.7,16.2,58.5,16.2L58.5,16.2z"/>
</g>
<path class="st0" d="M77.3,12.7c-4.7,0-8.4,4.1-8.4,8.8c0,5.3,4.3,8.8,8.3,8.8c2.5,0,3.8-1,4.8-2.1v1.7c0,3-1.8,4.8-4.6,4.8
	c-2.7,0-4-2-4.5-3.1L69.5,33c1.2,2.5,3.6,5.2,7.9,5.2c4.7,0,8.3-3,8.3-9.1V13.2H82v1.5C80.9,13.5,79.3,12.7,77.3,12.7L77.3,12.7z
	 M77.6,16.2c2.3,0,4.7,2,4.7,5.3c0,3.4-2.4,5.3-4.7,5.3c-2.5,0-4.9-2-4.9-5.3S75.1,16.2,77.6,16.2L77.6,16.2z"/>
<path class="st0" d="M102,12.7c-4.4,0-8.2,3.5-8.2,8.8c0,5.5,4.2,8.8,8.6,8.8c3.7,0,6-2,7.3-3.8l-3-2c-0.8,1.2-2.1,2.4-4.3,2.4
	c-2.5,0-3.6-1.3-4.3-2.7l11.8-4.9l-0.6-1.4C108.2,15,105.5,12.7,102,12.7L102,12.7z M102.2,16.1c1.6,0,2.8,0.9,3.2,1.9l-7.9,3.3
	C97.2,18.7,99.7,16.1,102.2,16.1L102.2,16.1z"/>
<path class="st0" d="M88.2,29.7h3.9V3.9h-3.9V29.7z"/>
</svg>
