<?xml version="1.0" encoding="utf-8"?>
<!-- Generator: Adobe Illustrator 27.4.1, SVG Export Plug-In . SVG Version: 6.00 Build 0)  -->
<svg version="1.1" id="Layer_1" xmlns="http://www.w3.org/2000/svg" xmlns:xlink="http://www.w3.org/1999/xlink" x="0px" y="0px"
	 viewBox="0 0 144 144" style="enable-background:new 0 0 144 144;" xml:space="preserve">
<style type="text/css">
	.st0{fill:#242424;}
	.st1{fill:none;stroke:#FFFFFF;stroke-width:10;stroke-linecap:round;stroke-miterlimit:10;}
	.st2{fill:#FFFFFF;}
	.st3{fill:none;stroke:#FFFFFF;stroke-width:4;stroke-linecap:round;stroke-miterlimit:10;}
</style>
<path class="st0" d="M114.4,129.6H26.1c-4.9,0-8.8-4-8.8-8.8V32.4c0-4.9,4-8.8,8.8-8.8h88.4c4.9,0,8.8,4,8.8,8.8v88.4
	C123.3,125.6,119.3,129.6,114.4,129.6z"/>
<line class="st1" x1="34.9" y1="69.9" x2="105.6" y2="69.9"/>
<line class="st1" x1="34.9" y1="88.3" x2="85.8" y2="88.3"/>
<line class="st1" x1="34.9" y1="106.8" x2="63" y2="106.8"/>
<g>
	<path class="st0" d="M115.4,51.3c-12,0-21.8-9.8-21.8-21.8c0-12,9.8-21.8,21.8-21.8s21.8,9.8,21.8,21.8
		C137.2,41.5,127.4,51.3,115.4,51.3z"/>
	<path class="st2" d="M115.4,9.7c10.9,0,19.8,8.9,19.8,19.8c0,10.9-8.9,19.8-19.8,19.8s-19.8-8.9-19.8-19.8
		C95.6,18.6,104.5,9.7,115.4,9.7 M115.4,5.7c-13.1,0-23.8,10.7-23.8,23.8s10.7,23.8,23.8,23.8s23.8-10.7,23.8-23.8
		S128.5,5.7,115.4,5.7L115.4,5.7z"/>
</g>
<line class="st3" x1="115.4" y1="20.5" x2="115.4" y2="38.5"/>
<line class="st3" x1="106.4" y1="29.5" x2="124.4" y2="29.5"/>
</svg>
