<?xml version="1.0" encoding="utf-8"?>
<!-- Generator: Adobe Illustrator 27.4.1, SVG Export Plug-In . SVG Version: 6.00 Build 0)  -->
<svg version="1.1" id="Layer_1" xmlns="http://www.w3.org/2000/svg" xmlns:xlink="http://www.w3.org/1999/xlink" x="0px" y="0px"
	 viewBox="0 0 189 133.6" style="enable-background:new 0 0 189 133.6;" xml:space="preserve">
<style type="text/css">
	.st0{fill:#D3D3D3;}
</style>
<path class="st0" d="M99.4,95.6c2.1-2.3,3.3-4.8,3.6-7.4c0.3-2.6,0.2-5.3-0.3-7.9c-0.5-2.7-1-5.3-1.4-7.7c-0.4-2.5-0.2-4.7,0.6-6.7
	c0.8-2,2.7-3.6,5.7-4.8c4.2-1.7,8.4-2.4,12.4-2c4,0.4,7.4,1.7,10.1,4c2.6,2.1,4.1,4.3,4.7,6.5c0.5,2.2,0.2,4.5-0.9,6.9l16.6,0.9
	c2-3.4,2.8-6.8,2.5-10.3c-0.3-2.5-1.5-4.9-3.7-7.4l17.6-6.9l-8.4-7.3l-17.9,7.1c-2.8-1.6-5.9-2.9-9.2-3.8
	c-5.7-1.6-11.7-2.2-18.1-1.7c-6.4,0.4-12.6,1.9-18.6,4.4c-5,2.1-8.5,4.4-10.4,6.9c-2,2.5-3,5.2-3.3,8c-0.2,2.8-0.1,5.5,0.4,8.2
	c0.5,2.7,0.9,5.3,1.3,7.8c0.3,2.5,0.1,4.6-0.7,6.5c-0.8,1.9-2.8,3.5-6,4.7c-4.1,1.6-8.2,2.2-12.4,1.9c-4.1-0.3-8-1.8-11.5-4.3
	c-2.9-2.1-4.9-4.5-6.1-7c-1.2-2.6-1.5-5.4-0.9-8.6l-16.8,0.1c-1.2,3.8-0.9,7.5,1,11.2c1.4,2.8,3.4,5.3,6.1,7.7l-14.6,5.8l8.7,6.1
	l15.1-5.9c2.9,1.5,6,2.6,9.3,3.4c5.7,1.4,11.6,2,17.6,1.6c6-0.4,12-1.7,17.8-3.9C93.8,100,97.3,97.9,99.4,95.6z"/>
<g>
	<g>
		
			<image style="overflow:visible;" width="512" height="239" xlink:href="22CDDB6F40A4FB11.png"  transform="matrix(0.293 0 0 0.293 17.42 29.1078)">
		</image>
	</g>
</g>
</svg>
