<?xml version="1.0" encoding="utf-8"?>
<!-- Generator: Adobe Illustrator 27.4.1, SVG Export Plug-In . SVG Version: 6.00 Build 0)  -->
<svg version="1.1" id="Layer_1" xmlns="http://www.w3.org/2000/svg" xmlns:xlink="http://www.w3.org/1999/xlink" x="0px" y="0px"
	 viewBox="0 0 516.4 270.9" style="enable-background:new 0 0 516.4 270.9;" xml:space="preserve">
<style type="text/css">
	.st0{fill:#E6E6E6;}
</style>
<g>
	<path class="st0" d="M4.7,186.9c-0.3,3.1,2.9,6.6,5.1,8.2l91.9,63.1c9.2,6.3,20,9.5,31.7,9.5c10.7,0,19-2.5,23.1-4.1l346.4-132.8
		c2.2-1,9.2-5.4,9.2-9.2c0-3.3-2.6-6.3-4.6-8.1c-0.6,0.2-1.2,0.5-1.8,0.7c-12,4.4-341,130.5-353.4,135.3
		c-12.4,4.8-36.1,2.3-44.7-2.5c-8.5-4.8-80.1-54.5-97.7-66.8C6.5,182.4,4.6,184.7,4.7,186.9z"/>
</g>
</svg>
