<?xml version="1.0" encoding="utf-8"?>
<!-- Generator: Adobe Illustrator 27.4.1, SVG Export Plug-In . SVG Version: 6.00 Build 0)  -->
<svg version="1.1" id="Layer_1" xmlns="http://www.w3.org/2000/svg" xmlns:xlink="http://www.w3.org/1999/xlink" x="0px" y="0px"
	 viewBox="0 0 71.2 120.7" style="enable-background:new 0 0 71.2 120.7;" xml:space="preserve">
<style type="text/css">
	.st0{fill:#292929;}
	.st1{fill:#FFFFFF;}
</style>
<path class="st0" d="M61.4,0H9.8C4.4,0,0,4.4,0,9.8v101.1c0,5.4,4.4,9.8,9.8,9.8h51.6c5.4,0,9.7-4.4,9.8-9.7V9.8
	C71.2,4.4,66.8,0,61.4,0z M68.1,109.3c0,4.7-3.7,8.5-8.3,8.5H11.3c-4.6,0-8.3-3.7-8.3-8.5v-98c0-4.7,3.7-8.5,8.3-8.5h48.4
	c4.6,0,8.3,3.7,8.3,8.5L68.1,109.3L68.1,109.3z"/>
<path class="st1" d="M68.1,109.3c0,4.7-3.7,8.5-8.3,8.5H11.3c-4.6,0-8.3-3.7-8.3-8.5v-98c0-4.7,3.7-8.5,8.3-8.5h48.4
	c4.6,0,8.3,3.7,8.3,8.5L68.1,109.3L68.1,109.3z"/>
<path class="st0" d="M35.6,17.8c-1.4,0-2.5-1.1-2.5-2.5s1.1-2.5,2.5-2.5s2.5,1.1,2.5,2.5S37,17.8,35.6,17.8z"/>
<path class="st0" d="M19,63.2c-1.4,0-2.5-1.1-2.5-2.5s1.1-2.5,2.5-2.5s2.5,1.1,2.5,2.5C21.5,62,20.4,63.2,19,63.2z"/>
<path class="st0" d="M30,63.2c-1.4,0-2.5-1.1-2.5-2.5s1.1-2.5,2.5-2.5s2.5,1.1,2.5,2.5C32.5,62,31.4,63.2,30,63.2z"/>
<path class="st0" d="M41,63.2c-1.4,0-2.5-1.1-2.5-2.5s1.1-2.5,2.5-2.5s2.5,1.1,2.5,2.5C43.5,62,42.4,63.2,41,63.2z"/>
<path class="st0" d="M52,63.2c-1.4,0-2.5-1.1-2.5-2.5s1.1-2.5,2.5-2.5s2.5,1.1,2.5,2.5C54.5,62,53.4,63.2,52,63.2z"/>
</svg>
