<?xml version="1.0" encoding="utf-8"?>
<!-- Generator: Adobe Illustrator 27.4.1, SVG Export Plug-In . SVG Version: 6.00 Build 0)  -->
<svg version="1.1" id="Layer_1" xmlns="http://www.w3.org/2000/svg" xmlns:xlink="http://www.w3.org/1999/xlink" x="0px" y="0px"
	 viewBox="0 0 55.5 22.7" style="enable-background:new 0 0 55.5 22.7;" xml:space="preserve">
<style type="text/css">
	.st0{fill:none;stroke:#000000;stroke-miterlimit:10;}
</style>
<path class="st0" d="M54.5,10l-1.9-2.1c-0.3-0.3-0.7-0.5-1.2-0.5h-2.5c-0.2,0-0.4,0.1-0.5,0.2l-1.3,1.3c-0.3,0.3-0.8,0.3-1.1,0
	l-1.3-1.3c-0.2-0.2-0.3-0.2-0.5-0.2h-1.7c-0.2,0-0.4,0.1-0.5,0.2l-1.3,1.3c-0.3,0.3-0.8,0.3-1.1,0l-1.3-1.3
	c-0.2-0.2-0.3-0.2-0.5-0.2h-1.7c-0.2,0-0.4,0.1-0.5,0.2l-1.3,1.3c-0.3,0.3-0.8,0.3-1.1,0l-1.3-1.3c-0.2-0.2-0.3-0.2-0.5-0.2h-1.7
	c-0.2,0-0.4,0.1-0.5,0.2l-1.3,1.3c-0.3,0.3-0.8,0.3-1.1,0l-1.3-1.3c-0.2-0.2-0.3-0.2-0.5-0.2h-4.3L18,2.9c-0.9-1.5-2.4-2.4-4.1-2.4
	H8.8c-1.7,0-3.2,0.9-4.1,2.4L1.1,9c-0.9,1.5-0.9,3.3,0,4.7l3.5,6.2c0.8,1.5,2.4,2.4,4.1,2.4H14c1.7,0,3.2-0.9,4.1-2.4l2.6-4.5h30.8
	c0.4,0,0.9-0.2,1.2-0.5l1.9-2.1C55.2,12,55.2,10.8,54.5,10z M7.2,14.1c-1.5,0-2.7-1.2-2.7-2.7s1.2-2.7,2.7-2.7s2.7,1.2,2.7,2.7
	S8.7,14.1,7.2,14.1z"/>
</svg>
