<?xml version="1.0" encoding="utf-8"?>
<!-- Generator: Adobe Illustrator 27.4.1, SVG Export Plug-In . SVG Version: 6.00 Build 0)  -->
<svg version="1.1" id="Layer_1" xmlns="http://www.w3.org/2000/svg" xmlns:xlink="http://www.w3.org/1999/xlink" x="0px" y="0px"
	 viewBox="0 0 49.2 20.8" enable-background="new 0 0 49.2 20.8" xml:space="preserve">
<path fill="none" stroke="#000000" stroke-miterlimit="10" d="M48.2,9l-1.9-2.1c-0.3-0.3-0.7-0.5-1.2-0.5h-2.5
	c-0.2,0-0.4,0.1-0.5,0.2l-1.3,1.3c-0.3,0.3-0.8,0.3-1.1,0l-1.3-1.3c-0.2-0.2-0.3-0.2-0.5-0.2h-1.7c-0.2,0-0.4,0.1-0.5,0.2l-1.3,1.3
	c-0.3,0.3-0.8,0.3-1.1,0L32,6.6c-0.2-0.2-0.3-0.2-0.5-0.2h-1.7c-0.2,0-0.4,0.1-0.5,0.2L28,7.9c-0.3,0.3-0.8,0.3-1.1,0l-1.3-1.3
	c-0.2-0.2-0.3-0.2-0.5-0.2h-4.3l-2.7-3.5c-0.9-1.5-2.4-2.4-4.1-2.4H8.9c-1.7,0-3.2,0.9-4.1,2.4L1.2,8c-0.9,1.5-0.9,3.3,0,4.7
	l3.5,5.2c0.8,1.5,2.4,2.4,4.1,2.4h5.3c1.7,0,3.2-0.9,4.1-2.4l2.6-3.5h24.4c0.4,0,0.9-0.2,1.2-0.5l1.9-2.1C48.9,11,48.9,9.8,48.2,9z
	 M6.3,12.3c-1,0-1.9-0.8-1.9-1.9c0-1.1,0.8-1.9,1.9-1.9s1.9,0.8,1.9,1.9C8.2,11.5,7.3,12.3,6.3,12.3z"/>
</svg>
