<?xml version="1.0" encoding="utf-8"?>
<!-- Generator: Adobe Illustrator 27.4.1, SVG Export Plug-In . SVG Version: 6.00 Build 0)  -->
<svg version="1.1" id="Layer_1" xmlns="http://www.w3.org/2000/svg" xmlns:xlink="http://www.w3.org/1999/xlink" x="0px" y="0px"
	 viewBox="0 0 288 288" enable-background="new 0 0 288 288" xml:space="preserve">
<path fill="none" stroke="#1A1A1A" stroke-width="4" stroke-miterlimit="10" d="M238,174.5H50c-16.8,0-30.5-13.6-30.5-30.5l0,0
	c0-16.8,13.6-30.5,30.5-30.5h188c16.8,0,30.5,13.6,30.5,30.5l0,0C268.5,160.8,254.8,174.5,238,174.5z"/>
<path fill="#1A1A1A" d="M65.5,155.2c-1.2,0-2.3-0.3-3.2-0.8c-0.8-0.4-1.5-1.1-2.2-2.1c-0.5-0.9-0.8-2-0.8-3.2c0-2.4,1-4.1,2.9-5.3
	c2-1.2,5.3-2.1,9.6-2.6H72V141c0-0.7-0.2-1.5-0.4-2.1c-0.2-0.5-0.6-1.1-1.3-1.6c-0.7-0.5-1.5-0.6-2.5-0.6c-1.1,0-2.2,0.2-3.2,0.6
	c-0.9,0.4-1.9,0.8-2.8,1.3l-1.6-3c0.7-0.4,1.5-0.9,2.4-1.3c0.9-0.4,1.9-0.8,3-1h0.2c1-0.2,1.9-0.4,3-0.4c1.7,0,3.2,0.4,4.3,1.1
	c1.1,0.7,2,1.7,2.6,3.1c0.6,1.4,0.9,3,0.9,5v12.5h-3.7l-0.4-2.4H72l-0.1,0.1c-1.1,0.9-2.1,1.5-3.1,2.1
	C67.7,154.9,66.7,155.2,65.5,155.2z M71.8,144.4c-2,0.2-3.5,0.5-4.7,0.9c-1,0.3-1.9,0.8-2.5,1.5c-0.6,0.6-0.8,1.5-0.8,2.1
	c0,1,0.4,1.8,1,2.1c0.4,0.4,1.2,0.6,2.2,0.6c0.9,0,1.7-0.2,2.5-0.5c0.7-0.4,1.5-0.9,2.4-1.6l0.1-0.1v-5H71.8z"/>
<path fill="#1A1A1A" d="M99.9,155.7c-1,0-1.9-0.2-2.9-0.7s-2-1.2-2.8-2l-0.1-0.1h-0.4l-0.4,2.3h-3.5v-30.4h4.5v7.8l-0.1,4.2l0.4-0.4
	c0.8-0.7,1.8-1.3,2.9-1.9c1-0.5,2-0.7,3.2-0.7c1.7,0,3.1,0.4,4.5,1.4c1.2,0.8,2.1,2,2.8,3.7c0.7,1.5,1,3.4,1,5.7
	c0,2.5-0.4,4.5-1.3,6.2c-0.9,1.8-2,3-3.3,3.9C102.8,155.3,101.4,155.7,99.9,155.7z M99.4,137.4c-0.9,0-1.7,0.2-2.4,0.6
	c-0.8,0.4-1.6,1-2.5,1.8l-0.1,0.1v10.2l0.1,0.1c0.8,0.6,1.5,1.1,2.4,1.4c0.6,0.2,1.3,0.4,2,0.4c1,0,1.8-0.3,2.7-0.8
	c0.9-0.7,1.5-1.5,1.9-2.6c0.3-0.9,0.7-2.3,0.7-4.2c0-1.3-0.2-2.7-0.5-3.8s-0.9-1.9-1.6-2.4C101.4,137.6,100.4,137.4,99.4,137.4z"/>
<path fill="#1A1A1A" d="M132.3,155.2c-2,0-3.8-0.4-5.2-1.3c-1.5-0.9-2.7-2.1-3.6-3.8s-1.4-3.7-1.4-6s0.5-4.3,1.5-6s2.3-2.9,3.9-3.8
	c1.5-0.8,3.2-1.3,5.2-1.3c1.4,0,2.6,0.2,3.5,0.7c1,0.5,1.8,0.9,2.5,1.5l-2.1,2.8c-0.4-0.3-0.9-0.7-1.4-1c-0.6-0.3-1.3-0.4-2.1-0.4
	c-1.1,0-2.2,0.3-3.1,0.9c-1,0.6-1.7,1.5-2.2,2.6c-0.6,1.2-0.8,2.5-0.8,3.9c0,1.6,0.2,2.8,0.7,3.8c0.5,1.1,1.2,1.9,2.1,2.6
	c0.9,0.6,2,1,3.1,1c0.7,0,1.6-0.2,2.5-0.5c0.7-0.3,1.3-0.7,1.9-1.1l1.8,2.7c-0.9,0.8-1.9,1.4-2.9,1.8
	C134.7,154.9,133.5,155.2,132.3,155.2z"/>
<circle fill="#1A1A1A" cx="161.7" cy="144.7" r="5.4"/>
<circle fill="#1A1A1A" cx="193" cy="144.7" r="5.4"/>
<circle fill="#1A1A1A" cx="224.3" cy="144.7" r="5.4"/>
</svg>
