<?xml version="1.0" encoding="UTF-8"?>
<svg id="Layer_1" data-name="Layer 1" xmlns="http://www.w3.org/2000/svg" viewBox="0 0 24 24">
  <path d="m15.7,1.7l1.3,2.6c.6,1.1,1.4,1.9,2.5,2.5l2.6,1.4-2.6,1.4c-1.1.6-1.9,1.4-2.5,2.5l-1.4,2.6-1.4-2.6c-.6-1.1-1.4-1.9-2.5-2.5l-2.4-1.5,2.6-1.4c1.1-.6,1.9-1.4,2.5-2.5l1.3-2.5Z" fill="none" stroke="#000" stroke-linecap="round" stroke-linejoin="round" stroke-width="1.5"/>
  <path d="m5.8,14l.9,1.8c.4.7,1,1.3,1.7,1.7l1.8.9-1.8.9c-.7.4-1.3,1-1.7,1.7l-.9,1.8-.9-1.8c-.4-.7-1-1.3-1.7-1.7l-1.8-.9,1.8-.9c.7-.4,1.3-1,1.7-1.7l.9-1.8Z" fill="none" stroke="#000" stroke-linecap="round" stroke-linejoin="round" stroke-width="1.5"/>
</svg>
