<?xml version="1.0" encoding="utf-8"?>
<!-- Generator: Adobe Illustrator 27.4.1, SVG Export Plug-In . SVG Version: 6.00 Build 0)  -->
<svg version="1.1" id="Layer_1" xmlns="http://www.w3.org/2000/svg" xmlns:xlink="http://www.w3.org/1999/xlink" x="0px" y="0px"
	 viewBox="0 0 24 24" enable-background="new 0 0 24 24" xml:space="preserve">
<path fill="none" stroke="#000000" stroke-width="1.5" stroke-linecap="round" stroke-linejoin="round" d="M15.7,1.8l1.3,3
	c0.4,0.9,1.1,1.7,2.1,2.1l3,1.3l-3,1.3c-0.9,0.4-1.7,1.1-2.1,2.1l-1.3,3l-1.3-3c-0.4-0.9-1.1-1.7-2.1-2.1l-3-1.3l3-1.3
	c0.9-0.4,1.7-1.1,2.1-2.1L15.7,1.8z"/>
<path fill="none" stroke="#000000" stroke-width="1.5" stroke-linecap="round" stroke-linejoin="round" d="M5.8,13.8L6.7,16
	c0.3,0.7,0.8,1.2,1.5,1.5l2.2,0.9l-2.2,0.9c-0.7,0.3-1.2,0.8-1.5,1.5L5.8,23l-0.9-2.2c-0.3-0.7-0.8-1.2-1.5-1.5l-2.2-0.9l2.2-0.9
	C4,17.2,4.6,16.6,4.9,16L5.8,13.8z"/>
</svg>
