<?xml version="1.0" encoding="utf-8"?>
<!-- Generator: Adobe Illustrator 27.4.1, SVG Export Plug-In . SVG Version: 6.00 Build 0)  -->
<svg version="1.1" id="Layer_1" xmlns="http://www.w3.org/2000/svg" xmlns:xlink="http://www.w3.org/1999/xlink" x="0px" y="0px"
	 viewBox="0 0 24 24" enable-background="new 0 0 24 24" xml:space="preserve">
<g>
	<g>
		<path d="M9.6,9.1H6.3c-0.8,0-1.4-0.7-1.4-1.4l0,0c0-0.8,0.7-1.4,1.4-1.4h3.3C10.4,6.3,11,7,11,7.7l0,0C11,8.5,10.4,9.1,9.6,9.1z"
			/>
	</g>
	<g>
		<path d="M17.6,9.1h-3.3c-0.8,0-1.4-0.7-1.4-1.4l0,0c0-0.8,0.7-1.4,1.4-1.4h3.3C18.4,6.3,19,7,19,7.7l0,0
			C19.1,8.5,18.4,9.1,17.6,9.1z"/>
	</g>
</g>
<g>
	<g>
		<path d="M9.6,18.6H6.3c-0.8,0-1.4-0.7-1.4-1.4l0,0c0-0.8,0.7-1.4,1.4-1.4h3.3c0.8,0,1.4,0.7,1.4,1.4l0,0
			C11,17.9,10.4,18.6,9.6,18.6z"/>
	</g>
	<g>
		<path d="M17.6,18.6h-3.3c-0.8,0-1.4-0.7-1.4-1.4l0,0c0-0.8,0.7-1.4,1.4-1.4h3.3c0.8,0,1.4,0.7,1.4,1.4l0,0
			C19.1,17.9,18.4,18.6,17.6,18.6z"/>
	</g>
</g>
<g>
	<g>
		<path d="M13.6,13.9h-3.3c-0.8,0-1.4-0.7-1.4-1.4l0,0c0-0.8,0.7-1.4,1.4-1.4h3.3c0.8,0,1.4,0.7,1.4,1.4l0,0
			C15,13.2,14.4,13.9,13.6,13.9z"/>
	</g>
	<g>
		<path d="M5.8,13.9H2.5c-0.8,0-1.4-0.7-1.4-1.4l0,0c0-0.8,0.7-1.4,1.4-1.4h3.3c0.8,0,1.4,0.7,1.4,1.4l0,0
			C7.2,13.2,6.6,13.9,5.8,13.9z"/>
	</g>
	<g>
		<path d="M21.5,13.9h-3.3c-0.8,0-1.4-0.7-1.4-1.4l0,0c0-0.8,0.7-1.4,1.4-1.4h3.3c0.8,0,1.4,0.7,1.4,1.4l0,0
			C22.9,13.2,22.3,13.9,21.5,13.9z"/>
	</g>
</g>
</svg>
