<?xml version="1.0" encoding="utf-8"?>
<!-- Generator: Adobe Illustrator 27.4.1, SVG Export Plug-In . SVG Version: 6.00 Build 0)  -->
<svg version="1.1" id="Layer_1" xmlns="http://www.w3.org/2000/svg" xmlns:xlink="http://www.w3.org/1999/xlink" x="0px" y="0px"
	 viewBox="0 0 24 24" enable-background="new 0 0 24 24" xml:space="preserve">
<g>
	<g>
		<path d="M8.5,10.6H3.7c-1.2,0-2.1-1-2.1-2.1v0c0-1.2,1-2.1,2.1-2.1h4.8c1.2,0,2.1,1,2.1,2.1v0C10.6,9.6,9.7,10.6,8.5,10.6z"/>
	</g>
	<g>
		<path d="M20.3,10.6h-4.8c-1.2,0-2.1-1-2.1-2.1v0c0-1.2,1-2.1,2.1-2.1h4.8c1.2,0,2.1,1,2.1,2.1v0C22.5,9.6,21.5,10.6,20.3,10.6z"/>
	</g>
	<g>
		<path d="M14.4,17.7H9.6c-1.2,0-2.1-1-2.1-2.1v0c0-1.2,1-2.1,2.1-2.1h4.8c1.2,0,2.1,1,2.1,2.1v0C16.5,16.7,15.6,17.7,14.4,17.7z"/>
	</g>
</g>
</svg>
