<?xml version="1.0" encoding="utf-8"?>
<!-- Generator: Adobe Illustrator 27.4.1, SVG Export Plug-In . SVG Version: 6.00 Build 0)  -->
<svg version="1.1" id="Layer_1" xmlns="http://www.w3.org/2000/svg" xmlns:xlink="http://www.w3.org/1999/xlink" x="0px" y="0px"
	 viewBox="0 0 600 600" style="enable-background:new 0 0 600 600;" xml:space="preserve">
<style type="text/css">
	.st0{fill:#4149B0;}
	.st1{fill:url(#SVGID_1_);}
	.st2{fill:#FFFFFF;enable-background:new    ;}
</style>
<g>
	<path class="st0" d="M500.9,563.6H99.7c-34.3,0-62.2-27.9-62.2-62.2V100.2c0-34.3,27.9-62.2,62.2-62.2h401.2
		c34.3,0,62.2,27.9,62.2,62.2v401.2C563.1,535.7,535.2,563.6,500.9,563.6z"/>
	<g>
		<linearGradient id="SVGID_1_" gradientUnits="userSpaceOnUse" x1="205.8465" y1="420.7478" x2="439.2647" y2="420.7478">
			<stop  offset="0" style="stop-color:#BDC2DB"/>
			<stop  offset="1" style="stop-color:#FFFFFF"/>
		</linearGradient>
		<path class="st1" d="M439.3,394.4v33.7c0,21-17,38.1-38.1,38.1h-69.3h-126c21,0,38.1-17.1,38.1-38.1v-33.7
			c0-10.6,8.6-19.1,19.1-19.1h157.1C430.7,375.3,439.3,383.8,439.3,394.4z"/>
		<path class="st2" d="M275.2,135.4c10.6,0,19.1,8.6,19.1,19.1v273.6c0,21,17.1,38.1,38.1,38.1H205.8c-21,0-38.1-17-38.1-38.1V154.6
			c0-10.6,8.6-19.1,19.1-19.1H275.2z"/>
	</g>
</g>
</svg>
