<?xml version="1.0" encoding="utf-8"?>
<!-- Generator: Adobe Illustrator 27.4.1, SVG Export Plug-In . SVG Version: 6.00 Build 0)  -->
<svg version="1.1" id="Layer_1" xmlns="http://www.w3.org/2000/svg" xmlns:xlink="http://www.w3.org/1999/xlink" x="0px" y="0px"
	 viewBox="0 0 288 288" style="enable-background:new 0 0 288 288;" xml:space="preserve">
<style type="text/css">
	.st0{fill:#43C77E;}
	.st1{fill:#FAFAFA;}
</style>
<g>
	<path class="st0" d="M189.2,42.1H102c-9.1,0-16.5,7.4-16.5,16.5v170.8c0,9.1,7.4,16.5,16.5,16.5h87.2c9.1,0,16.3-7.4,16.5-16.4
		V58.6C205.7,49.5,198.3,42.1,189.2,42.1z"/>
	<path class="st1" d="M196.4,228.1c0,4.7-3.9,8.6-8.6,8.6h-84.6c-4.7,0-8.6-3.8-8.6-8.5V59.8c0-4.7,3.9-8.6,8.6-8.6h84.6
		c4.7,0,8.6,3.9,8.6,8.6V228.1z"/>
	<circle class="st0" cx="145.6" cy="67.8" r="6.3"/>
</g>
<g>
	<path class="st0" d="M114.5,149.1l-2-1.4l2.5-4.2l-4.3-1.9l0.7-2.3l4.6,1.1l0.4-4.8h2.4l0.4,4.8l4.6-1l0.7,2.3l-4.4,1.9l2.5,4.2
		l-2,1.4l-3.2-3.7L114.5,149.1z"/>
	<path class="st0" d="M133.1,149.1l-2-1.4l2.5-4.2l-4.3-1.9l0.7-2.3l4.6,1.1l0.4-4.8h2.4l0.4,4.8l4.6-1l0.7,2.3l-4.4,1.9l2.5,4.2
		l-2,1.4l-3.2-3.7L133.1,149.1z"/>
	<path class="st0" d="M151.8,149.1l-2-1.4l2.5-4.2l-4.3-1.9l0.7-2.3l4.6,1.1l0.4-4.8h2.4l0.4,4.8l4.6-1l0.7,2.3l-4.4,1.9l2.5,4.2
		l-2,1.4l-3.2-3.7L151.8,149.1z"/>
	<path class="st0" d="M170.4,149.1l-2-1.4l2.5-4.2l-4.3-1.9l0.7-2.3l4.6,1.1l0.4-4.8h2.4l0.4,4.8l4.6-1l0.7,2.3l-4.4,1.9l2.5,4.2
		l-2,1.4l-3.2-3.7L170.4,149.1z"/>
</g>
</svg>
