<?xml version="1.0" encoding="utf-8"?>
<!-- Generator: Adobe Illustrator 27.4.1, SVG Export Plug-In . SVG Version: 6.00 Build 0)  -->
<svg version="1.1" id="Layer_1" xmlns="http://www.w3.org/2000/svg" xmlns:xlink="http://www.w3.org/1999/xlink" x="0px" y="0px"
	 viewBox="0 0 600 282" style="enable-background:new 0 0 600 282;" xml:space="preserve">
<style type="text/css">
	.st0{fill:none;stroke:#3FB270;stroke-width:17.7552;stroke-miterlimit:10;}
	.st1{fill:#51ED97;}
	.st2{fill:#3FB270;}
</style>
<g>
	<circle class="st0" cx="79" cy="141.7" r="35"/>
	<path class="st1" d="M21.9,138.5c-1.4,58.2,45.4,105.7,103.2,105.7c42.1,0,78.3-25.2,94.4-61.4h321.9c6,0,11.7-2.8,15.4-7.7
		l18.1-24c4.6-6,4.6-14.4,0-20.4l-18.1-24c-3.6-4.8-9.3-7.7-15.4-7.7h-36l-6.9,15.6c-1.3,2.9-5.5,2.9-6.8,0l-6.9-15.6h-84.2
		L387.3,129c-1.3,2.9-5.5,2.9-6.8,0l-13.2-29.9h-77.8L276.1,129c-1.3,2.9-5.5,2.9-6.8,0l-13.2-29.9h-36.7
		c-16.2-36.5-52.9-61.8-95.5-61.4C68.7,38.3,23.2,83.2,21.9,138.5z M44.8,141c0-15.8,12.8-28.7,28.7-28.7s28.7,12.8,28.7,28.7
		c0,15.8-12.8,28.7-28.7,28.7S44.8,156.8,44.8,141z"/>
	<polygon class="st2" points="557.9,174 231.2,174 238.3,156.8 570.9,156.8 	"/>
</g>
</svg>
