<?xml version="1.0" encoding="utf-8"?>
<!-- Generator: Adobe Illustrator 27.4.1, SVG Export Plug-In . SVG Version: 6.00 Build 0)  -->
<svg version="1.1" id="Layer_1" xmlns="http://www.w3.org/2000/svg" xmlns:xlink="http://www.w3.org/1999/xlink" x="0px" y="0px"
	 viewBox="0 0 600 600" style="enable-background:new 0 0 600 600;" xml:space="preserve">
<style type="text/css">
	.st0{fill:#292929;}
</style>
<path class="st0" d="M300,62.5c-48.9,0-88.6,39.7-88.6,88.6s39.7,88.6,88.6,88.6s88.6-39.7,88.6-88.6S348.9,62.5,300,62.5z
	 M353.6,122.9l-54,78.8c-1.3,1.9-3.3,3-5.5,3.2c-0.2,0-0.5,0-0.7,0c-2,0-3.9-0.8-5.3-2.2l-30.6-30.6c-2.9-2.9-2.9-7.7,0-10.7
	c2.9-2.9,7.7-2.9,10.7,0l24.2,24.2l48.8-71.3c2.4-3.4,7-4.3,10.5-2C355.1,114.7,355.9,119.4,353.6,122.9z"/>
<path class="st0" d="M503.9,165.4h-96.1c-7,53.2-52.7,94.4-107.8,94.4c-55.1,0-100.8-41.2-107.8-94.4h-96
	c-34.2,0-61.8,27.7-61.8,61.8v248.3c0,34.2,27.7,61.8,61.8,61.8h407.8c34.2,0,61.8-27.6,61.8-61.8V227.3
	C565.8,193.1,538,165.4,503.9,165.4z M529.1,506c-2,2.3-4.9,3.5-7.7,3.5c-2.4,0-4.8-0.8-6.7-2.5l-157-136.3
	c-17.3,11.9-37.4,17.8-57.6,17.8c-20.1,0-40.3-5.9-57.5-17.8L85.4,507.1c-1.9,1.7-4.3,2.5-6.7,2.5c-2.9,0-5.7-1.2-7.7-3.5
	c-3.7-4.3-3.2-10.8,1-14.5l154.5-134L71.8,220.7c-4.2-3.8-4.6-10.2-0.9-14.5c3.8-4.2,10.2-4.6,14.5-0.9L248,349.3
	c0.4,0.3,0.9,0.7,1.3,1.1c29.8,23.9,72.6,23.7,102.2-0.5l163.1-144.5c4.2-3.8,10.7-3.4,14.5,0.9c3.8,4.2,3.4,10.7-0.9,14.5
	L373.6,357.6l154.4,134C532.3,495.3,532.8,501.8,529.1,506z"/>
</svg>
