<?xml version="1.0" encoding="UTF-8"?>
<svg id="Layer_1" data-name="Layer 1" xmlns="http://www.w3.org/2000/svg" viewBox="0 0 325.15 72.95">
  <defs>
    <style>
      .cls-1 {
        fill: #333;
      }
    </style>
  </defs>
  <g>
    <path class="cls-1" d="m37.96,36.23c0-12.88,9.2-20.8,18.72-20.8,11.36,0,16.88,8.24,16.88,19.04,0,2.08-.24,4.16-.48,5.36h-23.68c1.28,6.16,5.76,8.16,10.24,8.16,2.96,0,5.84-.88,8.64-2.56l3.84,7.2c-4,2.8-9.36,4.4-14.08,4.4-11.36,0-20.08-7.6-20.08-20.8Zm11.44-4.56h14.08c0-4.16-1.84-7.2-6.56-7.2-3.12,0-6.48,1.76-7.52,7.2Z"/>
    <path class="cls-1" d="m79.64,36.23c0-12.96,8.08-20.8,16.48-20.8,4.4,0,7.04,1.6,9.76,4.16l.28-19.6h10.99v56.07h-9.6l-.8-3.92h-.32c-2.8,2.8-6.72,4.88-10.56,4.88-9.84,0-16.24-7.84-16.24-20.8Zm25.76,7.6v-16.24c-2.08-1.92-4.4-2.56-6.56-2.56-3.76,0-7.12,3.52-7.12,11.04s2.64,11.36,7.2,11.36c2.56,0,4.56-.96,6.48-3.6Z"/>
    <path class="cls-1" d="m125.08,62.87c0-3.28,2-5.92,5.68-8v-.32c-2.08-1.36-3.68-3.44-3.68-6.72,0-2.88,1.92-5.68,4.48-7.44v-.32c-2.8-1.92-5.36-5.68-5.36-10.32,0-9.52,7.84-14.32,16.4-14.32,2.24,0,4.4.32,6.16.96h14.48v8.56h-6.64v.32c1.04,1.36,1.6,3.04,1.6,5.04,0,8.96-6.88,13.2-15.6,13.2-1.44,0-3.04-.24-4.8-.8-1.04.88-1.44,1.6-1.44,2.96,0,2,1.6,2.96,6,2.96h6.4c9.76,0,15.12,2.96,15.12,10.08,0,8.24-8.56,14.24-22.16,14.24-9.28,0-16.64-3.04-16.64-10.08Zm27.6-2.16c0-2.48-2.16-3.12-6.08-3.12h-4.08c-2.72,0-4.32-.16-5.6-.48-1.44,1.28-2.16,2.48-2.16,3.92,0,2.96,3.52,4.56,8.8,4.56s9.12-2.16,9.12-4.88Zm-4.64-30.96c0-4.24-2.32-6.4-5.44-6.4s-5.44,2.16-5.44,6.4,2.32,6.64,5.44,6.64,5.44-2.24,5.44-6.64Z"/>
    <path class="cls-1" d="m166.52,36.23c0-12.88,9.2-20.8,18.72-20.8,11.36,0,16.88,8.24,16.88,19.04,0,2.08-.24,4.16-.48,5.36h-23.68c1.28,6.16,5.76,8.16,10.24,8.16,2.96,0,5.84-.88,8.64-2.56l3.84,7.2c-4,2.8-9.36,4.4-14.08,4.4-11.36,0-20.08-7.6-20.08-20.8Zm11.44-4.56h14.08c0-4.16-1.84-7.2-6.56-7.2-3.12,0-6.48,1.76-7.52,7.2Z"/>
    <path class="cls-1" d="m211.08,41.59v-16h-5.44v-8.72l6.08-.48,1.36-12.16h9.76v12.16h9.52v9.2h-9.52v15.84c0,4.48,2,6.32,5.12,6.32,1.28,0,2.64-.16,3.76-.64l1.92,8.24c-2.08.88-5.12,1.6-8.88,1.6-9.84,0-13.68-6.16-13.68-15.36Z"/>
  </g>
  <path class="cls-1" d="m325.15,26.16v-8h-17.16V4.09h-8v14.07h-9.78V4.09h-8v14.07h-9.78V3.78h-8v14.37h-18.06v8h18.06v9.39h-18.06v8h18.06v12.67h8v-12.67h9.78v12.98h8v-12.98h9.78v12.98h8v-12.98h17.16v-8h-17.16v-9.39h17.16Zm-52.73,9.39v-9.39h9.78v9.39h-9.78Zm27.57,0h-9.78v-9.39h9.78v9.39Z"/>
  <path class="cls-1" d="m35.12,56.51H10.68c-5.89,0-10.68-4.79-10.68-10.68V.64h11v44.87h24.12v11Z"/>
</svg>