<?xml version="1.0" encoding="utf-8"?>
<!-- Generator: Adobe Illustrator 27.4.1, SVG Export Plug-In . SVG Version: 6.00 Build 0)  -->
<svg version="1.1" id="Layer_1" xmlns="http://www.w3.org/2000/svg" xmlns:xlink="http://www.w3.org/1999/xlink" x="0px" y="0px"
	 viewBox="0 0 144 144" style="enable-background:new 0 0 144 144;" xml:space="preserve">
<style type="text/css">
	.st0{fill:#242424;}
	.st1{fill:none;stroke:#242424;stroke-width:12.3798;stroke-miterlimit:10;}
</style>
<path class="st0" d="M106.4,102H72H37.7c-2,0-3.6-1.7-3.3-3.7c0.3-2.8,1.1-6.7,2.9-10.1c4.1-7.2,19.6-11,23.1-12.4
	c3.5-1.3,4.2-2.9,4.2-6.4c-3.7-4.1-8.9-18.7-5.7-28.3c1.6-4.9,6-9.2,13-9.2c6.8,0,11.6,4.5,13,9.2c3.2,9.5-2,24.2-5.7,28.3
	c-0.1,3.6,0.7,5.1,4.2,6.4c3.5,1.3,19,5.1,23.1,12.4c1.8,3.4,2.5,7.2,2.9,10.1C109.9,100.3,108.4,102,106.4,102z"/>
<circle class="st1" cx="72" cy="72" r="64.3"/>
</svg>
