<?xml version="1.0" encoding="utf-8"?>
<!-- Generator: Adobe Illustrator 27.4.1, SVG Export Plug-In . SVG Version: 6.00 Build 0)  -->
<svg version="1.1" id="Layer_1" xmlns="http://www.w3.org/2000/svg" xmlns:xlink="http://www.w3.org/1999/xlink" x="0px" y="0px"
	 viewBox="0 0 288 288" style="enable-background:new 0 0 288 288;" xml:space="preserve">
<path d="M112,210c-30.3,0-55-24.7-55-55c0-30.3,24.7-55,55-55c30.3,0,55,24.7,55,55C166.9,185.3,142.3,210,112,210z M112,122.8
	c-17.8,0-32.2,14.5-32.2,32.2c0,17.8,14.5,32.2,32.2,32.2c17.8,0,32.2-14.5,32.2-32.2C144.2,137.2,129.7,122.8,112,122.8z"/>
<polygon points="284.3,55.2 276.6,47.6 258,66.2 251,66.2 262,55.2 254.3,47.6 235.7,66.2 228.7,66.2 239.6,55.2 232,47.6 
	213.4,66.2 115,66.2 104.3,73.7 115,81.2 213.4,81.2 232,99.8 239.6,92.2 228.7,81.2 235.7,81.2 254.3,99.8 262,92.2 251,81.2 
	258,81.2 276.6,99.8 284.3,92.2 265.8,73.7 "/>
<g>
	<g>
		<path d="M154.7,92.9c19.7,13.6,32.6,36.3,32.6,62c0,41.6-33.8,75.4-75.4,75.4s-75.4-33.8-75.4-75.4c0-35.1,24.1-64.7,56.6-73
			l-0.4-0.3L71.1,66.3c-33.5,15.5-56.8,49.4-56.8,88.6c0,53.8,43.8,97.6,97.6,97.6s97.6-43.8,97.6-97.6c0-23.5-8.4-45.1-22.3-62
			H154.7z"/>
	</g>
</g>
<circle cx="112" cy="155" r="14.6"/>
</svg>
