<?xml version="1.0" encoding="utf-8"?>
<!-- Generator: Adobe Illustrator 27.4.1, SVG Export Plug-In . SVG Version: 6.00 Build 0)  -->
<svg version="1.1" id="Layer_1" xmlns="http://www.w3.org/2000/svg" xmlns:xlink="http://www.w3.org/1999/xlink" x="0px" y="0px"
	 viewBox="0 0 32.1 32.4" style="enable-background:new 0 0 32.1 32.4;" xml:space="preserve">
<style type="text/css">
	.st0{fill:#F47788;}
</style>
<path class="st0" d="M16,0.1c-8.8,0-16,7.2-16,16s7.2,16,16,16s16-7.2,16-16S24.8,0.1,16,0.1z M18.5,25.7c0,0.4-0.3,0.6-0.6,0.6
	h-3.7c-0.4,0-0.6-0.3-0.6-0.6V22c0-0.4,0.3-0.6,0.6-0.6h3.7c0.4,0,0.6,0.3,0.6,0.6V25.7z M18.6,18.2c0,0.4-0.3,0.7-0.6,0.7h-3.8
	c-0.4,0-0.6-0.3-0.6-0.7V6.7c0-0.4,0.3-0.7,0.6-0.7H18c0.4,0,0.6,0.3,0.6,0.7V18.2z"/>
</svg>
