<?xml version="1.0" encoding="utf-8"?>
<!-- Generator: Adobe Illustrator 27.4.1, SVG Export Plug-In . SVG Version: 6.00 Build 0)  -->
<svg version="1.1" id="Layer_1" xmlns="http://www.w3.org/2000/svg" xmlns:xlink="http://www.w3.org/1999/xlink" x="0px" y="0px"
	 viewBox="0 0 288 288" style="enable-background:new 0 0 288 288;" xml:space="preserve">
<style type="text/css">
	.st0{opacity:0.21;fill:#43C77E;enable-background:new    ;}
	.st1{fill:#43C77E;}
</style>
<g>
	<path class="st0" d="M53.8,187.7c-1.3-1.3-2.1-3.1-2.1-5.1V85.9c0-4,3.2-7.2,7.2-7.2h170.2c1.8,0,3.5,0.7,4.8,1.8L53.8,187.7z"/>
	<path class="st1" d="M277.7,210.9l-25.9-9.6c-0.6-1.1-0.9-2.4-0.9-3.6V73.6c0-4.2-3.4-7.6-7.6-7.6H44.7c-4.2,0-7.6,3.4-7.6,7.6
		v124.1c0,1.3-0.3,2.5-0.9,3.6l-25.9,9.6c-2.7,5,1,11.1,6.7,11.1h254C276.8,222,280.4,215.9,277.7,210.9z M165.7,213.7
		c0,1.8-1.5,3.3-3.3,3.3h-39.2c-1.8,0-3.3-1.5-3.3-3.3v-1.9h45.8V213.7z M236.3,182.6c0,4-3.2,7.2-7.2,7.2H58.9
		c-4,0-7.2-3.2-7.2-7.2V85.9c0-4,3.2-7.2,7.2-7.2h170.2c4,0,7.2,3.2,7.2,7.2V182.6z"/>
</g>
</svg>
