<?xml version="1.0" encoding="utf-8"?>
<!-- Generator: Adobe Illustrator 27.4.1, SVG Export Plug-In . SVG Version: 6.00 Build 0)  -->
<svg version="1.1" id="Layer_1" xmlns="http://www.w3.org/2000/svg" xmlns:xlink="http://www.w3.org/1999/xlink" x="0px" y="0px"
	 viewBox="0 0 144 144" style="enable-background:new 0 0 144 144;" xml:space="preserve">
<style type="text/css">
	.st0{fill:#292929;}
</style>
<g>
	<path class="st0" d="M20,105.3c-0.9-0.9-2.3-1.3-3.5-0.9c-1.1,0.3-1.9,1.2-2.2,2.3l-8.6,25.5l-0.1,0.2c-0.5,2,0.2,4.2,1.7,5.7
		c1.2,1.2,2.7,1.8,4.2,1.8c0.4,0,0.9-0.1,1.3-0.2L38,131c1.1-0.3,2-1.1,2.3-2.2c0.4-1.2,0.1-2.6-0.9-3.5L20,105.3z"/>
	<path class="st0" d="M133.7,9.6c-3.6-3.8-8.5-6-13.5-6.1c-4.6,0-8.8,1.7-11.9,4.8L38.5,79.9c-1.7,1.9-1.6,4.8,0.2,6.7l19.5,19.7
		c0.9,0.9,2,1.4,3.3,1.4c0.1,0,0.1,0,0.2,0c1.2,0,2.3-0.5,3.2-1.3l69.2-71.2C140.9,28.2,140.7,17,133.7,9.6z"/>
</g>
</svg>
