<?xml version="1.0" encoding="utf-8"?>
<!-- Generator: Adobe Illustrator 27.4.1, SVG Export Plug-In . SVG Version: 6.00 Build 0)  -->
<svg version="1.1" id="Layer_1" xmlns="http://www.w3.org/2000/svg" xmlns:xlink="http://www.w3.org/1999/xlink" x="0px" y="0px"
	 viewBox="0 0 144 144" style="enable-background:new 0 0 144 144;" xml:space="preserve">
<style type="text/css">
	.st0{fill:#292929;}
</style>
<g>
	<path class="st0" d="M97.2,39c-5.1,0-9.2-4.1-9.2-9.2c0-5.1,4.1-9.2,9.2-9.2s9.2,4.1,9.2,9.2C106.4,34.9,102.3,39,97.2,39z"/>
</g>
<g>
	<circle class="st0" cx="97.2" cy="72" r="9.2"/>
</g>
<g>
	<circle class="st0" cx="97.2" cy="114.2" r="9.2"/>
</g>
<g>
	<path class="st0" d="M43.6,39c-5.1,0-9.2-4.1-9.2-9.2c0-5.1,4.1-9.2,9.2-9.2c5.1,0,9.2,4.1,9.2,9.2C52.8,34.9,48.7,39,43.6,39z"/>
</g>
<g>
	<path class="st0" d="M43.6,81.2c-5.1,0-9.2-4.1-9.2-9.2s4.1-9.2,9.2-9.2c5.1,0,9.2,4.1,9.2,9.2S48.7,81.2,43.6,81.2z"/>
</g>
<g>
	<path class="st0" d="M43.6,123.4c-5.1,0-9.2-4.1-9.2-9.2s4.1-9.2,9.2-9.2c5.1,0,9.2,4.1,9.2,9.2S48.7,123.4,43.6,123.4z"/>
</g>
</svg>
