<?xml version="1.0" encoding="utf-8"?>
<!-- Generator: Adobe Illustrator 27.4.1, SVG Export Plug-In . SVG Version: 6.00 Build 0)  -->
<svg version="1.1" id="Layer_1" xmlns="http://www.w3.org/2000/svg" xmlns:xlink="http://www.w3.org/1999/xlink" x="0px" y="0px"
	 viewBox="0 0 144 144" style="enable-background:new 0 0 144 144;" xml:space="preserve">
<path d="M72.2,2.4C34,2.4,2.9,33.5,2.9,71.7S34,141,72.2,141s69.3-31.1,69.3-69.3S110.4,2.4,72.2,2.4z M78.5,108.3
	c-2.1,2.2-4.7,3.3-7.8,3.3c-3.1,0-5.6-1.1-7.7-3.3s-3.1-4.9-3.1-8c0-3.2,1-5.9,3.1-8.1c2.1-2.2,4.6-3.3,7.7-3.3
	c3.1,0,5.7,1.1,7.8,3.3c2,2.2,3.1,4.9,3.1,8.1S80.6,106.1,78.5,108.3z M93.1,59.1c-1.2,2.1-2.6,4.1-4.2,5.9
	c-1.7,1.8-3.3,3.6-4.9,5.4c-1.6,1.8-2.9,3.6-3.9,5.6s-1.4,4.3-1.2,6.9H62.7v-0.1c-0.5-3.1-0.3-5.8,0.5-8.2c0.8-2.4,2-4.6,3.5-6.6
	s3.1-3.8,4.7-5.5c1.6-1.7,3-3.2,4-4.8c1.1-1.5,1.6-3.1,1.6-4.7c0-1.5-0.3-2.7-0.9-3.6c-0.6-1-1.5-1.7-2.5-2.2
	c-1.1-0.5-2.3-0.7-3.6-0.7c-2.1,0-3.9,0.5-5.4,1.4c-1.5,1-3.1,2.2-4.6,3.6l-10.1-9.2c2.8-3.1,6.2-5.7,10-7.7c3.8-2,8-2.9,12.5-2.9
	c4.1,0,7.9,0.7,11.3,2.1c3.4,1.4,6.1,3.6,8.1,6.5c2,3,3,6.8,3,11.5C94.8,54.6,94.2,57,93.1,59.1z"/>
</svg>
