<?xml version="1.0" encoding="utf-8"?>
<!-- Generator: Adobe Illustrator 27.4.1, SVG Export Plug-In . SVG Version: 6.00 Build 0)  -->
<svg version="1.1" id="Layer_1" xmlns="http://www.w3.org/2000/svg" xmlns:xlink="http://www.w3.org/1999/xlink" x="0px" y="0px"
	 viewBox="0 0 48 48" style="enable-background:new 0 0 48 48;" xml:space="preserve">
<style type="text/css">
	.st0{fill:#767676;}
</style>
<rect x="22" y="-3.8" transform="matrix(0.7071 -0.7071 0.7071 0.7071 -9.8971 23.9644)" class="st0" width="4" height="55.5"/>
<g>
	<path class="st0" d="M24.1,18.4l5.5,5.5l2.6,2.6c0.2-0.8,0.3-1.6,0.3-2.5c0-2.3-0.8-4.4-2.5-6c-1.6-1.7-3.7-2.5-6-2.5
		c-0.9,0-1.7,0.1-2.5,0.3L24.1,18.4z"/>
	<path class="st0" d="M15.8,21.5c-0.2,0.8-0.3,1.6-0.3,2.5c0,2.3,0.8,4.4,2.5,6c1.6,1.7,3.6,2.5,6,2.5c0.9,0,1.7-0.1,2.5-0.3
		L15.8,21.5z"/>
</g>
<g>
	<path class="st0" d="M30.7,36.4c-2.2,0.7-4.4,1.1-6.7,1.1c-4.6,0-8.7-1.3-12.3-3.9C8,31,5.4,27.8,3.7,24c1.5-3.2,3.6-6,6.4-8.4
		L8,13.5c-3.2,2.8-5.6,6.1-7.2,9.9L0.4,24l0.2,0.6c1.9,4.6,5,8.3,9.3,11.4c4.1,3,8.9,4.5,14.1,4.5c3.2,0,6.2-0.6,9.1-1.8L30.7,36.4z
		"/>
	<path class="st0" d="M17.2,11.5c2.1-0.7,4.4-1,6.8-1c4.5,0,8.7,1.3,12.3,3.8c3.5,2.4,6.2,5.7,8,9.7c-1.5,3.3-3.6,6.1-6.4,8.3
		l2.1,2.1c3.2-2.7,5.6-6,7.3-9.9l0.2-0.6l-0.2-0.6c-2-4.8-5.2-8.7-9.3-11.5C33.9,9,29.1,7.5,24,7.5c-3.3,0-6.3,0.6-9.2,1.7
		L17.2,11.5z"/>
</g>
</svg>
