<?xml version="1.0" encoding="utf-8"?>
<!-- Generator: Adobe Illustrator 27.4.1, SVG Export Plug-In . SVG Version: 6.00 Build 0)  -->
<svg version="1.1" id="Layer_1" xmlns="http://www.w3.org/2000/svg" xmlns:xlink="http://www.w3.org/1999/xlink" x="0px" y="0px"
	 viewBox="0 0 144 144" style="enable-background:new 0 0 144 144;" xml:space="preserve">
<g>
	<path d="M71.9,9.1c-26.7,0-48.4,21.7-48.4,48.4c0,20.7,24,49.5,42,73.9c3.4,4.6,9.4,4.7,12.7,0c19.8-27.9,40.6-53.7,42-73.9
		C122.3,30.9,98.7,9.1,71.9,9.1z M71.5,70.3c-10.3,0-18.7-8.4-18.7-18.7c0-10.3,8.4-18.7,18.7-18.7c10.3,0,18.7,8.4,18.7,18.7
		C90.2,61.9,81.8,70.3,71.5,70.3z"/>
</g>
</svg>
