<?xml version="1.0" encoding="utf-8"?>
<!-- Generator: Adobe Illustrator 27.4.1, SVG Export Plug-In . SVG Version: 6.00 Build 0)  -->
<svg version="1.1" id="Layer_1" xmlns="http://www.w3.org/2000/svg" xmlns:xlink="http://www.w3.org/1999/xlink" x="0px" y="0px"
	 viewBox="0 0 288 288" style="enable-background:new 0 0 288 288;" xml:space="preserve">
<style type="text/css">
	.st0{fill:#43C77E;}
	.st1{opacity:0.21;fill:#43C77E;enable-background:new    ;}
</style>
<path class="st0" d="M187.7,42.1h-87.2c-9.1,0-16.5,7.4-16.5,16.5v170.8c0,9.1,7.4,16.5,16.5,16.5h87.2c9.1,0,16.3-7.4,16.5-16.4
	V58.6C204.2,49.5,196.8,42.1,187.7,42.1z M194.9,228.1c0,4.7-3.9,8.6-8.6,8.6h-84.6c-4.7,0-8.6-3.8-8.6-8.5V59.8
	c0-4.7,3.9-8.6,8.6-8.6h84.6c4.7,0,8.6,3.9,8.6,8.6V228.1z"/>
<path class="st1" d="M185,51.3h-82c-5.5,0-9.9,4.4-9.9,9.9v165.7c0,2.5,0.9,4.6,2.4,6.4l95.9-179.6C189.7,52.2,187.4,51.3,185,51.3z
	 M144.1,74.1c-3.5,0-6.3-2.8-6.3-6.3c0-3.5,2.8-6.3,6.3-6.3c3.5,0,6.3,2.8,6.3,6.3C150.4,71.3,147.6,74.1,144.1,74.1z"/>
</svg>
