<?xml version="1.0" encoding="utf-8"?>
<!-- Generator: Adobe Illustrator 27.4.1, SVG Export Plug-In . SVG Version: 6.00 Build 0)  -->
<svg version="1.1" id="Layer_1" xmlns="http://www.w3.org/2000/svg" xmlns:xlink="http://www.w3.org/1999/xlink" x="0px" y="0px"
	 viewBox="0 0 144 144" style="enable-background:new 0 0 144 144;" xml:space="preserve">
<style type="text/css">
	.st0{fill:#242424;}
</style>
<g>
	<g>
		<path class="st0" d="M93.4,79.5H82.9c-1.7,0-3.4,1.6-3.4,3.4v10.5c0,1.7,1.6,3.4,3.4,3.4h10.5c1.7,0,3.4-1.6,3.4-3.4V82.8
			C96.4,81.3,95,79.5,93.4,79.5L93.4,79.5z"/>
	</g>
	<g>
		<path class="st0" d="M93.4,112.6H82.9c-1.7,0-3.4,1.6-3.4,3.4v10.5c0,1.7,1.6,3.4,3.4,3.4h10.5c1.7,0,3.4-1.6,3.4-3.4V116
			C96.4,114.3,95,112.6,93.4,112.6L93.4,112.6z"/>
	</g>
	<g>
		<path class="st0" d="M125.8,95.9h-25.3c-2.2,0-4,1.9-4,4v8.6c0,2.1,1.9,4,4,4h8.6c2.2,0,4,1.9,4,4v8.6c0,2.1,1.9,4,4,4h8.6
			c2.2,0,4-1.9,4-4v-12.6V99.9C129.8,97.9,127.9,95.9,125.8,95.9L125.8,95.9z"/>
	</g>
</g>
<path class="st0" d="M123.9,66.4H85.6c-4.1,0-7.4-3.3-7.4-7.4V20.8c0-4.1,3.3-7.4,7.4-7.4h38.2c4.1,0,7.4,3.3,7.4,7.4V59
	C131.2,63.1,127.9,66.4,123.9,66.4z M96.6,52.1h16.3c2.2,0,4.1-1.8,4.1-4.1V31.8c0-2.2-1.8-4.1-4.1-4.1H96.6c-2.2,0-4.1,1.8-4.1,4.1
	v16.3C92.5,50.3,94.3,52.1,96.6,52.1z"/>
<path class="st0" d="M58.6,66.4H20.3c-4.1,0-7.4-3.3-7.4-7.4V20.8c0-4.1,3.3-7.4,7.4-7.4h38.3c4.1,0,7.4,3.3,7.4,7.4V59
	C65.9,63.1,62.6,66.4,58.6,66.4z M31.3,52.1h16.3c2.2,0,4.1-1.8,4.1-4.1V31.8c0-2.2-1.8-4.1-4.1-4.1H31.3c-2.2,0-4.1,1.8-4.1,4.1
	v16.3C27.2,50.3,29,52.1,31.3,52.1z"/>
<path class="st0" d="M58.6,131.1H20.3c-4.1,0-7.4-3.3-7.4-7.4V85.5c0-4.1,3.3-7.4,7.4-7.4h38.3c4.1,0,7.4,3.3,7.4,7.4v38.3
	C65.9,127.8,62.6,131.1,58.6,131.1z M31.3,116.8h16.3c2.2,0,4.1-1.8,4.1-4.1V96.4c0-2.2-1.8-4.1-4.1-4.1H31.3
	c-2.2,0-4.1,1.8-4.1,4.1v16.3C27.2,115,29,116.8,31.3,116.8z"/>
</svg>
