<?xml version="1.0" encoding="utf-8"?>
<!-- Generator: Adobe Illustrator 27.4.1, SVG Export Plug-In . SVG Version: 6.00 Build 0)  -->
<svg version="1.1" id="Layer_1" xmlns="http://www.w3.org/2000/svg" xmlns:xlink="http://www.w3.org/1999/xlink" x="0px" y="0px"
	 viewBox="0 0 144 144" style="enable-background:new 0 0 144 144;" xml:space="preserve">
<style type="text/css">
	.st0{fill:none;stroke:#242424;stroke-width:5;stroke-miterlimit:10;}
	.st1{fill:none;stroke:#242424;stroke-width:5;stroke-linecap:round;stroke-miterlimit:10;}
</style>
<path class="st0" d="M120.4,62.8H87.5c-3.5,0-6.4-2.8-6.4-6.4V23.5c0-3.5,2.8-6.4,6.4-6.4h32.9c3.5,0,6.4,2.8,6.4,6.4v32.9
	C126.7,59.9,123.9,62.8,120.4,62.8z"/>
<path class="st0" d="M56.6,62.8H23.7c-3.5,0-6.4-2.8-6.4-6.4V23.5c0-3.5,2.8-6.4,6.4-6.4h32.9c3.5,0,6.4,2.8,6.4,6.4v32.9
	C62.9,59.9,60.1,62.8,56.6,62.8z"/>
<path class="st1" d="M105.6,81.2h14.7c3.1,0,5.7,2.7,5.7,6V118"/>
<path class="st1" d="M103.1,126.8H87.5c-3.1,0-5.7-2.7-5.7-6V90"/>
<path class="st0" d="M56.6,126.8H23.7c-3.5,0-6.4-2.8-6.4-6.4V87.6c0-3.5,2.8-6.4,6.4-6.4h32.9c3.5,0,6.4,2.8,6.4,6.4v32.9
	C62.9,124,60.1,126.8,56.6,126.8z"/>
<path class="st0" d="M109.8,112.1H98c-1.3,0-2.3-1-2.3-2.3V98.2c0-1.3,1-2.3,2.3-2.3h11.7c1.3,0,2.3,1,2.3,2.3v11.7
	C112,111.1,111,112.1,109.8,112.1z"/>
</svg>
