<?xml version="1.0" encoding="utf-8"?>
<!-- Generator: Adobe Illustrator 27.4.1, SVG Export Plug-In . SVG Version: 6.00 Build 0)  -->
<svg version="1.1" id="Layer_1" xmlns="http://www.w3.org/2000/svg" xmlns:xlink="http://www.w3.org/1999/xlink" x="0px" y="0px"
	 viewBox="0 0 48 48" style="enable-background:new 0 0 48 48;" xml:space="preserve">
<style type="text/css">
	.st0{fill:#767676;}
</style>
<path class="st0" d="M24,29.5c1.8,0,3.4-0.6,4.6-1.9c1.3-1.2,1.9-2.8,1.9-4.6s-0.6-3.4-1.9-4.6c-1.2-1.3-2.8-1.9-4.6-1.9
	s-3.4,0.6-4.6,1.9c-1.3,1.2-1.9,2.8-1.9,4.6s0.6,3.4,1.9,4.6C20.6,28.9,22.2,29.5,24,29.5z"/>
<path class="st0" d="M24,39.5c-5.2,0-9.9-1.5-14.1-4.5c-4.3-3.1-7.4-6.8-9.3-11.4L0.4,23l0.2-0.6c2-4.6,5.1-8.5,9.3-11.5
	C14,8,18.7,6.5,24,6.5c5.1,0,9.9,1.5,14.1,4.4s7.3,6.8,9.3,11.5l0.2,0.6l-0.2,0.6c-2,4.7-5.1,8.5-9.3,11.4C33.8,38,29,39.5,24,39.5z
	 M3.6,23c1.7,3.8,4.4,6.9,8,9.6c3.6,2.6,7.8,3.9,12.3,3.9c4.4,0,8.6-1.3,12.3-3.9c3.6-2.5,6.3-5.7,8-9.6c-1.8-4-4.5-7.2-8-9.7
	c-3.7-2.5-7.8-3.8-12.3-3.8c-4.7,0-8.7,1.2-12.3,3.8C8.1,15.9,5.4,19.2,3.6,23z"/>
</svg>
