<?xml version="1.0" encoding="utf-8"?>
<!-- Generator: Adobe Illustrator 27.4.1, SVG Export Plug-In . SVG Version: 6.00 Build 0)  -->
<svg version="1.1" id="Layer_1" xmlns="http://www.w3.org/2000/svg" xmlns:xlink="http://www.w3.org/1999/xlink" x="0px" y="0px"
	 viewBox="0 0 144 144" style="enable-background:new 0 0 144 144;" xml:space="preserve">
<style type="text/css">
	.st0{fill:#CDCDCD;}
</style>
<path class="st0" d="M101,30.3H43c-15.2,0-27.6,12.3-27.6,27.6v18.6c0,12.9,8.9,23.7,20.9,26.7v16.1c0,3.2,3.9,4.8,6.2,2.6
	l17.8-17.8H101c15.2,0,27.6-12.3,27.6-27.6V57.9C128.6,42.7,116.2,30.3,101,30.3z M40.7,75.2c-3.3,0-5.9-2.6-5.9-5.9
	s2.6-5.9,5.9-5.9s5.9,2.6,5.9,5.9S44,75.2,40.7,75.2z M61.6,75.2c-3.3,0-5.9-2.6-5.9-5.9s2.6-5.9,5.9-5.9s5.9,2.6,5.9,5.9
	S64.9,75.2,61.6,75.2z M82.5,75.2c-3.3,0-5.9-2.6-5.9-5.9s2.6-5.9,5.9-5.9s5.9,2.6,5.9,5.9S85.8,75.2,82.5,75.2z M103.4,75.2
	c-3.3,0-5.9-2.6-5.9-5.9s2.6-5.9,5.9-5.9s5.9,2.6,5.9,5.9S106.7,75.2,103.4,75.2z"/>
</svg>
