<?xml version="1.0" encoding="utf-8"?>
<!-- Generator: Adobe Illustrator 27.4.1, SVG Export Plug-In . SVG Version: 6.00 Build 0)  -->
<svg version="1.1" id="Layer_1" xmlns="http://www.w3.org/2000/svg" xmlns:xlink="http://www.w3.org/1999/xlink" x="0px" y="0px"
	 viewBox="0 0 144 144" style="enable-background:new 0 0 144 144;" xml:space="preserve">
<style type="text/css">
	.st0{fill:#242424;}
</style>
<path class="st0" d="M52.2,104.2H14.3C8.6,104.2,4,99.6,4,93.9V50.4c0-5.7,4.6-10.3,10.3-10.3h37.9c5.7,0,10.3,4.6,10.3,10.3v43.5
	C62.5,99.6,57.9,104.2,52.2,104.2z"/>
<path class="st0" d="M91,40.2h37.9c5.7,0,10.3,4.6,10.3,10.3V94c0,5.7-4.6,10.3-10.3,10.3H91c-5.7,0-10.3-4.6-10.3-10.3V50.5
	C80.7,44.8,85.3,40.2,91,40.2z"/>
</svg>
