<?xml version="1.0" encoding="utf-8"?>
<!-- Generator: Adobe Illustrator 27.4.1, SVG Export Plug-In . SVG Version: 6.00 Build 0)  -->
<svg version="1.1" id="Layer_1" xmlns="http://www.w3.org/2000/svg" xmlns:xlink="http://www.w3.org/1999/xlink" x="0px" y="0px"
	 viewBox="0 0 144 144" style="enable-background:new 0 0 144 144;" xml:space="preserve">
<style type="text/css">
	.st0{fill:#292929;}
</style>
<path class="st0" d="M105,13.3H88.7c-1.2-4-6.8-9.7-13.8-9.7h-5.7c-7.3,0-13.5,5.7-15.3,9.7H37.1c-7,0-12.7,5.7-12.7,12.7v9.4h93.3
	V26C117.7,19,112,13.3,105,13.3z"/>
<path class="st0" d="M24,50.4l5.2,82.1c0.2,4.2,3.6,7.5,7.8,7.5h68c4.2,0,7.7-3.3,7.8-7.5l5.2-82.1H24z M50.4,132.3
	c-0.1,0-0.1,0-0.2,0c-1.8,0-3.4-1.4-3.5-3.3l-4-67.2c-0.1-1.9,1.4-3.6,3.3-3.7c1.9-0.1,3.6,1.4,3.7,3.3l4,67.2
	C53.8,130.6,52.3,132.2,50.4,132.3z M75.4,128.8c0,1.9-1.6,3.5-3.5,3.5s-3.5-1.6-3.5-3.5V61.6c0-1.9,1.6-3.5,3.5-3.5
	s3.5,1.6,3.5,3.5V128.8z M97,129c-0.1,1.9-1.7,3.3-3.5,3.3c-0.1,0-0.1,0-0.2,0c-1.9-0.1-3.4-1.8-3.3-3.7l4-67.2
	c0.1-1.9,1.7-3.4,3.7-3.3c1.9,0.1,3.4,1.8,3.3,3.7L97,129z"/>
</svg>
