<?xml version="1.0" encoding="UTF-8"?>
<svg id="Layer_1" data-name="Layer 1" xmlns="http://www.w3.org/2000/svg" viewBox="0 0 24 24">
  <line x1="4.2" y1="20.8" x2="19.8" y2="20.8" fill="none" stroke="#000" stroke-linecap="round" stroke-miterlimit="10" stroke-width="1.5"/>
  <path d="m6.4,20.8c0-2.6,2.1-8.6,5.6-8.6s5.5,5.9,5.5,8.6H6.4Z" fill="none" stroke="#000" stroke-linecap="round" stroke-miterlimit="10" stroke-width="1.5"/>
  <line x1="19.8" y1="3.6" x2="4.2" y2="3.6" fill="none" stroke="#000" stroke-linecap="round" stroke-miterlimit="10" stroke-width="1.5"/>
  <path d="m17.6,3.6c0,2.6-2.1,8.6-5.6,8.6S6.5,6.2,6.5,3.6c0,0,11.1,0,11.1,0Z" fill="none" stroke="#000" stroke-linecap="round" stroke-miterlimit="10" stroke-width="1.5"/>
  <path d="m15.3,9.1c.3,0,.5.3.3.6-.9,1.4-2.1,2.5-3.6,2.5s-2.7-1.1-3.6-2.5c-.2-.3,0-.6.3-.6h6.6Z" fill="none" stroke="#000" stroke-linecap="round" stroke-miterlimit="10" stroke-width="1.5"/>
</svg>