<?xml version="1.0" encoding="utf-8"?>
<!-- Generator: Adobe Illustrator 27.4.1, SVG Export Plug-In . SVG Version: 6.00 Build 0)  -->
<svg version="1.1" id="Layer_1" xmlns="http://www.w3.org/2000/svg" xmlns:xlink="http://www.w3.org/1999/xlink" x="0px" y="0px"
	 viewBox="0 0 24 24" style="enable-background:new 0 0 24 24;" xml:space="preserve">
<style type="text/css">
	.st0{fill:none;stroke:#000000;stroke-width:1.5007;stroke-linecap:round;stroke-miterlimit:10;}
</style>
<line class="st0" x1="4.2" y1="20.8" x2="19.8" y2="20.8"/>
<path class="st0" d="M6.4,20.8c0-2.6,2.1-8.6,5.6-8.6s5.5,5.9,5.5,8.6H6.4z"/>
<line class="st0" x1="19.8" y1="3.6" x2="4.2" y2="3.6"/>
<path class="st0" d="M17.6,3.6c0,2.6-2.1,8.6-5.6,8.6s-5.5-6-5.5-8.6C6.5,3.6,17.6,3.6,17.6,3.6z"/>
<path class="st0" d="M15.3,9.1c0.3,0,0.5,0.3,0.3,0.6c-0.9,1.4-2.1,2.5-3.6,2.5s-2.7-1.1-3.6-2.5c-0.2-0.3,0-0.6,0.3-0.6H15.3z"/>
</svg>
