<?xml version="1.0" encoding="utf-8"?>
<!-- Generator: Adobe Illustrator 27.4.1, SVG Export Plug-In . SVG Version: 6.00 Build 0)  -->
<svg version="1.1" id="Layer_1" xmlns="http://www.w3.org/2000/svg" xmlns:xlink="http://www.w3.org/1999/xlink" x="0px" y="0px"
	 viewBox="0 0 24 24" style="enable-background:new 0 0 24 24;" xml:space="preserve">
<style type="text/css">
	.st0{fill:none;stroke:#000000;stroke-width:1.4222;stroke-linecap:round;stroke-linejoin:round;}
	.st1{fill:none;stroke:#000000;stroke-width:0.7313;stroke-linecap:round;stroke-linejoin:round;}
</style>
<path class="st0" d="M19.7,9.8H15c-0.5,0-0.9-0.4-0.9-0.9V4.2c0-0.5,0.4-0.9,0.9-0.9h4.7c0.5,0,0.9,0.4,0.9,0.9v4.7
	C20.6,9.4,20.2,9.8,19.7,9.8z"/>
<path class="st0" d="M8.5,9.8H3.8c-0.5,0-0.9-0.4-0.9-0.9V4.2c0-0.5,0.4-0.9,0.9-0.9h4.7c0.5,0,0.9,0.4,0.9,0.9v4.7
	C9.4,9.4,9,9.8,8.5,9.8z"/>
<path class="st0" d="M17.5,14.4h2.1c0.4,0,0.8,0.4,0.8,0.9v4.4"/>
<path class="st0" d="M16.7,20.7h-2.2c-0.4,0-0.8-0.4-0.8-0.9v-4.4"/>
<path class="st0" d="M8.5,20.9H3.8c-0.5,0-0.9-0.4-0.9-0.9v-4.7c0-0.5,0.4-0.9,0.9-0.9h4.7c0.5,0,0.9,0.4,0.9,0.9V20
	C9.4,20.5,9,20.9,8.5,20.9z"/>
<path class="st1" d="M17.5,18.3h-0.9c-0.1,0-0.2-0.1-0.2-0.2v-0.9c0-0.1,0.1-0.2,0.2-0.2h0.9c0.1,0,0.2,0.1,0.2,0.2v0.9
	C17.7,18.2,17.6,18.3,17.5,18.3z"/>
</svg>
