<?xml version="1.0" encoding="UTF-8"?>
<svg id="Layer_1" data-name="Layer 1" xmlns="http://www.w3.org/2000/svg" viewBox="0 0 24 24">
  <path d="m19.7,9.8h-4.7c-.5,0-.9-.4-.9-.9v-4.7c0-.5.4-.9.9-.9h4.7c.5,0,.9.4.9.9v4.7c0,.5-.4.9-.9.9Z" fill="none" stroke="#000" stroke-linecap="round" stroke-linejoin="round" stroke-width="1.5"/>
  <path d="m8.5,9.8H3.8c-.5,0-.9-.4-.9-.9v-4.7c0-.5.4-.9.9-.9h4.7c.5,0,.9.4.9.9v4.7c0,.5-.4.9-.9.9Z" fill="none" stroke="#000" stroke-linecap="round" stroke-linejoin="round" stroke-width="1.5"/>
  <path d="m17.5,14.4h2.1c.4,0,.8.4.8.9v4.4" fill="none" stroke="#000" stroke-linecap="round" stroke-linejoin="round" stroke-width="1.5"/>
  <path d="m16.7,20.7h-2.2c-.4,0-.8-.4-.8-.9v-4.4" fill="none" stroke="#000" stroke-linecap="round" stroke-linejoin="round" stroke-width="1.5"/>
  <path d="m8.5,20.9H3.8c-.5,0-.9-.4-.9-.9v-4.7c0-.5.4-.9.9-.9h4.7c.5,0,.9.4.9.9v4.7c0,.5-.4.9-.9.9Z" fill="none" stroke="#000" stroke-linecap="round" stroke-linejoin="round" stroke-width="1.5"/>
  <path d="m17.5,18.3h-.9c-.1,0-.2-.1-.2-.2v-.9c0-.1.1-.2.2-.2h.9c.1,0,.2.1.2.2v.9c0,.1-.1.2-.2.2Z" fill="none" stroke="#000" stroke-linecap="round" stroke-linejoin="round" stroke-width="1.5"/>
</svg>
