<?xml version="1.0" encoding="utf-8"?>
<!-- Generator: Adobe Illustrator 27.4.1, SVG Export Plug-In . SVG Version: 6.00 Build 0)  -->
<svg version="1.1" id="Layer_1" xmlns="http://www.w3.org/2000/svg" xmlns:xlink="http://www.w3.org/1999/xlink" x="0px" y="0px"
	 viewBox="0 0 24 24" style="enable-background:new 0 0 24 24;" xml:space="preserve">
<style type="text/css">
	.st0{fill:none;stroke:#000000;stroke-width:1.3;stroke-linecap:round;stroke-linejoin:round;}
</style>
<path class="st0" d="M15.7,1.7L17,4.3c0.6,1.1,1.4,1.9,2.5,2.5l2.6,1.4l-2.6,1.4c-1.1,0.6-1.9,1.4-2.5,2.5l-1.4,2.6l-1.4-2.6
	c-0.6-1.1-1.4-1.9-2.5-2.5L9.3,8.1l2.6-1.4c1.1-0.6,1.9-1.4,2.5-2.5L15.7,1.7z"/>
<path class="st0" d="M5.8,14l0.9,1.8c0.4,0.7,1,1.3,1.7,1.7l1.8,0.9l-1.8,0.9c-0.7,0.4-1.3,1-1.7,1.7l-0.9,1.8L4.9,21
	c-0.4-0.7-1-1.3-1.7-1.7l-1.8-0.9l1.8-0.9c0.7-0.4,1.3-1,1.7-1.7L5.8,14z"/>
</svg>
