<?xml version="1.0" encoding="utf-8"?>
<!-- Generator: Adobe Illustrator 27.2.0, SVG Export Plug-In . SVG Version: 6.00 Build 0)  -->
<svg version="1.1" id="Layer_1" xmlns="http://www.w3.org/2000/svg" xmlns:xlink="http://www.w3.org/1999/xlink" x="0px" y="0px"
	 viewBox="0 0 55.3 33.8" style="enable-background:new 0 0 55.3 33.8;" xml:space="preserve">
<style type="text/css">
	.st0{fill:none;stroke:#262626;stroke-width:0.75;stroke-linecap:round;stroke-miterlimit:10;}
	.st1{fill-rule:evenodd;clip-rule:evenodd;fill:none;stroke:#262626;stroke-width:0.75;stroke-linecap:round;stroke-miterlimit:10;}
</style>
<path class="st0" d="M5.2,16v15.2c0,0.1,0.1,0.2,0.2,0.2h9.1c0.1,0,0.2-0.1,0.2-0.2v-9.6c0-0.5-0.3-0.9-0.8-0.9
	c-0.5,0-1,0.4-0.9,0.9c0,0.5,0.4,0.8,0.9,0.8h6.5c0.1,0,0.2,0.1,0.2,0.2v8.6c0,0.1,0.1,0.2,0.2,0.2h4.1"/>
<path class="st1" d="M51.5,31.3l-3.2,0c-0.4,0-0.8-0.3-0.9-0.7c-0.5-1.3-0.1-3.6,0.2-4.8c0.1-0.3-0.2-0.6-0.5-0.6
	c-3.8-0.3-6.6-3-7.5-4.2s-1.9-3.8-1.9-6.1c0-4.9,3.9-8.7,7.8-8.7s7,4,7,9c0,3.5-1.6,6.5-3.8,8l-0.9,0.6c-0.3,0.1-0.6-0.1-0.5-0.4
	l1.6-7.7c0,0,0.2-0.8-0.2-1s-0.7,0.8-0.7,0.8l-1.5,3.6c-0.1,0.3-0.6,0.3-0.7-0.1l-1.1-5.8c0,0,0-0.8-0.6-0.7c-0.6,0-0.3,0.8-0.3,0.8
	l0.8,5.4c0.1,0.4-0.4,0.6-0.7,0.3c-0.8-1.1-1.8-2.6-1.9-2.8c-0.2-0.3-0.3-0.7-0.9-0.4c-0.6,0.3,0,1.1,0,1.1s2.5,4,3.7,6.8
	c0.9,2.2,0.3,5.6,0,7.1c-0.1,0.4-0.4,0.7-0.9,0.7H42c-0.2,0-0.3-0.2-0.2-0.4c1.1-1.1,0.4-2.3,0-2.6c-0.1-0.1-0.2-0.1-0.4-0.2
	c-0.1,0-0.3-0.1-0.4-0.1c-0.1,0-0.3,0-0.4,0.1c-0.1,0-0.2,0.1-0.2,0.1c-0.1,0-0.2,0.1-0.3,0.2c-0.1,0.1-0.1,0.1-0.1,0.2
	c0,0,0,0.1,0,0.1c0,0.1,0.1,0.1,0.3,0.1c0.2,0,0.4-0.1,0.6-0.2c0.1-0.1,0.3-0.2,0.4-0.3c0.1-0.1,0.2-0.2,0.2-0.3
	c0.2-0.3,0.9-1.4,0.3-2.1c-0.8-0.8-2-0.2-2-0.1c-0.1,0.1-0.2,0.2-0.3,0.3c-0.1,0.1-0.2,0.2-0.3,0.4c0,0.1-0.1,0.1-0.1,0.2
	c0,0.1-0.1,0.2-0.1,0.3c0,0.2,0,0.3,0.1,0.3c0.1,0,0.1,0,0.3-0.1c0.1-0.1,0.2-0.3,0.3-0.5c0-0.1,0.1-0.3,0.1-0.4
	c0-0.1,0-0.3-0.1-0.4c0-0.1-0.1-0.3-0.3-0.5c-0.2-0.2-0.4-0.4-0.8-0.5c-0.2,0-0.4,0.1-0.5,0.2c-0.1,0.1-0.2,0.1-0.3,0.2
	c-0.1,0.1-0.1,0.1-0.2,0.2c-0.1,0.1-0.2,0.3-0.2,0.4c-0.1,0.1-0.1,0.2-0.1,0.3c-0.1,0.2-0.1,0.3-0.1,0.5c0,0.2,0,0.4,0.1,0.5
	c0,0.1,0.1,0.2,0.1,0.3c0.1,0.1,0.1,0.2,0.2,0.3c0.1,0.1,0.1,0.1,0.2,0.2c0.1,0,0.1,0,0.1,0c0.1,0,0.1-0.2,0.1-0.3
	c0-0.2-0.1-0.5-0.2-0.7c-0.1-0.2-0.2-0.3-0.3-0.4c-0.1-0.1-0.3-0.2-0.4-0.3c-0.1-0.1-0.3-0.1-0.5-0.2c-0.1,0-0.3,0-0.4,0
	c-0.4,0-0.8,0.2-1,0.6c-0.1,0.1-0.1,0.2-0.1,0.3c0,0.1,0,0.2,0,0.3c0,0.2,0,0.3,0,0.4c0,0.2,0.1,0.3,0.2,0.5
	c0.1,0.1,0.2,0.3,0.3,0.4c0.1,0.1,0.3,0.2,0.4,0.3c0.1,0,0.2,0.1,0.3,0.1c0.1,0,0.2,0.1,0.4,0.1c0.2,0,0.3-0.1,0.3-0.1
	c0-0.1,0-0.2-0.1-0.3c-0.2-0.2-0.4-0.3-0.6-0.4C36,28.1,35.8,28,35.6,28c-0.2,0-0.3,0-0.5,0.1c-0.4,0.2-1.1,0.5-1.2,1.3
	c0,0.6,0.1,0.9,0.4,1.5c0.1,0.2,0,0.4-0.2,0.4l-3.5,0c-0.1,0-0.2-0.1-0.2-0.2V16H2.8c-0.3,0-0.5-0.4-0.2-0.6L17.6,2.3
	c0.1-0.1,0.2-0.1,0.3,0l15.4,12.9c0.1,0.1,0.1,0.2,0,0.3l-1.3,1.2c-0.1,0.1-0.2,0.1-0.3,0L17.5,5c-0.2-0.2-0.2-0.6,0-0.8
	c0.2-0.2,0.5-0.2,0.7,0l0,0c0.2,0.2,0.2,0.6,0,0.8L3.5,17.7"/>
</svg>
