<?xml version="1.0" encoding="UTF-8"?>
<svg id="Layer_1" data-name="Layer 1" xmlns="http://www.w3.org/2000/svg" viewBox="0 0 220.96 166.3">
  <defs>
    <style>
      .cls-1 {
        fill: #808080;
      }
    </style>
  </defs>
  <path class="cls-1" d="m216.66,47.21L106.67.56c-2.85-1.21-6.15-.42-8.15,1.94l-27.1,32.02.45-1.12-3.9-1.58c-2.39-.97-5.11-.3-6.77,1.67L1.3,104.25c-1.15,1.35-1.56,3.12-1.14,4.84s1.61,3.09,3.26,3.76l129.04,52.35c1.83.74,3.74,1.1,5.63,1.1,4.3,0,8.49-1.86,11.4-5.3l55.76-65.87c1.13-1.34,1.54-3.08,1.12-4.77s-1.59-3.05-3.21-3.71l-5.89-2.39,22.02-26.01c3.07-3.63,1.75-9.2-2.63-11.06v.02Zm-118.39-30.03c.21-.51.8-.75,1.31-.53l30.75,13.04c.51.22.75.8.53,1.31-.16.38-.53.61-.92.61-.13,0-.26-.03-.39-.08l-30.75-13.04c-.51-.22-.75-.8-.53-1.31Zm-10.07,13.04c.22-.51.8-.75,1.31-.53l58.18,24.67c.51.22.75.8.53,1.31-.16.38-.53.61-.92.61-.13,0-.26-.03-.39-.08l-58.18-24.67c-.51-.22-.75-.8-.53-1.31Zm-25.48,4.56c1.1-1.3,2.91-1.75,4.49-1.11l3.66,1.48-7.88,9.3-3.67-5.67,3.39-4.01h0Zm-4.74,5.6l31.39,48.59L5.98,101.82l52.01-61.44h0Zm75.23,122.97L4.17,111.01c-1.04-.42-1.8-1.29-2.07-2.39-.27-1.09,0-2.21.72-3.07l1.18-1.4,98.69-15.21c5.65-.87,11.13,2,13.64,7.14l31.19,64.11c-3.65,3.91-9.32,5.19-14.32,3.16h0Zm15.74-4.8l-27.52-56.56,78.96-4.21-51.44,60.77Zm53.46-70.03c1.02.41,1.75,1.26,2.02,2.33.26,1.07,0,2.16-.7,3l-1.55,1.84-15.24.81,9.04-10.68-.03.07,6.47,2.63h0Z"/>
</svg>
