<?xml version="1.0" encoding="utf-8"?>
<!-- Generator: Adobe Illustrator 27.4.1, SVG Export Plug-In . SVG Version: 6.00 Build 0)  -->
<svg version="1.1" id="Layer_1" xmlns="http://www.w3.org/2000/svg" xmlns:xlink="http://www.w3.org/1999/xlink" x="0px" y="0px"
	 viewBox="0 0 516.4 270.9" style="enable-background:new 0 0 516.4 270.9;" xml:space="preserve">
<style type="text/css">
	.st0{fill:url(#SVGID_1_);}
	.st1{fill:#ADADB2;}
	.st2{fill:url(#SVGID_00000085221017896240811410000014428567857121528977_);}
	.st3{fill:#A8A8B0;}
	.st4{opacity:0.5;fill:#CBCBD3;enable-background:new    ;}
</style>
<linearGradient id="SVGID_1_" gradientUnits="userSpaceOnUse" x1="0" y1="91.9652" x2="516.4447" y2="91.9652" gradientTransform="matrix(1 0 0 -1 0 262.8018)">
	<stop  offset="0" style="stop-color:#CCCCD5"/>
	<stop  offset="1" style="stop-color:#A1A1A8"/>
</linearGradient>
<path class="st0" d="M516.4,150.4l-0.8,0.7l-0.3,0.3c0,5.4-3.1,8-6.3,10.2c-5.4,3.8-71.6,49.1-93.2,63.7
	c-21.6,14.6-43.7,9.8-56.4,5.1C346.8,225,15.2,97.6,13.3,97C11.4,96.4,0,92.9,0,85.6c0,0,0,14.9,0,18.4c0,3.5-1,9.8,11.1,14.3
	c12,4.4,341,130.6,353.4,135.3s36.1,2.2,44.7-2.5c9.5-5.4,97-66.2,101.4-69.4c4.4-2.9,5.5-5.8,5.8-10.2
	C516.4,167.3,516.4,150.4,516.4,150.4z"/>
<path class="st1" d="M130.3,4.8c8.2,0,16.8,1.6,24.4,4.4c3.2,1.3,15.2,5.7,33,12.4C269.4,52.3,486.8,134.1,503,142
	c5.7,2.9,9.2,6,9.2,8.9c0.3,3.2-2.9,6.7-5.1,8.2l-91.9,63.1c-9.2,6.3-20,9.5-31.7,9.5c-10.8,0-19-2.5-23.1-4.1L14,94.8
	c-2.2-1-9.2-5.4-9.2-9.2c0-4.1,4.1-7.9,6-9.2L111.3,8.9C115.1,6.3,122.4,4.8,130.3,4.8 M130.3,0c-9.2,0-17.1,1.9-21.6,4.8L7.9,72.3
	c0,0-7.9,5.7-7.9,13c0,7.3,10.1,13,12,13.6s333.7,127.7,346.4,132.8c6,2.2,14.9,4.4,24.7,4.4c10.8,0,23.1-2.5,34.2-10.5
	c21.6-14.6,86.5-59.3,91.9-63.1c5.4-3.8,14.9-15.8-4.8-25.4C484.9,127.7,174.3,11.4,156,4.1C147.7,1.6,138.5,0,130.3,0L130.3,0z"/>
<linearGradient id="SVGID_00000008836400000437979100000006253412173457865634_" gradientUnits="userSpaceOnUse" x1="231.3341" y1="-16.0116" x2="249.7787" y2="75.1574">
	<stop  offset="2.583901e-04" style="stop-color:#878787;stop-opacity:0.1"/>
	<stop  offset="5.065849e-02" style="stop-color:#919192;stop-opacity:9.495869e-02"/>
	<stop  offset="0.2365" style="stop-color:#B1B1B5;stop-opacity:7.637301e-02"/>
	<stop  offset="0.4246" style="stop-color:#CACAD1;stop-opacity:5.755070e-02"/>
	<stop  offset="0.6139" style="stop-color:#DCDCE4;stop-opacity:3.861902e-02"/>
	<stop  offset="0.8048" style="stop-color:#E6E6F0;stop-opacity:1.952372e-02"/>
	<stop  offset="1" style="stop-color:#EAEAF4;stop-opacity:0"/>
</linearGradient>
<path style="fill:url(#SVGID_00000008836400000437979100000006253412173457865634_);" d="M130.3,4.8c8.2,0,16.8,1.6,24.4,4.4
	c3.2,1.3,15.2,5.7,33,12.4C269.4,52.3,486.8,134.1,503,142c5.7,2.9,9.2,6,9.2,8.9c0.3,3.2-2.9,6.7-5.1,8.2l-91.9,63.1
	c-9.2,6.3-20,9.5-31.7,9.5c-10.8,0-19-2.5-23.1-4.1L14,94.8c-2.2-1-9.2-5.4-9.2-9.2c0-4.1,4.1-7.9,6-9.2L111.3,8.9
	C115.1,6.3,122.4,4.8,130.3,4.8"/>
<path class="st3" d="M76.7,136.3l-15.2-5.7c-2.2-1-3.8-3.2-3.8-5.7l0,0c0-1.9,1.9-2.9,3.5-2.2l15.2,5.7c2.2,1,3.8,3.2,3.8,5.7l0,0
	C80.2,135.7,78.3,136.9,76.7,136.3z"/>
<path class="st3" d="M104,147.1l-15.2-5.7c-2.2-1-3.8-3.2-3.8-5.7l0,0c0-1.9,1.9-2.9,3.5-2.2l15.2,5.7c2.2,1,3.8,3.2,3.8,5.7l0,0
	C107.5,146.4,105.6,147.7,104,147.1z"/>
<path class="st4" d="M98.9,29.5L98.9,29.5c-2.9-1-6-0.6-8.6,1L59,51.7c-1.9,1.3-1.6,4.4,0.6,5.4l0,0c2.9,1,6,0.6,8.6-1l31.4-21.2
	C101.8,33.6,101.1,30.4,98.9,29.5z"/>
</svg>
