<?xml version="1.0" encoding="utf-8"?>
<!-- Generator: Adobe Illustrator 27.4.1, SVG Export Plug-In . SVG Version: 6.00 Build 0)  -->
<svg version="1.1" id="Layer_1" xmlns="http://www.w3.org/2000/svg" xmlns:xlink="http://www.w3.org/1999/xlink" x="0px" y="0px"
	 viewBox="0 0 513.6 267.1" style="enable-background:new 0 0 513.6 267.1;" xml:space="preserve">
<style type="text/css">
	.st0{fill:url(#SVGID_1_);}
	.st1{opacity:0.5;fill:#A8A8B0;}
	.st2{fill:url(#SVGID_00000099651377486415351990000012141416274555707038_);}
	.st3{opacity:0.5;fill:#CBCBD3;enable-background:new    ;}
	.st4{fill:#A8A8B0;}
</style>
<linearGradient id="SVGID_1_" gradientUnits="userSpaceOnUse" x1="0" y1="168.5154" x2="513.5977" y2="168.5154" gradientTransform="matrix(-1 0 0 1 513.5977 0)">
	<stop  offset="0" style="stop-color:#CCCCD5"/>
	<stop  offset="1" style="stop-color:#A1A1A8"/>
</linearGradient>
<path class="st0" d="M0.1,148.7c-0.4,4.1,1.9,8.2,7,11.7l96.3,64.5c11.9,8,35,9.4,51.5,3.3L497.3,100c10.4-3.9,16.1-9.8,16.2-15.7
	c0.1-3.2,0,4.6,0,4.6v17l0,0c-0.1,5.9-5.8,11.8-16.2,15.7L154.9,249.7c-16.5,6.2-39.6,4.7-51.5-3.3L7.1,181.9c-4.5-3-6.8-6.6-7-10.1
	l0,0L0.1,148.7L0.1,148.7z"/>
<path class="st1" d="M7.1,160.3l96.3,64.5c11.9,8,35,9.4,51.5,3.3L497.3,100c17.2-6.4,21.4-18.3,9.3-26.5L409,7.2
	c-12.1-8.2-35.9-9.6-53-3.1L15.2,134.4C-1.3,140.7-4.9,152.3,7.1,160.3z M5,149.1c0.3-2.8,3.6-6.9,11.9-10L357.8,8.8
	C364.2,6.4,372.1,5,380,5c10.5,0,20.3,2.4,26.2,6.3l97.6,66.3c2.3,1.6,5,4.1,4.7,7c-0.4,3-3.9,7.3-12.9,10.7L153.2,223.4
	c-6.1,2.3-13.6,3.5-21.1,3.5c-10.4,0-20.1-2.3-25.9-6.2L9.8,156.2C7.9,154.9,4.7,152.2,5,149.1z"/>
<linearGradient id="SVGID_00000053521723978768288090000000726786810376637573_" gradientUnits="userSpaceOnUse" x1="229.1568" y1="-15.2886" x2="245.1188" y2="60.9741" gradientTransform="matrix(-1 0 0 1 513.5977 0)">
	<stop  offset="2.583901e-04" style="stop-color:#878787;stop-opacity:0.1"/>
	<stop  offset="5.065849e-02" style="stop-color:#919192;stop-opacity:9.495869e-02"/>
	<stop  offset="0.2365" style="stop-color:#B1B1B5;stop-opacity:7.637301e-02"/>
	<stop  offset="0.4246" style="stop-color:#CACAD1;stop-opacity:5.755070e-02"/>
	<stop  offset="0.6139" style="stop-color:#DCDCE4;stop-opacity:3.861902e-02"/>
	<stop  offset="0.8048" style="stop-color:#E6E6F0;stop-opacity:1.952372e-02"/>
	<stop  offset="1" style="stop-color:#EAEAF4;stop-opacity:0"/>
</linearGradient>
<path style="fill:url(#SVGID_00000053521723978768288090000000726786810376637573_);" d="M5,149.1c0.3-2.8,3.6-6.9,11.9-10
	L357.8,8.8C364.2,6.4,372.1,5,380,5c10.5,0,20.3,2.4,26.2,6.3l97.6,66.3c2.3,1.6,5,4.1,4.7,7c-0.4,3-3.9,7.3-12.9,10.7L153.2,223.4
	c-6.1,2.3-13.6,3.5-21.1,3.5c-10.4,0-20.1-2.3-25.9-6.2L9.8,156.2C7.9,154.9,4.7,152.2,5,149.1z"/>
<path class="st3" d="M411.3,30.3l32.5,22c2.4,1.6,6.5,2.2,9.2,1.3v0c2.7-0.9,2.9-3,0.5-4.6l-32.8-22c-2.3-1.6-6.3-2.1-8.9-1.1l0,0
	C409.2,26.7,409,28.7,411.3,30.3z"/>
<path class="st4" d="M434.1,137.6c0.3,0,0.6-0.1,1-0.2l25-10c1.7-0.7,2.9-2.8,2.9-4.7c-0.1-1.4-0.8-2.2-1.9-2.2
	c-0.3,0-0.6,0.1-0.9,0.2l-24.8,9.7c-1.8,0.7-3.2,2.9-3.2,4.9C432.2,136.6,432.9,137.6,434.1,137.6z"/>
<path class="st4" d="M396.2,152.4c0.3,0,0.6-0.1,1-0.2l25-10c1.7-0.7,2.9-2.8,2.9-4.7c-0.1-1.4-0.8-2.2-1.9-2.2
	c-0.3,0-0.6,0.1-0.9,0.2l-24.8,9.7c-1.8,0.7-3.2,2.9-3.2,4.9C394.3,151.5,395.1,152.4,396.2,152.4z"/>
</svg>
