<?xml version="1.0" encoding="UTF-8"?>
<svg id="V2" xmlns="http://www.w3.org/2000/svg" viewBox="0 0 194.12 87.72">
  <defs>
    <style>
      .cls-1 {
        fill: #4055bf;
      }

      .cls-2 {
        opacity: .2;
      }

      .cls-2, .cls-3 {
        fill: #fff;
      }

      .cls-3 {
        opacity: .02;
      }
    </style>
  </defs>
  <path class="cls-1" d="m36.95,12.46l-.24-.08c-.34-.11-.7-.17-1.05-.17-.71,0-1.38.22-1.96.63l-8.85,6.37c-.25.18-.38.48-.33.78.05.31.25.55.55.65.35.11.71.17,1.07.17.72,0,1.41-.22,1.99-.64l9-6.48c.22-.16.32-.41.28-.68-.04-.27-.22-.47-.47-.56Z"/>
  <path class="cls-1" d="m189.77,45.96c-1.99-.66-129.31-42.87-135.01-44.76-5.71-1.89-12.81-1.56-16.54,1.12L1.67,28.62s-1.67,1.37-1.67,2.9v4.48c0,1.2.73,4.05,4.07,5.16,3.34,1.11,135.58,44.95,138.78,46.01s10.39.58,13.16-1.43c2.77-2.02,35.6-25.94,35.6-25.94,0,0,2.51-1.76,2.51-4.03v-4.69c0-2.66-2.37-4.47-4.36-5.12Zm1.25,6.09l-33.72,24.27c-3.05,2.19-6.31,3.26-9.95,3.26-2.48,0-5.23-.5-8.17-1.47,0,0-133.78-44.35-133.85-44.38-1.07-.35-2.04-.82-2.43-1.61-.33-.67-.36-1.59.69-2.39,0,0,35.82-25.78,35.82-25.78,1.72-1.23,4.56-1.94,7.79-1.94,2.39,0,4.79.38,6.95,1.1,5.71,1.89,133.03,44.1,135.01,44.76.69.23,1.33.58,1.9,1.02.49.38.85.76.92,1.41.09.76-.4,1.36-.95,1.75Z"/>
  <path class="cls-3" d="m191.04,48.88c-.57-.44-1.22-.79-1.9-1.02-1.99-.66-129.31-42.87-135.01-44.76-2.16-.72-4.56-1.1-6.95-1.1-3.23,0-6.07.71-7.79,1.94,0,0-35.82,25.78-35.82,25.78-1.05.81-1.02,1.72-.69,2.39.39.8,1.37,1.26,2.43,1.61.07.02,133.85,44.38,133.85,44.38,2.95.98,5.7,1.47,8.17,1.47,3.65,0,6.9-1.07,9.95-3.26l33.72-24.27c.55-.39,1.04-1,.95-1.75-.08-.65-.44-1.03-.92-1.41ZM37.14,13.69l-9,6.48c-.58.42-1.27.64-1.99.64-.36,0-.73-.06-1.07-.17-.3-.1-.5-.34-.55-.65-.05-.31.08-.6.33-.78l8.85-6.37c.57-.41,1.25-.63,1.96-.63.36,0,.71.06,1.05.17l.24.08c.25.08.43.29.47.56.04.27-.07.52-.28.68Z"/>
  <polygon class="cls-2" points="26.16 45.5 15.3 41.9 15.3 40.85 26.18 44.46 26.16 45.5"/>
  <polygon class="cls-2" points="42.51 50.87 31.49 47.22 31.49 46.27 42.51 49.92 42.51 50.87"/>
  <path class="cls-2" d="m191.02,52.04l-33.72,24.27c-2.84,2.04-5.86,3.09-9.2,3.23v8.15c3.02-.11,6.26-.76,7.92-1.96,2.77-2.02,35.6-25.94,35.6-25.94,0,0,2.51-1.76,2.51-4.03v-4.69c0-.13-.03-.26-.04-.39l-2.19.22c-.15.46-.49.85-.88,1.13Z"/>
  <path class="cls-2" d="m144.77,87.58v-8.18c-.44-.05-.88-.1-1.33-.18v8.13c.4.1.85.17,1.33.24Z"/>
</svg>
