<?xml version="1.0" encoding="UTF-8"?>
<svg id="Layer_1" data-name="Layer 1" xmlns="http://www.w3.org/2000/svg" viewBox="0 0 194.12 87.71">
  <defs>
    <style>
      .cls-1 {
        fill: none;
        isolation: isolate;
      }
    </style>
  </defs>
  <path class="cls-1" d="m194.12,87.71H0V31.73l2.9.39c.39.8,1.37,1.26,2.43,1.61.07.02,133.85,44.38,133.85,44.38,2.95.98,5.7,1.47,8.17,1.47,3.65,0,6.9-1.07,9.95-3.26l33.72-24.27c.55-.39,1.04-1,.95-1.75l2.15.87v36.54Z"/>
  <path d="m0,0v31.73l2.9.39c.39.8,1.37,1.26,2.43,1.61.07.02,133.85,44.38,133.85,44.38,2.95.98,5.7,1.47,8.17,1.47,3.65,0,6.9-1.07,9.95-3.26l33.72-24.27c.55-.39,1.04-1,.95-1.75l2.15.87V0H0Z"/>
</svg>
