<?xml version="1.0" encoding="utf-8"?>
<!-- Generator: Adobe Illustrator 27.4.1, SVG Export Plug-In . SVG Version: 6.00 Build 0)  -->
<svg version="1.1" id="Layer_1" xmlns="http://www.w3.org/2000/svg" xmlns:xlink="http://www.w3.org/1999/xlink" x="0px" y="0px"
	 viewBox="0 0 162.9 80.8" style="enable-background:new 0 0 162.9 80.8;" xml:space="preserve">
<style type="text/css">
	.st0{fill:url(#SVGID_1_);}
	.st1{fill:#B7B7B7;}
	.st2{fill:url(#SVGID_00000082329720873138115140000015640038859234995329_);}
	.st3{fill:#B5B5B5;}
	.st4{opacity:0.3;fill:#7F7F7F;enable-background:new    ;}
</style>
<g>
	
		<linearGradient id="SVGID_1_" gradientUnits="userSpaceOnUse" x1="0" y1="28.0992" x2="162.9438" y2="28.0992" gradientTransform="matrix(1 0 0 -1 0 82)">
		<stop  offset="0" style="stop-color:#E3E3E3"/>
		<stop  offset="1" style="stop-color:#B0B0B0"/>
	</linearGradient>
	<path class="st0" d="M162.9,47.5l-0.2,0.2l-0.1,0.1c0,1.7-1,2.5-2,3.2c-1.7,1.2-22.6,15.5-29.4,20.1c-6.8,4.6-13.8,3.1-17.8,1.6
		C109.4,71,4.8,30.8,4.2,30.6C3.6,30.4,0,29.3,0,27c0,0,0,4.7,0,5.8s-0.3,3.1,3.5,4.5S111.1,78.5,115,80s11.4,0.7,14.1-0.8
		c3-1.7,30.6-20.9,32-21.9c1.4-0.9,1.7-1.8,1.8-3.2C162.9,52.8,162.9,47.5,162.9,47.5z"/>
</g>
<g>
	<path class="st1" d="M41.1,1.5c2.6,0,5.3,0.5,7.7,1.4c1,0.4,4.8,1.8,10.4,3.9c25.8,9.7,94.4,35.5,99.5,38c1.8,0.9,2.9,1.9,2.9,2.8
		c0.1,1-0.9,2.1-1.6,2.6l-29,19.9c-2.9,2-6.3,3-10,3c-3.4,0-6-0.8-7.3-1.3L4.4,29.9c-0.7-0.3-2.9-1.7-2.9-2.9c0-1.3,1.3-2.5,1.9-2.9
		L35.1,2.8C36.3,2,38.6,1.5,41.1,1.5 M41.1,0c-2.9,0-5.4,0.6-6.8,1.5L2.5,22.8c0,0-2.5,1.8-2.5,4.1s3.2,4.1,3.8,4.3
		s105.3,40.3,109.3,41.9c1.9,0.7,4.7,1.4,7.8,1.4c3.4,0,7.3-0.8,10.8-3.3c6.8-4.6,27.3-18.7,29-19.9s4.7-5-1.5-8S55,3.6,49.2,1.3
		C46.6,0.5,43.7,0,41.1,0L41.1,0z"/>
</g>
<g>
	
		<linearGradient id="SVGID_00000104693279265518385580000002404984778816929187_" gradientUnits="userSpaceOnUse" x1="72.9883" y1="-5.0518" x2="78.8078" y2="23.713">
		<stop  offset="2.583901e-04" style="stop-color:#878787;stop-opacity:0.1"/>
		<stop  offset="9.434051e-02" style="stop-color:#9D9D9D;stop-opacity:9.058936e-02"/>
		<stop  offset="0.2715" style="stop-color:#C0C0C0;stop-opacity:7.286439e-02"/>
		<stop  offset="0.4511" style="stop-color:#DCDCDC;stop-opacity:5.490269e-02"/>
		<stop  offset="0.6317" style="stop-color:#EFEFEF;stop-opacity:3.684392e-02"/>
		<stop  offset="0.8138" style="stop-color:#FBFBFB;stop-opacity:1.862552e-02"/>
		<stop  offset="1" style="stop-color:#FFFFFF;stop-opacity:0"/>
	</linearGradient>
	<path style="fill:url(#SVGID_00000104693279265518385580000002404984778816929187_);" d="M41.1,1.5c2.6,0,5.3,0.5,7.7,1.4
		c1,0.4,4.8,1.8,10.4,3.9c25.8,9.7,94.4,35.5,99.5,38c1.8,0.9,2.9,1.9,2.9,2.8c0.1,1-0.9,2.1-1.6,2.6l-29,19.9c-2.9,2-6.3,3-10,3
		c-3.4,0-6-0.8-7.3-1.3L4.4,29.9c-0.7-0.3-2.9-1.7-2.9-2.9c0-1.3,1.3-2.5,1.9-2.9L35.1,2.8C36.3,2,38.6,1.5,41.1,1.5"/>
</g>
<path class="st3" d="M24.2,43l-4.8-1.8c-0.7-0.3-1.2-1-1.2-1.8l0,0c0-0.6,0.6-0.9,1.1-0.7l4.8,1.8c0.7,0.3,1.2,1,1.2,1.8l0,0
	C25.3,42.8,24.7,43.2,24.2,43z"/>
<path class="st3" d="M32.8,46.4L28,44.6c-0.7-0.3-1.2-1-1.2-1.8l0,0c0-0.6,0.6-0.9,1.1-0.7l4.8,1.8c0.7,0.3,1.2,1,1.2,1.8l0,0
	C33.9,46.2,33.3,46.6,32.8,46.4z"/>
<path class="st4" d="M31.2,9.3L31.2,9.3c-0.9-0.3-1.9-0.2-2.7,0.3l-9.9,6.7c-0.6,0.4-0.5,1.4,0.2,1.7l0,0c0.9,0.3,1.9,0.2,2.7-0.3
	l9.9-6.7C32.1,10.6,31.9,9.6,31.2,9.3z"/>
</svg>
