<?xml version="1.0" encoding="utf-8"?>
<!-- Generator: Adobe Illustrator 27.4.1, SVG Export Plug-In . SVG Version: 6.00 Build 0)  -->
<svg version="1.1" id="Layer_1" xmlns="http://www.w3.org/2000/svg" xmlns:xlink="http://www.w3.org/1999/xlink" x="0px" y="0px"
	 viewBox="0 0 194.1 545" style="enable-background:new 0 0 194.1 545;" xml:space="preserve">
<style type="text/css">
	.st0{fill:none;}
</style>
<path class="st0" d="M194.1,545H0v-56l2.9,0.4c0.4,0.8,1.4,1.3,2.4,1.6c0.1,0,133.9,44.4,133.9,44.4c2.9,1,5.7,1.5,8.2,1.5
	c3.6,0,6.9-1.1,9.9-3.3l33.7-24.3c0.6-0.4,1-1,0.9-1.8l2.1,0.9V545z"/>
<path d="M0,0v489l2.9,0.4c0.4,0.8,1.4,1.3,2.4,1.6c0.1,0,133.9,44.4,133.9,44.4c2.9,1,5.7,1.5,8.2,1.5c3.6,0,6.9-1.1,9.9-3.3
	l33.7-24.3c0.6-0.4,1-1,0.9-1.8l2.1,0.9V0H0z"/>
</svg>
