<?xml version="1.0" encoding="utf-8"?>
<!-- Generator: Adobe Illustrator 27.4.1, SVG Export Plug-In . SVG Version: 6.00 Build 0)  -->
<svg version="1.1" id="Layer_1" xmlns="http://www.w3.org/2000/svg" xmlns:xlink="http://www.w3.org/1999/xlink" x="0px" y="0px"
	 viewBox="0 0 516.4 270.9" style="enable-background:new 0 0 516.4 270.9;" xml:space="preserve">
<style type="text/css">
	.st0{fill:#E6E6E6;}
</style>
<g>
	<path class="st0" d="M506.9,180.2c-17.6,12.3-89.2,62-97.7,66.8c-8.6,4.8-32.3,7.3-44.7,2.5c-12.4-4.8-341.4-130.9-353.4-135.3
		c-0.6-0.2-1.2-0.5-1.8-0.7c-2,1.8-4.6,4.8-4.6,8.1c0,3.8,7,8.2,9.2,9.2l346.4,132.8c4.1,1.6,12.4,4.1,23.1,4.1
		c11.7,0,22.5-3.2,31.7-9.5l91.9-63.1c2.2-1.6,5.4-5.1,5.1-8.2C512.2,184.7,510.3,182.4,506.9,180.2z"/>
</g>
</svg>
