<?xml version="1.0" encoding="utf-8"?>
<!-- Generator: Adobe Illustrator 27.4.1, SVG Export Plug-In . SVG Version: 6.00 Build 0)  -->
<svg version="1.1" id="Layer_1" xmlns="http://www.w3.org/2000/svg" xmlns:xlink="http://www.w3.org/1999/xlink" x="0px" y="0px"
	 viewBox="0 0 588 588" style="enable-background:new 0 0 588 588;" xml:space="preserve">
<style type="text/css">
	.st0{fill:#A0A0A0;}
	.st1{fill:#292929;}
	.st2{fill:#454545;}
	.st3{fill:#E2E2E2;}
</style>
<g>
	<g>
		<path class="st0" d="M538.7,322.3H262.8c-3.6,0-5.2-4.6-2.3-6.8l125.4-96.9c8.7-6.8,21-6.8,29.7,0L541,315.5
			C543.9,317.7,542.3,322.3,538.7,322.3z"/>
		<path class="st1" d="M421.1,322.3c8.3-7.5,16.7-14.9,23.7-23.7c5.3-6.6,16.5-20.9,10.9-29.7c-4-6.3-14.6-4.7-20.7-3.9
			c-12.9,1.8-28,7.8-40.9,4.1c-4-1.2-6.5-4-4.7-8.3c3.1-7.2,8.9-12.6,13.6-18.6c5-6.4,9.1-13.5,12-20.7c1-2.5-0.9-4.1-0.9-4.1
			l122.3,94.2l4.7,3.9c2.9,2.2,1.3,6.8-2.3,6.8L421.1,322.3L421.1,322.3z"/>
	</g>
	<g>
		<path class="st0" d="M428,322.3H50.7c-5,0-7.1-6.3-3.2-9.3L219,180.4c12-9.3,28.7-9.3,40.6,0L431.2,313
			C435.1,316,433,322.3,428,322.3z"/>
		<path class="st1" d="M267.2,322.3c11.3-10.3,22.9-20.4,32.5-32.4c7.2-9,22.5-28.6,14.9-40.6c-11.3-17.7-81.8-13.1-84.9-33.7
			c-1.2-7.5,9.9-14.5,14.8-18.6c5.4-4.5,12.1-9.7,14.4-12.6c2.3-2.9-1.3-5.7-1.3-5.7l167.3,128.9l6.4,5.4l11.4,9.3H428L267.2,322.3
			L267.2,322.3z"/>
	</g>
	<path class="st2" d="M190.8,259.4c-5.3,0-9.5,4.3-9.5,9.5v22.4c0,2.3-1.9,4.2-4.2,4.2h-4.3v-34.2c0-8.4-6.8-15.2-15.2-15.2
		s-15.2,6.8-15.2,15.2v49.3h-7.2c-2.3,0-4.2-1.9-4.2-4.2V287c0-5.3-4.3-9.5-9.5-9.5s-9.5,4.3-9.5,9.5v19.5
		c0,12.8,10.4,23.2,23.2,23.2h7.2v40.6h30.5v-55.8h4.3c12.8,0,23.2-10.4,23.2-23.2v-22.4C200.3,263.7,196.1,259.4,190.8,259.4z"/>
	<path class="st2" d="M91.8,301.4c-2.9,0-5.2,2.3-5.2,5.2v12.2c0,1.2-1,2.3-2.3,2.3H82v-21.6h0.4c4.2,0,7.6-3.4,7.6-7.6v-7.4
		c0-1.7-1.4-3.1-3.1-3.1s-3.1,1.4-3.1,3.1v7.4c0,0.8-0.6,1.4-1.4,1.4H82v-15.4c0-4.6-3.7-8.3-8.3-8.3c-4.6,0-8.3,3.7-8.3,8.3V316
		c-1.2,0-1.9-0.7-1.9-1.7v-10c0-2.4-1.9-4.3-4.3-4.3c-2.4,0-4.3,1.9-4.3,4.3v10c0,5.7,3.4,10.4,10.4,10.4V347H82v-15.7h2.3
		c6.9,0,12.6-5.6,12.6-12.6v-12.2C96.9,303.7,94.6,301.4,91.8,301.4z"/>
	<circle class="st3" cx="342.6" cy="178.7" r="18.7"/>
	<path class="st3" d="M502.7,340.6H202c-3.9,0-7.1,1.6-7.1,3.5v9.8c0,1.9,3.2,3.5,7.1,3.5h44.3c3.9,0,7.1,1.6,7.1,3.5v2.8
		c0,1.9,3.2,3.5,7.1,3.5h93.7c3.9,0,7.1,1.6,7.1,3.5v0.6c0,1.9,3.2,3.5,7.1,3.5h90c3.9,0,7.1-1.6,7.1-3.5v-0.6
		c0-1.9,3.2-3.5,7.1-3.5h6.1c3.9,0,7.1-1.6,7.1-3.5v-2.8c0-1.9,3.2-3.5,7.1-3.5h9.6c3.9,0,7.1-1.6,7.1-3.5V344
		C509.8,342.1,506.6,340.6,502.7,340.6z"/>
</g>
</svg>
