<?xml version="1.0" encoding="utf-8"?>
<!-- Generator: Adobe Illustrator 27.4.1, SVG Export Plug-In . SVG Version: 6.00 Build 0)  -->
<svg version="1.1" id="Layer_1" xmlns="http://www.w3.org/2000/svg" xmlns:xlink="http://www.w3.org/1999/xlink" x="0px" y="0px"
	 viewBox="0 0 144 144" style="enable-background:new 0 0 144 144;" xml:space="preserve">
<style type="text/css">
	.st0{fill:#262626;}
	.st1{fill:none;stroke:#B3B3B3;stroke-width:2.8163;stroke-linecap:round;stroke-miterlimit:10;}
	.st2{fill:#B3B3B3;}
</style>
<circle class="st0" cx="72.1" cy="50.8" r="42.8"/>
<circle class="st1" cx="71.6" cy="50.8" r="12.5"/>
<line class="st1" x1="54.3" y1="68.1" x2="88.8" y2="33.6"/>
<g>
	<path class="st2" d="M18,115.1h2.2l0.2,2.2h0.1c1.5-1.5,3.1-2.6,5.2-2.6c3.3,0,4.8,2.1,4.8,6.1v9.9h-2.6v-9.5
		c0-2.9-0.9-4.1-2.9-4.1c-1.6,0-2.7,0.8-4.3,2.4v11.3H18V115.1z"/>
	<path class="st2" d="M34.3,122.9c0-5.2,3.4-8.2,7.2-8.2s7.2,3,7.2,8.2c0,5.2-3.4,8.2-7.2,8.2S34.3,128.1,34.3,122.9z M46.1,122.9
		c0-3.6-1.8-6-4.5-6s-4.5,2.4-4.5,6s1.8,6,4.5,6C44.2,128.9,46.1,126.5,46.1,122.9z"/>
	<path class="st2" d="M58.7,110.2c0-1,0.8-1.7,1.8-1.7s1.8,0.7,1.8,1.7s-0.8,1.7-1.8,1.7C59.5,111.9,58.7,111.2,58.7,110.2z
		 M59.1,115.1h2.6v15.6h-2.6V115.1z"/>
	<path class="st2" d="M67.5,125.9v-8.6h-2.3v-2l2.4-0.2l0.3-4.4h2.2v4.4h4.2v2.1h-4.2v8.7c0,1.9,0.6,3,2.4,3c0.6,0,1.3-0.2,1.8-0.4
		l0.5,2c-0.9,0.3-1.9,0.6-2.9,0.6C68.6,131.1,67.5,129,67.5,125.9z"/>
	<path class="st2" d="M76.2,122.9c0-5.1,3.4-8.2,7-8.2c4,0,6.2,2.9,6.2,7.3c0,0.6,0,1.1-0.1,1.5H78.8C79,126.9,81,129,84,129
		c1.5,0,2.7-0.5,3.9-1.2l0.9,1.7c-1.4,0.9-3,1.6-5.1,1.6C79.5,131.1,76.2,128.1,76.2,122.9z M87.1,121.7c0-3.1-1.4-4.8-3.8-4.8
		c-2.2,0-4.1,1.8-4.5,4.8H87.1z"/>
	<path class="st2" d="M93.3,115.1h2.2l0.2,2.3h0.1c1.4-1.5,3-2.6,4.8-2.6c2.4,0,3.7,1.1,4.3,3c1.6-1.8,3.2-3,5.1-3
		c3.2,0,4.7,2.1,4.7,6.1v9.9h-2.6v-9.5c0-2.9-0.9-4.1-2.9-4.1c-1.2,0-2.5,0.8-3.9,2.4v11.3h-2.6v-9.5c0-2.9-0.9-4.1-2.9-4.1
		c-1.2,0-2.5,0.8-3.9,2.4V131h-2.6C93.3,131,93.3,115.1,93.3,115.1z"/>
	<path class="st2" d="M118.1,128.9l1.3-1.7c1.4,1.1,2.7,1.8,4.6,1.8c2,0,3.1-1.1,3.1-2.4c0-1.6-1.8-2.3-3.6-3
		c-2.2-0.8-4.6-1.9-4.6-4.5c0-2.5,2-4.4,5.4-4.4c1.9,0,3.6,0.8,4.8,1.7l-1.3,1.7c-1.1-0.8-2.2-1.4-3.6-1.4c-2,0-2.9,1-2.9,2.2
		c0,1.5,1.7,2,3.5,2.7c2.2,0.8,4.7,1.8,4.7,4.7c0,2.5-2,4.6-5.7,4.6C121.7,131.1,119.6,130.2,118.1,128.9z"/>
</g>
</svg>
