<?xml version="1.0" encoding="utf-8"?>
<!-- Generator: Adobe Illustrator 27.4.1, SVG Export Plug-In . SVG Version: 6.00 Build 0)  -->
<svg version="1.1" id="Layer_1" xmlns="http://www.w3.org/2000/svg" xmlns:xlink="http://www.w3.org/1999/xlink" x="0px" y="0px"
	 viewBox="0 0 144 144" style="enable-background:new 0 0 144 144;" xml:space="preserve">
<style type="text/css">
	.st0{fill:#404040;}
	.st1{fill:#292929;}
	.st2{fill:#4D4D4D;}
	.st3{fill:#333333;}
</style>
<g>
	<polygon class="st0" points="38,55.1 72,35.9 106,55.1 72,74.3 	"/>
	<polygon class="st1" points="72,74.3 38,55.1 72,35.9 	"/>
	<path class="st2" d="M69.4,116.2L34.6,96.6C33,95.6,32,93.9,32,92V55.1l40,22.6l40-22.6V92c0,1.9-1,3.6-2.7,4.6l-34.8,19.7
		C73,117.1,71,117.1,69.4,116.2z"/>
	<g>
		<path class="st3" d="M32,55.1l40-22.6L53.4,21.8c-0.9-0.5-2-0.5-2.8,0L16.4,41.1c-1.9,1.1-1.9,3.8,0,5L32,55.1z"/>
	</g>
	<g>
		<path class="st3" d="M112,55.1L72,32.5l18.6-10.8c0.9-0.5,2-0.5,2.8,0l34.2,19.4c1.9,1.1,1.9,3.8,0,5L112,55.1z"/>
	</g>
	<g>
		<path class="st3" d="M56,93.4L21,73.7c-1.5-0.9-1.9-2.9-0.8-4.3L32,55.1l40,22.6l-12.4,15C58.7,93.8,57.2,94.1,56,93.4z"/>
	</g>
	<g>
		<path class="st3" d="M88,93.4l35-19.8c1.5-0.9,1.9-2.9,0.8-4.3L112,55.1L72,77.8l12.4,15C85.3,93.8,86.8,94.1,88,93.4z"/>
	</g>
</g>
</svg>
