<?xml version="1.0" encoding="utf-8"?>
<!-- Generator: Adobe Illustrator 27.4.1, SVG Export Plug-In . SVG Version: 6.00 Build 0)  -->
<svg version="1.1" id="Layer_1" xmlns="http://www.w3.org/2000/svg" xmlns:xlink="http://www.w3.org/1999/xlink" x="0px" y="0px"
	 viewBox="0 0 144 144" style="enable-background:new 0 0 144 144;" xml:space="preserve">
<style type="text/css">
	.st0{fill:#DAE0E6;}
	.st1{fill:none;stroke:#666666;stroke-width:2.8163;stroke-linecap:round;stroke-miterlimit:10;}
	.st2{fill:#666666;}
</style>
<circle class="st0" cx="73" cy="51.2" r="37.6"/>
<circle class="st1" cx="72.5" cy="51.2" r="12.5"/>
<line class="st1" x1="55.2" y1="68.4" x2="89.7" y2="34"/>
<g>
	<path class="st2" d="M18.9,115.5h2.2l0.2,2.2h0.1c1.5-1.5,3.1-2.6,5.2-2.6c3.3,0,4.8,2.1,4.8,6.1v9.9h-2.6v-9.5
		c0-2.9-0.9-4.1-2.9-4.1c-1.6,0-2.7,0.8-4.3,2.4V131H19v-15.5H18.9z"/>
	<path class="st2" d="M35.2,123.3c0-5.2,3.4-8.2,7.2-8.2s7.2,3,7.2,8.2s-3.4,8.2-7.2,8.2C38.6,131.4,35.2,128.4,35.2,123.3z
		 M47,123.3c0-3.6-1.8-6-4.5-6s-4.5,2.4-4.5,6s1.8,6,4.5,6C45.1,129.2,47,126.8,47,123.3z"/>
	<path class="st2" d="M59.6,110.6c0-1,0.8-1.7,1.8-1.7s1.8,0.7,1.8,1.7s-0.8,1.7-1.8,1.7C60.4,112.3,59.6,111.6,59.6,110.6z
		 M60,115.5h2.6V131H60V115.5z"/>
	<path class="st2" d="M68.4,126.2v-8.6h-2.3v-2l2.4-0.2l0.3-4.4H71v4.4h4.2v2.1H71v8.7c0,1.9,0.6,3,2.4,3c0.6,0,1.3-0.2,1.8-0.4
		l0.5,2c-0.9,0.3-1.9,0.6-2.9,0.6C69.5,131.4,68.4,129.3,68.4,126.2z"/>
	<path class="st2" d="M77.1,123.3c0-5.1,3.4-8.2,7-8.2c4,0,6.2,2.9,6.2,7.3c0,0.6,0,1.1-0.1,1.5H79.7c0.2,3.3,2.2,5.4,5.2,5.4
		c1.5,0,2.7-0.5,3.9-1.2l0.9,1.7c-1.4,0.9-3,1.6-5.1,1.6C80.4,131.4,77.1,128.4,77.1,123.3z M88,122c0-3.1-1.4-4.8-3.8-4.8
		c-2.2,0-4.1,1.8-4.5,4.8H88z"/>
	<path class="st2" d="M94.2,115.5h2.2l0.2,2.3h0.1c1.4-1.5,3-2.6,4.8-2.6c2.4,0,3.7,1.1,4.3,3c1.6-1.8,3.2-3,5.1-3
		c3.2,0,4.7,2.1,4.7,6.1v9.9H113v-9.5c0-2.9-0.9-4.1-2.9-4.1c-1.2,0-2.5,0.8-3.9,2.4v11h-2.6v-9.5c0-2.9-0.9-4.1-2.9-4.1
		c-1.2,0-2.5,0.8-3.9,2.4V131h-2.6C94.2,131,94.2,115.5,94.2,115.5z"/>
	<path class="st2" d="M119,129.3l1.3-1.7c1.4,1.1,2.7,1.8,4.6,1.8c2,0,3.1-1.1,3.1-2.4c0-1.6-1.8-2.3-3.6-3
		c-2.2-0.8-4.6-1.9-4.6-4.5c0-2.5,2-4.4,5.4-4.4c1.9,0,3.6,0.8,4.8,1.7l-1.3,1.7c-1.1-0.8-2.2-1.4-3.6-1.4c-2,0-2.9,1-2.9,2.2
		c0,1.5,1.7,2,3.5,2.7c2.2,0.8,4.7,1.8,4.7,4.7c0,2.5-2,4.6-5.7,4.6C122.6,131.4,120.5,130.5,119,129.3z"/>
</g>
</svg>
