<?xml version="1.0" encoding="utf-8"?>
<!-- Generator: Adobe Illustrator 27.4.1, SVG Export Plug-In . SVG Version: 6.00 Build 0)  -->
<svg version="1.1" id="Layer_1" xmlns="http://www.w3.org/2000/svg" xmlns:xlink="http://www.w3.org/1999/xlink" x="0px" y="0px"
	 viewBox="0 0 288 288" style="enable-background:new 0 0 288 288;" xml:space="preserve">
<style type="text/css">
	.st0{fill:#808080;}
	.st1{fill:#FAFAFA;}
</style>
<g>
	<g>
		<path class="st0" d="M238,174.5H50c-16.8,0-30.5-13.6-30.5-30.5l0,0c0-16.8,13.6-30.5,30.5-30.5h188c16.8,0,30.5,13.6,30.5,30.5
			l0,0C268.5,160.8,254.8,174.5,238,174.5z"/>
	</g>
	<path class="st1" d="M65.5,155.4c-1.3,0-2.4-0.3-3.3-0.8c-1-0.5-1.7-1.3-2.3-2.2c-0.5-0.9-0.8-2-0.8-3.3c0-2.4,1-4.3,3-5.5
		c2-1.2,5.2-2.1,9.7-2.6c0-0.7-0.2-1.4-0.4-2c-0.2-0.6-0.7-1.1-1.2-1.5c-0.6-0.4-1.3-0.5-2.3-0.5c-1.1,0-2.1,0.2-3.1,0.6
		c-1,0.4-2,0.9-3,1.4l-1.8-3.4c0.8-0.5,1.6-1,2.6-1.4c0.9-0.4,1.9-0.8,3-1c1.1-0.2,2.1-0.4,3.3-0.4c1.8,0,3.3,0.4,4.4,1.1
		c1.2,0.7,2.1,1.8,2.7,3.2s0.9,3.1,0.9,5.1v12.7h-4.2l-0.4-2.4h-0.2c-1,0.8-2,1.5-3.1,2.1C67.9,155.1,66.8,155.4,65.5,155.4z
		 M67.1,151.3c0.9,0,1.7-0.2,2.4-0.5c0.7-0.4,1.5-0.9,2.3-1.6v-4.6c-2,0.2-3.5,0.5-4.6,0.9s-1.9,0.8-2.4,1.4
		c-0.5,0.5-0.7,1.2-0.7,1.9c0,0.9,0.3,1.6,0.9,1.9C65.4,151.1,66.2,151.3,67.1,151.3z"/>
	<path class="st1" d="M99.9,155.9c-1,0-1.9-0.2-3-0.7c-1-0.5-2-1.2-2.9-2.1h-0.1l-0.4,2.3h-4v-30.9h5v8l-0.1,3.6
		c0.9-0.8,1.9-1.4,3-1.9s2.2-0.7,3.3-0.7c1.8,0,3.3,0.5,4.6,1.4c1.3,0.9,2.2,2.2,2.9,3.8s1,3.5,1,5.8c0,2.5-0.4,4.5-1.3,6.3
		s-2,3.1-3.4,4C103,155.5,101.5,155.9,99.9,155.9z M98.9,151.8c1,0,1.8-0.3,2.6-0.8c0.8-0.6,1.4-1.4,1.8-2.5s0.7-2.5,0.7-4.1
		c0-1.4-0.2-2.7-0.5-3.7s-0.8-1.8-1.5-2.3s-1.6-0.8-2.6-0.8c-0.8,0-1.6,0.2-2.3,0.6c-0.8,0.4-1.6,1-2.4,1.8v10
		c0.8,0.6,1.5,1.1,2.3,1.4C97.6,151.6,98.3,151.8,98.9,151.8z"/>
	<path class="st1" d="M132.3,155.4c-2,0-3.8-0.4-5.3-1.3c-1.6-0.9-2.8-2.2-3.7-3.9c-0.9-1.7-1.4-3.7-1.4-6.1c0-2.4,0.5-4.4,1.5-6.1
		c1-1.7,2.3-3,4-3.9c1.6-0.9,3.4-1.3,5.3-1.3c1.4,0,2.6,0.2,3.6,0.7s1.9,1,2.7,1.7l-2.4,3.2c-0.5-0.4-1-0.8-1.6-1.1s-1.3-0.4-2-0.4
		c-1.1,0-2.1,0.3-3,0.9c-0.9,0.6-1.6,1.4-2.1,2.5c-0.5,1.1-0.8,2.3-0.8,3.8c0,1.4,0.2,2.7,0.7,3.7c0.5,1.1,1.2,1.9,2,2.5
		c0.9,0.6,1.9,0.9,3,0.9c0.8,0,1.6-0.2,2.4-0.5c0.7-0.3,1.4-0.7,2-1.2l2.1,3.1c-0.9,0.8-1.9,1.5-3.1,2
		C134.9,155.1,133.6,155.4,132.3,155.4z"/>
</g>
<circle class="st1" cx="161.7" cy="144.7" r="5.4"/>
<circle class="st1" cx="193" cy="144.7" r="5.4"/>
<circle class="st1" cx="224.3" cy="144.7" r="5.4"/>
</svg>
