<?xml version="1.0" encoding="utf-8"?>
<!-- Generator: Adobe Illustrator 27.2.0, SVG Export Plug-In . SVG Version: 6.00 Build 0)  -->
<svg version="1.1" id="Layer_1" xmlns="http://www.w3.org/2000/svg" xmlns:xlink="http://www.w3.org/1999/xlink" x="0px" y="0px"
	 viewBox="0 0 37 32.6" style="enable-background:new 0 0 37 32.6;" xml:space="preserve">
<style type="text/css">
	.st0{fill:#F47788;}
	.st1{fill:#FFFFFF;}
</style>
<path class="st0" d="M21.2,1.8l13.9,26c1,2-0.4,4.3-2.6,4.3H18.6H4.7c-2.2,0-3.6-2.4-2.6-4.3l13.9-26C17.2-0.3,20.1-0.3,21.2,1.8z"
	/>
<g>
	<path class="st1" d="M21.1,27.9c0,0.4-0.3,0.6-0.6,0.6h-3.7c-0.4,0-0.6-0.3-0.6-0.6v-3.7c0-0.4,0.3-0.6,0.6-0.6h3.7
		c0.4,0,0.6,0.3,0.6,0.6V27.9z"/>
</g>
<g>
	<path class="st1" d="M21.2,20.4c0,0.4-0.3,0.7-0.6,0.7h-3.8c-0.4,0-0.6-0.3-0.6-0.7V8.9c0-0.4,0.3-0.7,0.6-0.7h3.8
		c0.4,0,0.6,0.3,0.6,0.7V20.4z"/>
</g>
</svg>
