<?xml version="1.0" encoding="utf-8"?>
<!-- Generator: Adobe Illustrator 27.4.1, SVG Export Plug-In . SVG Version: 6.00 Build 0)  -->
<svg version="1.1" id="Layer_1" xmlns="http://www.w3.org/2000/svg" xmlns:xlink="http://www.w3.org/1999/xlink" x="0px" y="0px"
	 viewBox="0 0 48 48" style="enable-background:new 0 0 48 48;" xml:space="preserve">
<style type="text/css">
	.st0{fill:#039BE5;}
	.st1{fill:#FFFFFF;}
</style>
<path class="st0" d="M24,5C13.5,5,5,13.5,5,24s8.5,19,19,19s19-8.5,19-19S34.5,5,24,5z"/>
<path class="st1" d="M26.6,29h4.9l0.8-5h-5.7v-2.7c0-2.1,0.7-3.9,2.6-3.9h3.1V13c-0.5-0.1-1.7-0.2-3.9-0.2c-4.6,0-7.3,2.4-7.3,7.9
	V24h-4.7v5h4.7v13.7C22.1,42.9,23,43,24,43c0.9,0,1.7-0.1,2.6-0.2V29z"/>
</svg>
