<?xml version="1.0" encoding="utf-8"?>
<!-- Generator: Adobe Illustrator 27.4.1, SVG Export Plug-In . SVG Version: 6.00 Build 0)  -->
<svg version="1.1" id="Layer_1" xmlns="http://www.w3.org/2000/svg" xmlns:xlink="http://www.w3.org/1999/xlink" x="0px" y="0px"
	 viewBox="0 0 278.4 111.7" style="enable-background:new 0 0 278.4 111.7;" xml:space="preserve">
<style type="text/css">
	.st0{fill:#242424;}
</style>
<g>
	<path class="st0" d="M49.7,85.7c-1.7,0-3.3-0.6-4.6-1.9L29.4,68.2c-1.3-1.3-2-2.9-1.9-4.7c0-1.7,0.7-3.3,2-4.5l26.2-26.2
		c2.6-2.6,6.6-2.6,9.2,0l15.6,15.6c2.6,2.6,2.6,6.6,0,9.2L54.3,83.8C53,85.1,51.3,85.7,49.7,85.7z M60.2,35.9
		c-0.4,0-0.8,0.2-1.1,0.5L33,62.6c0,0,0,0-0.1,0.1c-0.3,0.3-0.4,0.7-0.4,0.9c0,0.4,0.2,0.8,0.5,1.1l15.6,15.6c0.6,0.6,1.5,0.6,2.2,0
		L77,54.2c0.6-0.6,0.6-1.5,0-2.2L61.3,36.4C61,36.1,60.6,35.9,60.2,35.9z M31.2,60.8L31.2,60.8L31.2,60.8z"/>
	<path class="st0" d="M77.2,51c-0.6,0-1.3-0.2-1.8-0.7l-12-12c-1-1-1-2.6,0-3.5l10.7-10.7c1-1,2.6-1,3.5,0l12,12c1,1,1,2.6,0,3.5
		L79,50.2C78.5,50.7,77.8,51,77.2,51z M68.8,36.5l8.4,8.4l7.1-7.1l-8.4-8.4L68.8,36.5z"/>
	<path class="st0" d="M54.8,67.5c-4.8,0-8.7-3.9-8.7-8.7s3.9-8.7,8.7-8.7s8.7,3.9,8.7,8.7S59.6,67.5,54.8,67.5z M54.8,55.1
		c-2,0-3.7,1.7-3.7,3.7s1.7,3.7,3.7,3.7s3.7-1.7,3.7-3.7S56.8,55.1,54.8,55.1z"/>
</g>
<g>
	<path class="st0" d="M159.8,49.4c-0.7,0-1.4-0.4-1.8-1.1c-0.2-0.5-6.3-12.2-20.1-12.3c-0.1,0-0.1,0-0.2,0
		c-13.8,0-22.4,11.7-22.5,11.8c-0.6,1-1.8,1.3-2.7,0.7c-1-0.6-1.3-1.8-0.7-2.7c0.3-0.6,9.8-13.8,26-13.8c0.1,0,0.1,0,0.2,0
		c16.3,0.1,23.4,13.9,23.7,14.5c0.5,1,0.1,2.2-0.9,2.7C160.4,49.3,160.1,49.4,159.8,49.4z"/>
	<path class="st0" d="M139.4,86c-0.3,0-0.7-0.1-1-0.3c-6-3.5-9.8-9.2-10.8-16c-0.5-3.2-0.1-7.1,1.6-9.9c1.8-2.9,4.8-4.3,8.2-4.4
		c3.8-0.1,6.9,2.4,8.2,5.7c0.3,0.7,0.5,1.5,0.6,2.3c0,0.1,0,0.3,0.1,0.4c0.3,2.1,0.5,4.4,1.8,6.2c1.2,1.7,3.4,2.7,5.5,2.3
		c2.3-0.5,3.5-2.8,3.7-4.9c0.5-4.3-1.1-9.6-4.4-14.5c-3.9-6-9.1-8.9-16-9.1c-7-0.2-12,4.6-12.1,4.6c-15.3,15.1-4.1,32.9-3.6,33.6
		c0.6,0.9,0.4,2.1-0.5,2.8c-0.9,0.6-2.1,0.4-2.8-0.5c-0.1-0.2-13.8-21.3,4-38.8c0.2-0.2,6.2-6,15-5.8c8.1,0.2,14.6,3.9,19.2,10.9
		c3.8,5.7,5.6,11.9,5,17.1c-0.3,3.2-1.9,6.1-4.3,7.6c-4.4,2.9-10.4,0.3-12.7-4c-1.2-2.2-1.4-4.6-1.9-7c-0.3-1.5-0.9-2.5-2-3.7
		c-1.3-1.3-3.4-1.4-5-0.6c-1.8,0.9-2.9,2-3.4,3.8c0,0.1-0.1,0.2-0.1,0.3c-1,4,0.2,8.6,2.3,12.1c1.6,2.5,3.7,4.5,6.2,6
		c1,0.6,1.3,1.8,0.7,2.7C140.7,85.7,140.1,86,139.4,86z"/>
	<path class="st0" d="M150.4,82.8c-0.1,0-0.3,0-0.4,0c-4.6-0.9-8.2-3.1-11.2-6.6c-4.3-5.4-3.9-11.3-3.9-11.5c0.1-1.1,1-1.9,2.1-1.8
		c1.1,0.1,1.9,1,1.8,2.1c0,0.1-0.3,4.6,3,8.7c2.3,2.8,5.2,4.5,8.8,5.2c1.1,0.2,1.8,1.3,1.6,2.3C152.2,82.1,151.3,82.8,150.4,82.8z"
		/>
	<path class="st0" d="M131.2,89.3c-0.5,0-1-0.2-1.4-0.6c-0.9-0.9-1.8-1.9-2.7-2.9l-0.1-0.1c-3.4-4.2-5.6-8.4-6.7-12.6
		c-0.6-2.6-0.8-5.4-0.5-8.3v-0.3c1.1-7.5,5.3-13.3,11.1-15.6c6.6-2.7,14.9-0.6,19.2,4.8c2.7,3.5,4,8,3.9,12.5c0,1.1-0.9,2-2,2
		c0,0,0,0-0.1,0c-1.1,0-2-0.9-1.9-2c0.1-3.6-1-7.2-3.1-9.9c-3.2-4-9.5-5.6-14.6-3.5c-4.4,1.7-7.6,6.3-8.6,12.3v0.1
		c-0.3,2.5-0.2,4.8,0.4,7c0.9,3.5,2.9,7.2,5.9,11c0.8,0.9,1.7,1.8,2.5,2.7c0.8,0.8,0.8,2,0,2.8C132.2,89.1,131.7,89.3,131.2,89.3z"
		/>
</g>
<g>
	<g>
		<path class="st0" d="M226.2,57.7h-4.9c-0.8,0-1.6,0.7-1.6,1.6v4.9c0,0.8,0.7,1.6,1.6,1.6h4.9c0.8,0,1.6-0.7,1.6-1.6v-4.9
			C227.6,58.5,226.9,57.7,226.2,57.7L226.2,57.7z"/>
	</g>
	<g>
		<path class="st0" d="M226.2,73.2h-4.9c-0.8,0-1.6,0.7-1.6,1.6v4.9c0,0.8,0.7,1.6,1.6,1.6h4.9c0.8,0,1.6-0.7,1.6-1.6v-4.9
			C227.6,74,226.9,73.2,226.2,73.2L226.2,73.2z"/>
	</g>
	<g>
		<path class="st0" d="M241.3,65.4h-11.8c-1,0-1.9,0.9-1.9,1.9v4c0,1,0.9,1.9,1.9,1.9h4c1,0,1.9,0.9,1.9,1.9v4c0,1,0.9,1.9,1.9,1.9
			h4c1,0,1.9-0.9,1.9-1.9v-5.9v-5.9C243.2,66.3,242.3,65.4,241.3,65.4L241.3,65.4z"/>
	</g>
	<g>
		<g>
			<path class="st0" d="M237.6,32.9v12.3h-12.3V32.9H237.6 M241.7,27.4h-20.4c-0.8,0-1.6,0.7-1.6,1.6v20.4c0,0.8,0.7,1.6,1.6,1.6
				h20.4c0.8,0,1.6-0.7,1.6-1.6V28.8C243.2,28.1,242.6,27.4,241.7,27.4L241.7,27.4z"/>
		</g>
	</g>
	<g>
		<g>
			<path class="st0" d="M207.2,32.9v12.3h-12.3V32.9H207.2 M211.2,27.4h-20.4c-0.8,0-1.6,0.7-1.6,1.6v20.4c0,0.8,0.7,1.6,1.6,1.6
				h20.4c0.8,0,1.6-0.7,1.6-1.6V28.8C212.8,28.1,212.1,27.4,211.2,27.4L211.2,27.4z"/>
		</g>
	</g>
	<g>
		<g>
			<path class="st0" d="M207.2,63.2v12.4h-12.3V63.2H207.2 M211.2,57.7h-20.4c-0.8,0-1.6,0.7-1.6,1.6v20.4c0,0.8,0.7,1.6,1.6,1.6
				h20.4c0.8,0,1.6-0.7,1.6-1.6V59.2C212.8,58.5,212.1,57.7,211.2,57.7L211.2,57.7z"/>
		</g>
	</g>
</g>
<g>
	<path class="st0" d="M39.4,102.7h-21c-5.9,0-10.6-4.8-10.6-10.6V72.2c0-1.6,1.3-3.1,2.9-3.1c1.7,0,3.1,1.3,3.1,3v20
		c0,2.6,2.1,4.6,4.6,4.6h20.8c1.6,0,3.1,1.3,3.1,2.9C42.4,101.4,41.1,102.7,39.4,102.7z"/>
	<path class="st0" d="M10.7,41.9c-1.6,0-2.9-1.5-2.9-3.1V17.9c0-5.9,4.8-10.6,10.6-10.6h20.8c1.6,0,3.1,1.3,3.1,2.9
		c0,1.7-1.3,3.1-3,3.1h-21c-2.6,0-4.6,2.1-4.6,4.6v21C13.8,40.6,12.5,41.9,10.7,41.9z"/>
	<path class="st0" d="M255.5,102.7h-20.8c-1.6,0-3.1-1.3-3.1-2.9c0-1.7,1.3-3.1,3-3.1h21c2.6,0,4.6-2.1,4.6-4.6V71.2
		c0-1.6,1.3-3.1,2.9-3.1c1.7,0,3.1,1.3,3.1,3v21C266.1,97.9,261.3,102.7,255.5,102.7z"/>
	<path class="st0" d="M263,41.9c-1.6,0-2.9-1.5-2.9-3.1V18c0-2.6-2.1-4.6-4.6-4.6h-20.8c-1.6,0-3.1-1.3-3.1-2.9c0-1.7,1.3-3.1,3-3.1
		h21c5.9,0,10.6,4.8,10.6,10.6v20.9C266.1,40.6,264.8,41.9,263,41.9z"/>
</g>
<path class="st0" d="M157.1,35.6c-0.5,0-1.1-0.2-1.5-0.7c-0.2-0.3-6.1-6.5-18.5-6.5c-5,0-9.9,1.5-14.1,4c-1.3,0.7-2.4,1.6-3.6,2.4
	c-0.9,0.7-2.1,0.9-3,0c-0.7-0.8-0.7-2.1,0.2-2.8c0.3-0.3,8.7-7.6,20.5-7.6c14.2,0,21.1,7.5,21.4,7.8c0.7,0.8,0.7,2.1-0.1,2.8
	C158,35.4,157.6,35.6,157.1,35.6z"/>
</svg>
