<?xml version="1.0" encoding="utf-8"?>
<!-- Generator: Adobe Illustrator 27.4.1, SVG Export Plug-In . SVG Version: 6.00 Build 0)  -->
<svg version="1.1" id="Layer_1" xmlns="http://www.w3.org/2000/svg" xmlns:xlink="http://www.w3.org/1999/xlink" x="0px" y="0px"
	 viewBox="0 0 278.4 111.7" style="enable-background:new 0 0 278.4 111.7;" xml:space="preserve">
<style type="text/css">
	.st0{fill:none;stroke:#242424;stroke-width:5;stroke-linecap:round;stroke-linejoin:round;stroke-miterlimit:9.9997;}
	.st1{fill:none;stroke:#242424;stroke-width:5;stroke-linecap:round;stroke-linejoin:round;stroke-miterlimit:10;}
	.st2{fill:none;stroke:#242424;stroke-width:4;stroke-linecap:round;stroke-miterlimit:10;}
	.st3{fill:#242424;}
	.st4{fill:none;stroke:#242424;stroke-width:6;stroke-linecap:round;stroke-linejoin:round;stroke-miterlimit:10;}
</style>
<g>
	
		<rect x="32.4" y="43.2" transform="matrix(0.7071 -0.7071 0.7071 0.7071 -25.0984 55.9393)" class="st0" width="45.1" height="30.1"/>
	<rect x="69" y="28.7" transform="matrix(0.7071 -0.7071 0.7071 0.7071 -3.833 65.0153)" class="st0" width="15.1" height="16.9"/>
	<circle class="st1" cx="54.8" cy="58.8" r="6.2"/>
</g>
<g>
	<path class="st2" d="M117.5,34.3c0,0,8.7-8.5,19.5-8.7s19.4,8,19.4,8"/>
	<path class="st2" d="M114.7,47.4c0,0,7.9-13.5,23.2-13.4c15.3,0.1,21.9,13.4,21.9,13.4"/>
	<path class="st2" d="M120.3,82.6c0,0-13.6-19.1,3.2-35.6c0,0,5.5-5.4,13.5-5.2s13.6,3.9,17.6,10c2.9,4.4,5.3,10.3,4.7,15.8
		c-0.2,2.3-1.3,4.8-3.4,6.1c-2.4,1.6-5.8,0.8-8-0.9c-2.6-2.2-3.1-5.5-3.5-8.7c-0.4-2.9-2.7-6.2-6-6.2c-2.7-0.1-5.4,1.1-7.1,3.3
		c-1.8,2.3-2,5.4-1.7,8.2c0.9,6.3,4.4,11.4,9.8,14.6"/>
	<path class="st2" d="M137,64.8c0,0-0.4,5.3,3.4,10.1c1.9,2.3,4.9,4.9,10,5.9"/>
	<path class="st2" d="M152.1,65.3c0.1-4-1.1-8-3.5-11.2c-3.9-4.9-11.2-6.5-16.9-4.2c-5.7,2.2-8.9,8.1-9.8,14V64
		c-0.3,2.6-0.2,5.2,0.4,7.7c1.1,4.3,3.5,8.3,6.3,11.8c0.8,0.9,1.7,1.9,2.6,2.8"/>
</g>
<g>
	<g>
		<rect x="223.6" y="61.4" class="st3" width="0.2" height="0.2"/>
		<path class="st3" d="M226.2,57.7h-4.9c-0.8,0-1.6,0.7-1.6,1.6v4.9c0,0.8,0.7,1.6,1.6,1.6h4.9c0.8,0,1.6-0.7,1.6-1.6v-4.9
			C227.6,58.5,226.9,57.7,226.2,57.7L226.2,57.7z"/>
	</g>
	<g>
		<rect x="223.6" y="77" class="st3" width="0.2" height="0.2"/>
		<path class="st3" d="M226.2,73.2h-4.9c-0.8,0-1.6,0.7-1.6,1.6v4.9c0,0.8,0.7,1.6,1.6,1.6h4.9c0.8,0,1.6-0.7,1.6-1.6v-4.9
			C227.6,74,226.9,73.2,226.2,73.2L226.2,73.2z"/>
	</g>
	<g>
		<path class="st3" d="M239.2,77.4v-2.2c0-3.1-2.6-5.7-5.7-5.7h-2.1v-0.2h8v8L239.2,77.4L239.2,77.4z"/>
		<path class="st3" d="M241.3,65.4h-11.8c-1,0-1.9,0.9-1.9,1.9v4c0,1,0.9,1.9,1.9,1.9h4c1,0,1.9,0.9,1.9,1.9v4c0,1,0.9,1.9,1.9,1.9
			h4c1,0,1.9-0.9,1.9-1.9v-5.9v-5.9C243.2,66.3,242.3,65.4,241.3,65.4L241.3,65.4z"/>
	</g>
	<g>
		<g>
			<path class="st3" d="M237.6,32.9v12.3h-12.3V32.9H237.6 M241.7,27.4h-20.4c-0.8,0-1.6,0.7-1.6,1.6v20.4c0,0.8,0.7,1.6,1.6,1.6
				h20.4c0.8,0,1.6-0.7,1.6-1.6V28.8C243.2,28.1,242.6,27.4,241.7,27.4L241.7,27.4z"/>
		</g>
	</g>
	<g>
		<g>
			<path class="st3" d="M207.2,32.9v12.3h-12.3V32.9H207.2 M211.2,27.4h-20.4c-0.8,0-1.6,0.7-1.6,1.6v20.4c0,0.8,0.7,1.6,1.6,1.6
				h20.4c0.8,0,1.6-0.7,1.6-1.6V28.8C212.8,28.1,212.1,27.4,211.2,27.4L211.2,27.4z"/>
		</g>
	</g>
	<g>
		<g>
			<path class="st3" d="M207.2,63.2v12.4h-12.3V63.2H207.2 M211.2,57.7h-20.4c-0.8,0-1.6,0.7-1.6,1.6v20.4c0,0.8,0.7,1.6,1.6,1.6
				h20.4c0.8,0,1.6-0.7,1.6-1.6V59.2C212.8,58.5,212.1,57.7,211.2,57.7L211.2,57.7z"/>
		</g>
	</g>
</g>
<g>
	<path class="st4" d="M10.8,72.1V89c0,5.9,4.8,10.7,10.7,10.7h17.9"/>
	<path class="st4" d="M39.4,10.3H21.5c-5.9,0-10.7,4.8-10.7,10.7v17.9"/>
	<path class="st4" d="M234.5,99.7h17.9c5.9,0,10.7-4.8,10.7-10.7V71.1"/>
	<path class="st4" d="M263.1,38.9V21.1c0-5.9-4.8-10.7-10.7-10.7h-17.9"/>
</g>
</svg>
