<?xml version="1.0" encoding="utf-8"?>
<!-- Generator: Adobe Illustrator 27.4.1, SVG Export Plug-In . SVG Version: 6.00 Build 0)  -->
<svg version="1.1" id="Layer_1" xmlns="http://www.w3.org/2000/svg" xmlns:xlink="http://www.w3.org/1999/xlink" x="0px" y="0px"
	 viewBox="0 0 363.3 111.9" style="enable-background:new 0 0 363.3 111.9;" xml:space="preserve">
<style type="text/css">
	.st0{fill:#333333;}
	.st1{fill:#D2F9E6;}
	.st2{fill:#3FB270;}
	.st3{fill:#51ED97;}
</style>
<g>
	<g>
		<path class="st0" d="M173.1,64c0-12,8.6-19.4,17.6-19.4c10.7,0,15.8,7.7,15.8,17.9c0,2-0.2,3.8-0.4,5h-22.2
			c1.2,5.7,5.4,7.7,9.7,7.7c2.8,0,5.4-0.8,8.1-2.4l3.6,6.8c-3.8,2.7-8.8,4.1-13.2,4.1C181.2,83.5,173.1,76.5,173.1,64z M183.8,59.7
			H197c0-3.8-1.8-6.8-6.1-6.8C187.8,53.1,184.8,54.6,183.8,59.7z"/>
		<path class="st0" d="M212.1,64c0-12.2,7.6-19.4,15.5-19.4c4.1,0,6.5,1.6,9.1,3.8l0.3-18.4h10.4v52.5h-9l-0.7-3.7h-0.3
			c-2.7,2.7-6.2,4.6-10,4.6C218.1,83.5,212.1,76.2,212.1,64z M236.2,71.2V55.9c-2-1.9-4.1-2.4-6.1-2.4c-3.5,0-6.6,3.3-6.6,10.4
			c0,7.4,2.5,10.7,6.8,10.7C232.6,74.6,234.5,73.6,236.2,71.2z"/>
		<path class="st0" d="M254.8,89c0-3.1,1.9-5.5,5.3-7.5v-0.3c-2-1.2-3.5-3.2-3.5-6.2c0-2.7,1.9-5.3,4.2-7v-0.3c-2.7-1.9-5-5.3-5-9.7
			c0-8.9,7.4-13.4,15.4-13.4c2.1,0,4.1,0.3,5.7,0.9h13.5v8h-6.2v0.3c1,1.2,1.6,2.9,1.6,4.7c0,8.4-6.4,12.4-14.6,12.4
			c-1.4,0-2.9-0.2-4.5-0.7c-1,0.8-1.4,1.6-1.4,2.8c0,1.9,1.6,2.8,5.6,2.8h6c9.1,0,14.1,2.8,14.1,9.5c0,7.7-8,13.3-20.8,13.3
			C261.7,98.5,254.8,95.6,254.8,89z M280.6,86.9c0-2.4-2.1-3-5.7-3H271c-2.6,0-4.1-0.1-5.2-0.4c-1.4,1.2-2.1,2.4-2.1,3.7
			c0,2.8,3.3,4.3,8.2,4.3C277,91.6,280.6,89.5,280.6,86.9z M276.3,58c0-3.9-2.2-6-5.1-6c-3,0-5.1,2.1-5.1,6c0,4.1,2.2,6.2,5.1,6.2
			C274,64.2,276.3,62,276.3,58z"/>
		<path class="st0" d="M293.7,64c0-12,8.6-19.4,17.6-19.4c10.7,0,15.8,7.7,15.8,17.9c0,2-0.2,3.8-0.4,5h-22.2
			c1.2,5.7,5.4,7.7,9.7,7.7c2.8,0,5.4-0.8,8.1-2.4l3.6,6.8c-3.8,2.7-8.8,4.1-13.2,4.1C301.7,83.5,293.7,76.5,293.7,64z M304.3,59.7
			h13.2c0-3.8-1.8-6.8-6.1-6.8C308.5,53.1,305.3,54.6,304.3,59.7z"/>
		<path class="st0" d="M335.3,69.1v-15h-5.1v-8.2l5.7-0.4l1.2-11.4h9.1v11.4h8.9v8.6h-8.8V69c0,4.2,1.9,5.9,4.8,5.9
			c1.2,0,2.5-0.1,3.5-0.6l1.8,7.7c-2,0.8-4.8,1.6-8.3,1.6C338.9,83.5,335.3,77.6,335.3,69.1z"/>
	</g>
	<polygon class="st0" points="170.5,83.1 137.5,83.1 137.5,30.8 147.9,30.8 147.9,72.7 170.5,72.7 	"/>
</g>
<g>
	<path class="st1" d="M87.8,102.3H17.4c-6,0-10.9-4.9-10.9-10.9V20.9c0-6,4.9-10.9,10.9-10.9h70.5c6,0,10.9,4.9,10.9,10.9v70.5
		C98.8,97.4,93.8,102.3,87.8,102.3z"/>
	<g>
		<path class="st2" d="M79.9,74.5v6.6c0,4.2-3.3,7.5-7.5,7.5H58.9H32.8c4.2,0,7.5-3.3,7.5-7.5v-6.6c0-2.1,1.7-3.7,3.7-3.7h32.2
			C78.3,70.6,79.9,72.4,79.9,74.5z"/>
		<path class="st3" d="M47.7,23.7c2.1,0,3.7,1.7,3.7,3.7v53.7c0,4.2,3.3,7.5,7.5,7.5H32.8c-4.2,0-7.5-3.3-7.5-7.5V27.4
			c0-2.1,1.7-3.7,3.7-3.7H47.7z"/>
	</g>
</g>
</svg>
