<?xml version="1.0" encoding="utf-8"?>
<!-- Generator: Adobe Illustrator 27.4.1, SVG Export Plug-In . SVG Version: 6.00 Build 0)  -->
<svg version="1.1" id="Layer_1" xmlns="http://www.w3.org/2000/svg" xmlns:xlink="http://www.w3.org/1999/xlink" x="0px" y="0px"
	 viewBox="0 0 288 288" style="enable-background:new 0 0 288 288;" xml:space="preserve">
<style type="text/css">
	.st0{display:none;}
</style>
<g id="PxFN3z_00000176028513481513069330000008301224851577817498_" class="st0">
	
		<image style="display:inline;overflow:visible;" width="1300" height="1300" id="PxFN3z_00000108997504185554553760000010108970662287723168_" xlink:href="D2934BD57659EFD4.jpg"  transform="matrix(0.1841 0 0 0.1841 24.1897 24.5012)">
	</image>
</g>
<path d="M144.5,12.8L155.4,51c2.1,7.3,7.8,13,15.1,15.1L208.7,77c3.7,1.1,3.7,6.3,0,7.4l-38.2,10.9c-7.3,2.1-13,7.8-15.1,15.1
	l-10.9,38.2c-1.1,3.7-6.3,3.7-7.4,0l-10.9-38.2c-2.1-7.3-7.8-13-15.1-15.1L73,84.4c-3.7-1.1-3.7-6.3,0-7.4l38.2-10.9
	c7.3-2.1,13-7.8,15.1-15.1l10.9-38.2C138.2,9.1,143.5,9.1,144.5,12.8z"/>
<path d="M71.9,170.4l5,17.5c1,3.3,3.6,6,6.9,6.9l17.5,5c1.7,0.5,1.7,2.9,0,3.4l-17.5,5c-3.3,1-6,3.6-6.9,6.9l-5,17.5
	c-0.5,1.7-2.9,1.7-3.4,0l-5-17.5c-1-3.3-3.6-6-6.9-6.9l-17.5-5c-1.7-0.5-1.7-2.9,0-3.4l17.5-5c3.3-1,6-3.6,6.9-6.9l5-17.5
	C69,168.7,71.4,168.7,71.9,170.4z"/>
<path d="M213.7,181.1l6.6,23c1.3,4.4,4.7,7.8,9.1,9.1l23,6.6c2.2,0.6,2.2,3.8,0,4.4l-23,6.6c-4.4,1.3-7.8,4.7-9.1,9.1l-6.6,23
	c-0.6,2.2-3.8,2.2-4.4,0l-6.6-23c-1.3-4.4-4.7-7.8-9.1-9.1l-23-6.6c-2.2-0.6-2.2-3.8,0-4.4l23-6.6c4.4-1.3,7.8-4.7,9.1-9.1l6.6-23
	C209.9,178.8,213.1,178.8,213.7,181.1z"/>
</svg>
