<?xml version="1.0" encoding="utf-8"?>
<!-- Generator: Adobe Illustrator 27.2.0, SVG Export Plug-In . SVG Version: 6.00 Build 0)  -->
<svg version="1.1" id="Layer_1" xmlns="http://www.w3.org/2000/svg" xmlns:xlink="http://www.w3.org/1999/xlink" x="0px" y="0px"
	 viewBox="0 0 48 48" style="enable-background:new 0 0 48 48;" xml:space="preserve">
<style type="text/css">
	.st0{fill:#242424;}
</style>
<path class="st0" d="M31.5,27l-2.2-2.2c0.9-2.4,0.4-4.3-1.4-5.9c-1.8-1.6-3.7-2-5.8-1.2l-2.2-2.2c0.6-0.4,1.2-0.6,1.9-0.8
	c0.7-0.2,1.4-0.3,2.1-0.2c2.4,0,4.4,0.8,6,2.5s2.5,3.7,2.5,6c0,0.7-0.1,1.5-0.3,2.2C32,25.9,31.8,26.5,31.5,27z M37.9,33.5l-2-2
	c1.6-1.2,3.1-2.5,4.3-4c1.2-1.5,2.1-3,2.7-4.5c-1.7-3.7-4.2-6.6-7.5-8.8S28.4,11,24.5,11c-1.4,0-2.8,0.1-4.3,0.4
	c-1.5,0.3-2.6,0.6-3.5,0.9L14.4,10c1.2-0.5,2.7-1,4.5-1.4C20.7,8.2,22.5,8,24.2,8c4.8,0,9.1,1.4,13.1,4.1S44.2,18.4,46,23
	c-0.9,2.1-2,4.1-3.3,5.9S39.7,32.2,37.9,33.5z M40.8,44.8l-8.4-8.2c-1.2,0.5-2.5,0.8-4,1.1C27,37.9,25.5,38,24,38
	c-4.9,0-9.3-1.4-13.2-4.1S3.9,27.6,2,23c0.7-1.7,1.6-3.4,2.8-5.1s2.6-3.2,4.3-4.7L2.8,6.9l2.1-2.2l37.8,37.8L40.8,44.8z M11.1,15.3
	c-1.2,0.9-2.4,2.1-3.6,3.6c-1.2,1.5-2,2.8-2.5,4.1c1.7,3.7,4.3,6.6,7.7,8.8S20.1,35,24.4,35c1.1,0,2.2-0.1,3.2-0.2
	c1.1-0.1,1.9-0.3,2.4-0.6L26.8,31c-0.4,0.2-0.8,0.3-1.4,0.4c-0.5,0.1-1,0.1-1.5,0.1c-2.3,0-4.3-0.8-6-2.5c-1.7-1.6-2.5-3.6-2.5-6
	c0-0.5,0-1,0.1-1.5s0.2-0.9,0.4-1.4L11.1,15.3z"/>
</svg>
