<?xml version="1.0" encoding="utf-8"?>
<!-- Generator: Adobe Illustrator 27.4.1, SVG Export Plug-In . SVG Version: 6.00 Build 0)  -->
<svg version="1.1" id="Layer_1" xmlns="http://www.w3.org/2000/svg" xmlns:xlink="http://www.w3.org/1999/xlink" x="0px" y="0px"
	 viewBox="0 0 144 144" style="enable-background:new 0 0 144 144;" xml:space="preserve">
<style type="text/css">
	.st0{fill:#292929;}
</style>
<path class="st0" d="M124.8,104.1c-1.8-2.5-6.5-7.1-6.5-7.1c-8.1-8.6-8.2-21.8-8.3-32.8c-0.1-7.8-1-15.7-3-23.3
	c-3-11.8-12.2-21.2-23.9-24.5c-1.3-0.4-2.1-1.5-2.1-2.8c0-4.5-3.8-8.1-8.4-7.8c-4.6-0.3-8.4,3.3-8.4,7.8c0,1.3-0.9,2.5-2.1,2.8
	c-11.7,3.4-20.8,12.7-23.9,24.5c-2,7.6-2.9,15.4-3,23.3c-0.2,11-0.2,24.2-8.3,32.8c0,0-4.8,4.6-6.5,7.1c-1.8,2.5-2.4,8.3,3.8,10.3
	c6.3,0,48.4,0,48.4,0s42.2,0,48.4,0C127.2,112.3,126.6,106.6,124.8,104.1z"/>
<path class="st0" d="M87.9,121.3c0,9.4-7.1,17.1-16,17.1s-16-7.6-16-17.1H87.9z"/>
</svg>
