<?xml version="1.0" encoding="utf-8"?>
<!-- Generator: Adobe Illustrator 27.4.1, SVG Export Plug-In . SVG Version: 6.00 Build 0)  -->
<svg version="1.1" id="Layer_1" xmlns="http://www.w3.org/2000/svg" xmlns:xlink="http://www.w3.org/1999/xlink" x="0px" y="0px"
	 viewBox="0 0 88 88" style="enable-background:new 0 0 88 88;" xml:space="preserve">
<style type="text/css">
	.st57{fill:none;stroke:#C6C6C6;stroke-width:4.8946;stroke-miterlimit:10;}
	.st200{fill:none;stroke:#C6C6C6;stroke-width:6.0982;stroke-miterlimit:10;}
</style>
<g>
	<path class="st57" d="M71,32.4c0-14.9-12.1-27-27-27s-27,12.1-27,27c0,7.3,3,14.2,7.8,19c2.4,2.4,5.4,8.8,8.4,14.7v11.9
		c0,2.6,2.2,4.7,4.7,4.7h11c2.6,0,4.7-2.2,4.7-4.7V67.1c3.5-6.3,6.7-13.6,9.3-16.4C68.2,45.9,71,39.5,71,32.4z"/>
	<line class="st57" x1="34.7" y1="73.6" x2="44" y2="73.6"/>
	<line class="st57" x1="33.4" y1="66" x2="54.1" y2="66"/>
	<line class="st200" x1="44" y1="56.3" x2="44" y2="38"/>
	<line class="st200" x1="33.6" y1="31.3" x2="44" y2="41.6"/>
	<line class="st200" x1="44" y1="41.6" x2="54.8" y2="30.8"/>
</g>
</svg>
