<?xml version="1.0" encoding="utf-8"?>
<!-- Generator: Adobe Illustrator 27.4.1, SVG Export Plug-In . SVG Version: 6.00 Build 0)  -->
<svg version="1.1" id="Layer_1" xmlns="http://www.w3.org/2000/svg" xmlns:xlink="http://www.w3.org/1999/xlink" x="0px" y="0px"
	 viewBox="0 0 88 88" style="enable-background:new 0 0 88 88;" xml:space="preserve">
<style type="text/css">
	.st721{fill:#C6C6C6;}
</style>
<path class="st721" d="M44,1.8C20.8,1.8,1.8,20.8,1.8,44s19,42.2,42.2,42.2S86.2,67.4,86.2,44S67.2,1.8,44,1.8z M32.1,79.3
	c-5.4-1.8-10.3-4.8-14.5-8.9c-0.4-0.4-0.8-1-1.4-1.4c-0.6-1.2-1.2-2.4-1.8-3.6c-0.6-1.6-1.2-3.2-1.8-4.8c0-0.2-0.2-0.6-0.2-0.8
	l8.9-5.2c3.4,2.2,7.1,4.2,10.7,5.7c1,0.4,1.8,0.8,2.8,1.2l0,0l4.6,13.5C37.1,76.7,34.7,78.1,32.1,79.3
	C32.1,79.1,32.1,79.1,32.1,79.3L32.1,79.3z M40.8,11.5c0.2,0.4,0.6,0.6,0.8,1c1.6,2,3,4,4.4,6.1l-8.3,14.5c-0.2,0-0.4,0-0.6,0
	c-4.4,0.6-8.9,1.4-13.3,2.6c-0.2,0-0.4,0-0.6,0.2L16.3,25c0.4-0.8,0.8-1.4,1.2-2.2C19,20,21,17.2,23,14.7L40.8,11.5z M25.6,11.7
	c6.1-3.6,13.3-5.2,20.2-5c-1.6,0.6-3.2,1.2-4.8,2c-0.2,0-0.2,0.2-0.4,0.2L25.6,11.7z M48.2,19.8c4.8,0,9.3,0.4,14.1,1.4
	c0,0,0,0,0.2,0L71,37.3c-0.4,0.6-0.6,1.2-1,2c-1.8,3.4-3.8,6.7-5.9,9.9l-17.6-1.8c-0.8-1.8-1.8-3.4-2.6-5.2c-1.4-2.6-2.6-5-4-7.5
	L48.2,19.8z M21.6,37.9L21.6,37.9c-1,4.8-1.4,9.5-1.4,14.5v0.2l-9.1,5.4c-0.4-0.4-0.6-0.8-0.8-1.2c-1-1.4-1.8-2.8-2.6-4.2
	c-1.6-6.9-1.2-14.1,1.2-20.8c1.6-1.8,3.4-3.2,5.4-4.4c0.2,0,0.2-0.2,0.4-0.2L21.6,37.9z M37.3,60.1c0.8-0.8,1.6-1.6,2.6-2.6l0,0
	c2-2.4,4.2-4.6,6.1-6.9c0.2-0.2,0.4-0.6,0.6-0.8l17.2,1.8c1,2.2,1.8,4.4,2.6,6.5c0.4,1.2,0.8,2.6,1.2,3.8L55.7,75.3
	c-1.6,0.2-3.2,0-4.8,0c-2.6-0.2-5.2-0.4-7.9-0.8c-0.4,0-0.6-0.2-1-0.2L37.3,60.1z M69.6,63.6c0.4-0.2,0.8-0.2,1.2-0.4
	c2.6-1,5-2.4,7.1-3.8c-1.8,4-4.4,7.7-7.5,11.1c-3.6,3.6-7.7,6.3-12.3,8.1c0-0.6,0-1.2-0.2-1.8L69.6,63.6z M73.3,36.5l-8.9-16.6
	c0.6-2,1-4,1.4-6.1c1.6,1.2,3,2.4,4.6,3.8C76.9,24,80.5,32.3,81.1,41c-0.2-0.2-0.4-0.4-0.8-0.6C78.1,38.8,75.9,37.7,73.3,36.5z"/>
</svg>
