<?xml version="1.0" encoding="utf-8"?>
<!-- Generator: Adobe Illustrator 27.4.1, SVG Export Plug-In . SVG Version: 6.00 Build 0)  -->
<svg version="1.1" id="Layer_1" xmlns="http://www.w3.org/2000/svg" xmlns:xlink="http://www.w3.org/1999/xlink" x="0px" y="0px"
	 viewBox="0 0 48 48" style="enable-background:new 0 0 48 48;" xml:space="preserve">
<style type="text/css">
	.st0{fill:#FFC107;}
	.st1{fill:#FF3D00;}
	.st2{fill:#4CAF50;}
	.st3{fill:#1976D2;}
</style>
<path class="st0" d="M46.5,19.5h-1.8v-0.1H24v9.2h13c-1.8,5.4-7,9.2-13,9.2c-7.6,0-13.8-6.2-13.8-13.8S16.4,10.2,24,10.2
	c3.6,0,6.7,1.4,9.2,3.4l6.5-6.5c-4.2-3.6-9.6-6-15.7-6C11.4,1.1,1.1,11.4,1.1,24S11.4,46.9,24,46.9S46.9,36.6,46.9,24
	C46.9,22.5,46.8,21,46.5,19.5z"/>
<path class="st1" d="M3.7,13.3l7.6,5.5c2.1-5,7-8.6,12.7-8.6c3.6,0,6.7,1.4,9.2,3.4l6.5-6.5c-4.2-3.6-9.6-6-15.7-6
	C15.2,1.1,7.6,6,3.7,13.3z"/>
<path class="st2" d="M24,46.9c6,0,11.4-2.3,15.4-6l-7.1-6c-2.3,1.7-5.2,2.8-8.3,2.8c-6,0-11-3.8-13-9.1l-7.5,5.7
	C7.4,41.9,15.1,46.9,24,46.9z"/>
<path class="st3" d="M46.5,19.4H24v9.2h13c-0.9,2.5-2.5,4.8-4.7,6.4l0,0l7.1,6c-0.5,0.5,7.6-5.5,7.6-17
	C46.9,22.5,46.9,20.9,46.5,19.4z"/>
</svg>
