<?xml version="1.0" encoding="utf-8"?>
<!-- Generator: Adobe Illustrator 27.4.1, SVG Export Plug-In . SVG Version: 6.00 Build 0)  -->
<svg version="1.1" id="Layer_1" xmlns="http://www.w3.org/2000/svg" xmlns:xlink="http://www.w3.org/1999/xlink" x="0px" y="0px"
	 viewBox="0 0 144 144" style="enable-background:new 0 0 144 144;" xml:space="preserve">
<g>
	<path d="M77.5,6.3l5.8,20.1c1.1,3.8,4.1,6.9,8,8l20.1,5.7c1.9,0.6,1.9,3.3,0,3.9l-20.1,5.7c-3.8,1.1-6.9,4.1-8,8l-5.8,20.2
		c-0.6,1.9-3.3,1.9-3.9,0l-5.7-20.1c-1.1-3.8-4.1-6.9-8-8l-20.1-5.7c-1.9-0.6-1.9-3.3,0-3.9l20.1-5.7c3.8-1.1,6.9-4.1,8-8l5.7-20.1
		C74.2,4.3,77,4.3,77.5,6.3z"/>
	<path d="M37.6,74.7l3.6,12.7c0.7,2.3,2.6,4.4,5,5l12.7,3.6c1.2,0.4,1.2,2.1,0,2.5l-12.7,3.6c-2.3,0.7-4.4,2.6-5,5l-3.6,12.7
		c-0.4,1.2-2.1,1.2-2.5,0l-3.6-12.7c-0.7-2.3-2.6-4.4-5-5l-12.7-3.6c-1.2-0.4-1.2-2.1,0-2.5l12.7-3.6c2.3-0.7,4.4-2.6,5-5l3.6-12.7
		C35.5,73.4,37.2,73.4,37.6,74.7z"/>
	<path d="M104.9,85.3l4.3,14.8c0.9,2.8,3.1,5,5.9,5.9l14.8,4.3c1.5,0.4,1.5,2.5,0,2.8l-14.8,4.3c-2.8,0.9-5,3.1-5.9,5.9l-4.3,14.8
		c-0.4,1.5-2.5,1.5-2.8,0l-4.3-14.8c-0.9-2.8-3.1-5-5.9-5.9l-14.8-4.3c-1.5-0.4-1.5-2.5,0-2.8l14.8-4.3c2.8-0.9,5-3.1,5.9-5.9
		l4.3-14.8C102.5,83.8,104.5,83.8,104.9,85.3z"/>
</g>
</svg>
