<?xml version="1.0" encoding="utf-8"?>
<!-- Generator: Adobe Illustrator 27.4.1, SVG Export Plug-In . SVG Version: 6.00 Build 0)  -->
<svg version="1.1" id="Layer_1" xmlns="http://www.w3.org/2000/svg" xmlns:xlink="http://www.w3.org/1999/xlink" x="0px" y="0px"
	 viewBox="0 0 144 144" style="enable-background:new 0 0 144 144;" xml:space="preserve">
<style type="text/css">
	.st0{fill:#292929;}
	.st1{fill:none;stroke:#292929;stroke-width:9;stroke-miterlimit:10;}
</style>
<path class="st0" d="M72,88.6c4.7,0,8.7-1.6,11.9-4.9c3.4-3.2,4.9-7.4,4.9-11.9s-1.6-8.7-4.9-11.9c-3.2-3.4-7.4-5.1-11.9-5.1
	c-4.6,0-8.7,1.6-11.9,4.9c-3.4,3.2-5,7.4-5,12c0,4.6,1.6,8.7,4.9,11.9C63.3,87,67.2,88.6,72,88.6z"/>
<path class="st1" d="M72,106c-12.9,0-24.4-3.2-34.7-9.6S19.2,82,14.2,71.7c5-10.3,12.9-18.6,23.1-25s21.8-9.4,34.7-9.4
	s24.4,3.2,34.7,9.4s18.2,14.7,23.1,25c-5,10.3-12.9,18.6-23.1,24.7C96.4,102.6,84.9,106,72,106z"/>
</svg>
