<?xml version="1.0" encoding="utf-8"?>
<!-- Generator: Adobe Illustrator 27.4.1, SVG Export Plug-In . SVG Version: 6.00 Build 0)  -->
<svg version="1.1" id="Layer_1" xmlns="http://www.w3.org/2000/svg" xmlns:xlink="http://www.w3.org/1999/xlink" x="0px" y="0px"
	 viewBox="0 0 144 144" style="enable-background:new 0 0 144 144;" xml:space="preserve">
<style type="text/css">
	.st0{fill:#FFFFFF;}
</style>
<path class="st0" d="M72,141.3c-38.2,0-69.3-31.1-69.3-69.3S33.8,2.7,72,2.7s69.3,31.1,69.3,69.3S110.2,141.3,72,141.3z M72,17.9
	c-29.8,0-54.1,24.3-54.1,54.1s24.3,54.1,54.1,54.1s54.1-24.3,54.1-54.1S101.8,17.9,72,17.9z"/>
<g>
	<path class="st0" d="M66.5,87.4c0-4.1,0.5-7.4,1.6-9.8c1-2.4,3-5.1,6.1-8.1c3-2.9,4.9-5,5.7-6.2c1.2-1.9,1.8-3.9,1.8-6.1
		c0-2.9-0.7-5.1-2.2-6.7c-1.5-1.6-3.6-2.3-6.3-2.3c-2.7,0-4.8,0.8-6.4,2.3s-2.4,3.5-2.4,6.1H53.1c0.1-5.5,1.9-9.8,5.5-13
		s8.5-4.8,14.5-4.8c6.2,0,11,1.6,14.5,4.8s5.2,7.5,5.2,13.2c0,5-2.3,10-7,14.9L80,77.4c-2,2.3-3.1,5.7-3.1,10.1
		C77,87.4,66.5,87.4,66.5,87.4z M65.7,101.7c0-1.8,0.6-3.3,1.7-4.4s2.7-1.6,4.6-1.6c2,0,3.6,0.6,4.7,1.7s1.7,2.6,1.7,4.3
		c0,1.6-0.5,3.1-1.6,4.2s-2.7,1.7-4.7,1.7s-3.6-0.6-4.7-1.7C66.2,104.8,65.7,103.4,65.7,101.7z"/>
</g>
</svg>
