<?xml version="1.0" encoding="utf-8"?>
<!-- Generator: Adobe Illustrator 27.4.1, SVG Export Plug-In . SVG Version: 6.00 Build 0)  -->
<svg version="1.1" id="Layer_1" xmlns="http://www.w3.org/2000/svg" xmlns:xlink="http://www.w3.org/1999/xlink" x="0px" y="0px"
	 viewBox="0 0 363.3 111.9" style="enable-background:new 0 0 363.3 111.9;" xml:space="preserve">
<style type="text/css">
	.st0{fill:#242424;}
</style>
<g>
	<g>
		<path class="st0" d="M56.3,57.9c0-12.9,9.2-20.8,18.7-20.8c11.4,0,16.9,8.2,16.9,19c0,2.1-0.2,4.2-0.5,5.4H67.7
			c1.3,6.2,5.8,8.2,10.2,8.2c3,0,5.8-0.9,8.6-2.6l3.8,7.2c-4,2.8-9.4,4.4-14.1,4.4C65,78.7,56.3,71.1,56.3,57.9z M67.7,53.3h14.1
			c0-4.2-1.8-7.2-6.6-7.2C72.1,46.1,68.8,47.9,67.7,53.3z"/>
		<path class="st0" d="M98,57.9c0-13,8.1-20.8,16.5-20.8c4.4,0,7,1.6,9.8,4.2l0.3-19.6h11v56.1H126l-0.8-3.9h-0.3
			c-2.8,2.8-6.7,4.9-10.6,4.9C104.4,78.7,98,70.8,98,57.9z M123.7,65.5V49.3c-2.1-1.9-4.4-2.6-6.6-2.6c-3.8,0-7.1,3.5-7.1,11
			c0,7.8,2.6,11.4,7.2,11.4C119.8,69.1,121.8,68.1,123.7,65.5z"/>
		<path class="st0" d="M143.4,84.5c0-3.3,2-5.9,5.7-8v-0.3c-2.1-1.4-3.7-3.4-3.7-6.7c0-2.9,1.9-5.7,4.5-7.4v-0.3
			c-2.8-1.9-5.4-5.7-5.4-10.3c0-9.5,7.8-14.3,16.4-14.3c2.2,0,4.4,0.3,6.2,1h14.5v8.6H175v0.3c1,1.4,1.6,3,1.6,5
			c0,9-6.9,13.2-15.6,13.2c-1.4,0-3-0.2-4.8-0.8c-1,0.9-1.4,1.6-1.4,3c0,2,1.6,3,6,3h6.4c9.8,0,15.1,3,15.1,10.1
			c0,8.2-8.6,14.2-22.2,14.2C150.8,94.6,143.4,91.6,143.4,84.5z M171,82.4c0-2.5-2.2-3.1-6.1-3.1h-4.1c-2.7,0-4.3-0.2-5.6-0.5
			c-1.4,1.3-2.2,2.5-2.2,3.9c0,3,3.5,4.6,8.8,4.6C167.2,87.2,171,85.1,171,82.4z M166.4,51.4c0-4.2-2.3-6.4-5.4-6.4
			s-5.4,2.2-5.4,6.4c0,4.4,2.3,6.6,5.4,6.6S166.4,55.8,166.4,51.4z"/>
		<path class="st0" d="M184.9,57.9c0-12.9,9.2-20.8,18.7-20.8c11.4,0,16.9,8.2,16.9,19c0,2.1-0.2,4.2-0.5,5.4h-23.7
			c1.3,6.2,5.8,8.2,10.2,8.2c3,0,5.8-0.9,8.6-2.6l3.8,7.2c-4,2.8-9.4,4.4-14.1,4.4C193.6,78.7,184.9,71.1,184.9,57.9z M196.3,53.3
			h14.1c0-4.2-1.8-7.2-6.6-7.2C200.7,46.1,197.3,47.9,196.3,53.3z"/>
		<path class="st0" d="M229.4,63.3v-16H224v-8.7l6.1-0.5l1.4-12.2h9.8v12.2h9.5v9.2h-9.5v15.8c0,4.5,2,6.3,5.1,6.3
			c1.3,0,2.6-0.2,3.8-0.6L252,77c-2.1,0.9-5.1,1.6-8.9,1.6C233.3,78.6,229.4,72.4,229.4,63.3z"/>
	</g>
	<path class="st0" d="M343.5,47.8v-8h-17.2V25.7h-4.9c-1.7,0-3.1,1.4-3.1,3.1v10.9h-9.8v-14h-4.9c-1.7,0-3.1,1.4-3.1,3.1v10.9h-9.8
		V25.4h-4.9c-1.7,0-3.1,1.4-3.1,3.1v11.3h-14.9c-1.7,0-3.1,1.4-3.1,3.1v4.9h18.1v9.4h-14.9c-1.7,0-3.1,1.4-3.1,3.1v4.9h18.1v12.7h8
		V65.2h9.8v13h8v-13h9.8v13h8v-13h17.2v-8h-17.2v-9.4C326.5,47.8,343.5,47.8,343.5,47.8z M290.8,57.2v-9.4h9.8v9.4
		C300.6,57.2,290.8,57.2,290.8,57.2z M318.3,57.2h-9.8v-9.4h9.8V57.2z"/>
	<path class="st0" d="M53.5,78.2H29c-5.9,0-10.7-4.8-10.7-10.7V22.3h11v44.9h24.1L53.5,78.2L53.5,78.2z"/>
</g>
</svg>
