<?xml version="1.0" encoding="utf-8"?>
<!-- Generator: Adobe Illustrator 27.4.1, SVG Export Plug-In . SVG Version: 6.00 Build 0)  -->
<svg version="1.1" id="Layer_1" xmlns="http://www.w3.org/2000/svg" xmlns:xlink="http://www.w3.org/1999/xlink" x="0px" y="0px"
	 viewBox="0 0 144 144" style="enable-background:new 0 0 144 144;" xml:space="preserve">
<style type="text/css">
	.st0{fill:#FFFFFF;}
</style>
<path class="st0" d="M122.3,107.5c-0.6-1-1.1-1.6-1.2-1.8c0,0,0-0.1-0.1-0.1c-6.4-10.8-6.4-19.7-6.4-34.7c0-5.4-0.4-10-1.2-14.1
	c-0.4-2.2-2.4-3.7-4.7-3.7c0,0,0,0,0,0c-13.6-0.8-23.6-11.2-23.6-24.9c0-0.2,0-0.5,0-0.7c0.1-2.3-2.9-4.3-5.2-4.7
	c-0.3,0-0.5-0.1-0.8-0.1c0.1-0.6,0.2-1.2,0.2-1.9c0-5.1-4.1-9.2-9.2-9.2s-9.2,4.1-9.2,9.2c0,0.6,0.1,1.3,0.2,1.9
	c-2,0.3-4.2,0.7-6.1,1.4c-6.6,2.3-14.8,7.7-20.5,15.2c-5.7,7.5-8.9,16.6-8.9,31.7c0,15,0,23.9-6.4,34.7c0,0,0,0.1-0.1,0.1
	c-0.1,0.2-0.5,0.8-1.2,1.8c-4.4,6.6,0.3,15.4,8.2,15.4h44h44C122,122.9,126.7,114.1,122.3,107.5z"/>
<path class="st0" d="M54.6,125.9c-1.8,0-3.1,1.7-2.6,3.4c1.9,6.6,9.2,11.6,17.9,11.6s16.1-5,17.9-11.6c0.5-1.7-0.9-3.4-2.6-3.4
	C85.2,125.9,54.6,125.9,54.6,125.9z"/>
<path class="st0" d="M112.8,2.4c-12,0-21.7,9.7-21.7,21.7s9.7,21.7,21.7,21.7s21.7-9.7,21.7-21.7C134.6,12.1,124.8,2.4,112.8,2.4z"
	/>
</svg>
