<?xml version="1.0" encoding="utf-8"?>
<!-- Generator: Adobe Illustrator 27.4.1, SVG Export Plug-In . SVG Version: 6.00 Build 0)  -->
<svg version="1.1" id="Layer_1" xmlns="http://www.w3.org/2000/svg" xmlns:xlink="http://www.w3.org/1999/xlink" x="0px" y="0px"
	 viewBox="0 0 144 144" style="enable-background:new 0 0 144 144;" xml:space="preserve">
<style type="text/css">
	.st0{fill:#242424;}
</style>
<path class="st0" d="M130.3,126.4H72H13.9c-3.4,0-6.2-2.9-5.6-6.3c0.5-4.6,1.9-11.3,4.8-17.1c7-12.3,33.3-18.8,39.3-21
	s7.2-4.8,7.2-10.8c-6.3-7-15-31.6-9.7-48C52.5,15,60,7.4,72,7.4c11.4,0,19.7,7.5,22.2,15.7c5.5,16.2-3.4,41-9.7,48
	c-0.2,6.2,1.2,8.7,7.2,10.8c6,2.2,32.3,8.7,39.3,21c3.1,5.8,4.3,12.3,4.8,17.1C136.3,123.5,133.7,126.4,130.3,126.4z"/>
</svg>
