<?xml version="1.0" encoding="utf-8"?>
<!-- Generator: Adobe Illustrator 27.4.1, SVG Export Plug-In . SVG Version: 6.00 Build 0)  -->
<svg version="1.1" id="Layer_1" xmlns="http://www.w3.org/2000/svg" xmlns:xlink="http://www.w3.org/1999/xlink" x="0px" y="0px"
	 viewBox="0 0 288 144" style="enable-background:new 0 0 288 144;" xml:space="preserve">
<style type="text/css">
	.st0{fill:#CD1309;}
	.st1{fill:#FFFFFF;}
</style>
<path class="st0" d="M35.4,0h217.2c19.8,0,35.8,16,35.8,35.8v72.5c0,19.8-16,35.8-35.8,35.8H35.4c-19.8,0-35.8-16-35.8-35.8V35.8
	C-0.4,16,15.6,0,35.4,0z"/>
<path class="st1" d="M171.4,34.9L171.4,34.9L171.4,34.9h-36.2v8.8h5.2c4.5,0,6,0.7,6,3c0,1.5,0,3-0.7,6l-14.1,37.2c0,0,0,0-0.7,0
	c-6.7-18.6-15.6-40.1-15.6-40.1c-0.7-1.5-0.7-2.2-0.7-3c0-2.2,1.5-3,5.2-3h6v-9H86.2v8.8h5.2c6,0,8.2,3,8.8,8.8L85.5,89.7
	c0,0,0,0-0.7,0c-6.7-20.1-15.6-40.8-15.6-40.8c-0.7-0.7,0-1.5,0-2.2c-0.7-2.2,1.5-3,5.8-3h3v-8.9H40.9v8.8h1.5c5.2,0,9.7,3,11.8,9.7
	L76.4,109h13.3l16.4-40.8l17.1,40.8h13.3l20.7-56.3c3-6.7,4.5-8.8,11.2-8.8h2.2l0,0h5.2c5.8,0,8.2,0.7,8.2,6.7c0,18.1,0,21.1,0,21.6
	l0,0c0,0.5,0,3.5,0,21.6c0,5.8-2.2,6.7-8.2,6.7h-4.5v8.8h45.3v-8.8h-8.2c-6.7,0-7.3,0-7.3-6.7V74.2h6c8.8,0,10.3,3,10.3,15.6h7.3
	v-37h-7.3c0,11.2-1.5,13.3-10.3,13.3h-6V43.8h18.6c8.2,0,13.3,0.7,16.4,4.5c2.1,4.5,2.9,9.7,2.9,15.6l0,0h8.2v-29
	C171.4,34.9,247.1,34.9,171.4,34.9z"/>
</svg>
