<?xml version="1.0" encoding="utf-8"?>
<!-- Generator: Adobe Illustrator 27.4.1, SVG Export Plug-In . SVG Version: 6.00 Build 0)  -->
<svg version="1.1" id="Layer_1" xmlns="http://www.w3.org/2000/svg" xmlns:xlink="http://www.w3.org/1999/xlink" x="0px" y="0px"
	 viewBox="0 0 288 288" style="enable-background:new 0 0 288 288;" xml:space="preserve">
<style type="text/css">
	.st0{fill:#8FFFC0;}
	.st1{fill:#43C77E;}
	.st2{opacity:0.16;fill:#FFFFFF;}
</style>
<path class="st0" d="M188.2,269.1H99.8c-9.2,0-16.7-7.5-16.7-16.7V35.6c0-9.2,7.5-16.7,16.7-16.7h88.3c9.2,0,16.7,7.5,16.7,16.7
	v216.8C204.8,261.6,197.4,269.1,188.2,269.1z"/>
<path class="st1" d="M92.4,251.1V36.9c0-4.8,3.9-8.7,8.7-8.7h85.8c4.8,0,8.7,3.9,8.7,8.7v214.2c0,4.8-3.9,8.7-8.7,8.7h-85.8
	C96.3,259.8,92.4,255.9,92.4,251.1z"/>
<path class="st2" d="M94.8,256.3c-1.5-1.8-2.4-4-2.4-6.5V38.3c0-5.6,4.5-10.1,10.1-10.1h83c2.5,0,4.7,0.9,6.5,2.4L94.8,256.3z"/>
<circle class="st0" cx="144" cy="41.1" r="4.1"/>
</svg>
