<?xml version="1.0" encoding="utf-8"?>
<!-- Generator: Adobe Illustrator 27.4.1, SVG Export Plug-In . SVG Version: 6.00 Build 0)  -->
<svg version="1.1" id="Layer_1" xmlns="http://www.w3.org/2000/svg" xmlns:xlink="http://www.w3.org/1999/xlink" x="0px" y="0px"
	 viewBox="0 0 515.6 183.7" style="enable-background:new 0 0 515.6 183.7;" xml:space="preserve">
<style type="text/css">
	.st0{fill:#242424;}
	.st1{fill:none;stroke:#242424;stroke-width:10;stroke-linecap:round;stroke-miterlimit:10;}
</style>
<g>
	<g>
		<path class="st0" d="M88.8,139.7c-2.8,0-5.5-1-7.6-3.1l-26-25.7c-2.1-2.1-3.3-4.8-3.1-7.7c0-2.8,1.2-5.4,3.3-7.4l43.3-43.2
			c4.3-4.3,10.9-4.3,15.2,0l25.8,25.7c4.3,4.3,4.3,10.9,0,15.2l-43.3,43.2C94.3,138.7,91.5,139.7,88.8,139.7z M106.2,57.6
			c-0.7,0-1.3,0.3-1.8,0.8l-43.1,43.2c0,0,0,0-0.2,0.2c-0.5,0.5-0.7,1.2-0.7,1.5c0,0.7,0.3,1.3,0.8,1.8L87,130.8c1,1,2.5,1,3.6,0
			l43.3-43c1-1,1-2.5,0-3.6l-26-25.7C107.5,58,106.8,57.6,106.2,57.6z M58.2,98.6L58.2,98.6L58.2,98.6z"/>
		<path class="st0" d="M134.3,82.5c-1,0-2.1-0.3-3-1.2l-19.8-19.8c-1.7-1.6-1.7-4.3,0-5.8l17.7-17.6c1.7-1.6,4.3-1.6,5.8,0L154.8,58
			c1.7,1.6,1.7,4.3,0,5.8l-17.5,17.5C136.4,82,135.3,82.5,134.3,82.5z M120.4,58.6l13.9,13.8L146,60.8l-13.9-13.8L120.4,58.6z"/>
		<path class="st0" d="M97.3,109.7c-7.9,0-14.4-6.4-14.4-14.3S89.3,81,97.3,81s14.4,6.4,14.4,14.3S105.2,109.7,97.3,109.7z
			 M97.3,89.3c-3.3,0-6.1,2.8-6.1,6.1c0,3.3,2.8,6.1,6.1,6.1s6.1-2.8,6.1-6.1C103.4,92.1,100.6,89.3,97.3,89.3z"/>
	</g>
	<g>
		<g>
			<path class="st0" d="M419,93.5h-8.1c-1.3,0-2.6,1.2-2.6,2.6v8.1c0,1.3,1.2,2.6,2.6,2.6h8.1c1.3,0,2.6-1.2,2.6-2.6v-8.1
				C421.3,94.9,420.2,93.5,419,93.5L419,93.5z"/>
		</g>
		<g>
			<path class="st0" d="M419,119.1h-8.1c-1.3,0-2.6,1.2-2.6,2.6v8.1c0,1.3,1.2,2.6,2.6,2.6h8.1c1.3,0,2.6-1.2,2.6-2.6v-8.1
				C421.3,120.4,420.2,119.1,419,119.1L419,119.1z"/>
		</g>
		<g>
			<path class="st0" d="M444,106.2h-19.5c-1.7,0-3.1,1.5-3.1,3.1v6.6c0,1.6,1.5,3.1,3.1,3.1h6.6c1.7,0,3.1,1.5,3.1,3.1v6.6
				c0,1.6,1.5,3.1,3.1,3.1h6.6c1.7,0,3.1-1.5,3.1-3.1v-9.7v-9.7C447.1,107.7,445.6,106.2,444,106.2L444,106.2z"/>
		</g>
		<g>
			<g>
				<path class="st0" d="M437.9,52.7v20.3h-20.3V52.7H437.9 M444.6,43.6h-33.7c-1.3,0-2.6,1.2-2.6,2.6v33.6c0,1.3,1.2,2.6,2.6,2.6
					h33.7c1.3,0,2.6-1.2,2.6-2.6V45.9C447.1,44.8,446.1,43.6,444.6,43.6L444.6,43.6z"/>
			</g>
		</g>
		<g>
			<g>
				<path class="st0" d="M387.6,52.7v20.3h-20.3V52.7H387.6 M394.2,43.6h-33.7c-1.3,0-2.6,1.2-2.6,2.6v33.6c0,1.3,1.2,2.6,2.6,2.6
					h33.7c1.3,0,2.6-1.2,2.6-2.6V45.9C396.9,44.8,395.7,43.6,394.2,43.6L394.2,43.6z"/>
			</g>
		</g>
		<g>
			<g>
				<path class="st0" d="M387.6,102.6V123h-20.3v-20.4H387.6 M394.2,93.5h-33.7c-1.3,0-2.6,1.2-2.6,2.6v33.6c0,1.3,1.2,2.6,2.6,2.6
					h33.7c1.3,0,2.6-1.2,2.6-2.6V96C396.9,94.9,395.7,93.5,394.2,93.5L394.2,93.5z"/>
			</g>
		</g>
	</g>
	<g>
		<path class="st0" d="M290,79.9c-1.2,0-2.3-0.7-3-1.8c-0.3-0.8-10.4-20.1-33.2-20.3c-0.2,0-0.2,0-0.3,0c-22.8,0-37,19.3-37.2,19.4
			c-1,1.6-3,2.1-4.5,1.2c-1.7-1-2.1-3-1.2-4.4c0.5-1,16.2-22.7,43-22.7c0.2,0,0.2,0,0.3,0c26.9,0.2,38.7,22.9,39.2,23.9
			c0.8,1.6,0.2,3.6-1.5,4.4C291,79.7,290.5,79.9,290,79.9z"/>
		<path class="st0" d="M256.3,140.1c-0.5,0-1.2-0.2-1.7-0.5c-9.9-5.8-16.2-15.2-17.9-26.4c-0.8-5.3-0.2-11.7,2.6-16.3
			c3-4.8,7.9-7.1,13.6-7.2c6.3-0.2,11.4,4,13.6,9.4c0.5,1.2,0.8,2.5,1,3.8c0,0.2,0,0.5,0.2,0.7c0.5,3.5,0.8,7.2,3,10.2
			c2,2.8,5.6,4.4,9.1,3.8c3.8-0.8,5.8-4.6,6.1-8.1c0.8-7.1-1.8-15.8-7.3-23.9c-6.4-9.9-15-14.7-26.4-15c-11.6-0.3-19.8,7.6-20,7.6
			c-25.3,24.9-6.8,54.2-6,55.3c1,1.5,0.7,3.5-0.8,4.6c-1.5,1-3.5,0.7-4.6-0.8c-0.2-0.3-22.8-35.1,6.6-63.9
			c0.3-0.3,10.2-9.9,24.8-9.6c13.4,0.3,24.1,6.4,31.7,18c6.3,9.4,9.3,19.6,8.3,28.2c-0.5,5.3-3.1,10-7.1,12.5
			c-7.3,4.8-17.2,0.5-21-6.6c-2-3.6-2.3-7.6-3.1-11.5c-0.5-2.5-1.5-4.1-3.3-6.1c-2.1-2.1-5.6-2.3-8.3-1c-3,1.5-4.8,3.3-5.6,6.3
			c0,0.2-0.2,0.3-0.2,0.5c-1.7,6.6,0.3,14.2,3.8,19.9c2.6,4.1,6.1,7.4,10.2,9.9c1.7,1,2.1,3,1.2,4.4
			C258.5,139.7,257.5,140.1,256.3,140.1z"/>
		<path class="st0" d="M274.5,134.9c-0.2,0-0.5,0-0.7,0c-7.6-1.5-13.6-5.1-18.5-10.9c-7.1-8.9-6.4-18.6-6.4-18.9
			c0.2-1.8,1.7-3.1,3.5-3c1.8,0.2,3.1,1.6,3,3.5c0,0.2-0.5,7.6,5,14.3c3.8,4.6,8.6,7.4,14.5,8.6c1.8,0.3,3,2.1,2.6,3.8
			C277.5,133.7,276,134.9,274.5,134.9z"/>
		<path class="st0" d="M242.8,145.6c-0.8,0-1.7-0.3-2.3-1c-1.5-1.5-3-3.1-4.5-4.8l-0.2-0.2c-5.6-6.9-9.3-13.8-11.1-20.8
			c-1-4.3-1.3-8.9-0.8-13.7v-0.5c1.8-12.4,8.8-21.9,18.3-25.7c10.9-4.4,24.6-1,31.7,7.9c4.5,5.8,6.6,13.2,6.4,20.6
			c0,1.8-1.5,3.3-3.3,3.3c0,0,0,0-0.2,0c-1.8,0-3.3-1.5-3.1-3.3c0.2-5.9-1.7-11.9-5.1-16.3c-5.3-6.6-15.7-9.2-24.1-5.8
			c-7.3,2.8-12.6,10.4-14.2,20.3v0.2c-0.5,4.1-0.3,7.9,0.7,11.5c1.5,5.8,4.8,11.9,9.8,18.1c1.3,1.5,2.8,3,4.1,4.4
			c1.3,1.3,1.3,3.3,0,4.6C244.4,145.3,243.6,145.6,242.8,145.6z"/>
		<path class="st0" d="M285.6,57.1c-0.8,0-1.8-0.3-2.5-1.2c-0.3-0.5-10.1-10.7-30.6-10.7c-8.3,0-16.4,2.5-23.3,6.6
			c-2.1,1.2-4,2.6-6,4c-1.5,1.2-3.5,1.5-5,0c-1.2-1.3-1.2-3.5,0.3-4.6c0.5-0.5,14.4-12.5,33.9-12.5c23.5,0,34.9,12.4,35.4,12.8
			c1.2,1.3,1.2,3.5-0.2,4.6C287.1,56.8,286.4,57.1,285.6,57.1z"/>
	</g>
</g>
<g>
	<path class="st1" d="M14.7,117v32.7c0,8.5,6.9,15.4,15.4,15.4h32.7"/>
	<path class="st1" d="M62.9,17.4H30.2c-8.5,0-15.4,6.9-15.4,15.4v32.7"/>
	<path class="st1" d="M451,165.2h32.7c8.5,0,15.4-6.9,15.4-15.4V117"/>
	<path class="st1" d="M499.2,65.6V32.8c0-8.5-6.9-15.4-15.4-15.4H451"/>
</g>
</svg>
