<?xml version="1.0" encoding="utf-8"?>
<!-- Generator: Adobe Illustrator 27.4.1, SVG Export Plug-In . SVG Version: 6.00 Build 0)  -->
<svg version="1.1" id="Layer_1" xmlns="http://www.w3.org/2000/svg" xmlns:xlink="http://www.w3.org/1999/xlink" x="0px" y="0px"
	 viewBox="0 0 460.2 935.3" style="enable-background:new 0 0 460.2 935.3;" xml:space="preserve">
<style type="text/css">
	.st0{fill:#020202;}
</style>
<path class="st0" d="M447.3,53.1c-6.5-21.4-23.9-38-45.7-43.5C396,8,390.2,7.3,384.3,7.3H76.6c-5.9,0-11.7,0.8-17.3,2.3
	C37.4,15,20.1,31.7,13.6,53c-2.1,6.6-3.2,13.4-3.2,20.5v788.2c0,9,1.8,17.6,5.2,25.8c0,0,0,0,0,0.1c6.1,14.8,17.5,26.9,31.9,33.7
	c1.1,0.5,2.2,1,3.3,1.5c8.2,3.5,16.8,5.2,25.8,5.2h307.7c8.9,0,17.6-1.8,25.8-5.2c1.1-0.5,2.2-1,3.3-1.5
	c14.4-6.8,25.9-18.9,31.9-33.7c0,0,0,0,0-0.1c3.5-8.2,5.2-16.8,5.2-25.8V73.5C450.6,66.5,449.5,59.6,447.3,53.1z"/>
</svg>
