<?xml version="1.0" encoding="utf-8"?>
<!-- Generator: Adobe Illustrator 27.4.1, SVG Export Plug-In . SVG Version: 6.00 Build 0)  -->
<svg version="1.1" id="Layer_1" xmlns="http://www.w3.org/2000/svg" xmlns:xlink="http://www.w3.org/1999/xlink" x="0px" y="0px"
	 viewBox="0 0 460.2 935.3" style="enable-background:new 0 0 460.2 935.3;" xml:space="preserve">
<style type="text/css">
	.st0{fill:#060606;}
</style>
<path class="st0" d="M75.2,915c-28.9,0-52.3-23.5-52.3-52.3v-790c0-28.9,23.5-52.3,52.3-52.3h309.7c28.9,0,52.3,23.5,52.3,52.3v790
	c0,28.9-23.5,52.3-52.3,52.3H75.2z"/>
<path id="background" class="st0" d="M385,914H75.2c-28.3,0-51.3-23-51.3-51.3v-790c0-28.4,23-51.3,51.3-51.3h309.7
	c28.4,0,51.3,23,51.3,51.3v790C436.3,891,413.3,914,385,914z"/>
</svg>
