<?xml version="1.0" encoding="utf-8"?>
<!-- Generator: Adobe Illustrator 27.4.1, SVG Export Plug-In . SVG Version: 6.00 Build 0)  -->
<svg version="1.1" id="Layer_1" xmlns="http://www.w3.org/2000/svg" xmlns:xlink="http://www.w3.org/1999/xlink" x="0px" y="0px"
	 viewBox="0 0 460.2 935.3" style="enable-background:new 0 0 460.2 935.3;" xml:space="preserve">
<style type="text/css">
	.st0{fill:url(#SVGID_1_);}
	.st1{fill:url(#SVGID_00000087414610024577235340000002370176372562108290_);}
	.st2{fill:url(#SVGID_00000049223783297729518140000001284588607458096270_);}
	.st3{fill:url(#SVGID_00000026145110384882981700000010042978263208326577_);}
	.st4{fill:#F5F5F6;}
	.st5{fill:#5C7780;}
	.st6{fill:#474748;}
	.st7{fill:#898989;}
	.st8{fill:#767576;}
	.st9{fill:#020202;}
</style>
<g id="Phone">
	<g>
		<g id="Zrayr_2_">
			<g>
				<linearGradient id="SVGID_1_" gradientUnits="userSpaceOnUse" x1="456.9346" y1="358.0098" x2="456.9346" y2="255.0106">
					<stop  offset="3.820940e-03" style="stop-color:#282827"/>
					<stop  offset="8.991070e-03" style="stop-color:#313130"/>
					<stop  offset="1.743874e-02" style="stop-color:#494948"/>
					<stop  offset="2.811294e-02" style="stop-color:#707070"/>
					<stop  offset="4.048800e-02" style="stop-color:#A6A6A7"/>
					<stop  offset="4.194930e-02" style="stop-color:#ADADAE"/>
					<stop  offset="6.223643e-02" style="stop-color:#808081"/>
					<stop  offset="8.164740e-02" style="stop-color:#515252"/>
					<stop  offset="0.9123" style="stop-color:#515252"/>
					<stop  offset="0.9331" style="stop-color:#7D7E7E"/>
					<stop  offset="0.9523" style="stop-color:#A0A0A1"/>
					<stop  offset="0.9626" style="stop-color:#ADADAE"/>
					<stop  offset="0.9719" style="stop-color:#818182"/>
					<stop  offset="0.982" style="stop-color:#585858"/>
					<stop  offset="0.9899" style="stop-color:#3E3E3F"/>
					<stop  offset="0.9947" style="stop-color:#353535"/>
				</linearGradient>
				<path class="st0" d="M456.5,358h0.9c1.6,0,2.8-1.3,2.8-2.8v-97.4c0-1.6-1.3-2.8-2.8-2.8h-0.9c-1.6,0-2.8,1.3-2.8,2.8v97.4
					C453.7,356.8,454.9,358,456.5,358z"/>
			</g>
			<g>
				
					<linearGradient id="SVGID_00000142146982685478276640000011813711122283608986_" gradientUnits="userSpaceOnUse" x1="3.2602" y1="205.5653" x2="3.2602" y2="171.9301">
					<stop  offset="3.820940e-03" style="stop-color:#282827"/>
					<stop  offset="8.991070e-03" style="stop-color:#313130"/>
					<stop  offset="1.743874e-02" style="stop-color:#494948"/>
					<stop  offset="2.811294e-02" style="stop-color:#707070"/>
					<stop  offset="4.048800e-02" style="stop-color:#A6A6A7"/>
					<stop  offset="4.194930e-02" style="stop-color:#ADADAE"/>
					<stop  offset="6.223643e-02" style="stop-color:#808081"/>
					<stop  offset="8.164740e-02" style="stop-color:#515252"/>
					<stop  offset="0.9123" style="stop-color:#515252"/>
					<stop  offset="0.9331" style="stop-color:#7D7E7E"/>
					<stop  offset="0.9523" style="stop-color:#A0A0A1"/>
					<stop  offset="0.9626" style="stop-color:#ADADAE"/>
					<stop  offset="0.9719" style="stop-color:#818182"/>
					<stop  offset="0.982" style="stop-color:#585858"/>
					<stop  offset="0.9899" style="stop-color:#3E3E3F"/>
					<stop  offset="0.9947" style="stop-color:#353535"/>
				</linearGradient>
				<path style="fill:url(#SVGID_00000142146982685478276640000011813711122283608986_);" d="M3.7,205.5H2.8c-1.6,0-2.8-1.3-2.8-2.8
					l0-28c0-1.6,1.3-2.8,2.8-2.8h0.9c1.6,0,2.8,1.3,2.8,2.8v28C6.5,204.2,5.3,205.5,3.7,205.5z"/>
			</g>
			<g>
				
					<linearGradient id="SVGID_00000106850358171115292730000004327106613573101207_" gradientUnits="userSpaceOnUse" x1="3.2602" y1="296.9076" x2="3.2602" y2="233.4598">
					<stop  offset="3.820940e-03" style="stop-color:#282827"/>
					<stop  offset="8.991070e-03" style="stop-color:#313130"/>
					<stop  offset="1.743874e-02" style="stop-color:#494948"/>
					<stop  offset="2.811294e-02" style="stop-color:#707070"/>
					<stop  offset="4.048800e-02" style="stop-color:#A6A6A7"/>
					<stop  offset="4.194930e-02" style="stop-color:#ADADAE"/>
					<stop  offset="6.223643e-02" style="stop-color:#808081"/>
					<stop  offset="8.164740e-02" style="stop-color:#515252"/>
					<stop  offset="0.9123" style="stop-color:#515252"/>
					<stop  offset="0.9331" style="stop-color:#7D7E7E"/>
					<stop  offset="0.9523" style="stop-color:#A0A0A1"/>
					<stop  offset="0.9626" style="stop-color:#ADADAE"/>
					<stop  offset="0.9719" style="stop-color:#818182"/>
					<stop  offset="0.982" style="stop-color:#585858"/>
					<stop  offset="0.9899" style="stop-color:#3E3E3F"/>
					<stop  offset="0.9947" style="stop-color:#353535"/>
				</linearGradient>
				<path style="fill:url(#SVGID_00000106850358171115292730000004327106613573101207_);" d="M3.7,297.1H2.8c-1.6,0-2.8-1.3-2.8-2.8
					l0-58.3c0-1.6,1.3-2.8,2.8-2.8h0.9c1.6,0,2.8,1.3,2.8,2.8v58.3C6.5,295.8,5.3,297.1,3.7,297.1z"/>
			</g>
			<g>
				
					<linearGradient id="SVGID_00000103260916723971996860000014919119194304711850_" gradientUnits="userSpaceOnUse" x1="3.2602" y1="378.8786" x2="3.2602" y2="315.0353">
					<stop  offset="3.820940e-03" style="stop-color:#282827"/>
					<stop  offset="8.991070e-03" style="stop-color:#313130"/>
					<stop  offset="1.743874e-02" style="stop-color:#494948"/>
					<stop  offset="2.811294e-02" style="stop-color:#707070"/>
					<stop  offset="4.048800e-02" style="stop-color:#A6A6A7"/>
					<stop  offset="4.194930e-02" style="stop-color:#ADADAE"/>
					<stop  offset="6.223643e-02" style="stop-color:#808081"/>
					<stop  offset="8.164740e-02" style="stop-color:#515252"/>
					<stop  offset="0.9123" style="stop-color:#515252"/>
					<stop  offset="0.9331" style="stop-color:#7D7E7E"/>
					<stop  offset="0.9523" style="stop-color:#A0A0A1"/>
					<stop  offset="0.9626" style="stop-color:#ADADAE"/>
					<stop  offset="0.9719" style="stop-color:#818182"/>
					<stop  offset="0.982" style="stop-color:#585858"/>
					<stop  offset="0.9899" style="stop-color:#3E3E3F"/>
					<stop  offset="0.9947" style="stop-color:#353535"/>
				</linearGradient>
				<path style="fill:url(#SVGID_00000103260916723971996860000014919119194304711850_);" d="M3.7,378.7H2.8c-1.6,0-2.8-1.3-2.8-2.8
					l0-58.3c0-1.6,1.3-2.8,2.8-2.8h0.9c1.6,0,2.8,1.3,2.8,2.8v58.3C6.5,377.4,5.3,378.7,3.7,378.7z"/>
			</g>
		</g>
		<g id="Sides_2_">
			<path class="st4" d="M10.8,71.8v791.5c0,35.4,28.7,64.2,64.2,64.2h311c35.4,0,64.2-28.7,64.2-64.2V71.8
				c0-35.4-28.7-64.2-64.2-64.2h-311C39.5,7.6,10.8,36.3,10.8,71.8z M436.6,862.6c0,28.3-23,51.3-51.3,51.3H75.6
				c-28.3,0-51.3-23-51.3-51.3v-790c0-28.4,23-51.3,51.3-51.3h309.7c28.4,0,51.3,23,51.3,51.3V862.6z"/>
		</g>
		<g>
			<path class="st5" d="M384.3,0H76.6C36,0,3.1,32.9,3.1,73.5v788.2c0,40.6,32.9,73.5,73.5,73.5h307.7c40.6,0,73.5-32.9,73.5-73.5
				V73.5C457.8,32.9,424.9,0,384.3,0z M410.4,923.6c-8.3,3.5-17.1,5.3-26.1,5.3H76.6c-9.1,0-17.9-1.8-26.1-5.3
				c-8-3.4-15.2-8.2-21.3-14.4c-6.2-6.2-11-13.3-14.4-21.3c-3.5-8.3-5.3-17.1-5.3-26.1V73.5c0-9.1,1.8-17.9,5.3-26.1
				c3.4-8,8.2-15.2,14.4-21.3c6.2-6.2,13.3-11,21.3-14.4c8.3-3.5,17.1-5.3,26.1-5.3h307.7c9.1,0,17.9,1.8,26.1,5.3
				c8,3.4,15.2,8.2,21.3,14.4c6.2,6.2,11,13.3,14.4,21.3c3.5,8.3,5.3,17.1,5.3,26.1v788.2c0,9.1-1.8,17.9-5.3,26.1
				c-3.4,8-8.2,15.2-14.4,21.3C425.6,915.4,418.4,920.2,410.4,923.6z"/>
			<path class="st6" d="M448.8,46.3c-3.5-8.3-8.6-15.8-15-22.2c-6.4-6.4-13.9-11.5-22.2-15c-8.6-3.7-17.8-5.5-27.2-5.5H76.6
				C67.1,3.5,58,5.4,49.3,9c-8.3,3.5-15.8,8.6-22.2,15c-6.4,6.4-11.5,13.9-15,22.2c-3.6,8.6-5.5,17.8-5.5,27.2v788.2
				c0,9.4,1.9,18.6,5.5,27.2c3.5,8.3,8.6,15.8,15,22.2c6.4,6.4,13.9,11.5,22.2,15c8.6,3.7,17.8,5.5,27.2,5.5h307.7
				c9.4,0,18.6-1.8,27.2-5.5c8.3-3.5,15.8-8.6,22.2-15c6.4-6.4,11.5-13.9,15-22.2c3.6-8.6,5.5-17.8,5.5-27.2V73.5
				C454.3,64.1,452.4,54.9,448.8,46.3z M448.6,861.7c0,8.7-1.7,17.1-5,25c-3.2,7.7-7.9,14.5-13.8,20.4c-5.9,5.9-12.8,10.5-20.4,13.8
				c-7.9,3.4-16.3,5-25,5H76.6c-8.7,0-17.1-1.7-25-5c-7.7-3.2-14.5-7.9-20.4-13.8c-5.9-5.9-10.5-12.8-13.8-20.4
				c-3.4-7.9-5-16.3-5-25V73.5c0-8.7,1.7-17.1,5-25c3.2-7.7,7.9-14.5,13.8-20.4c5.9-5.9,12.8-10.5,20.4-13.8c7.9-3.4,16.3-5,25-5
				h307.7c8.7,0,17.1,1.7,25,5c7.7,3.2,14.5,7.9,20.4,13.8c5.9,5.9,10.5,12.8,13.8,20.4c3.4,7.9,5,16.3,5,25V861.7z M448.8,46.3
				c-3.5-8.3-8.6-15.8-15-22.2c-6.4-6.4-13.9-11.5-22.2-15c-8.6-3.7-17.8-5.5-27.2-5.5H76.6C67.1,3.5,58,5.4,49.3,9
				c-8.3,3.5-15.8,8.6-22.2,15c-6.4,6.4-11.5,13.9-15,22.2c-3.6,8.6-5.5,17.8-5.5,27.2v788.2c0,9.4,1.9,18.6,5.5,27.2
				c3.5,8.3,8.6,15.8,15,22.2c6.4,6.4,13.9,11.5,22.2,15c8.6,3.7,17.8,5.5,27.2,5.5h307.7c9.4,0,18.6-1.8,27.2-5.5
				c8.3-3.5,15.8-8.6,22.2-15c6.4-6.4,11.5-13.9,15-22.2c3.6-8.6,5.5-17.8,5.5-27.2V73.5C454.3,64.1,452.4,54.9,448.8,46.3z
				 M448.6,861.7c0,8.7-1.7,17.1-5,25c-3.2,7.7-7.9,14.5-13.8,20.4c-5.9,5.9-12.8,10.5-20.4,13.8c-7.9,3.4-16.3,5-25,5H76.6
				c-8.7,0-17.1-1.7-25-5c-7.7-3.2-14.5-7.9-20.4-13.8c-5.9-5.9-10.5-12.8-13.8-20.4c-3.4-7.9-5-16.3-5-25V73.5c0-8.7,1.7-17.1,5-25
				c3.2-7.7,7.9-14.5,13.8-20.4c5.9-5.9,12.8-10.5,20.4-13.8c7.9-3.4,16.3-5,25-5h307.7c8.7,0,17.1,1.7,25,5
				c7.7,3.2,14.5,7.9,20.4,13.8c5.9,5.9,10.5,12.8,13.8,20.4c3.4,7.9,5,16.3,5,25V861.7z M384.3,0H76.6C36,0,3.1,32.9,3.1,73.5
				v788.2c0,40.6,32.9,73.5,73.5,73.5h307.7c40.6,0,73.5-32.9,73.5-73.5V73.5C457.8,32.9,424.9,0,384.3,0z M455,861.7
				c0,39-31.7,70.7-70.7,70.7H76.6c-39,0-70.7-31.7-70.7-70.7V73.5c0-39,31.7-70.7,70.7-70.7h307.7c39,0,70.7,31.7,70.7,70.7V861.7z
				 M411.5,9c-8.6-3.7-17.8-5.5-27.2-5.5H76.6C67.1,3.5,58,5.4,49.3,9c-8.3,3.5-15.8,8.6-22.2,15c-6.4,6.4-11.5,13.9-15,22.2
				c-3.6,8.6-5.5,17.8-5.5,27.2v788.2c0,9.4,1.9,18.6,5.5,27.2c3.5,8.3,8.6,15.8,15,22.2c6.4,6.4,13.9,11.5,22.2,15
				c8.6,3.7,17.8,5.5,27.2,5.5h307.7c9.4,0,18.6-1.8,27.2-5.5c8.3-3.5,15.8-8.6,22.2-15c6.4-6.4,11.5-13.9,15-22.2
				c3.6-8.6,5.5-17.8,5.5-27.2V73.5c0-9.4-1.9-18.6-5.5-27.2c-3.5-8.3-8.6-15.8-15-22.2C427.4,17.6,419.9,12.6,411.5,9z
				 M448.6,861.7c0,8.7-1.7,17.1-5,25c-3.2,7.7-7.9,14.5-13.8,20.4c-5.9,5.9-12.8,10.5-20.4,13.8c-7.9,3.4-16.3,5-25,5H76.6
				c-8.7,0-17.1-1.7-25-5c-7.7-3.2-14.5-7.9-20.4-13.8c-5.9-5.9-10.5-12.8-13.8-20.4c-3.4-7.9-5-16.3-5-25V73.5c0-8.7,1.7-17.1,5-25
				c3.2-7.7,7.9-14.5,13.8-20.4c5.9-5.9,12.8-10.5,20.4-13.8c7.9-3.4,16.3-5,25-5h307.7c8.7,0,17.1,1.7,25,5
				c7.7,3.2,14.5,7.9,20.4,13.8c5.9,5.9,10.5,12.8,13.8,20.4c3.4,7.9,5,16.3,5,25V861.7z"/>
		</g>
		<path class="st7" d="M382.5,4.4c9.5,0,18.7,1.9,27.4,5.6c8.4,3.6,15.9,8.7,22.4,15.2c6.5,6.5,11.6,14.1,15.1,22.5
			c3.7,8.7,5.5,18,5.5,27.6V860c0,9.6-1.9,18.8-5.5,27.6c-3.5,8.4-8.6,16-15.1,22.5c-6.5,6.5-14,11.6-22.4,15.2
			c-8.7,3.7-17.9,5.6-27.4,5.6H78.1c-9.5,0-18.7-1.9-27.4-5.6c-8.4-3.6-15.9-8.7-22.4-15.2c-6.5-6.5-11.6-14.1-15.1-22.5
			c-3.7-8.7-5.5-18-5.5-27.6V75.2c0-9.6,1.9-18.8,5.5-27.6c3.5-8.4,8.6-16,15.1-22.5c6.5-6.5,14-11.6,22.4-15.2
			c8.7-3.7,17.9-5.6,27.4-5.6H382.5 M382.5,1.7H78.1C37.7,1.7,4.9,34.6,4.9,75.2V860c0,40.6,32.7,73.5,73.1,73.5h304.5
			c40.4,0,73.1-32.9,73.1-73.5V75.2C455.7,34.6,422.9,1.7,382.5,1.7L382.5,1.7z"/>
		<g>
			
				<rect x="358.8" y="2" transform="matrix(6.123234e-17 -1 1 6.123234e-17 358.8037 368.0641)" class="st8" width="9.3" height="5.2"/>
			<rect x="3.1" y="95.8" class="st8" width="9.3" height="5.2"/>
			<rect x="3.1" y="834.6" class="st8" width="9.3" height="5.2"/>
			
				<rect x="93.6" y="928" transform="matrix(-1.836970e-16 1 -1 -1.836970e-16 1028.8302 832.4509)" class="st8" width="9.3" height="5.2"/>
			<rect x="448.6" y="834.6" class="st8" width="9.3" height="5.2"/>
			<rect x="448.6" y="95.8" class="st8" width="9.3" height="5.2"/>
		</g>
	</g>
</g>
<path class="st9" d="M443.5,48.5c-3.2-7.7-7.9-14.5-13.8-20.4c-5.9-5.9-12.8-10.5-20.4-13.8c-7.9-3.4-16.3-5-25-5H76.6
	c-8.7,0-17.1,1.7-25,5c-7.7,3.2-14.5,7.9-20.4,13.8C25.2,34,20.6,40.9,17.4,48.5c-3.4,7.9-5,16.3-5,25v788.2c0,8.7,1.7,17.1,5,25
	c3.2,7.7,7.9,14.5,13.8,20.4c5.9,5.9,12.8,10.5,20.4,13.8c7.9,3.4,16.3,5,25,5h307.7c8.7,0,17.1-1.7,25-5
	c7.7-3.2,14.5-7.9,20.4-13.8c5.9-5.9,10.5-12.8,13.8-20.4c3.4-7.9,5-16.3,5-25V73.5C448.6,64.8,446.9,56.4,443.5,48.5z M436.6,862.7
	c0,28.3-23,51.3-51.3,51.3H75.6c-28.3,0-51.3-23-51.3-51.3v-790c0-28.4,23-51.3,51.3-51.3h309.7c28.4,0,51.3,23,51.3,51.3V862.7z"/>
</svg>
