<?xml version="1.0" encoding="utf-8"?>
<!-- Generator: Adobe Illustrator 27.4.1, SVG Export Plug-In . SVG Version: 6.00 Build 0)  -->
<svg version="1.1" id="Layer_1" xmlns="http://www.w3.org/2000/svg" xmlns:xlink="http://www.w3.org/1999/xlink" x="0px" y="0px"
	 viewBox="0 0 460.2 935.3" style="enable-background:new 0 0 460.2 935.3;" xml:space="preserve">
<style type="text/css">
	.st0{fill:none;stroke:#FFFFFF;stroke-width:1.0399;stroke-linecap:round;stroke-miterlimit:10;}
	.st1{fill:#FFFFFF;}
	.st2{fill:none;stroke:#FFFFFF;stroke-width:0.9964;stroke-linecap:round;stroke-miterlimit:10;}
	.st3{fill:#4B6BC3;}
	.st4{fill:none;stroke:#4B6BC3;stroke-width:0.8652;stroke-linecap:round;stroke-miterlimit:10;}
</style>
<g>
	<g id="Stats">
		<g>
			<line class="st0" x1="69.2" y1="873.8" x2="69.2" y2="869.4"/>
		</g>
		<g>
			<line class="st0" x1="74.2" y1="873.8" x2="74.2" y2="863.5"/>
		</g>
		<g>
			<line class="st0" x1="79.1" y1="873.8" x2="79.1" y2="866.2"/>
		</g>
		<g>
			<g>
				<path class="st1" d="M66.2,894.7c-0.4,0-0.8-0.1-1.2-0.2c-0.4-0.1-0.7-0.4-1-0.6l0.5-0.6c0.3,0.2,0.5,0.4,0.8,0.5
					c0.3,0.1,0.6,0.2,1,0.2c0.4,0,0.7-0.1,0.9-0.3c0.2-0.2,0.3-0.4,0.3-0.6c0-0.2-0.1-0.4-0.2-0.5s-0.3-0.2-0.5-0.3
					c-0.2-0.1-0.4-0.2-0.6-0.3c-0.3-0.1-0.6-0.2-0.8-0.4c-0.3-0.1-0.5-0.3-0.6-0.5c-0.2-0.2-0.2-0.5-0.2-0.8c0-0.5,0.2-0.9,0.5-1.2
					s0.9-0.5,1.5-0.5c0.4,0,0.7,0.1,1,0.2s0.6,0.3,0.8,0.5l-0.5,0.6c-0.2-0.1-0.4-0.3-0.6-0.3s-0.5-0.1-0.7-0.1
					c-0.4,0-0.6,0.1-0.8,0.3c-0.2,0.2-0.3,0.4-0.3,0.6c0,0.2,0.1,0.3,0.2,0.4c0.1,0.1,0.2,0.2,0.4,0.3c0.2,0.1,0.4,0.2,0.6,0.3
					c0.3,0.1,0.6,0.2,0.9,0.4c0.3,0.1,0.5,0.3,0.7,0.5c0.2,0.2,0.3,0.5,0.3,0.9c0,0.3-0.1,0.6-0.2,0.9c-0.2,0.3-0.4,0.5-0.7,0.6
					C67,894.6,66.6,894.7,66.2,894.7z"/>
				<path class="st1" d="M71.3,894.7c-0.6,0-1-0.2-1.3-0.5c-0.2-0.4-0.4-0.8-0.4-1.4v-3.2h-0.9v-0.7l0.9-0.1l0.1-1.9h0.8v1.9h1.6
					v0.8h-1.6v3.2c0,0.4,0.1,0.6,0.2,0.8c0.1,0.2,0.4,0.3,0.7,0.3c0.1,0,0.2,0,0.3,0c0.1,0,0.2-0.1,0.3-0.1l0.2,0.7
					c-0.2,0.1-0.3,0.1-0.5,0.2C71.7,894.7,71.5,894.7,71.3,894.7z"/>
				<path class="st1" d="M74.6,894.7c-0.3,0-0.6-0.1-0.9-0.2c-0.3-0.1-0.5-0.3-0.6-0.6s-0.2-0.5-0.2-0.9c0-0.7,0.3-1.2,0.9-1.5
					c0.6-0.3,1.5-0.6,2.7-0.7c0-0.2,0-0.5-0.1-0.7c-0.1-0.2-0.2-0.4-0.4-0.5c-0.2-0.1-0.4-0.2-0.7-0.2c-0.3,0-0.7,0.1-0.9,0.2
					s-0.6,0.3-0.8,0.4l-0.4-0.7c0.2-0.1,0.4-0.2,0.6-0.4c0.2-0.1,0.5-0.2,0.8-0.3c0.3-0.1,0.6-0.1,0.9-0.1c0.5,0,0.9,0.1,1.2,0.3
					c0.3,0.2,0.5,0.5,0.7,0.8c0.1,0.4,0.2,0.8,0.2,1.3v3.6h-0.8l-0.1-0.7h0c-0.3,0.2-0.6,0.4-0.9,0.6
					C75.3,894.6,74.9,894.7,74.6,894.7z M74.9,893.9c0.3,0,0.6-0.1,0.8-0.2s0.5-0.3,0.8-0.6v-1.6c-0.7,0.1-1.2,0.2-1.6,0.3
					c-0.4,0.1-0.7,0.3-0.8,0.5c-0.2,0.2-0.3,0.4-0.3,0.7c0,0.3,0.1,0.6,0.3,0.7C74.3,893.8,74.6,893.9,74.9,893.9z"/>
				<path class="st1" d="M80.9,894.7c-0.6,0-1-0.2-1.3-0.5c-0.2-0.4-0.4-0.8-0.4-1.4v-3.2h-0.9v-0.7l0.9-0.1l0.1-1.9h0.8v1.9h1.6
					v0.8h-1.6v3.2c0,0.4,0.1,0.6,0.2,0.8c0.1,0.2,0.4,0.3,0.7,0.3c0.1,0,0.2,0,0.3,0c0.1,0,0.2-0.1,0.3-0.1l0.2,0.7
					c-0.2,0.1-0.3,0.1-0.5,0.2C81.3,894.7,81.1,894.7,80.9,894.7z"/>
				<path class="st1" d="M84.6,894.7c-0.4,0-0.8-0.1-1.2-0.2c-0.4-0.1-0.7-0.4-1-0.6l0.5-0.6c0.3,0.2,0.5,0.4,0.8,0.5
					c0.3,0.1,0.6,0.2,1,0.2c0.4,0,0.7-0.1,0.9-0.3c0.2-0.2,0.3-0.4,0.3-0.6c0-0.2-0.1-0.4-0.2-0.5s-0.3-0.2-0.5-0.3
					c-0.2-0.1-0.4-0.2-0.6-0.3c-0.3-0.1-0.6-0.2-0.8-0.4c-0.3-0.1-0.5-0.3-0.6-0.5c-0.2-0.2-0.2-0.5-0.2-0.8c0-0.5,0.2-0.9,0.5-1.2
					s0.9-0.5,1.5-0.5c0.4,0,0.7,0.1,1,0.2s0.6,0.3,0.8,0.5l-0.5,0.6c-0.2-0.1-0.4-0.3-0.6-0.3s-0.5-0.1-0.7-0.1
					c-0.4,0-0.6,0.1-0.8,0.3c-0.2,0.2-0.3,0.4-0.3,0.6c0,0.2,0.1,0.3,0.2,0.4c0.1,0.1,0.2,0.2,0.4,0.3c0.2,0.1,0.4,0.2,0.6,0.3
					c0.3,0.1,0.6,0.2,0.9,0.4c0.3,0.1,0.5,0.3,0.7,0.5c0.2,0.2,0.3,0.5,0.3,0.9c0,0.3-0.1,0.6-0.2,0.9c-0.2,0.3-0.4,0.5-0.7,0.6
					C85.4,894.6,85,894.7,84.6,894.7z"/>
			</g>
		</g>
	</g>
	<g id="Profile">
		<g>
			<path class="st2" d="M374.3,874.4v-2.2c0-1.5,1.2-2.7,2.7-2.7h7.1c1.5,0,2.7,1.2,2.7,2.7v2.2"/>
			<circle class="st2" cx="380.5" cy="863.1" r="3.2"/>
		</g>
		<g>
			<g>
				<path class="st1" d="M364.7,895.4v-8.3h0.8l0.1,0.7h0c0.3-0.2,0.6-0.4,0.9-0.6c0.3-0.2,0.6-0.2,1-0.2c0.5,0,0.9,0.1,1.3,0.4
					c0.3,0.2,0.6,0.6,0.8,1c0.2,0.4,0.3,1,0.3,1.6c0,0.7-0.1,1.2-0.4,1.7c-0.2,0.5-0.5,0.8-0.9,1.1c-0.4,0.2-0.8,0.4-1.2,0.4
					c-0.3,0-0.5-0.1-0.8-0.2c-0.3-0.1-0.5-0.3-0.8-0.5l0,1v2H364.7z M367.1,892.3c0.3,0,0.6-0.1,0.9-0.3c0.3-0.2,0.5-0.5,0.6-0.8
					c0.1-0.3,0.2-0.8,0.2-1.2c0-0.4-0.1-0.8-0.2-1.1c-0.1-0.3-0.3-0.6-0.5-0.8s-0.5-0.3-0.9-0.3c-0.2,0-0.5,0.1-0.7,0.2
					s-0.5,0.3-0.8,0.6v3.1c0.3,0.2,0.5,0.4,0.8,0.5C366.7,892.2,366.9,892.3,367.1,892.3z"/>
				<path class="st1" d="M371.4,892.9v-5.8h0.8l0.1,1.1h0c0.2-0.4,0.4-0.7,0.7-0.9c0.3-0.2,0.6-0.3,0.9-0.3c0.1,0,0.2,0,0.3,0
					c0.1,0,0.2,0,0.3,0.1l-0.2,0.8c-0.1,0-0.2,0-0.2-0.1c-0.1,0-0.2,0-0.3,0c-0.2,0-0.5,0.1-0.8,0.3s-0.5,0.5-0.7,1v3.7H371.4z"/>
				<path class="st1" d="M377.7,893.1c-0.5,0-0.9-0.1-1.3-0.4s-0.7-0.6-1-1s-0.4-1-0.4-1.6c0-0.7,0.1-1.2,0.4-1.7s0.6-0.8,1-1
					s0.9-0.4,1.3-0.4c0.5,0,0.9,0.1,1.3,0.4s0.7,0.6,1,1s0.4,1,0.4,1.7c0,0.6-0.1,1.2-0.4,1.6s-0.6,0.8-1,1S378.2,893.1,377.7,893.1
					z M377.7,892.3c0.3,0,0.6-0.1,0.9-0.3c0.3-0.2,0.5-0.5,0.6-0.8c0.1-0.3,0.2-0.7,0.2-1.2c0-0.4-0.1-0.8-0.2-1.2
					c-0.1-0.3-0.3-0.6-0.6-0.8c-0.3-0.2-0.6-0.3-0.9-0.3s-0.6,0.1-0.9,0.3c-0.3,0.2-0.4,0.5-0.6,0.8c-0.1,0.3-0.2,0.7-0.2,1.2
					c0,0.4,0.1,0.8,0.2,1.2c0.1,0.3,0.3,0.6,0.6,0.8C377,892.2,377.3,892.3,377.7,892.3z"/>
				<path class="st1" d="M381.2,887.9v-0.7l0.9-0.1h2.2v0.8H381.2z M382.1,892.9v-6.8c0-0.4,0.1-0.7,0.2-1s0.3-0.5,0.6-0.7
					s0.6-0.2,1-0.2c0.2,0,0.3,0,0.5,0.1s0.3,0.1,0.5,0.1l-0.2,0.7c-0.2-0.1-0.5-0.1-0.7-0.1c-0.3,0-0.5,0.1-0.6,0.3
					c-0.1,0.2-0.2,0.5-0.2,0.8v6.8H382.1z"/>
				<path class="st1" d="M385.9,885.9c-0.2,0-0.3-0.1-0.5-0.2s-0.2-0.3-0.2-0.5c0-0.2,0.1-0.3,0.2-0.5c0.1-0.1,0.3-0.2,0.5-0.2
					c0.2,0,0.4,0.1,0.5,0.2c0.1,0.1,0.2,0.3,0.2,0.5c0,0.2-0.1,0.3-0.2,0.5S386.1,885.9,385.9,885.9z M385.4,892.9v-5.8h1v5.8H385.4
					z"/>
				<path class="st1" d="M389.4,893c-0.2,0-0.4-0.1-0.6-0.2c-0.2-0.1-0.3-0.2-0.3-0.4c-0.1-0.2-0.1-0.4-0.1-0.7v-7.3h1v7.4
					c0,0.2,0,0.3,0.1,0.3c0.1,0.1,0.1,0.1,0.2,0.1c0,0,0.1,0,0.1,0c0,0,0.1,0,0.1,0l0.1,0.7c-0.1,0-0.2,0-0.2,0.1
					C389.6,893,389.5,893,389.4,893z"/>
				<path class="st1" d="M393.8,893.1c-0.5,0-1-0.1-1.4-0.4c-0.4-0.2-0.8-0.6-1-1s-0.4-1-0.4-1.7c0-0.6,0.1-1.2,0.4-1.6
					s0.6-0.8,1-1.1c0.4-0.2,0.8-0.4,1.3-0.4c0.5,0,0.9,0.1,1.3,0.3c0.3,0.2,0.6,0.5,0.8,1c0.2,0.4,0.3,0.9,0.3,1.4
					c0,0.1,0,0.2,0,0.3c0,0.1,0,0.2,0,0.3h-4.2v-0.8h3.4c0-0.6-0.1-1-0.4-1.3c-0.2-0.3-0.6-0.5-1-0.5c-0.3,0-0.5,0.1-0.8,0.2
					c-0.3,0.1-0.5,0.4-0.6,0.7c-0.2,0.3-0.2,0.8-0.2,1.3c0,0.5,0.1,0.9,0.3,1.2s0.4,0.6,0.7,0.8s0.6,0.3,1,0.3c0.3,0,0.5,0,0.8-0.1
					s0.5-0.2,0.7-0.3l0.4,0.6c-0.3,0.2-0.5,0.3-0.9,0.4C394.5,893,394.2,893.1,393.8,893.1z"/>
			</g>
		</g>
	</g>
	<g id="Budget_-_Active">
		<g>
			<line class="st0" x1="171" y1="876.8" x2="171" y2="859.3"/>
			<path class="st0" d="M175,862.6h-6c-1.5,0-2.7,1.2-2.7,2.7c0,1.5,1.2,2.7,2.7,2.7h4.1c1.5,0,2.7,1.2,2.7,2.7s-1.2,2.7-2.7,2.7
				h-6.5"/>
		</g>
		<g>
			<g>
				<path class="st1" d="M156.6,894.7c-0.3,0-0.6-0.1-0.8-0.2s-0.6-0.3-0.8-0.5h0l-0.1,0.6H154V886h1v2.3l0,1.1
					c0.3-0.2,0.6-0.4,0.9-0.6s0.6-0.2,1-0.2c0.5,0,0.9,0.1,1.3,0.4c0.3,0.2,0.6,0.6,0.8,1c0.2,0.4,0.3,1,0.3,1.6
					c0,0.7-0.1,1.2-0.4,1.7c-0.2,0.5-0.5,0.8-0.9,1.1C157.4,894.6,157,894.7,156.6,894.7z M156.4,893.9c0.3,0,0.6-0.1,0.9-0.3
					c0.3-0.2,0.5-0.5,0.6-0.8c0.1-0.3,0.2-0.8,0.2-1.2c0-0.4-0.1-0.8-0.2-1.1c-0.1-0.3-0.3-0.6-0.5-0.8c-0.2-0.2-0.5-0.3-0.9-0.3
					c-0.2,0-0.5,0.1-0.8,0.2c-0.3,0.1-0.5,0.3-0.8,0.6v3.1c0.3,0.2,0.5,0.4,0.8,0.5C156,893.9,156.2,893.9,156.4,893.9z"/>
				<path class="st1" d="M162.3,894.7c-0.6,0-1.1-0.2-1.4-0.6c-0.3-0.4-0.4-1-0.4-1.7v-3.7h1v3.6c0,0.5,0.1,0.9,0.3,1.2
					c0.2,0.2,0.5,0.4,0.8,0.4c0.3,0,0.6-0.1,0.8-0.2c0.2-0.2,0.5-0.4,0.8-0.7v-4.1h1v5.8h-0.8l-0.1-0.9h0c-0.3,0.3-0.5,0.6-0.9,0.8
					C163.1,894.6,162.7,894.7,162.3,894.7z"/>
				<path class="st1" d="M169.1,894.7c-0.7,0-1.3-0.3-1.8-0.8c-0.4-0.5-0.7-1.3-0.7-2.2c0-0.6,0.1-1.2,0.4-1.6s0.5-0.8,0.9-1.1
					c0.4-0.2,0.8-0.4,1.2-0.4c0.3,0,0.6,0.1,0.9,0.2s0.5,0.3,0.8,0.5l0-1V886h1v8.5H171l-0.1-0.7h0c-0.2,0.2-0.5,0.4-0.8,0.6
					C169.8,894.6,169.5,894.7,169.1,894.7z M169.4,893.9c0.3,0,0.5-0.1,0.8-0.2c0.2-0.1,0.5-0.3,0.7-0.6v-3
					c-0.2-0.2-0.5-0.4-0.7-0.5c-0.2-0.1-0.5-0.1-0.7-0.1c-0.3,0-0.6,0.1-0.8,0.3c-0.3,0.2-0.5,0.4-0.6,0.8s-0.2,0.7-0.2,1.2
					c0,0.7,0.1,1.2,0.4,1.6C168.4,893.7,168.8,893.9,169.4,893.9z"/>
				<path class="st1" d="M175.8,897.3c-0.5,0-0.9-0.1-1.3-0.2c-0.4-0.1-0.6-0.3-0.9-0.5c-0.2-0.2-0.3-0.5-0.3-0.9
					c0-0.2,0.1-0.5,0.2-0.7c0.2-0.2,0.4-0.4,0.6-0.6v0c-0.1-0.1-0.3-0.2-0.4-0.4s-0.1-0.3-0.1-0.6c0-0.2,0.1-0.5,0.2-0.6
					c0.1-0.2,0.3-0.3,0.4-0.4v0c-0.2-0.2-0.4-0.4-0.5-0.6c-0.2-0.3-0.2-0.6-0.2-0.9c0-0.4,0.1-0.8,0.3-1.1c0.2-0.3,0.5-0.6,0.8-0.7
					c0.3-0.2,0.7-0.3,1.1-0.3c0.2,0,0.3,0,0.5,0c0.1,0,0.3,0.1,0.4,0.1h2v0.8h-1.2v0c0.1,0.1,0.3,0.3,0.4,0.5
					c0.1,0.2,0.1,0.4,0.1,0.7c0,0.4-0.1,0.8-0.3,1.1c-0.2,0.3-0.4,0.5-0.8,0.7c-0.3,0.2-0.7,0.2-1.1,0.2c-0.1,0-0.3,0-0.4-0.1
					s-0.3-0.1-0.4-0.1c-0.1,0.1-0.2,0.2-0.3,0.3c-0.1,0.1-0.1,0.2-0.1,0.4c0,0.2,0.1,0.3,0.2,0.5c0.1,0.1,0.4,0.2,0.8,0.2h1.1
					c0.7,0,1.2,0.1,1.5,0.3c0.3,0.2,0.5,0.6,0.5,1.1c0,0.4-0.1,0.7-0.4,1c-0.2,0.3-0.6,0.5-1,0.7
					C176.9,897.2,176.4,897.3,175.8,897.3z M175.9,896.6c0.4,0,0.7-0.1,1-0.2s0.5-0.3,0.6-0.4c0.2-0.2,0.2-0.4,0.2-0.6
					c0-0.3-0.1-0.5-0.3-0.6c-0.2-0.1-0.5-0.2-0.9-0.2h-1c-0.1,0-0.2,0-0.4,0c-0.1,0-0.3,0-0.4-0.1c-0.2,0.2-0.4,0.3-0.5,0.5
					c-0.1,0.2-0.1,0.3-0.1,0.5c0,0.3,0.2,0.6,0.5,0.7C175,896.5,175.4,896.6,175.9,896.6z M175.8,892.1c0.2,0,0.4-0.1,0.6-0.2
					c0.2-0.1,0.3-0.3,0.5-0.5c0.1-0.2,0.2-0.5,0.2-0.7c0-0.4-0.1-0.8-0.4-1c-0.2-0.2-0.5-0.4-0.9-0.4c-0.3,0-0.6,0.1-0.9,0.4
					c-0.2,0.2-0.4,0.6-0.4,1c0,0.3,0.1,0.5,0.2,0.7c0.1,0.2,0.3,0.4,0.5,0.5C175.3,892,175.6,892.1,175.8,892.1z"/>
				<path class="st1" d="M182.1,894.7c-0.5,0-1-0.1-1.4-0.4c-0.4-0.2-0.8-0.6-1-1c-0.2-0.5-0.4-1-0.4-1.7c0-0.6,0.1-1.2,0.4-1.6
					c0.3-0.5,0.6-0.8,1-1.1c0.4-0.2,0.8-0.4,1.3-0.4c0.5,0,0.9,0.1,1.3,0.3c0.3,0.2,0.6,0.5,0.8,1c0.2,0.4,0.3,0.9,0.3,1.4
					c0,0.1,0,0.2,0,0.3c0,0.1,0,0.2,0,0.3h-4.2v-0.8h3.4c0-0.6-0.1-1-0.4-1.3c-0.2-0.3-0.6-0.5-1.1-0.5c-0.3,0-0.5,0.1-0.8,0.2
					c-0.3,0.1-0.5,0.4-0.6,0.7c-0.2,0.3-0.2,0.8-0.2,1.3c0,0.5,0.1,0.9,0.3,1.2s0.4,0.6,0.7,0.8c0.3,0.2,0.6,0.3,1,0.3
					c0.3,0,0.5,0,0.8-0.1s0.5-0.2,0.7-0.3l0.4,0.6c-0.3,0.2-0.5,0.3-0.9,0.4C182.8,894.7,182.4,894.7,182.1,894.7z"/>
				<path class="st1" d="M187.4,894.7c-0.6,0-1-0.2-1.3-0.5c-0.2-0.4-0.4-0.8-0.4-1.4v-3.2h-0.9v-0.7l0.9-0.1l0.1-1.9h0.8v1.9h1.6
					v0.8h-1.6v3.2c0,0.4,0.1,0.6,0.2,0.8c0.1,0.2,0.4,0.3,0.7,0.3c0.1,0,0.2,0,0.3,0c0.1,0,0.2-0.1,0.3-0.1l0.2,0.7
					c-0.2,0.1-0.3,0.1-0.5,0.2C187.7,894.7,187.6,894.7,187.4,894.7z"/>
			</g>
		</g>
	</g>
	<g id="Accounts_-_Inactive">
		<g>
			<g>
				<g>
					<path class="st3" d="M256.4,894.7c-0.3,0-0.6-0.1-0.9-0.2s-0.5-0.3-0.6-0.6c-0.2-0.2-0.2-0.5-0.2-0.9c0-0.7,0.3-1.2,0.9-1.5
						c0.6-0.3,1.5-0.6,2.7-0.7c0-0.2,0-0.5-0.1-0.7c-0.1-0.2-0.2-0.4-0.4-0.5c-0.2-0.1-0.4-0.2-0.7-0.2c-0.3,0-0.7,0.1-0.9,0.2
						s-0.6,0.3-0.8,0.4l-0.4-0.7c0.2-0.1,0.4-0.2,0.6-0.4c0.2-0.1,0.5-0.2,0.8-0.3c0.3-0.1,0.6-0.1,0.9-0.1c0.5,0,0.9,0.1,1.2,0.3
						c0.3,0.2,0.5,0.5,0.7,0.8c0.1,0.4,0.2,0.8,0.2,1.3v3.6h-0.8l-0.1-0.7h0c-0.3,0.2-0.6,0.4-0.9,0.6
						C257.1,894.6,256.7,894.7,256.4,894.7z M256.6,893.9c0.3,0,0.6-0.1,0.8-0.2s0.5-0.3,0.8-0.6v-1.6c-0.7,0.1-1.2,0.2-1.6,0.3
						s-0.7,0.3-0.8,0.5c-0.2,0.2-0.3,0.4-0.3,0.7c0,0.3,0.1,0.6,0.3,0.7C256.1,893.8,256.4,893.9,256.6,893.9z"/>
					<path class="st3" d="M263.4,894.7c-0.5,0-1-0.1-1.4-0.4s-0.7-0.6-1-1s-0.4-1-0.4-1.6c0-0.7,0.1-1.2,0.4-1.7s0.6-0.8,1-1
						c0.4-0.2,0.9-0.4,1.4-0.4c0.4,0,0.7,0.1,1,0.2c0.3,0.1,0.5,0.3,0.7,0.5l-0.5,0.6c-0.1-0.1-0.3-0.3-0.5-0.3
						c-0.2-0.1-0.4-0.1-0.7-0.1c-0.3,0-0.7,0.1-0.9,0.3c-0.3,0.2-0.5,0.5-0.7,0.8s-0.2,0.7-0.2,1.2c0,0.4,0.1,0.8,0.2,1.2
						c0.2,0.3,0.4,0.6,0.6,0.8c0.3,0.2,0.6,0.3,0.9,0.3c0.3,0,0.5-0.1,0.8-0.2c0.2-0.1,0.4-0.2,0.6-0.4l0.4,0.6
						c-0.2,0.2-0.5,0.4-0.8,0.6C264.1,894.7,263.8,894.7,263.4,894.7z"/>
					<path class="st3" d="M268.6,894.7c-0.5,0-1-0.1-1.4-0.4s-0.7-0.6-1-1c-0.2-0.5-0.4-1-0.4-1.6c0-0.7,0.1-1.2,0.4-1.7
						s0.6-0.8,1-1s0.9-0.4,1.4-0.4c0.4,0,0.7,0.1,1,0.2c0.3,0.1,0.5,0.3,0.7,0.5l-0.5,0.6c-0.1-0.1-0.3-0.3-0.5-0.3
						s-0.4-0.1-0.7-0.1c-0.3,0-0.7,0.1-0.9,0.3c-0.3,0.2-0.5,0.5-0.7,0.8s-0.2,0.7-0.2,1.2c0,0.4,0.1,0.8,0.2,1.2
						c0.2,0.3,0.4,0.6,0.6,0.8c0.3,0.2,0.6,0.3,0.9,0.3c0.3,0,0.5-0.1,0.8-0.2c0.2-0.1,0.4-0.2,0.6-0.4l0.4,0.6
						c-0.2,0.2-0.5,0.4-0.8,0.6C269.3,894.7,269,894.7,268.6,894.7z"/>
					<path class="st3" d="M273.8,894.7c-0.5,0-0.9-0.1-1.3-0.4s-0.7-0.6-1-1s-0.4-1-0.4-1.6c0-0.7,0.1-1.2,0.4-1.7s0.6-0.8,1-1
						s0.9-0.4,1.3-0.4c0.5,0,0.9,0.1,1.3,0.4s0.7,0.6,1,1c0.3,0.5,0.4,1,0.4,1.7c0,0.6-0.1,1.2-0.4,1.6c-0.3,0.5-0.6,0.8-1,1
						S274.2,894.7,273.8,894.7z M273.8,893.9c0.3,0,0.6-0.1,0.9-0.3c0.3-0.2,0.5-0.5,0.6-0.8s0.2-0.7,0.2-1.2c0-0.4-0.1-0.8-0.2-1.2
						s-0.3-0.6-0.6-0.8c-0.3-0.2-0.6-0.3-0.9-0.3s-0.6,0.1-0.9,0.3c-0.3,0.2-0.4,0.5-0.6,0.8c-0.1,0.3-0.2,0.7-0.2,1.2
						c0,0.4,0.1,0.8,0.2,1.2c0.1,0.3,0.3,0.6,0.6,0.8C273.1,893.8,273.4,893.9,273.8,893.9z"/>
					<path class="st3" d="M279.7,894.7c-0.6,0-1.1-0.2-1.3-0.6c-0.3-0.4-0.4-1-0.4-1.7v-3.7h1v3.6c0,0.5,0.1,0.9,0.3,1.2
						c0.2,0.2,0.5,0.4,0.8,0.4c0.3,0,0.6-0.1,0.8-0.2c0.2-0.2,0.5-0.4,0.8-0.7v-4.1h1v5.8h-0.8l-0.1-0.9h0c-0.3,0.3-0.5,0.6-0.9,0.8
						C280.5,894.6,280.1,894.7,279.7,894.7z"/>
					<path class="st3" d="M284.5,894.6v-5.8h0.8l0.1,0.8h0c0.3-0.3,0.6-0.5,0.9-0.7c0.3-0.2,0.7-0.3,1.1-0.3c0.6,0,1.1,0.2,1.4,0.6
						c0.3,0.4,0.4,1,0.4,1.7v3.7h-1V891c0-0.6-0.1-0.9-0.3-1.2s-0.5-0.4-0.8-0.4c-0.3,0-0.6,0.1-0.8,0.2c-0.2,0.2-0.5,0.4-0.8,0.7
						v4.2H284.5z"/>
					<path class="st3" d="M292.9,894.7c-0.6,0-1-0.2-1.3-0.5c-0.2-0.4-0.4-0.8-0.4-1.4v-3.2h-0.9v-0.7l0.9-0.1l0.1-1.9h0.8v1.9h1.6
						v0.8h-1.6v3.2c0,0.4,0.1,0.6,0.2,0.8s0.4,0.3,0.7,0.3c0.1,0,0.2,0,0.3,0c0.1,0,0.2-0.1,0.3-0.1l0.2,0.7
						c-0.2,0.1-0.3,0.1-0.5,0.2C293.3,894.7,293.1,894.7,292.9,894.7z"/>
					<path class="st3" d="M296.6,894.7c-0.4,0-0.8-0.1-1.2-0.2c-0.4-0.1-0.7-0.4-1-0.6l0.5-0.6c0.3,0.2,0.5,0.4,0.8,0.5
						c0.3,0.1,0.6,0.2,1,0.2c0.4,0,0.7-0.1,0.9-0.3c0.2-0.2,0.3-0.4,0.3-0.6c0-0.2-0.1-0.4-0.2-0.5s-0.3-0.2-0.5-0.3
						c-0.2-0.1-0.4-0.2-0.6-0.3c-0.3-0.1-0.6-0.2-0.8-0.4c-0.3-0.1-0.5-0.3-0.6-0.5c-0.2-0.2-0.2-0.5-0.2-0.8c0-0.5,0.2-0.9,0.5-1.2
						c0.4-0.3,0.8-0.5,1.5-0.5c0.4,0,0.7,0.1,1,0.2c0.3,0.1,0.6,0.3,0.8,0.5l-0.5,0.6c-0.2-0.1-0.4-0.3-0.6-0.3s-0.5-0.1-0.7-0.1
						c-0.4,0-0.6,0.1-0.8,0.3s-0.3,0.4-0.3,0.6c0,0.2,0.1,0.3,0.2,0.4c0.1,0.1,0.2,0.2,0.4,0.3s0.4,0.2,0.6,0.3
						c0.3,0.1,0.6,0.2,0.9,0.4c0.3,0.1,0.5,0.3,0.7,0.5c0.2,0.2,0.3,0.5,0.3,0.9c0,0.3-0.1,0.6-0.2,0.9c-0.2,0.3-0.4,0.5-0.7,0.6
						C297.4,894.6,297,894.7,296.6,894.7z"/>
				</g>
			</g>
		</g>
		<g>
			<line class="st4" x1="276.7" y1="866" x2="276.7" y2="875.1"/>
			<line class="st4" x1="283.6" y1="866" x2="283.6" y2="875.1"/>
			<line class="st4" x1="269.8" y1="866" x2="269.8" y2="875.1"/>
			<path class="st4" d="M276.3,858.8l-7.5,3c-1,0.4-0.7,1.9,0.4,1.9h15.1c1.1,0,1.4-1.5,0.4-1.9l-7.5-3
				C276.8,858.7,276.6,858.7,276.3,858.8z"/>
		</g>
	</g>
</g>
</svg>
