<?xml version="1.0" encoding="utf-8"?>
<!-- Generator: Adobe Illustrator 27.4.1, SVG Export Plug-In . SVG Version: 6.00 Build 0)  -->
<svg version="1.1" id="Layer_1" xmlns="http://www.w3.org/2000/svg" xmlns:xlink="http://www.w3.org/1999/xlink" x="0px" y="0px"
	 viewBox="0 0 460.2 935.3" style="enable-background:new 0 0 460.2 935.3;" xml:space="preserve">
<style type="text/css">
	.st0{fill:none;stroke:#000000;stroke-width:1.0399;stroke-linecap:round;stroke-miterlimit:10;}
	.st1{fill:none;stroke:#000000;stroke-width:0.9964;stroke-linecap:round;stroke-miterlimit:10;}
	.st2{fill:none;stroke:#4B6BC3;stroke-width:0.9359;stroke-linecap:round;stroke-miterlimit:10;}
	.st3{fill:#4B6BC3;}
	.st4{fill:none;stroke:#000000;stroke-width:0.8652;stroke-linecap:round;stroke-miterlimit:10;}
</style>
<g>
	<g>
		<g>
			<line class="st0" x1="69.2" y1="871.8" x2="69.2" y2="867.4"/>
		</g>
		<g>
			<line class="st0" x1="74.2" y1="871.8" x2="74.2" y2="861.5"/>
		</g>
		<g>
			<g>
				<line class="st0" x1="79.1" y1="871.8" x2="79.1" y2="864.2"/>
			</g>
		</g>
		<g>
			<g>
				<path d="M65.4,892.7c-0.5,0-0.9-0.1-1.3-0.2c-0.4-0.2-0.8-0.4-1-0.7l0.5-0.6c0.3,0.2,0.6,0.4,0.9,0.5c0.3,0.1,0.6,0.2,1,0.2
					c0.4,0,0.7-0.1,0.9-0.3c0.2-0.2,0.3-0.4,0.3-0.7c0-0.2-0.1-0.4-0.2-0.5c-0.1-0.1-0.3-0.3-0.5-0.4s-0.4-0.2-0.7-0.3
					c-0.3-0.1-0.6-0.2-0.9-0.4c-0.3-0.2-0.5-0.3-0.7-0.6s-0.3-0.5-0.3-0.9c0-0.5,0.2-0.9,0.6-1.3c0.4-0.3,0.9-0.5,1.6-0.5
					c0.4,0,0.8,0.1,1.1,0.2c0.3,0.1,0.6,0.3,0.9,0.5l-0.5,0.6c-0.2-0.2-0.5-0.3-0.7-0.4c-0.2-0.1-0.5-0.1-0.8-0.1
					c-0.4,0-0.7,0.1-0.9,0.3c-0.2,0.2-0.3,0.4-0.3,0.6c0,0.2,0.1,0.3,0.2,0.5c0.1,0.1,0.3,0.2,0.5,0.3c0.2,0.1,0.4,0.2,0.7,0.3
					c0.3,0.1,0.6,0.3,0.9,0.4c0.3,0.2,0.5,0.3,0.7,0.6s0.3,0.5,0.3,0.9c0,0.3-0.1,0.7-0.3,0.9c-0.2,0.3-0.4,0.5-0.8,0.7
					C66.3,892.7,65.9,892.7,65.4,892.7z"/>
				<path d="M70.9,892.7c-0.7,0-1.1-0.2-1.4-0.6c-0.3-0.4-0.4-0.9-0.4-1.5v-3.5h-0.9v-0.8l1-0.1l0.1-2h0.9v2h1.7v0.9h-1.7v3.5
					c0,0.4,0.1,0.7,0.2,0.9s0.4,0.3,0.8,0.3c0.1,0,0.2,0,0.4,0c0.1,0,0.2-0.1,0.4-0.1l0.2,0.8c-0.2,0.1-0.4,0.1-0.6,0.2
					S71.1,892.7,70.9,892.7z"/>
				<path d="M74.5,892.7c-0.3,0-0.7-0.1-0.9-0.2c-0.3-0.1-0.5-0.3-0.7-0.6c-0.2-0.3-0.2-0.6-0.2-1c0-0.7,0.3-1.2,0.9-1.6
					s1.6-0.6,3-0.8c0-0.3,0-0.5-0.1-0.8c-0.1-0.2-0.2-0.4-0.4-0.6c-0.2-0.1-0.5-0.2-0.8-0.2c-0.4,0-0.7,0.1-1,0.2
					c-0.3,0.1-0.6,0.3-0.9,0.4l-0.4-0.7c0.2-0.1,0.4-0.3,0.7-0.4c0.3-0.1,0.5-0.2,0.8-0.3c0.3-0.1,0.6-0.1,1-0.1
					c0.5,0,0.9,0.1,1.3,0.3c0.3,0.2,0.6,0.5,0.7,0.9c0.2,0.4,0.2,0.8,0.2,1.4v3.9h-0.9l-0.1-0.8h0c-0.3,0.3-0.6,0.5-1,0.6
					C75.3,892.6,74.9,892.7,74.5,892.7z M74.8,891.9c0.3,0,0.6-0.1,0.9-0.2c0.3-0.1,0.6-0.3,0.9-0.6v-1.7c-0.7,0.1-1.3,0.2-1.7,0.3
					c-0.4,0.1-0.7,0.3-0.9,0.5c-0.2,0.2-0.3,0.4-0.3,0.7c0,0.3,0.1,0.6,0.3,0.7C74.2,891.8,74.5,891.9,74.8,891.9z"/>
				<path d="M81.4,892.7c-0.7,0-1.1-0.2-1.4-0.6c-0.3-0.4-0.4-0.9-0.4-1.5v-3.5h-0.9v-0.8l1-0.1l0.1-2h0.9v2h1.7v0.9h-1.7v3.5
					c0,0.4,0.1,0.7,0.2,0.9s0.4,0.3,0.8,0.3c0.1,0,0.2,0,0.4,0c0.1,0,0.2-0.1,0.4-0.1l0.2,0.8c-0.2,0.1-0.4,0.1-0.6,0.2
					S81.6,892.7,81.4,892.7z"/>
				<path d="M85.3,892.7c-0.5,0-0.9-0.1-1.3-0.2c-0.4-0.2-0.8-0.4-1-0.7l0.5-0.6c0.3,0.2,0.6,0.4,0.9,0.5c0.3,0.1,0.6,0.2,1,0.2
					c0.4,0,0.7-0.1,0.9-0.3c0.2-0.2,0.3-0.4,0.3-0.7c0-0.2-0.1-0.4-0.2-0.5c-0.1-0.1-0.3-0.3-0.5-0.4s-0.4-0.2-0.7-0.3
					c-0.3-0.1-0.6-0.2-0.9-0.4c-0.3-0.2-0.5-0.3-0.7-0.6s-0.3-0.5-0.3-0.9c0-0.5,0.2-0.9,0.6-1.3c0.4-0.3,0.9-0.5,1.6-0.5
					c0.4,0,0.8,0.1,1.1,0.2c0.3,0.1,0.6,0.3,0.9,0.5l-0.5,0.6c-0.2-0.2-0.5-0.3-0.7-0.4c-0.2-0.1-0.5-0.1-0.8-0.1
					c-0.4,0-0.7,0.1-0.9,0.3c-0.2,0.2-0.3,0.4-0.3,0.6c0,0.2,0.1,0.3,0.2,0.5c0.1,0.1,0.3,0.2,0.5,0.3c0.2,0.1,0.4,0.2,0.7,0.3
					c0.3,0.1,0.6,0.3,0.9,0.4c0.3,0.2,0.5,0.3,0.7,0.6s0.3,0.5,0.3,0.9c0,0.3-0.1,0.7-0.3,0.9c-0.2,0.3-0.4,0.5-0.8,0.7
					C86.2,892.7,85.8,892.7,85.3,892.7z"/>
			</g>
		</g>
	</g>
	<g>
		<g>
			<path class="st1" d="M374.3,872.4v-2.2c0-1.5,1.2-2.7,2.7-2.7h7.1c1.5,0,2.7,1.2,2.7,2.7v2.2"/>
			<circle class="st1" cx="380.5" cy="861.1" r="3.2"/>
		</g>
		<g>
			<g>
				<path d="M363.8,893.6v-9h0.9l0.1,0.7h0c0.3-0.2,0.6-0.5,0.9-0.6c0.3-0.2,0.7-0.3,1.1-0.3c0.5,0,1,0.1,1.4,0.4
					c0.4,0.3,0.7,0.6,0.8,1.1c0.2,0.5,0.3,1.1,0.3,1.7c0,0.7-0.1,1.3-0.4,1.8c-0.3,0.5-0.6,0.9-1,1.2s-0.9,0.4-1.3,0.4
					c-0.3,0-0.6-0.1-0.9-0.2c-0.3-0.1-0.6-0.3-0.9-0.5l0,1.1v2.1H363.8z M366.4,890.2c0.3,0,0.7-0.1,0.9-0.3
					c0.3-0.2,0.5-0.5,0.6-0.9s0.2-0.8,0.2-1.3c0-0.5-0.1-0.9-0.2-1.2c-0.1-0.4-0.3-0.6-0.5-0.8c-0.2-0.2-0.6-0.3-1-0.3
					c-0.3,0-0.5,0.1-0.8,0.2c-0.3,0.1-0.6,0.4-0.9,0.6v3.3c0.3,0.2,0.6,0.4,0.8,0.5C366,890.1,366.2,890.2,366.4,890.2z"/>
				<path d="M371,890.9v-6.3h0.9l0.1,1.1h0c0.2-0.4,0.5-0.7,0.8-0.9c0.3-0.2,0.6-0.4,1-0.4c0.1,0,0.3,0,0.4,0c0.1,0,0.2,0.1,0.3,0.1
					l-0.2,0.9c-0.1,0-0.2,0-0.3-0.1c-0.1,0-0.2,0-0.3,0c-0.3,0-0.5,0.1-0.8,0.3c-0.3,0.2-0.5,0.6-0.8,1.1v4.1H371z"/>
				<path d="M377.8,891.1c-0.5,0-1-0.1-1.4-0.4c-0.4-0.3-0.8-0.6-1.1-1.1c-0.3-0.5-0.4-1.1-0.4-1.8c0-0.7,0.1-1.3,0.4-1.8
					c0.3-0.5,0.6-0.9,1.1-1.1c0.4-0.3,0.9-0.4,1.4-0.4c0.5,0,1,0.1,1.4,0.4c0.4,0.3,0.8,0.6,1.1,1.1c0.3,0.5,0.4,1.1,0.4,1.8
					c0,0.7-0.1,1.3-0.4,1.8c-0.3,0.5-0.6,0.9-1.1,1.1C378.8,891,378.4,891.1,377.8,891.1z M377.8,890.2c0.4,0,0.7-0.1,1-0.3
					c0.3-0.2,0.5-0.5,0.6-0.9c0.1-0.4,0.2-0.8,0.2-1.3c0-0.5-0.1-0.9-0.2-1.3c-0.1-0.4-0.4-0.7-0.6-0.9c-0.3-0.2-0.6-0.3-1-0.3
					c-0.4,0-0.7,0.1-1,0.3c-0.3,0.2-0.5,0.5-0.6,0.9c-0.2,0.4-0.2,0.8-0.2,1.3c0,0.5,0.1,0.9,0.2,1.3c0.2,0.4,0.4,0.6,0.6,0.9
					C377.2,890.1,377.5,890.2,377.8,890.2z"/>
				<path d="M381.6,885.5v-0.8l1-0.1h2.4v0.9H381.6z M382.6,890.9v-7.3c0-0.4,0.1-0.8,0.2-1.1s0.3-0.6,0.6-0.7
					c0.3-0.2,0.6-0.3,1-0.3c0.2,0,0.4,0,0.6,0.1s0.3,0.1,0.5,0.1l-0.2,0.8c-0.3-0.1-0.5-0.1-0.7-0.1c-0.3,0-0.5,0.1-0.7,0.3
					c-0.1,0.2-0.2,0.5-0.2,0.9v7.3H382.6z"/>
				<path d="M386.7,883.3c-0.2,0-0.4-0.1-0.5-0.2c-0.1-0.1-0.2-0.3-0.2-0.5s0.1-0.4,0.2-0.5c0.1-0.1,0.3-0.2,0.5-0.2
					s0.4,0.1,0.5,0.2c0.1,0.1,0.2,0.3,0.2,0.5s-0.1,0.4-0.2,0.5C387.1,883.3,386.9,883.3,386.7,883.3z M386.2,890.9v-6.3h1.1v6.3
					H386.2z"/>
				<path d="M390.5,891.1c-0.3,0-0.5-0.1-0.7-0.2c-0.2-0.1-0.3-0.3-0.4-0.5c-0.1-0.2-0.1-0.5-0.1-0.8v-8h1.1v8c0,0.2,0,0.3,0.1,0.4
					c0.1,0.1,0.1,0.1,0.2,0.1c0,0,0.1,0,0.1,0c0,0,0.1,0,0.1,0l0.2,0.8c-0.1,0-0.2,0-0.3,0.1C390.8,891,390.7,891.1,390.5,891.1z"/>
				<path d="M395.3,891.1c-0.6,0-1.1-0.1-1.5-0.4c-0.5-0.3-0.8-0.6-1.1-1.1c-0.3-0.5-0.4-1.1-0.4-1.8c0-0.7,0.1-1.3,0.4-1.8
					s0.6-0.9,1.1-1.1c0.4-0.3,0.9-0.4,1.4-0.4c0.5,0,1,0.1,1.4,0.4s0.7,0.6,0.9,1c0.2,0.4,0.3,1,0.3,1.6c0,0.1,0,0.2,0,0.3
					c0,0.1,0,0.2,0,0.3H393v-0.8h3.6c0-0.6-0.1-1.1-0.4-1.4c-0.3-0.3-0.6-0.5-1.1-0.5c-0.3,0-0.6,0.1-0.8,0.2s-0.5,0.4-0.7,0.8
					s-0.3,0.8-0.3,1.4c0,0.5,0.1,1,0.3,1.4c0.2,0.4,0.4,0.6,0.8,0.8c0.3,0.2,0.7,0.3,1.1,0.3c0.3,0,0.6,0,0.9-0.1s0.5-0.2,0.7-0.4
					l0.4,0.7c-0.3,0.2-0.6,0.3-0.9,0.5C396.1,891,395.7,891.1,395.3,891.1z"/>
			</g>
		</g>
	</g>
	<g id="Budget_-_Inactive_00000097461600539184372330000012838833627784387460_">
		<g>
			<line class="st2" x1="171" y1="872.9" x2="171" y2="857.1"/>
			<path class="st2" d="M174.6,860.2h-5.4c-1.3,0-2.4,1.1-2.4,2.4c0,1.3,1.1,2.4,2.4,2.4h3.7c1.3,0,2.4,1.1,2.4,2.4
				c0,1.3-1.1,2.4-2.4,2.4H167"/>
		</g>
		<g>
			<g>
				<path class="st3" d="M155.9,892.7c-0.3,0-0.6-0.1-0.9-0.2c-0.3-0.1-0.6-0.3-0.9-0.6h0l-0.1,0.7h-0.9v-9.3h1.1v2.5l0,1.1
					c0.3-0.3,0.6-0.5,0.9-0.6s0.7-0.3,1-0.3c0.5,0,1,0.1,1.4,0.4c0.4,0.3,0.7,0.6,0.8,1.1c0.2,0.5,0.3,1,0.3,1.7
					c0,0.7-0.1,1.3-0.4,1.8c-0.3,0.5-0.6,0.9-1,1.2S156.3,892.7,155.9,892.7z M155.7,891.8c0.3,0,0.7-0.1,0.9-0.3s0.5-0.5,0.6-0.9
					c0.2-0.4,0.2-0.8,0.2-1.3c0-0.5-0.1-0.9-0.2-1.2c-0.1-0.4-0.3-0.6-0.5-0.8c-0.2-0.2-0.6-0.3-1-0.3c-0.3,0-0.5,0.1-0.8,0.2
					c-0.3,0.1-0.6,0.4-0.9,0.6v3.3c0.3,0.2,0.6,0.4,0.8,0.5S155.5,891.8,155.7,891.8z"/>
				<path class="st3" d="M162.1,892.7c-0.7,0-1.2-0.2-1.5-0.6c-0.3-0.4-0.5-1-0.5-1.8v-4h1.1v3.9c0,0.6,0.1,1,0.3,1.3
					c0.2,0.3,0.5,0.4,0.9,0.4c0.3,0,0.6-0.1,0.9-0.3c0.3-0.2,0.5-0.4,0.8-0.8v-4.5h1.1v6.3h-0.9l-0.1-1h0c-0.3,0.3-0.6,0.6-0.9,0.8
					S162.5,892.7,162.1,892.7z"/>
				<path class="st3" d="M169.5,892.7c-0.8,0-1.4-0.3-1.9-0.9c-0.5-0.6-0.7-1.4-0.7-2.4c0-0.7,0.1-1.3,0.4-1.8
					c0.3-0.5,0.6-0.9,1-1.2s0.9-0.4,1.4-0.4c0.4,0,0.7,0.1,1,0.2c0.3,0.1,0.5,0.3,0.8,0.5l-0.1-1.1v-2.4h1.1v9.3h-0.9l-0.1-0.7h0
					c-0.2,0.2-0.5,0.5-0.9,0.6C170.2,892.6,169.9,892.7,169.5,892.7z M169.7,891.8c0.3,0,0.6-0.1,0.8-0.2c0.3-0.1,0.5-0.4,0.8-0.7
					v-3.3c-0.3-0.2-0.5-0.4-0.8-0.5c-0.3-0.1-0.5-0.1-0.8-0.1c-0.3,0-0.6,0.1-0.9,0.3c-0.3,0.2-0.5,0.5-0.7,0.8
					c-0.2,0.4-0.2,0.8-0.2,1.3c0,0.8,0.2,1.3,0.5,1.8C168.7,891.6,169.2,891.8,169.7,891.8z"/>
				<path class="st3" d="M176.7,895.5c-0.5,0-1-0.1-1.4-0.2c-0.4-0.1-0.7-0.3-0.9-0.6s-0.3-0.6-0.3-0.9c0-0.3,0.1-0.5,0.2-0.8
					s0.4-0.5,0.7-0.7v-0.1c-0.2-0.1-0.3-0.2-0.4-0.4s-0.2-0.4-0.2-0.6c0-0.3,0.1-0.5,0.2-0.7c0.2-0.2,0.3-0.4,0.5-0.5v-0.1
					c-0.2-0.2-0.4-0.4-0.6-0.7c-0.2-0.3-0.3-0.6-0.3-1c0-0.5,0.1-0.9,0.3-1.2c0.2-0.3,0.5-0.6,0.9-0.8c0.4-0.2,0.8-0.3,1.2-0.3
					c0.2,0,0.3,0,0.5,0c0.2,0,0.3,0.1,0.4,0.1h2.2v0.8h-1.3v0.1c0.2,0.1,0.3,0.3,0.4,0.5s0.1,0.5,0.1,0.7c0,0.5-0.1,0.8-0.3,1.2
					s-0.5,0.6-0.8,0.8c-0.3,0.2-0.7,0.3-1.2,0.3c-0.2,0-0.3,0-0.5-0.1s-0.3-0.1-0.5-0.2c-0.1,0.1-0.2,0.2-0.3,0.3
					c-0.1,0.1-0.1,0.3-0.1,0.4c0,0.2,0.1,0.4,0.2,0.5c0.2,0.1,0.5,0.2,0.9,0.2h1.2c0.7,0,1.3,0.1,1.7,0.4c0.4,0.2,0.6,0.6,0.6,1.2
					c0,0.4-0.1,0.8-0.4,1.1c-0.3,0.3-0.6,0.6-1.1,0.8C177.9,895.4,177.3,895.5,176.7,895.5z M176.8,894.8c0.4,0,0.7-0.1,1-0.2
					c0.3-0.1,0.5-0.3,0.7-0.5s0.3-0.4,0.3-0.6c0-0.3-0.1-0.5-0.3-0.6c-0.2-0.1-0.5-0.2-0.9-0.2h-1.1c-0.1,0-0.3,0-0.4,0
					c-0.1,0-0.3,0-0.4-0.1c-0.2,0.2-0.4,0.3-0.5,0.5c-0.1,0.2-0.1,0.4-0.1,0.5c0,0.3,0.2,0.6,0.5,0.8
					C175.8,894.7,176.3,894.8,176.8,894.8z M176.7,889.9c0.2,0,0.5-0.1,0.7-0.2c0.2-0.1,0.4-0.3,0.5-0.5c0.1-0.2,0.2-0.5,0.2-0.8
					c0-0.5-0.1-0.8-0.4-1.1c-0.3-0.3-0.6-0.4-0.9-0.4c-0.4,0-0.7,0.1-0.9,0.4c-0.3,0.3-0.4,0.6-0.4,1.1c0,0.3,0.1,0.6,0.2,0.8
					c0.1,0.2,0.3,0.4,0.5,0.5S176.4,889.9,176.7,889.9z"/>
				<path class="st3" d="M183.5,892.7c-0.6,0-1.1-0.1-1.5-0.4c-0.5-0.3-0.8-0.6-1.1-1.1c-0.3-0.5-0.4-1.1-0.4-1.8
					c0-0.7,0.1-1.3,0.4-1.8s0.6-0.9,1.1-1.1s0.9-0.4,1.4-0.4c0.5,0,1,0.1,1.4,0.4s0.7,0.6,0.9,1c0.2,0.4,0.3,1,0.3,1.6
					c0,0.1,0,0.2,0,0.3c0,0.1,0,0.2,0,0.3h-4.5v-0.8h3.6c0-0.6-0.1-1.1-0.4-1.4c-0.3-0.3-0.6-0.5-1.1-0.5c-0.3,0-0.6,0.1-0.8,0.2
					s-0.5,0.4-0.7,0.8c-0.2,0.4-0.3,0.8-0.3,1.4c0,0.5,0.1,1,0.3,1.4c0.2,0.4,0.4,0.6,0.8,0.8c0.3,0.2,0.7,0.3,1.1,0.3
					c0.3,0,0.6,0,0.9-0.1s0.5-0.2,0.7-0.4l0.4,0.7c-0.3,0.2-0.6,0.3-0.9,0.5C184.3,892.7,183.9,892.7,183.5,892.7z"/>
				<path class="st3" d="M189.2,892.7c-0.7,0-1.1-0.2-1.4-0.6c-0.3-0.4-0.4-0.9-0.4-1.5v-3.5h-0.9v-0.8l1-0.1l0.1-2h0.9v2h1.7v0.9
					h-1.7v3.5c0,0.4,0.1,0.7,0.2,0.9s0.4,0.3,0.8,0.3c0.1,0,0.2,0,0.4,0c0.1,0,0.2-0.1,0.4-0.1l0.2,0.8c-0.2,0.1-0.4,0.1-0.6,0.2
					S189.4,892.7,189.2,892.7z"/>
			</g>
		</g>
	</g>
	<g id="Accounts_-_Active_00000002376685263439761680000006405661877326169501_">
		<g>
			<g>
				<g>
					<path d="M255.6,892.7c-0.3,0-0.7-0.1-0.9-0.2c-0.3-0.1-0.5-0.3-0.7-0.6c-0.2-0.3-0.2-0.6-0.2-1c0-0.7,0.3-1.2,0.9-1.6
						s1.6-0.6,3-0.8c0-0.3,0-0.5-0.1-0.8c-0.1-0.2-0.2-0.4-0.4-0.6c-0.2-0.1-0.5-0.2-0.8-0.2c-0.4,0-0.7,0.1-1,0.2
						c-0.3,0.1-0.6,0.3-0.9,0.4l-0.4-0.7c0.2-0.1,0.4-0.3,0.7-0.4c0.3-0.1,0.5-0.2,0.8-0.3c0.3-0.1,0.6-0.1,1-0.1
						c0.5,0,0.9,0.1,1.3,0.3c0.3,0.2,0.6,0.5,0.7,0.9c0.2,0.4,0.2,0.8,0.2,1.4v3.9h-0.9l-0.1-0.8h0c-0.3,0.3-0.6,0.5-1,0.6
						C256.3,892.6,255.9,892.7,255.6,892.7z M255.9,891.9c0.3,0,0.6-0.1,0.9-0.2c0.3-0.1,0.6-0.3,0.9-0.6v-1.7
						c-0.7,0.1-1.3,0.2-1.7,0.3c-0.4,0.1-0.7,0.3-0.9,0.5s-0.3,0.4-0.3,0.7c0,0.3,0.1,0.6,0.3,0.7
						C255.3,891.8,255.5,891.9,255.9,891.9z"/>
					<path d="M263.2,892.7c-0.6,0-1.1-0.1-1.5-0.4c-0.5-0.3-0.8-0.6-1.1-1.1s-0.4-1.1-0.4-1.8c0-0.7,0.1-1.3,0.4-1.8
						c0.3-0.5,0.7-0.9,1.1-1.1s1-0.4,1.5-0.4c0.4,0,0.8,0.1,1.1,0.2s0.6,0.3,0.8,0.5l-0.5,0.7c-0.2-0.2-0.3-0.3-0.6-0.4
						c-0.2-0.1-0.5-0.1-0.7-0.1c-0.4,0-0.7,0.1-1,0.3c-0.3,0.2-0.5,0.5-0.7,0.9c-0.2,0.4-0.3,0.8-0.3,1.3c0,0.5,0.1,0.9,0.2,1.3
						c0.2,0.4,0.4,0.6,0.7,0.9c0.3,0.2,0.6,0.3,1,0.3c0.3,0,0.6-0.1,0.8-0.2c0.3-0.1,0.5-0.3,0.6-0.4l0.5,0.7
						c-0.3,0.3-0.6,0.5-0.9,0.6S263.6,892.7,263.2,892.7z"/>
					<path d="M268.8,892.7c-0.6,0-1.1-0.1-1.5-0.4c-0.5-0.3-0.8-0.6-1.1-1.1s-0.4-1.1-0.4-1.8c0-0.7,0.1-1.3,0.4-1.8
						c0.3-0.5,0.7-0.9,1.1-1.1s1-0.4,1.5-0.4c0.4,0,0.8,0.1,1.1,0.2s0.6,0.3,0.8,0.5l-0.5,0.7c-0.2-0.2-0.3-0.3-0.6-0.4
						c-0.2-0.1-0.5-0.1-0.7-0.1c-0.4,0-0.7,0.1-1,0.3c-0.3,0.2-0.5,0.5-0.7,0.9c-0.2,0.4-0.3,0.8-0.3,1.3c0,0.5,0.1,0.9,0.2,1.3
						c0.2,0.4,0.4,0.6,0.7,0.9c0.3,0.2,0.6,0.3,1,0.3c0.3,0,0.6-0.1,0.8-0.2c0.3-0.1,0.5-0.3,0.6-0.4l0.5,0.7
						c-0.3,0.3-0.6,0.5-0.9,0.6S269.2,892.7,268.8,892.7z"/>
					<path d="M274.4,892.7c-0.5,0-1-0.1-1.4-0.4c-0.4-0.3-0.8-0.6-1.1-1.1c-0.3-0.5-0.4-1.1-0.4-1.8c0-0.7,0.1-1.3,0.4-1.8
						c0.3-0.5,0.6-0.9,1.1-1.1s0.9-0.4,1.4-0.4c0.5,0,1,0.1,1.4,0.4s0.8,0.6,1.1,1.1c0.3,0.5,0.4,1.1,0.4,1.8c0,0.7-0.1,1.3-0.4,1.8
						c-0.3,0.5-0.6,0.9-1.1,1.1C275.4,892.6,274.9,892.7,274.4,892.7z M274.4,891.9c0.4,0,0.7-0.1,1-0.3c0.3-0.2,0.5-0.5,0.6-0.9
						c0.1-0.4,0.2-0.8,0.2-1.3c0-0.5-0.1-0.9-0.2-1.3c-0.1-0.4-0.4-0.7-0.6-0.9c-0.3-0.2-0.6-0.3-1-0.3c-0.4,0-0.7,0.1-1,0.3
						c-0.3,0.2-0.5,0.5-0.6,0.9c-0.2,0.4-0.2,0.8-0.2,1.3c0,0.5,0.1,0.9,0.2,1.3c0.2,0.4,0.4,0.6,0.6,0.9
						C273.7,891.8,274.1,891.9,274.4,891.9z"/>
					<path d="M280.8,892.7c-0.7,0-1.2-0.2-1.5-0.6c-0.3-0.4-0.5-1-0.5-1.8v-4h1.1v3.9c0,0.6,0.1,1,0.3,1.3c0.2,0.3,0.5,0.4,0.9,0.4
						c0.3,0,0.6-0.1,0.9-0.3c0.3-0.2,0.5-0.4,0.8-0.8v-4.5h1.1v6.3h-0.9l-0.1-1h0c-0.3,0.3-0.6,0.6-0.9,0.8
						C281.7,892.6,281.3,892.7,280.8,892.7z"/>
					<path d="M286.1,892.6v-6.3h0.9l0.1,0.9h0c0.3-0.3,0.6-0.6,1-0.8c0.3-0.2,0.7-0.3,1.2-0.3c0.7,0,1.2,0.2,1.5,0.6
						c0.3,0.4,0.5,1,0.5,1.8v4h-1.1v-3.9c0-0.6-0.1-1-0.3-1.3s-0.5-0.4-0.9-0.4c-0.3,0-0.6,0.1-0.9,0.2c-0.3,0.2-0.5,0.4-0.9,0.7
						v4.6H286.1z"/>
					<path d="M295.2,892.7c-0.7,0-1.1-0.2-1.4-0.6c-0.3-0.4-0.4-0.9-0.4-1.5v-3.5h-0.9v-0.8l1-0.1l0.1-2h0.9v2h1.7v0.9h-1.7v3.5
						c0,0.4,0.1,0.7,0.2,0.9c0.1,0.2,0.4,0.3,0.8,0.3c0.1,0,0.2,0,0.4,0s0.2-0.1,0.4-0.1l0.2,0.8c-0.2,0.1-0.4,0.1-0.6,0.2
						S295.4,892.7,295.2,892.7z"/>
					<path d="M299.1,892.7c-0.5,0-0.9-0.1-1.3-0.2c-0.4-0.2-0.8-0.4-1-0.7l0.5-0.6c0.3,0.2,0.6,0.4,0.9,0.5c0.3,0.1,0.6,0.2,1,0.2
						c0.4,0,0.7-0.1,0.9-0.3c0.2-0.2,0.3-0.4,0.3-0.7c0-0.2-0.1-0.4-0.2-0.5c-0.1-0.1-0.3-0.3-0.5-0.4c-0.2-0.1-0.4-0.2-0.7-0.3
						c-0.3-0.1-0.6-0.2-0.9-0.4c-0.3-0.2-0.5-0.3-0.7-0.6s-0.3-0.5-0.3-0.9c0-0.5,0.2-0.9,0.6-1.3c0.4-0.3,0.9-0.5,1.6-0.5
						c0.4,0,0.8,0.1,1.1,0.2s0.6,0.3,0.9,0.5l-0.5,0.6c-0.2-0.2-0.5-0.3-0.7-0.4c-0.2-0.1-0.5-0.1-0.8-0.1c-0.4,0-0.7,0.1-0.9,0.3
						c-0.2,0.2-0.3,0.4-0.3,0.6c0,0.2,0.1,0.3,0.2,0.5c0.1,0.1,0.3,0.2,0.5,0.3c0.2,0.1,0.4,0.2,0.7,0.3c0.3,0.1,0.6,0.3,0.9,0.4
						c0.3,0.2,0.5,0.3,0.7,0.6s0.3,0.5,0.3,0.9c0,0.3-0.1,0.7-0.3,0.9c-0.2,0.3-0.4,0.5-0.8,0.7C300,892.7,299.6,892.7,299.1,892.7z
						"/>
				</g>
			</g>
		</g>
		<g>
			<line class="st4" x1="276.7" y1="864" x2="276.7" y2="873.1"/>
			<line class="st4" x1="283.6" y1="864" x2="283.6" y2="873.1"/>
			<line class="st4" x1="269.8" y1="864" x2="269.8" y2="873.1"/>
			<path class="st4" d="M276.3,856.8l-7.5,3c-1,0.4-0.7,1.9,0.4,1.9h15.1c1.1,0,1.4-1.5,0.4-1.9l-7.5-3
				C276.8,856.7,276.6,856.7,276.3,856.8z"/>
		</g>
	</g>
</g>
</svg>
