<?xml version="1.0" encoding="utf-8"?>
<!-- Generator: Adobe Illustrator 27.4.1, SVG Export Plug-In . SVG Version: 6.00 Build 0)  -->
<svg version="1.1" id="Layer_1" xmlns="http://www.w3.org/2000/svg" xmlns:xlink="http://www.w3.org/1999/xlink" x="0px" y="0px"
	 viewBox="0 0 339.9 39.6" style="enable-background:new 0 0 339.9 39.6;" xml:space="preserve">
<style type="text/css">
	.st0{fill:none;stroke:#000000;stroke-width:1.0399;stroke-linecap:round;stroke-miterlimit:10;}
	.st1{fill:none;stroke:#000000;stroke-width:0.9964;stroke-linecap:round;stroke-miterlimit:10;}
	.st2{fill:none;stroke:#4B6BC3;stroke-width:0.9359;stroke-linecap:round;stroke-miterlimit:10;}
	.st3{fill:#4B6BC3;}
	.st4{fill:none;stroke:#000000;stroke-width:0.8652;stroke-linecap:round;stroke-miterlimit:10;}
</style>
<g>
	<g>
		<line class="st0" x1="9.1" y1="15.4" x2="9.1" y2="11.1"/>
	</g>
	<g>
		<line class="st0" x1="14.1" y1="15.4" x2="14.1" y2="5.1"/>
	</g>
	<g>
		<g>
			<line class="st0" x1="19.1" y1="15.4" x2="19.1" y2="7.9"/>
		</g>
	</g>
	<g>
		<g>
			<path d="M2.7,36.4c-0.5,0-1-0.1-1.5-0.3C0.7,36,0.3,35.7,0,35.4l0.6-0.7c0.3,0.3,0.7,0.5,1,0.6c0.3,0.1,0.7,0.2,1.2,0.2
				c0.5,0,0.8-0.1,1.1-0.3c0.2-0.2,0.4-0.5,0.4-0.8c0-0.2-0.1-0.5-0.2-0.6s-0.4-0.3-0.6-0.4c-0.2-0.1-0.5-0.2-0.8-0.3
				c-0.4-0.1-0.7-0.3-1-0.5c-0.3-0.2-0.6-0.4-0.8-0.7c-0.2-0.3-0.3-0.6-0.3-1c0-0.6,0.2-1.1,0.7-1.5c0.4-0.4,1.1-0.6,1.9-0.6
				c0.4,0,0.9,0.1,1.3,0.2c0.4,0.2,0.7,0.4,1,0.6l-0.6,0.7c-0.3-0.2-0.5-0.3-0.8-0.4c-0.3-0.1-0.6-0.1-0.9-0.1c-0.5,0-0.8,0.1-1,0.3
				c-0.2,0.2-0.3,0.5-0.3,0.7c0,0.2,0.1,0.4,0.2,0.5c0.1,0.1,0.3,0.3,0.5,0.4c0.2,0.1,0.5,0.2,0.8,0.3c0.4,0.1,0.7,0.3,1.1,0.5
				c0.3,0.2,0.6,0.4,0.8,0.7c0.2,0.3,0.3,0.6,0.3,1.1c0,0.4-0.1,0.8-0.3,1.1c-0.2,0.3-0.5,0.6-0.9,0.8S3.3,36.4,2.7,36.4z"/>
			<path d="M9.1,36.4c-0.8,0-1.3-0.2-1.6-0.7S7,34.7,7,34v-4H5.9V29L7.1,29l0.2-2.3h1V29h2v1h-2v4c0,0.4,0.1,0.8,0.2,1
				s0.5,0.4,0.9,0.4c0.1,0,0.3,0,0.4,0c0.1,0,0.3-0.1,0.4-0.1l0.3,0.9c-0.2,0.1-0.4,0.2-0.6,0.2C9.6,36.4,9.3,36.4,9.1,36.4z"/>
			<path d="M13.2,36.4c-0.4,0-0.8-0.1-1.1-0.2c-0.3-0.2-0.6-0.4-0.8-0.7c-0.2-0.3-0.3-0.7-0.3-1.1c0-0.8,0.4-1.4,1.1-1.9
				c0.7-0.4,1.9-0.7,3.4-0.9c0-0.3-0.1-0.6-0.1-0.9c-0.1-0.3-0.2-0.5-0.5-0.7c-0.2-0.2-0.5-0.3-0.9-0.3c-0.4,0-0.8,0.1-1.2,0.2
				s-0.7,0.3-1,0.5l-0.5-0.8c0.2-0.1,0.5-0.3,0.8-0.4c0.3-0.1,0.6-0.3,1-0.4c0.3-0.1,0.7-0.1,1.1-0.1c0.6,0,1.1,0.1,1.4,0.4
				s0.7,0.6,0.8,1c0.2,0.4,0.3,1,0.3,1.6v4.5h-1l-0.1-0.9h0c-0.4,0.3-0.7,0.5-1.1,0.7C14.1,36.3,13.7,36.4,13.2,36.4z M13.6,35.4
				c0.4,0,0.7-0.1,1-0.2s0.6-0.4,1-0.7v-2c-0.8,0.1-1.5,0.2-1.9,0.4c-0.5,0.2-0.8,0.3-1,0.6c-0.2,0.2-0.3,0.5-0.3,0.8
				c0,0.4,0.1,0.7,0.4,0.9S13.2,35.4,13.6,35.4z"/>
			<path d="M21.2,36.4c-0.8,0-1.3-0.2-1.6-0.7s-0.5-1-0.5-1.8v-4H18V29l1.1-0.1l0.2-2.3h1V29h2v1h-2v4c0,0.4,0.1,0.8,0.2,1
				s0.5,0.4,0.9,0.4c0.1,0,0.3,0,0.4,0c0.1,0,0.3-0.1,0.4-0.1l0.3,0.9c-0.2,0.1-0.4,0.2-0.6,0.2C21.7,36.4,21.4,36.4,21.2,36.4z"/>
			<path d="M25.7,36.4c-0.5,0-1-0.1-1.5-0.3c-0.5-0.2-0.9-0.4-1.2-0.8l0.6-0.7c0.3,0.3,0.7,0.5,1,0.6c0.3,0.1,0.7,0.2,1.2,0.2
				c0.5,0,0.8-0.1,1.1-0.3c0.2-0.2,0.4-0.5,0.4-0.8c0-0.2-0.1-0.5-0.2-0.6s-0.4-0.3-0.6-0.4c-0.2-0.1-0.5-0.2-0.8-0.3
				c-0.4-0.1-0.7-0.3-1-0.5c-0.3-0.2-0.6-0.4-0.8-0.7c-0.2-0.3-0.3-0.6-0.3-1c0-0.6,0.2-1.1,0.7-1.5c0.4-0.4,1.1-0.6,1.9-0.6
				c0.4,0,0.9,0.1,1.3,0.2c0.4,0.2,0.7,0.4,1,0.6l-0.6,0.7c-0.3-0.2-0.5-0.3-0.8-0.4c-0.3-0.1-0.6-0.1-0.9-0.1c-0.5,0-0.8,0.1-1,0.3
				c-0.2,0.2-0.3,0.5-0.3,0.7c0,0.2,0.1,0.4,0.2,0.5c0.1,0.1,0.3,0.3,0.5,0.4c0.2,0.1,0.5,0.2,0.8,0.3c0.4,0.1,0.7,0.3,1.1,0.5
				c0.3,0.2,0.6,0.4,0.8,0.7c0.2,0.3,0.3,0.6,0.3,1.1c0,0.4-0.1,0.8-0.3,1.1c-0.2,0.3-0.5,0.6-0.9,0.8S26.3,36.4,25.7,36.4z"/>
		</g>
	</g>
</g>
<g>
	<g>
		<path class="st1" d="M314.2,16.1v-2.2c0-1.5,1.2-2.7,2.7-2.7h7.1c1.5,0,2.7,1.2,2.7,2.7v2.2"/>
		<circle class="st1" cx="320.5" cy="4.8" r="3.2"/>
	</g>
	<g>
		<g>
			<path d="M300.9,37.7V27.3h1l0.1,0.8h0c0.3-0.3,0.7-0.5,1.1-0.7c0.4-0.2,0.8-0.3,1.2-0.3c0.6,0,1.1,0.2,1.6,0.5
				c0.4,0.3,0.8,0.7,1,1.3c0.2,0.6,0.3,1.2,0.3,2c0,0.8-0.1,1.5-0.4,2.1c-0.3,0.6-0.7,1-1.2,1.3c-0.5,0.3-1,0.5-1.5,0.5
				c-0.3,0-0.7-0.1-1-0.2s-0.7-0.4-1-0.6l0,1.3v2.5H300.9z M303.9,33.8c0.4,0,0.8-0.1,1.1-0.3s0.6-0.6,0.7-1c0.2-0.4,0.3-1,0.3-1.6
				c0-0.5-0.1-1-0.2-1.4c-0.1-0.4-0.3-0.7-0.6-0.9c-0.3-0.2-0.6-0.3-1.1-0.3c-0.3,0-0.6,0.1-0.9,0.2c-0.3,0.2-0.7,0.4-1,0.7V33
				c0.3,0.3,0.7,0.5,1,0.6C303.4,33.7,303.6,33.8,303.9,33.8z"/>
			<path d="M309.2,34.6v-7.3h1l0.1,1.3h0c0.2-0.5,0.5-0.8,0.9-1.1c0.4-0.3,0.8-0.4,1.2-0.4c0.2,0,0.3,0,0.4,0c0.1,0,0.2,0.1,0.4,0.1
				l-0.3,1c-0.1,0-0.2-0.1-0.3-0.1c-0.1,0-0.2,0-0.4,0c-0.3,0-0.6,0.1-1,0.4s-0.6,0.7-0.9,1.3v4.7H309.2z"/>
			<path d="M317.1,34.8c-0.6,0-1.1-0.1-1.7-0.4c-0.5-0.3-0.9-0.7-1.2-1.3c-0.3-0.6-0.5-1.3-0.5-2.1c0-0.8,0.2-1.5,0.5-2.1
				c0.3-0.6,0.7-1,1.2-1.3c0.5-0.3,1.1-0.4,1.7-0.4c0.6,0,1.2,0.2,1.7,0.4c0.5,0.3,0.9,0.7,1.2,1.3c0.3,0.6,0.5,1.3,0.5,2.1
				c0,0.8-0.2,1.5-0.5,2.1c-0.3,0.6-0.7,1-1.2,1.3C318.2,34.6,317.7,34.8,317.1,34.8z M317.1,33.8c0.4,0,0.8-0.1,1.1-0.4
				c0.3-0.2,0.6-0.6,0.7-1c0.2-0.4,0.3-0.9,0.3-1.5c0-0.6-0.1-1.1-0.3-1.5s-0.4-0.8-0.7-1s-0.7-0.4-1.1-0.4s-0.8,0.1-1.1,0.4
				s-0.6,0.6-0.7,1S315,30.4,315,31c0,0.6,0.1,1,0.3,1.5c0.2,0.4,0.4,0.7,0.7,1C316.3,33.7,316.7,33.8,317.1,33.8z"/>
			<path d="M321.5,28.3v-0.9l1.1-0.1h2.7v1H321.5z M322.6,34.6v-8.4c0-0.5,0.1-0.9,0.2-1.3c0.2-0.4,0.4-0.6,0.7-0.8
				c0.3-0.2,0.7-0.3,1.2-0.3c0.2,0,0.4,0,0.7,0.1c0.2,0,0.4,0.1,0.6,0.2l-0.3,0.9c-0.3-0.1-0.6-0.1-0.8-0.1c-0.3,0-0.6,0.1-0.8,0.4
				c-0.2,0.2-0.3,0.6-0.3,1.1v8.4H322.6z"/>
			<path d="M327.4,25.8c-0.2,0-0.4-0.1-0.6-0.2c-0.2-0.2-0.2-0.3-0.2-0.6s0.1-0.4,0.2-0.6c0.2-0.2,0.4-0.2,0.6-0.2
				c0.2,0,0.4,0.1,0.6,0.2c0.2,0.1,0.2,0.3,0.2,0.6s-0.1,0.4-0.2,0.6S327.6,25.8,327.4,25.8z M326.7,34.6v-7.3h1.2v7.3H326.7z"/>
			<path d="M331.7,34.8c-0.3,0-0.6-0.1-0.8-0.2s-0.3-0.3-0.4-0.6c-0.1-0.2-0.1-0.5-0.1-0.9v-9.2h1.2v9.3c0,0.2,0,0.3,0.1,0.4
				c0.1,0.1,0.2,0.1,0.3,0.1c0,0,0.1,0,0.1,0c0,0,0.1,0,0.1,0l0.2,0.9c-0.1,0-0.2,0.1-0.3,0.1C332,34.7,331.9,34.8,331.7,34.8z"/>
			<path d="M337.2,34.8c-0.7,0-1.2-0.2-1.8-0.5c-0.5-0.3-1-0.7-1.3-1.3c-0.3-0.6-0.5-1.3-0.5-2.1c0-0.8,0.2-1.5,0.5-2s0.7-1,1.2-1.3
				c0.5-0.3,1-0.5,1.6-0.5c0.6,0,1.1,0.1,1.6,0.4c0.4,0.3,0.8,0.7,1,1.2c0.2,0.5,0.3,1.1,0.3,1.8c0,0.1,0,0.3,0,0.4
				c0,0.1,0,0.2-0.1,0.4h-5.3v-1h4.2c0-0.7-0.2-1.2-0.5-1.6c-0.3-0.4-0.7-0.6-1.3-0.6c-0.3,0-0.7,0.1-1,0.3s-0.6,0.5-0.8,0.9
				s-0.3,1-0.3,1.6c0,0.6,0.1,1.1,0.3,1.6c0.2,0.4,0.5,0.7,0.9,1s0.8,0.3,1.2,0.3c0.3,0,0.7-0.1,1-0.2c0.3-0.1,0.6-0.2,0.8-0.4
				l0.4,0.8c-0.3,0.2-0.7,0.4-1.1,0.5S337.7,34.8,337.2,34.8z"/>
		</g>
	</g>
</g>
<g id="Budget_-_Inactive_00000097461600539184372330000012838833627784387460_">
	<g>
		<line class="st2" x1="111" y1="16.6" x2="111" y2="0.8"/>
		<path class="st2" d="M114.5,3.8h-5.4c-1.3,0-2.4,1.1-2.4,2.4s1.1,2.4,2.4,2.4h3.7c1.3,0,2.4,1.1,2.4,2.4s-1.1,2.4-2.4,2.4h-5.9"/>
	</g>
	<g>
		<g>
			<path class="st3" d="M93.4,36.4c-0.3,0-0.7-0.1-1-0.2c-0.4-0.2-0.7-0.4-1-0.7h0l-0.1,0.8h-1V25.6h1.2v2.9l0,1.3
				c0.3-0.3,0.7-0.5,1.1-0.7s0.8-0.3,1.2-0.3c0.6,0,1.2,0.2,1.6,0.5c0.4,0.3,0.8,0.7,1,1.3c0.2,0.6,0.3,1.2,0.3,2
				c0,0.8-0.1,1.5-0.4,2.1c-0.3,0.6-0.7,1-1.2,1.4S93.9,36.4,93.4,36.4z M93.2,35.4c0.4,0,0.8-0.1,1.1-0.3c0.3-0.2,0.6-0.6,0.7-1
				c0.2-0.4,0.3-1,0.3-1.6c0-0.5-0.1-1-0.2-1.4c-0.1-0.4-0.3-0.7-0.6-0.9c-0.3-0.2-0.7-0.3-1.1-0.3c-0.3,0-0.6,0.1-0.9,0.2
				c-0.3,0.2-0.7,0.4-1,0.7v3.8c0.3,0.3,0.6,0.5,1,0.6S92.9,35.4,93.2,35.4z"/>
			<path class="st3" d="M100.6,36.4c-0.8,0-1.3-0.2-1.7-0.7c-0.4-0.5-0.5-1.2-0.5-2.1V29h1.2v4.5c0,0.7,0.1,1.2,0.3,1.5
				c0.2,0.3,0.6,0.5,1,0.5c0.4,0,0.7-0.1,1-0.3c0.3-0.2,0.6-0.5,1-0.9V29h1.2v7.3h-1l-0.1-1.1h0c-0.3,0.4-0.7,0.7-1.1,1
				C101.5,36.3,101.1,36.4,100.6,36.4z"/>
			<path class="st3" d="M109.1,36.4c-0.9,0-1.7-0.3-2.2-1c-0.5-0.7-0.8-1.6-0.8-2.8c0-0.8,0.1-1.5,0.4-2s0.7-1,1.2-1.3
				c0.5-0.3,1-0.5,1.6-0.5c0.4,0,0.8,0.1,1.1,0.2c0.3,0.1,0.6,0.4,0.9,0.6l-0.1-1.2v-2.8h1.2v10.7h-1l-0.1-0.9h0
				c-0.3,0.3-0.6,0.5-1,0.7C109.9,36.3,109.5,36.4,109.1,36.4z M109.4,35.4c0.3,0,0.7-0.1,1-0.3c0.3-0.2,0.6-0.4,0.9-0.8v-3.8
				c-0.3-0.3-0.6-0.5-0.9-0.6c-0.3-0.1-0.6-0.2-0.9-0.2c-0.4,0-0.7,0.1-1.1,0.4c-0.3,0.2-0.6,0.6-0.8,1s-0.3,0.9-0.3,1.5
				c0,0.9,0.2,1.6,0.5,2S108.7,35.4,109.4,35.4z"/>
			<path class="st3" d="M117.4,39.6c-0.6,0-1.1-0.1-1.6-0.2c-0.5-0.2-0.8-0.4-1.1-0.7s-0.4-0.6-0.4-1.1c0-0.3,0.1-0.6,0.3-0.9
				s0.5-0.5,0.8-0.8v-0.1c-0.2-0.1-0.3-0.3-0.5-0.5c-0.1-0.2-0.2-0.4-0.2-0.7c0-0.3,0.1-0.6,0.3-0.8c0.2-0.2,0.4-0.4,0.5-0.5v-0.1
				c-0.2-0.2-0.4-0.5-0.6-0.8s-0.3-0.7-0.3-1.2c0-0.5,0.1-1,0.4-1.4c0.3-0.4,0.6-0.7,1-0.9c0.4-0.2,0.9-0.3,1.4-0.3
				c0.2,0,0.4,0,0.6,0.1s0.3,0.1,0.5,0.1h2.5v0.9h-1.5V30c0.2,0.2,0.3,0.4,0.4,0.6c0.1,0.2,0.2,0.5,0.2,0.9c0,0.5-0.1,1-0.4,1.3
				s-0.6,0.7-1,0.9c-0.4,0.2-0.9,0.3-1.4,0.3c-0.2,0-0.4,0-0.6-0.1c-0.2,0-0.4-0.1-0.5-0.2c-0.1,0.1-0.2,0.2-0.3,0.4
				c-0.1,0.1-0.1,0.3-0.1,0.5c0,0.2,0.1,0.4,0.3,0.6c0.2,0.1,0.5,0.2,1,0.2h1.4c0.9,0,1.5,0.1,1.9,0.4c0.4,0.3,0.6,0.7,0.6,1.3
				c0,0.5-0.2,0.9-0.5,1.2c-0.3,0.4-0.7,0.7-1.3,0.9S118.1,39.6,117.4,39.6z M117.6,38.8c0.5,0,0.9-0.1,1.2-0.2
				c0.3-0.1,0.6-0.3,0.8-0.6c0.2-0.2,0.3-0.5,0.3-0.7c0-0.3-0.1-0.6-0.4-0.7c-0.3-0.1-0.6-0.2-1.1-0.2h-1.3c-0.1,0-0.3,0-0.5,0
				c-0.2,0-0.3,0-0.5-0.1c-0.3,0.2-0.5,0.4-0.6,0.6c-0.1,0.2-0.2,0.4-0.2,0.6c0,0.4,0.2,0.7,0.6,0.9S116.9,38.8,117.6,38.8z
				 M117.4,33.1c0.3,0,0.5-0.1,0.8-0.2c0.2-0.1,0.4-0.3,0.6-0.6c0.1-0.3,0.2-0.6,0.2-0.9c0-0.5-0.1-1-0.5-1.3
				c-0.3-0.3-0.7-0.4-1.1-0.4s-0.8,0.1-1.1,0.4c-0.3,0.3-0.4,0.7-0.4,1.3c0,0.4,0.1,0.7,0.2,0.9c0.1,0.3,0.3,0.5,0.6,0.6
				C116.9,33.1,117.1,33.1,117.4,33.1z"/>
			<path class="st3" d="M125.2,36.4c-0.6,0-1.2-0.2-1.8-0.5s-1-0.7-1.3-1.3c-0.3-0.6-0.5-1.3-0.5-2.1c0-0.8,0.2-1.5,0.5-2
				c0.3-0.6,0.7-1,1.2-1.3c0.5-0.3,1-0.5,1.6-0.5c0.6,0,1.1,0.1,1.6,0.4s0.8,0.7,1,1.2c0.2,0.5,0.3,1.1,0.3,1.8c0,0.1,0,0.3,0,0.4
				c0,0.1,0,0.2-0.1,0.4h-5.3v-1h4.2c0-0.7-0.2-1.2-0.5-1.6s-0.7-0.6-1.3-0.6c-0.3,0-0.7,0.1-1,0.3c-0.3,0.2-0.6,0.5-0.8,0.9
				c-0.2,0.4-0.3,1-0.3,1.6c0,0.6,0.1,1.1,0.3,1.6c0.2,0.4,0.5,0.7,0.9,1c0.4,0.2,0.8,0.3,1.2,0.3c0.3,0,0.7,0,1-0.2
				c0.3-0.1,0.6-0.2,0.8-0.4l0.5,0.8c-0.3,0.2-0.7,0.4-1.1,0.5C126.2,36.4,125.7,36.4,125.2,36.4z"/>
			<path class="st3" d="M131.9,36.4c-0.8,0-1.3-0.2-1.6-0.7s-0.5-1-0.5-1.8v-4h-1.1V29l1.1-0.1l0.2-2.3h1V29h2v1h-2v4
				c0,0.4,0.1,0.8,0.2,1s0.5,0.4,0.9,0.4c0.1,0,0.3,0,0.4,0c0.1,0,0.3-0.1,0.4-0.1l0.3,0.9c-0.2,0.1-0.4,0.2-0.6,0.2
				C132.4,36.4,132.1,36.4,131.9,36.4z"/>
		</g>
	</g>
</g>
<g id="Accounts_-_Active_00000002376685263439761680000006405661877326169501_">
	<g>
		<g>
			<g>
				<g>
					<path d="M192.9,36.4c-0.4,0-0.8-0.1-1.1-0.2c-0.3-0.2-0.6-0.4-0.8-0.7c-0.2-0.3-0.3-0.7-0.3-1.1c0-0.8,0.4-1.4,1.1-1.9
						c0.7-0.4,1.9-0.7,3.4-0.9c0-0.3-0.1-0.6-0.1-0.9c-0.1-0.3-0.2-0.5-0.5-0.7c-0.2-0.2-0.5-0.3-0.9-0.3c-0.4,0-0.8,0.1-1.2,0.2
						s-0.7,0.3-1,0.5l-0.5-0.8c0.2-0.1,0.5-0.3,0.8-0.4c0.3-0.1,0.6-0.3,1-0.4c0.3-0.1,0.7-0.1,1.1-0.1c0.6,0,1.1,0.1,1.4,0.4
						s0.7,0.6,0.8,1c0.2,0.4,0.3,1,0.3,1.6v4.5h-1l-0.1-0.9h0c-0.4,0.3-0.7,0.5-1.1,0.7C193.8,36.3,193.3,36.4,192.9,36.4z
						 M193.2,35.4c0.4,0,0.7-0.1,1-0.2s0.6-0.4,1-0.7v-2c-0.8,0.1-1.5,0.2-1.9,0.4c-0.5,0.2-0.8,0.3-1,0.6c-0.2,0.2-0.3,0.5-0.3,0.8
						c0,0.4,0.1,0.7,0.4,0.9S192.9,35.4,193.2,35.4z"/>
					<path d="M201.6,36.4c-0.6,0-1.2-0.1-1.8-0.5c-0.5-0.3-0.9-0.7-1.2-1.3c-0.3-0.6-0.5-1.3-0.5-2.1c0-0.8,0.2-1.5,0.5-2.1
						c0.3-0.6,0.8-1,1.3-1.3c0.5-0.3,1.1-0.5,1.7-0.5c0.5,0,0.9,0.1,1.2,0.2c0.3,0.2,0.6,0.4,0.9,0.6l-0.6,0.8
						c-0.2-0.2-0.4-0.3-0.6-0.4c-0.2-0.1-0.5-0.2-0.8-0.2c-0.4,0-0.8,0.1-1.2,0.4c-0.3,0.2-0.6,0.6-0.8,1s-0.3,0.9-0.3,1.5
						c0,0.6,0.1,1,0.3,1.5c0.2,0.4,0.5,0.7,0.8,1c0.3,0.2,0.7,0.4,1.2,0.4c0.3,0,0.7-0.1,0.9-0.2s0.5-0.3,0.8-0.5l0.5,0.8
						c-0.3,0.3-0.7,0.5-1,0.7C202.5,36.4,202.1,36.4,201.6,36.4z"/>
					<path d="M208.2,36.4c-0.6,0-1.2-0.1-1.8-0.5c-0.5-0.3-0.9-0.7-1.2-1.3c-0.3-0.6-0.5-1.3-0.5-2.1c0-0.8,0.2-1.5,0.5-2.1
						c0.3-0.6,0.8-1,1.3-1.3c0.5-0.3,1.1-0.5,1.7-0.5c0.5,0,0.9,0.1,1.2,0.2c0.3,0.2,0.6,0.4,0.9,0.6l-0.6,0.8
						c-0.2-0.2-0.4-0.3-0.6-0.4c-0.2-0.1-0.5-0.2-0.8-0.2c-0.4,0-0.8,0.1-1.2,0.4c-0.3,0.2-0.6,0.6-0.8,1s-0.3,0.9-0.3,1.5
						c0,0.6,0.1,1,0.3,1.5c0.2,0.4,0.5,0.7,0.8,1c0.3,0.2,0.7,0.4,1.2,0.4c0.3,0,0.7-0.1,0.9-0.2s0.5-0.3,0.8-0.5l0.5,0.8
						c-0.3,0.3-0.7,0.5-1,0.7C209.1,36.4,208.6,36.4,208.2,36.4z"/>
					<path d="M214.6,36.4c-0.6,0-1.1-0.1-1.7-0.5c-0.5-0.3-0.9-0.7-1.2-1.3s-0.5-1.3-0.5-2.1c0-0.8,0.2-1.5,0.5-2.1s0.7-1,1.2-1.3
						c0.5-0.3,1.1-0.5,1.7-0.5c0.6,0,1.2,0.2,1.7,0.5c0.5,0.3,0.9,0.7,1.2,1.3s0.5,1.3,0.5,2.1c0,0.8-0.2,1.5-0.5,2.1
						s-0.7,1-1.2,1.3C215.8,36.3,215.2,36.4,214.6,36.4z M214.6,35.4c0.4,0,0.8-0.1,1.1-0.4c0.3-0.2,0.6-0.6,0.7-1
						c0.2-0.4,0.3-0.9,0.3-1.5c0-0.6-0.1-1.1-0.3-1.5c-0.2-0.4-0.4-0.8-0.7-1c-0.3-0.2-0.7-0.4-1.1-0.4c-0.4,0-0.8,0.1-1.1,0.4
						c-0.3,0.2-0.6,0.6-0.7,1c-0.2,0.4-0.3,0.9-0.3,1.5c0,0.6,0.1,1,0.3,1.5c0.2,0.4,0.4,0.7,0.7,1
						C213.8,35.3,214.2,35.4,214.6,35.4z"/>
					<path d="M222.1,36.4c-0.8,0-1.3-0.2-1.7-0.7c-0.4-0.5-0.5-1.2-0.5-2.1V29h1.2v4.5c0,0.7,0.1,1.2,0.3,1.5c0.2,0.3,0.6,0.5,1,0.5
						c0.4,0,0.7-0.1,1-0.3c0.3-0.2,0.6-0.5,1-0.9V29h1.2v7.3h-1l-0.1-1.1h0c-0.3,0.4-0.7,0.7-1.1,1C223,36.3,222.6,36.4,222.1,36.4z
						"/>
					<path d="M228.1,36.3V29h1l0.1,1h0c0.3-0.3,0.7-0.6,1.1-0.9c0.4-0.2,0.8-0.4,1.3-0.4c0.8,0,1.3,0.2,1.7,0.7
						c0.4,0.5,0.5,1.2,0.5,2.1v4.6h-1.2v-4.5c0-0.7-0.1-1.2-0.3-1.5c-0.2-0.3-0.6-0.5-1.1-0.5c-0.4,0-0.7,0.1-1,0.3
						c-0.3,0.2-0.6,0.5-1,0.8v5.3H228.1z"/>
					<path d="M238.6,36.4c-0.8,0-1.3-0.2-1.6-0.7c-0.3-0.5-0.5-1-0.5-1.8v-4h-1.1V29l1.1-0.1l0.2-2.3h1V29h2v1h-2v4
						c0,0.4,0.1,0.8,0.2,1s0.5,0.4,0.9,0.4c0.1,0,0.3,0,0.4,0c0.1,0,0.3-0.1,0.4-0.1l0.3,0.9c-0.2,0.1-0.4,0.2-0.6,0.2
						C239.1,36.4,238.8,36.4,238.6,36.4z"/>
					<path d="M243.1,36.4c-0.5,0-1-0.1-1.5-0.3c-0.5-0.2-0.9-0.4-1.2-0.8l0.6-0.7c0.3,0.3,0.7,0.5,1,0.6c0.3,0.1,0.7,0.2,1.2,0.2
						c0.5,0,0.8-0.1,1.1-0.3c0.2-0.2,0.4-0.5,0.4-0.8c0-0.2-0.1-0.5-0.2-0.6s-0.4-0.3-0.6-0.4s-0.5-0.2-0.8-0.3
						c-0.4-0.1-0.7-0.3-1-0.5c-0.3-0.2-0.6-0.4-0.8-0.7c-0.2-0.3-0.3-0.6-0.3-1c0-0.6,0.2-1.1,0.7-1.5c0.4-0.4,1.1-0.6,1.9-0.6
						c0.4,0,0.9,0.1,1.3,0.2s0.7,0.4,1,0.6l-0.6,0.7c-0.3-0.2-0.5-0.3-0.8-0.4c-0.3-0.1-0.6-0.1-0.9-0.1c-0.5,0-0.8,0.1-1,0.3
						c-0.2,0.2-0.3,0.5-0.3,0.7c0,0.2,0.1,0.4,0.2,0.5c0.1,0.1,0.3,0.3,0.5,0.4c0.2,0.1,0.5,0.2,0.8,0.3c0.4,0.1,0.7,0.3,1.1,0.5
						c0.3,0.2,0.6,0.4,0.8,0.7c0.2,0.3,0.3,0.6,0.3,1.1c0,0.4-0.1,0.8-0.3,1.1s-0.5,0.6-0.9,0.8C244.2,36.3,243.7,36.4,243.1,36.4z"
						/>
				</g>
			</g>
		</g>
	</g>
	<g>
		<line class="st4" x1="216.6" y1="7.7" x2="216.6" y2="16.8"/>
		<line class="st4" x1="223.5" y1="7.7" x2="223.5" y2="16.8"/>
		<line class="st4" x1="209.8" y1="7.7" x2="209.8" y2="16.8"/>
		<path class="st4" d="M216.2,0.5l-7.5,3c-1,0.4-0.7,1.9,0.4,1.9h15.1c1.1,0,1.4-1.5,0.4-1.9l-7.5-3C216.7,0.4,216.5,0.4,216.2,0.5z
			"/>
	</g>
</g>
</svg>
