<?xml version="1.0" encoding="utf-8"?>
<!-- Generator: Adobe Illustrator 27.4.1, SVG Export Plug-In . SVG Version: 6.00 Build 0)  -->
<svg version="1.1" id="Layer_1" xmlns="http://www.w3.org/2000/svg" xmlns:xlink="http://www.w3.org/1999/xlink" x="0px" y="0px"
	 viewBox="0 0 331.9 39" style="enable-background:new 0 0 331.9 39;" xml:space="preserve">
<style type="text/css">
	.st0{fill:none;stroke:#000000;stroke-width:1.0399;stroke-linecap:round;stroke-miterlimit:10;}
	.st1{fill:none;stroke:#000000;stroke-width:0.9964;stroke-linecap:round;stroke-miterlimit:10;}
	.st2{fill:#4B6BC3;}
	.st3{fill:none;stroke:#4B6BC3;stroke-width:0.8652;stroke-linecap:round;stroke-miterlimit:10;}
</style>
<g id="Stats">
	<g>
		<line class="st0" x1="5.2" y1="15.4" x2="5.2" y2="11.1"/>
	</g>
	<g>
		<line class="st0" x1="10.2" y1="15.4" x2="10.2" y2="5.1"/>
	</g>
	<g>
		<line class="st0" x1="15.2" y1="15.4" x2="15.2" y2="7.9"/>
	</g>
	<g>
		<g>
			<path d="M2.2,36.4c-0.4,0-0.8-0.1-1.2-0.2c-0.4-0.1-0.7-0.4-1-0.6L0.5,35c0.3,0.2,0.5,0.4,0.8,0.5c0.3,0.1,0.6,0.2,1,0.2
				c0.4,0,0.7-0.1,0.9-0.3c0.2-0.2,0.3-0.4,0.3-0.6c0-0.2-0.1-0.4-0.2-0.5S2.9,34,2.7,33.9c-0.2-0.1-0.4-0.2-0.6-0.3
				c-0.3-0.1-0.6-0.2-0.8-0.4c-0.3-0.1-0.5-0.3-0.6-0.5c-0.2-0.2-0.2-0.5-0.2-0.8c0-0.5,0.2-0.9,0.5-1.2s0.9-0.5,1.5-0.5
				c0.4,0,0.7,0.1,1,0.2s0.6,0.3,0.8,0.5l-0.5,0.6c-0.2-0.1-0.4-0.3-0.6-0.3s-0.5-0.1-0.7-0.1c-0.4,0-0.6,0.1-0.8,0.3
				c-0.2,0.2-0.3,0.4-0.3,0.6c0,0.2,0.1,0.3,0.2,0.4c0.1,0.1,0.2,0.2,0.4,0.3c0.2,0.1,0.4,0.2,0.6,0.3c0.3,0.1,0.6,0.2,0.9,0.4
				c0.3,0.1,0.5,0.3,0.7,0.5c0.2,0.2,0.3,0.5,0.3,0.9c0,0.3-0.1,0.6-0.2,0.9c-0.2,0.3-0.4,0.5-0.7,0.6C3,36.3,2.6,36.4,2.2,36.4z"/>
			<path d="M7.3,36.4c-0.6,0-1-0.2-1.3-0.5c-0.2-0.4-0.4-0.8-0.4-1.4v-3.2H4.7v-0.7l0.9-0.1l0.1-1.9h0.8v1.9h1.6v0.8H6.6v3.2
				c0,0.4,0.1,0.6,0.2,0.8c0.1,0.2,0.4,0.3,0.7,0.3c0.1,0,0.2,0,0.3,0c0.1,0,0.2-0.1,0.3-0.1l0.2,0.7c-0.2,0.1-0.3,0.1-0.5,0.2
				C7.7,36.3,7.5,36.4,7.3,36.4z"/>
			<path d="M10.6,36.4c-0.3,0-0.6-0.1-0.9-0.2c-0.3-0.1-0.5-0.3-0.6-0.6s-0.2-0.5-0.2-0.9c0-0.7,0.3-1.2,0.9-1.5
				c0.6-0.3,1.5-0.6,2.7-0.7c0-0.2,0-0.5-0.1-0.7c-0.1-0.2-0.2-0.4-0.4-0.5c-0.2-0.1-0.4-0.2-0.7-0.2c-0.3,0-0.7,0.1-0.9,0.2
				s-0.6,0.3-0.8,0.4L9.1,31c0.2-0.1,0.4-0.2,0.6-0.4c0.2-0.1,0.5-0.2,0.8-0.3c0.3-0.1,0.6-0.1,0.9-0.1c0.5,0,0.9,0.1,1.2,0.3
				c0.3,0.2,0.5,0.5,0.7,0.8c0.1,0.4,0.2,0.8,0.2,1.3v3.6h-0.8l-0.1-0.7h0c-0.3,0.2-0.6,0.4-0.9,0.6C11.3,36.3,11,36.4,10.6,36.4z
				 M10.9,35.6c0.3,0,0.6-0.1,0.8-0.2s0.5-0.3,0.8-0.6v-1.6c-0.7,0.1-1.2,0.2-1.6,0.3c-0.4,0.1-0.7,0.3-0.8,0.5
				c-0.2,0.2-0.3,0.4-0.3,0.7c0,0.3,0.1,0.6,0.3,0.7C10.3,35.5,10.6,35.6,10.9,35.6z"/>
			<path d="M17,36.4c-0.6,0-1-0.2-1.3-0.5c-0.2-0.4-0.4-0.8-0.4-1.4v-3.2h-0.9v-0.7l0.9-0.1l0.1-1.9h0.8v1.9h1.6v0.8h-1.6v3.2
				c0,0.4,0.1,0.6,0.2,0.8c0.1,0.2,0.4,0.3,0.7,0.3c0.1,0,0.2,0,0.3,0c0.1,0,0.2-0.1,0.3-0.1l0.2,0.7c-0.2,0.1-0.3,0.1-0.5,0.2
				C17.4,36.3,17.2,36.4,17,36.4z"/>
			<path d="M20.6,36.4c-0.4,0-0.8-0.1-1.2-0.2c-0.4-0.1-0.7-0.4-1-0.6l0.5-0.6c0.3,0.2,0.5,0.4,0.8,0.5c0.3,0.1,0.6,0.2,1,0.2
				c0.4,0,0.7-0.1,0.9-0.3c0.2-0.2,0.3-0.4,0.3-0.6c0-0.2-0.1-0.4-0.2-0.5s-0.3-0.2-0.5-0.3c-0.2-0.1-0.4-0.2-0.6-0.3
				c-0.3-0.1-0.6-0.2-0.8-0.4c-0.3-0.1-0.5-0.3-0.6-0.5c-0.2-0.2-0.2-0.5-0.2-0.8c0-0.5,0.2-0.9,0.5-1.2s0.9-0.5,1.5-0.5
				c0.4,0,0.7,0.1,1,0.2s0.6,0.3,0.8,0.5l-0.5,0.6c-0.2-0.1-0.4-0.3-0.6-0.3s-0.5-0.1-0.7-0.1c-0.4,0-0.6,0.1-0.8,0.3
				c-0.2,0.2-0.3,0.4-0.3,0.6c0,0.2,0.1,0.3,0.2,0.4c0.1,0.1,0.2,0.2,0.4,0.3c0.2,0.1,0.4,0.2,0.6,0.3c0.3,0.1,0.6,0.2,0.9,0.4
				c0.3,0.1,0.5,0.3,0.7,0.5c0.2,0.2,0.3,0.5,0.3,0.9c0,0.3-0.1,0.6-0.2,0.9c-0.2,0.3-0.4,0.5-0.7,0.6C21.4,36.3,21,36.4,20.6,36.4z
				"/>
		</g>
	</g>
</g>
<g id="Profile">
	<g>
		<path class="st1" d="M310.3,16.1v-2.2c0-1.5,1.2-2.7,2.7-2.7h7.1c1.5,0,2.7,1.2,2.7,2.7v2.2"/>
		<circle class="st1" cx="316.5" cy="4.8" r="3.2"/>
	</g>
	<g>
		<g>
			<path d="M300.7,37.1v-8.3h0.8l0.1,0.7h0c0.3-0.2,0.6-0.4,0.9-0.6c0.3-0.2,0.6-0.2,1-0.2c0.5,0,0.9,0.1,1.3,0.4
				c0.3,0.2,0.6,0.6,0.8,1c0.2,0.4,0.3,1,0.3,1.6c0,0.7-0.1,1.2-0.4,1.7c-0.2,0.5-0.5,0.8-0.9,1.1c-0.4,0.2-0.8,0.4-1.2,0.4
				c-0.3,0-0.5-0.1-0.8-0.2c-0.3-0.1-0.5-0.3-0.8-0.5l0,1v2H300.7z M303.1,33.9c0.3,0,0.6-0.1,0.9-0.3c0.3-0.2,0.5-0.5,0.6-0.8
				c0.1-0.3,0.2-0.8,0.2-1.2c0-0.4-0.1-0.8-0.2-1.1c-0.1-0.3-0.3-0.6-0.5-0.8s-0.5-0.3-0.9-0.3c-0.2,0-0.5,0.1-0.7,0.2
				s-0.5,0.3-0.8,0.6v3.1c0.3,0.2,0.5,0.4,0.8,0.5C302.7,33.9,302.9,33.9,303.1,33.9z"/>
			<path d="M307.4,34.6v-5.8h0.8l0.1,1.1h0c0.2-0.4,0.4-0.7,0.7-0.9c0.3-0.2,0.6-0.3,0.9-0.3c0.1,0,0.2,0,0.3,0c0.1,0,0.2,0,0.3,0.1
				l-0.2,0.8c-0.1,0-0.2,0-0.2-0.1c-0.1,0-0.2,0-0.3,0c-0.2,0-0.5,0.1-0.8,0.3s-0.5,0.5-0.7,1v3.7H307.4z"/>
			<path d="M313.7,34.8c-0.5,0-0.9-0.1-1.3-0.4s-0.7-0.6-1-1s-0.4-1-0.4-1.6c0-0.7,0.1-1.2,0.4-1.7s0.6-0.8,1-1s0.9-0.4,1.3-0.4
				c0.5,0,0.9,0.1,1.3,0.4s0.7,0.6,1,1s0.4,1,0.4,1.7c0,0.6-0.1,1.2-0.4,1.6s-0.6,0.8-1,1S314.2,34.8,313.7,34.8z M313.7,33.9
				c0.3,0,0.6-0.1,0.9-0.3c0.3-0.2,0.5-0.5,0.6-0.8c0.1-0.3,0.2-0.7,0.2-1.2c0-0.4-0.1-0.8-0.2-1.2c-0.1-0.3-0.3-0.6-0.6-0.8
				c-0.3-0.2-0.6-0.3-0.9-0.3s-0.6,0.1-0.9,0.3c-0.3,0.2-0.4,0.5-0.6,0.8c-0.1,0.3-0.2,0.7-0.2,1.2c0,0.4,0.1,0.8,0.2,1.2
				c0.1,0.3,0.3,0.6,0.6,0.8C313.1,33.9,313.3,33.9,313.7,33.9z"/>
			<path d="M317.2,29.6v-0.7l0.9-0.1h2.2v0.8H317.2z M318.1,34.6v-6.8c0-0.4,0.1-0.7,0.2-1s0.3-0.5,0.6-0.7s0.6-0.2,1-0.2
				c0.2,0,0.3,0,0.5,0.1s0.3,0.1,0.5,0.1l-0.2,0.7c-0.2-0.1-0.5-0.1-0.7-0.1c-0.3,0-0.5,0.1-0.6,0.3c-0.1,0.2-0.2,0.5-0.2,0.8v6.8
				H318.1z"/>
			<path d="M321.9,27.6c-0.2,0-0.3-0.1-0.5-0.2s-0.2-0.3-0.2-0.5c0-0.2,0.1-0.3,0.2-0.5c0.1-0.1,0.3-0.2,0.5-0.2
				c0.2,0,0.4,0.1,0.5,0.2c0.1,0.1,0.2,0.3,0.2,0.5c0,0.2-0.1,0.3-0.2,0.5S322.1,27.6,321.9,27.6z M321.4,34.6v-5.8h1v5.8H321.4z"/>
			<path d="M325.4,34.7c-0.2,0-0.4-0.1-0.6-0.2c-0.2-0.1-0.3-0.2-0.3-0.4c-0.1-0.2-0.1-0.4-0.1-0.7v-7.3h1v7.4c0,0.2,0,0.3,0.1,0.3
				c0.1,0.1,0.1,0.1,0.2,0.1c0,0,0.1,0,0.1,0c0,0,0.1,0,0.1,0l0.1,0.7c-0.1,0-0.2,0-0.2,0.1C325.6,34.7,325.5,34.7,325.4,34.7z"/>
			<path d="M329.8,34.8c-0.5,0-1-0.1-1.4-0.4c-0.4-0.2-0.8-0.6-1-1s-0.4-1-0.4-1.7c0-0.6,0.1-1.2,0.4-1.6s0.6-0.8,1-1.1
				c0.4-0.2,0.8-0.4,1.3-0.4c0.5,0,0.9,0.1,1.3,0.3c0.3,0.2,0.6,0.5,0.8,1c0.2,0.4,0.3,0.9,0.3,1.4c0,0.1,0,0.2,0,0.3
				c0,0.1,0,0.2,0,0.3h-4.2v-0.8h3.4c0-0.6-0.1-1-0.4-1.3c-0.2-0.3-0.6-0.5-1-0.5c-0.3,0-0.5,0.1-0.8,0.2c-0.3,0.1-0.5,0.4-0.6,0.7
				c-0.2,0.3-0.2,0.8-0.2,1.3c0,0.5,0.1,0.9,0.3,1.2s0.4,0.6,0.7,0.8s0.6,0.3,1,0.3c0.3,0,0.5,0,0.8-0.1s0.5-0.2,0.7-0.3l0.4,0.6
				c-0.3,0.2-0.5,0.3-0.9,0.4C330.5,34.7,330.2,34.8,329.8,34.8z"/>
		</g>
	</g>
</g>
<g id="Budget_-_Active">
	<g>
		<line class="st0" x1="107" y1="18.5" x2="107" y2="0.9"/>
		<path class="st0" d="M111,4.3h-6c-1.5,0-2.7,1.2-2.7,2.7s1.2,2.7,2.7,2.7h4.1c1.5,0,2.7,1.2,2.7,2.7s-1.2,2.7-2.7,2.7h-6.5"/>
	</g>
	<g>
		<path d="M92.6,36.4c-0.3,0-0.6-0.1-0.8-0.2s-0.6-0.3-0.8-0.5h0l-0.1,0.6H90v-8.5h1V30l0,1.1c0.3-0.2,0.6-0.4,0.9-0.6
			s0.6-0.2,1-0.2c0.5,0,0.9,0.1,1.3,0.4c0.3,0.2,0.6,0.6,0.8,1c0.2,0.4,0.3,1,0.3,1.6c0,0.7-0.1,1.2-0.4,1.7
			c-0.2,0.5-0.5,0.8-0.9,1.1C93.4,36.3,93,36.4,92.6,36.4z M92.4,35.6c0.3,0,0.6-0.1,0.9-0.3c0.3-0.2,0.5-0.5,0.6-0.8
			c0.1-0.3,0.2-0.8,0.2-1.2c0-0.4-0.1-0.8-0.2-1.1c-0.1-0.3-0.3-0.6-0.5-0.8c-0.2-0.2-0.5-0.3-0.9-0.3c-0.2,0-0.5,0.1-0.8,0.2
			c-0.3,0.1-0.5,0.3-0.8,0.6V35c0.3,0.2,0.5,0.4,0.8,0.5C92,35.5,92.2,35.6,92.4,35.6z"/>
		<path d="M98.3,36.4c-0.6,0-1.1-0.2-1.4-0.6c-0.3-0.4-0.4-1-0.4-1.7v-3.7h1V34c0,0.5,0.1,0.9,0.3,1.2c0.2,0.2,0.5,0.4,0.8,0.4
			c0.3,0,0.6-0.1,0.8-0.2c0.2-0.2,0.5-0.4,0.8-0.7v-4.1h1v5.8h-0.8l-0.1-0.9h0c-0.3,0.3-0.5,0.6-0.9,0.8
			C99.1,36.3,98.7,36.4,98.3,36.4z"/>
		<path d="M105.1,36.4c-0.7,0-1.3-0.3-1.8-0.8c-0.4-0.5-0.7-1.3-0.7-2.2c0-0.6,0.1-1.2,0.4-1.6s0.5-0.8,0.9-1.1
			c0.4-0.2,0.8-0.4,1.2-0.4c0.3,0,0.6,0.1,0.9,0.2s0.5,0.3,0.8,0.5l0-1v-2.2h1v8.5H107l-0.1-0.7h0c-0.2,0.2-0.5,0.4-0.8,0.6
			C105.8,36.3,105.5,36.4,105.1,36.4z M105.4,35.6c0.3,0,0.5-0.1,0.8-0.2c0.2-0.1,0.5-0.3,0.7-0.6v-3c-0.2-0.2-0.5-0.4-0.7-0.5
			c-0.2-0.1-0.5-0.1-0.7-0.1c-0.3,0-0.6,0.1-0.8,0.3c-0.3,0.2-0.5,0.4-0.6,0.8s-0.2,0.7-0.2,1.2c0,0.7,0.1,1.2,0.4,1.6
			C104.5,35.4,104.9,35.6,105.4,35.6z"/>
		<path d="M111.8,39c-0.5,0-0.9-0.1-1.3-0.2c-0.4-0.1-0.6-0.3-0.9-0.5c-0.2-0.2-0.3-0.5-0.3-0.9c0-0.2,0.1-0.5,0.2-0.7
			c0.2-0.2,0.4-0.4,0.6-0.6v0c-0.1-0.1-0.3-0.2-0.4-0.4s-0.1-0.3-0.1-0.6c0-0.2,0.1-0.5,0.2-0.6c0.1-0.2,0.3-0.3,0.4-0.4v0
			c-0.2-0.2-0.4-0.4-0.5-0.6c-0.2-0.3-0.2-0.6-0.2-0.9c0-0.4,0.1-0.8,0.3-1.1c0.2-0.3,0.5-0.6,0.8-0.7c0.3-0.2,0.7-0.3,1.1-0.3
			c0.2,0,0.3,0,0.5,0c0.1,0,0.3,0.1,0.4,0.1h2v0.8h-1.2v0c0.1,0.1,0.3,0.3,0.4,0.5c0.1,0.2,0.1,0.4,0.1,0.7c0,0.4-0.1,0.8-0.3,1.1
			c-0.2,0.3-0.4,0.5-0.8,0.7c-0.3,0.2-0.7,0.2-1.1,0.2c-0.1,0-0.3,0-0.4-0.1s-0.3-0.1-0.4-0.1c-0.1,0.1-0.2,0.2-0.3,0.3
			c-0.1,0.1-0.1,0.2-0.1,0.4c0,0.2,0.1,0.3,0.2,0.5c0.1,0.1,0.4,0.2,0.8,0.2h1.1c0.7,0,1.2,0.1,1.5,0.3c0.3,0.2,0.5,0.6,0.5,1.1
			c0,0.4-0.1,0.7-0.4,1c-0.2,0.3-0.6,0.5-1,0.7C112.9,38.9,112.4,39,111.8,39z M111.9,38.3c0.4,0,0.7-0.1,1-0.2s0.5-0.3,0.6-0.4
			c0.2-0.2,0.2-0.4,0.2-0.6c0-0.3-0.1-0.5-0.3-0.6c-0.2-0.1-0.5-0.2-0.9-0.2h-1c-0.1,0-0.2,0-0.4,0c-0.1,0-0.3,0-0.4-0.1
			c-0.2,0.2-0.4,0.3-0.5,0.5c-0.1,0.2-0.1,0.3-0.1,0.5c0,0.3,0.2,0.6,0.5,0.7C111,38.2,111.4,38.3,111.9,38.3z M111.8,33.8
			c0.2,0,0.4-0.1,0.6-0.2c0.2-0.1,0.3-0.3,0.5-0.5c0.1-0.2,0.2-0.5,0.2-0.7c0-0.4-0.1-0.8-0.4-1c-0.2-0.2-0.5-0.4-0.9-0.4
			c-0.3,0-0.6,0.1-0.9,0.4c-0.2,0.2-0.4,0.6-0.4,1c0,0.3,0.1,0.5,0.2,0.7c0.1,0.2,0.3,0.4,0.5,0.5C111.4,33.7,111.6,33.8,111.8,33.8
			z"/>
		<path d="M118.1,36.4c-0.5,0-1-0.1-1.4-0.4c-0.4-0.2-0.8-0.6-1-1c-0.2-0.5-0.4-1-0.4-1.7c0-0.6,0.1-1.2,0.4-1.6
			c0.3-0.5,0.6-0.8,1-1.1c0.4-0.2,0.8-0.4,1.3-0.4c0.5,0,0.9,0.1,1.3,0.3c0.3,0.2,0.6,0.5,0.8,1c0.2,0.4,0.3,0.9,0.3,1.4
			c0,0.1,0,0.2,0,0.3c0,0.1,0,0.2,0,0.3H116v-0.8h3.4c0-0.6-0.1-1-0.4-1.3c-0.2-0.3-0.6-0.5-1.1-0.5c-0.3,0-0.5,0.1-0.8,0.2
			c-0.3,0.1-0.5,0.4-0.6,0.7c-0.2,0.3-0.2,0.8-0.2,1.3c0,0.5,0.1,0.9,0.3,1.2s0.4,0.6,0.7,0.8c0.3,0.2,0.6,0.3,1,0.3
			c0.3,0,0.5,0,0.8-0.1s0.5-0.2,0.7-0.3l0.4,0.6c-0.3,0.2-0.5,0.3-0.9,0.4C118.8,36.3,118.5,36.4,118.1,36.4z"/>
		<path d="M123.4,36.4c-0.6,0-1-0.2-1.3-0.5c-0.2-0.4-0.4-0.8-0.4-1.4v-3.2h-0.9v-0.7l0.9-0.1l0.1-1.9h0.8v1.9h1.6v0.8h-1.6v3.2
			c0,0.4,0.1,0.6,0.2,0.8c0.1,0.2,0.4,0.3,0.7,0.3c0.1,0,0.2,0,0.3,0c0.1,0,0.2-0.1,0.3-0.1l0.2,0.7c-0.2,0.1-0.3,0.1-0.5,0.2
			C123.8,36.3,123.6,36.4,123.4,36.4z"/>
	</g>
</g>
<g id="Accounts_-_Inactive">
	<g>
		<g>
			<g>
				<path class="st2" d="M192.4,36.4c-0.3,0-0.6-0.1-0.9-0.2s-0.5-0.3-0.6-0.6c-0.2-0.2-0.2-0.5-0.2-0.9c0-0.7,0.3-1.2,0.9-1.5
					c0.6-0.3,1.5-0.6,2.7-0.7c0-0.2,0-0.5-0.1-0.7c-0.1-0.2-0.2-0.4-0.4-0.5c-0.2-0.1-0.4-0.2-0.7-0.2c-0.3,0-0.7,0.1-0.9,0.2
					s-0.6,0.3-0.8,0.4l-0.4-0.7c0.2-0.1,0.4-0.2,0.6-0.4c0.2-0.1,0.5-0.2,0.8-0.3c0.3-0.1,0.6-0.1,0.9-0.1c0.5,0,0.9,0.1,1.2,0.3
					c0.3,0.2,0.5,0.5,0.7,0.8c0.1,0.4,0.2,0.8,0.2,1.3v3.6h-0.8l-0.1-0.7h0c-0.3,0.2-0.6,0.4-0.9,0.6
					C193.1,36.3,192.7,36.4,192.4,36.4z M192.6,35.6c0.3,0,0.6-0.1,0.8-0.2s0.5-0.3,0.8-0.6v-1.6c-0.7,0.1-1.2,0.2-1.6,0.3
					s-0.7,0.3-0.8,0.5c-0.2,0.2-0.3,0.4-0.3,0.7c0,0.3,0.1,0.6,0.3,0.7C192.1,35.5,192.4,35.6,192.6,35.6z"/>
				<path class="st2" d="M199.4,36.4c-0.5,0-1-0.1-1.4-0.4s-0.7-0.6-1-1s-0.4-1-0.4-1.6c0-0.7,0.1-1.2,0.4-1.7s0.6-0.8,1-1
					c0.4-0.2,0.9-0.4,1.4-0.4c0.4,0,0.7,0.1,1,0.2c0.3,0.1,0.5,0.3,0.7,0.5l-0.5,0.6c-0.1-0.1-0.3-0.3-0.5-0.3
					c-0.2-0.1-0.4-0.1-0.7-0.1c-0.3,0-0.7,0.1-0.9,0.3c-0.3,0.2-0.5,0.5-0.7,0.8s-0.2,0.7-0.2,1.2c0,0.4,0.1,0.8,0.2,1.2
					c0.2,0.3,0.4,0.6,0.6,0.8c0.3,0.2,0.6,0.3,0.9,0.3c0.3,0,0.5-0.1,0.8-0.2c0.2-0.1,0.4-0.2,0.6-0.4l0.4,0.6
					c-0.2,0.2-0.5,0.4-0.8,0.6C200.1,36.3,199.8,36.4,199.4,36.4z"/>
				<path class="st2" d="M204.6,36.4c-0.5,0-1-0.1-1.4-0.4s-0.7-0.6-1-1c-0.2-0.5-0.4-1-0.4-1.6c0-0.7,0.1-1.2,0.4-1.7s0.6-0.8,1-1
					s0.9-0.4,1.4-0.4c0.4,0,0.7,0.1,1,0.2c0.3,0.1,0.5,0.3,0.7,0.5l-0.5,0.6c-0.1-0.1-0.3-0.3-0.5-0.3s-0.4-0.1-0.7-0.1
					c-0.3,0-0.7,0.1-0.9,0.3c-0.3,0.2-0.5,0.5-0.7,0.8s-0.2,0.7-0.2,1.2c0,0.4,0.1,0.8,0.2,1.2c0.2,0.3,0.4,0.6,0.6,0.8
					c0.3,0.2,0.6,0.3,0.9,0.3c0.3,0,0.5-0.1,0.8-0.2c0.2-0.1,0.4-0.2,0.6-0.4l0.4,0.6c-0.2,0.2-0.5,0.4-0.8,0.6
					C205.3,36.3,205,36.4,204.6,36.4z"/>
				<path class="st2" d="M209.8,36.4c-0.5,0-0.9-0.1-1.3-0.4s-0.7-0.6-1-1s-0.4-1-0.4-1.6c0-0.7,0.1-1.2,0.4-1.7s0.6-0.8,1-1
					s0.9-0.4,1.3-0.4c0.5,0,0.9,0.1,1.3,0.4s0.7,0.6,1,1c0.3,0.5,0.4,1,0.4,1.7c0,0.6-0.1,1.2-0.4,1.6c-0.3,0.5-0.6,0.8-1,1
					S210.3,36.4,209.8,36.4z M209.8,35.6c0.3,0,0.6-0.1,0.9-0.3c0.3-0.2,0.5-0.5,0.6-0.8s0.2-0.7,0.2-1.2c0-0.4-0.1-0.8-0.2-1.2
					s-0.3-0.6-0.6-0.8c-0.3-0.2-0.6-0.3-0.9-0.3s-0.6,0.1-0.9,0.3c-0.3,0.2-0.4,0.5-0.6,0.8c-0.1,0.3-0.2,0.7-0.2,1.2
					c0,0.4,0.1,0.8,0.2,1.2c0.1,0.3,0.3,0.6,0.6,0.8C209.1,35.5,209.4,35.6,209.8,35.6z"/>
				<path class="st2" d="M215.7,36.4c-0.6,0-1.1-0.2-1.3-0.6c-0.3-0.4-0.4-1-0.4-1.7v-3.7h1V34c0,0.5,0.1,0.9,0.3,1.2
					c0.2,0.2,0.5,0.4,0.8,0.4c0.3,0,0.6-0.1,0.8-0.2c0.2-0.2,0.5-0.4,0.8-0.7v-4.1h1v5.8h-0.8l-0.1-0.9h0c-0.3,0.3-0.5,0.6-0.9,0.8
					C216.5,36.3,216.1,36.4,215.7,36.4z"/>
				<path class="st2" d="M220.5,36.3v-5.8h0.8l0.1,0.8h0c0.3-0.3,0.6-0.5,0.9-0.7c0.3-0.2,0.7-0.3,1.1-0.3c0.6,0,1.1,0.2,1.4,0.6
					c0.3,0.4,0.4,1,0.4,1.7v3.7h-1v-3.6c0-0.6-0.1-0.9-0.3-1.2s-0.5-0.4-0.8-0.4c-0.3,0-0.6,0.1-0.8,0.2c-0.2,0.2-0.5,0.4-0.8,0.7
					v4.2H220.5z"/>
				<path class="st2" d="M228.9,36.4c-0.6,0-1-0.2-1.3-0.5c-0.2-0.4-0.4-0.8-0.4-1.4v-3.2h-0.9v-0.7l0.9-0.1l0.1-1.9h0.8v1.9h1.6
					v0.8h-1.6v3.2c0,0.4,0.1,0.6,0.2,0.8s0.4,0.3,0.7,0.3c0.1,0,0.2,0,0.3,0c0.1,0,0.2-0.1,0.3-0.1l0.2,0.7
					c-0.2,0.1-0.3,0.1-0.5,0.2C229.3,36.3,229.1,36.4,228.9,36.4z"/>
				<path class="st2" d="M232.6,36.4c-0.4,0-0.8-0.1-1.2-0.2c-0.4-0.1-0.7-0.4-1-0.6l0.5-0.6c0.3,0.2,0.5,0.4,0.8,0.5
					c0.3,0.1,0.6,0.2,1,0.2c0.4,0,0.7-0.1,0.9-0.3c0.2-0.2,0.3-0.4,0.3-0.6c0-0.2-0.1-0.4-0.2-0.5s-0.3-0.2-0.5-0.3
					c-0.2-0.1-0.4-0.2-0.6-0.3c-0.3-0.1-0.6-0.2-0.8-0.4c-0.3-0.1-0.5-0.3-0.6-0.5c-0.2-0.2-0.2-0.5-0.2-0.8c0-0.5,0.2-0.9,0.5-1.2
					c0.4-0.3,0.8-0.5,1.5-0.5c0.4,0,0.7,0.1,1,0.2c0.3,0.1,0.6,0.3,0.8,0.5l-0.5,0.6c-0.2-0.1-0.4-0.3-0.6-0.3s-0.5-0.1-0.7-0.1
					c-0.4,0-0.6,0.1-0.8,0.3s-0.3,0.4-0.3,0.6c0,0.2,0.1,0.3,0.2,0.4c0.1,0.1,0.2,0.2,0.4,0.3s0.4,0.2,0.6,0.3
					c0.3,0.1,0.6,0.2,0.9,0.4c0.3,0.1,0.5,0.3,0.7,0.5c0.2,0.2,0.3,0.5,0.3,0.9c0,0.3-0.1,0.6-0.2,0.9c-0.2,0.3-0.4,0.5-0.7,0.6
					C233.4,36.3,233,36.4,232.6,36.4z"/>
			</g>
		</g>
	</g>
	<g>
		<line class="st3" x1="212.7" y1="7.7" x2="212.7" y2="16.8"/>
		<line class="st3" x1="219.6" y1="7.7" x2="219.6" y2="16.8"/>
		<line class="st3" x1="205.8" y1="7.7" x2="205.8" y2="16.8"/>
		<path class="st3" d="M212.3,0.5l-7.5,3c-1,0.4-0.7,1.9,0.4,1.9h15.1c1.1,0,1.4-1.5,0.4-1.9l-7.5-3C212.8,0.4,212.6,0.4,212.3,0.5z
			"/>
	</g>
</g>
</svg>
