<?xml version="1.0" encoding="utf-8"?>
<!-- Generator: Adobe Illustrator 27.4.1, SVG Export Plug-In . SVG Version: 6.00 Build 0)  -->
<svg version="1.1" id="Layer_1" xmlns="http://www.w3.org/2000/svg" xmlns:xlink="http://www.w3.org/1999/xlink" x="0px" y="0px"
	 viewBox="0 0 340.9 42.3" style="enable-background:new 0 0 340.9 42.3;" xml:space="preserve">
<style type="text/css">
	.st0{fill:none;stroke:#FFFFFF;stroke-width:1.0399;stroke-linecap:round;stroke-miterlimit:10;}
	.st1{fill:#FFFFFF;}
	.st2{fill:none;stroke:#FFFFFF;stroke-width:0.9964;stroke-linecap:round;stroke-miterlimit:10;}
	.st3{fill:none;stroke:#4B6BC3;stroke-width:1.0399;stroke-linecap:round;stroke-miterlimit:10;}
	.st4{fill:#4B6BC3;}
	.st5{fill:none;stroke:#FFFFFF;stroke-width:0.8652;stroke-linecap:round;stroke-miterlimit:10;}
</style>
<g id="Stats">
	<g>
		<line class="st0" x1="9.5" y1="15.4" x2="9.5" y2="11.1"/>
	</g>
	<g>
		<line class="st0" x1="14.5" y1="15.4" x2="14.5" y2="5.1"/>
	</g>
	<g>
		<line class="st0" x1="19.5" y1="15.4" x2="19.5" y2="7.9"/>
	</g>
	<g>
		<g>
			<path class="st1" d="M3.1,36.4c-0.5,0-1-0.1-1.5-0.3c-0.5-0.2-0.9-0.4-1.2-0.8L1,34.7c0.3,0.3,0.7,0.5,1,0.6
				c0.3,0.1,0.7,0.2,1.2,0.2c0.5,0,0.8-0.1,1.1-0.3c0.2-0.2,0.4-0.5,0.4-0.8c0-0.2-0.1-0.5-0.2-0.6S4,33.4,3.8,33.3
				C3.5,33.2,3.3,33.1,3,33c-0.4-0.1-0.7-0.3-1-0.5c-0.3-0.2-0.6-0.4-0.8-0.7c-0.2-0.3-0.3-0.6-0.3-1c0-0.6,0.2-1.1,0.7-1.5
				c0.4-0.4,1.1-0.6,1.9-0.6c0.4,0,0.9,0.1,1.3,0.2c0.4,0.2,0.7,0.4,1,0.6L5,30.3c-0.3-0.2-0.5-0.3-0.8-0.4
				c-0.3-0.1-0.6-0.1-0.9-0.1c-0.5,0-0.8,0.1-1,0.3C2.1,30.3,2,30.5,2,30.8c0,0.2,0.1,0.4,0.2,0.5c0.1,0.1,0.3,0.3,0.5,0.4
				C3,31.8,3.3,31.9,3.6,32c0.4,0.1,0.7,0.3,1.1,0.5c0.3,0.2,0.6,0.4,0.8,0.7c0.2,0.3,0.3,0.6,0.3,1.1c0,0.4-0.1,0.8-0.3,1.1
				c-0.2,0.3-0.5,0.6-0.9,0.8S3.7,36.4,3.1,36.4z"/>
			<path class="st1" d="M9.5,36.4c-0.8,0-1.3-0.2-1.6-0.7s-0.5-1-0.5-1.8v-4H6.3V29L7.5,29l0.2-2.3h1V29h2v1h-2v4
				c0,0.4,0.1,0.8,0.2,1s0.5,0.4,0.9,0.4c0.1,0,0.3,0,0.4,0c0.1,0,0.3-0.1,0.4-0.1l0.3,0.9c-0.2,0.1-0.4,0.2-0.6,0.2
				C10,36.4,9.8,36.4,9.5,36.4z"/>
			<path class="st1" d="M13.7,36.4c-0.4,0-0.8-0.1-1.1-0.2c-0.3-0.2-0.6-0.4-0.8-0.7c-0.2-0.3-0.3-0.7-0.3-1.1
				c0-0.8,0.4-1.4,1.1-1.9c0.7-0.4,1.9-0.7,3.4-0.9c0-0.3-0.1-0.6-0.1-0.9c-0.1-0.3-0.2-0.5-0.5-0.7c-0.2-0.2-0.5-0.3-0.9-0.3
				c-0.4,0-0.8,0.1-1.2,0.2s-0.7,0.3-1,0.5l-0.5-0.8c0.2-0.1,0.5-0.3,0.8-0.4c0.3-0.1,0.6-0.3,1-0.4c0.3-0.1,0.7-0.1,1.1-0.1
				c0.6,0,1.1,0.1,1.4,0.4s0.7,0.6,0.8,1c0.2,0.4,0.3,1,0.3,1.6v4.5h-1l-0.1-0.9h0c-0.4,0.3-0.7,0.5-1.1,0.7
				C14.5,36.3,14.1,36.4,13.7,36.4z M14,35.4c0.4,0,0.7-0.1,1-0.2s0.6-0.4,1-0.7v-2c-0.8,0.1-1.5,0.2-1.9,0.4
				c-0.5,0.2-0.8,0.3-1,0.6c-0.2,0.2-0.3,0.5-0.3,0.8c0,0.4,0.1,0.7,0.4,0.9S13.6,35.4,14,35.4z"/>
			<path class="st1" d="M21.6,36.4c-0.8,0-1.3-0.2-1.6-0.7s-0.5-1-0.5-1.8v-4h-1.1V29l1.1-0.1l0.2-2.3h1V29h2v1h-2v4
				c0,0.4,0.1,0.8,0.2,1s0.5,0.4,0.9,0.4c0.1,0,0.3,0,0.4,0c0.1,0,0.3-0.1,0.4-0.1l0.3,0.9c-0.2,0.1-0.4,0.2-0.6,0.2
				C22.1,36.4,21.9,36.4,21.6,36.4z"/>
			<path class="st1" d="M26.1,36.4c-0.5,0-1-0.1-1.5-0.3c-0.5-0.2-0.9-0.4-1.2-0.8l0.6-0.7c0.3,0.3,0.7,0.5,1,0.6
				c0.3,0.1,0.7,0.2,1.2,0.2c0.5,0,0.8-0.1,1.1-0.3c0.2-0.2,0.4-0.5,0.4-0.8c0-0.2-0.1-0.5-0.2-0.6s-0.4-0.3-0.6-0.4
				c-0.2-0.1-0.5-0.2-0.8-0.3c-0.4-0.1-0.7-0.3-1-0.5c-0.3-0.2-0.6-0.4-0.8-0.7c-0.2-0.3-0.3-0.6-0.3-1c0-0.6,0.2-1.1,0.7-1.5
				c0.4-0.4,1.1-0.6,1.9-0.6c0.4,0,0.9,0.1,1.3,0.2c0.4,0.2,0.7,0.4,1,0.6l-0.6,0.7c-0.3-0.2-0.5-0.3-0.8-0.4
				c-0.3-0.1-0.6-0.1-0.9-0.1c-0.5,0-0.8,0.1-1,0.3c-0.2,0.2-0.3,0.5-0.3,0.7c0,0.2,0.1,0.4,0.2,0.5c0.1,0.1,0.3,0.3,0.5,0.4
				c0.2,0.1,0.5,0.2,0.8,0.3c0.4,0.1,0.7,0.3,1.1,0.5c0.3,0.2,0.6,0.4,0.8,0.7c0.2,0.3,0.3,0.6,0.3,1.1c0,0.4-0.1,0.8-0.3,1.1
				c-0.2,0.3-0.5,0.6-0.9,0.8S26.7,36.4,26.1,36.4z"/>
		</g>
	</g>
</g>
<g id="Profile">
	<g>
		<path class="st2" d="M314.6,16.1v-2.2c0-1.5,1.2-2.7,2.7-2.7h7.1c1.5,0,2.7,1.2,2.7,2.7v2.2"/>
		<circle class="st2" cx="320.9" cy="4.8" r="3.2"/>
	</g>
	<g>
		<g>
			<path class="st1" d="M301.3,37.7V27.3h1l0.1,0.8h0c0.3-0.3,0.7-0.5,1.1-0.7c0.4-0.2,0.8-0.3,1.2-0.3c0.6,0,1.1,0.2,1.6,0.5
				c0.4,0.3,0.8,0.7,1,1.3c0.2,0.6,0.3,1.2,0.3,2c0,0.8-0.1,1.5-0.4,2.1c-0.3,0.6-0.7,1-1.2,1.4s-1,0.5-1.5,0.5
				c-0.3,0-0.7-0.1-1-0.2s-0.7-0.4-1-0.6l0,1.3v2.5H301.3z M304.3,33.8c0.4,0,0.8-0.1,1.1-0.3c0.3-0.2,0.6-0.6,0.7-1
				c0.2-0.4,0.3-1,0.3-1.6c0-0.5-0.1-1-0.2-1.4s-0.3-0.7-0.6-0.9c-0.3-0.2-0.6-0.3-1.1-0.3c-0.3,0-0.6,0.1-0.9,0.2s-0.7,0.4-1,0.7
				V33c0.3,0.3,0.7,0.5,1,0.6C303.8,33.7,304.1,33.8,304.3,33.8z"/>
			<path class="st1" d="M309.6,34.6v-7.3h1l0.1,1.3h0c0.2-0.5,0.5-0.8,0.9-1.1c0.4-0.3,0.8-0.4,1.2-0.4c0.2,0,0.3,0,0.4,0
				c0.1,0,0.2,0.1,0.4,0.1l-0.3,1c-0.1,0-0.2-0.1-0.3-0.1c-0.1,0-0.2,0-0.4,0c-0.3,0-0.6,0.1-1,0.4s-0.6,0.7-0.9,1.3v4.7H309.6z"/>
			<path class="st1" d="M317.5,34.8c-0.6,0-1.1-0.1-1.7-0.5c-0.5-0.3-0.9-0.7-1.2-1.3c-0.3-0.6-0.5-1.3-0.5-2.1
				c0-0.8,0.2-1.5,0.5-2.1c0.3-0.6,0.7-1,1.2-1.3c0.5-0.3,1.1-0.5,1.7-0.5c0.6,0,1.2,0.2,1.7,0.5c0.5,0.3,0.9,0.7,1.2,1.3
				c0.3,0.6,0.5,1.3,0.5,2.1c0,0.8-0.2,1.5-0.5,2.1c-0.3,0.6-0.7,1-1.2,1.3C318.7,34.6,318.1,34.8,317.5,34.8z M317.5,33.8
				c0.4,0,0.8-0.1,1.1-0.4c0.3-0.2,0.6-0.6,0.7-1c0.2-0.4,0.3-0.9,0.3-1.5c0-0.6-0.1-1.1-0.3-1.5c-0.2-0.4-0.4-0.8-0.7-1
				c-0.3-0.2-0.7-0.4-1.1-0.4s-0.8,0.1-1.1,0.4c-0.3,0.2-0.6,0.6-0.7,1c-0.2,0.4-0.3,0.9-0.3,1.5c0,0.6,0.1,1,0.3,1.5
				c0.2,0.4,0.4,0.7,0.7,1C316.7,33.7,317.1,33.8,317.5,33.8z"/>
			<path class="st1" d="M321.9,28.3v-0.9l1.1-0.1h2.7v1H321.9z M323,34.6v-8.4c0-0.5,0.1-0.9,0.2-1.3c0.2-0.4,0.4-0.6,0.7-0.8
				c0.3-0.2,0.7-0.3,1.2-0.3c0.2,0,0.4,0,0.7,0.1c0.2,0,0.4,0.1,0.6,0.2l-0.3,0.9c-0.3-0.1-0.6-0.1-0.8-0.1c-0.3,0-0.6,0.1-0.8,0.4
				c-0.2,0.2-0.3,0.6-0.3,1.1v8.4H323z"/>
			<path class="st1" d="M327.8,25.8c-0.2,0-0.4-0.1-0.6-0.2c-0.2-0.1-0.2-0.3-0.2-0.6s0.1-0.4,0.2-0.6c0.2-0.2,0.4-0.2,0.6-0.2
				c0.2,0,0.4,0.1,0.6,0.2c0.2,0.1,0.2,0.3,0.2,0.6s-0.1,0.4-0.2,0.6C328.2,25.8,328,25.8,327.8,25.8z M327.2,34.6v-7.3h1.2v7.3
				H327.2z"/>
			<path class="st1" d="M332.2,34.8c-0.3,0-0.6-0.1-0.8-0.2s-0.3-0.3-0.4-0.6s-0.1-0.5-0.1-0.9v-9.2h1.2v9.3c0,0.2,0,0.3,0.1,0.4
				c0.1,0.1,0.2,0.1,0.3,0.1c0,0,0.1,0,0.1,0s0.1,0,0.1,0l0.2,0.9c-0.1,0-0.2,0.1-0.3,0.1C332.5,34.7,332.3,34.8,332.2,34.8z"/>
			<path class="st1" d="M337.6,34.8c-0.7,0-1.2-0.2-1.8-0.5c-0.5-0.3-1-0.7-1.3-1.3c-0.3-0.6-0.5-1.3-0.5-2.1c0-0.8,0.2-1.5,0.5-2
				c0.3-0.6,0.7-1,1.2-1.3c0.5-0.3,1-0.5,1.6-0.5c0.6,0,1.1,0.1,1.6,0.4c0.4,0.3,0.8,0.7,1,1.2c0.2,0.5,0.3,1.1,0.3,1.8
				c0,0.1,0,0.3,0,0.4s0,0.2-0.1,0.4H335v-1h4.2c0-0.7-0.2-1.2-0.5-1.6c-0.3-0.4-0.7-0.6-1.3-0.6c-0.3,0-0.7,0.1-1,0.3
				c-0.3,0.2-0.6,0.5-0.8,0.9s-0.3,1-0.3,1.6c0,0.6,0.1,1.1,0.3,1.6c0.2,0.4,0.5,0.7,0.9,1s0.8,0.3,1.2,0.3c0.3,0,0.7,0,1-0.2
				c0.3-0.1,0.6-0.2,0.8-0.4L340,34c-0.3,0.2-0.7,0.4-1.1,0.5C338.6,34.7,338.1,34.8,337.6,34.8z"/>
		</g>
	</g>
</g>
<g id="Budget_-_Active">
	<g>
		<line class="st3" x1="111.4" y1="18.5" x2="111.4" y2="0.9"/>
		<path class="st3" d="M115.3,4.3h-6c-1.5,0-2.7,1.2-2.7,2.7s1.2,2.7,2.7,2.7h4.1c1.5,0,2.7,1.2,2.7,2.7s-1.2,2.7-2.7,2.7h-6.5"/>
	</g>
	<g>
		<g>
			<path class="st4" d="M93.8,36.4c-0.3,0-0.7-0.1-1-0.2c-0.4-0.2-0.7-0.4-1-0.7h0l-0.1,0.8h-1V25.6h1.2v2.9l0,1.3
				c0.3-0.3,0.7-0.5,1.1-0.7s0.8-0.3,1.2-0.3c0.6,0,1.2,0.2,1.6,0.5c0.4,0.3,0.8,0.7,1,1.3c0.2,0.6,0.3,1.2,0.3,2
				c0,0.8-0.1,1.5-0.4,2.1c-0.3,0.6-0.7,1-1.2,1.4S94.3,36.4,93.8,36.4z M93.6,35.4c0.4,0,0.8-0.1,1.1-0.3c0.3-0.2,0.6-0.6,0.7-1
				c0.2-0.4,0.3-1,0.3-1.6c0-0.5-0.1-1-0.2-1.4c-0.1-0.4-0.3-0.7-0.6-0.9c-0.3-0.2-0.7-0.3-1.1-0.3c-0.3,0-0.6,0.1-0.9,0.2
				c-0.3,0.2-0.7,0.4-1,0.7v3.8c0.3,0.3,0.6,0.5,1,0.6S93.3,35.4,93.6,35.4z"/>
			<path class="st4" d="M101,36.4c-0.8,0-1.3-0.2-1.7-0.7c-0.4-0.5-0.5-1.2-0.5-2.1V29h1.2v4.5c0,0.7,0.1,1.2,0.3,1.5
				c0.2,0.3,0.6,0.5,1,0.5c0.4,0,0.7-0.1,1-0.3c0.3-0.2,0.6-0.5,1-0.9V29h1.2v7.3h-1l-0.1-1.1h0c-0.3,0.4-0.7,0.7-1.1,1
				C101.9,36.3,101.5,36.4,101,36.4z"/>
			<path class="st4" d="M109.5,36.4c-0.9,0-1.7-0.3-2.2-1c-0.5-0.7-0.8-1.6-0.8-2.8c0-0.8,0.1-1.5,0.4-2s0.7-1,1.2-1.3
				c0.5-0.3,1-0.5,1.6-0.5c0.4,0,0.8,0.1,1.1,0.2c0.3,0.1,0.6,0.4,0.9,0.6l-0.1-1.2v-2.8h1.2v10.7h-1l-0.1-0.9h0
				c-0.3,0.3-0.6,0.5-1,0.7C110.4,36.3,110,36.4,109.5,36.4z M109.8,35.4c0.3,0,0.7-0.1,1-0.3c0.3-0.2,0.6-0.4,0.9-0.8v-3.8
				c-0.3-0.3-0.6-0.5-0.9-0.6c-0.3-0.1-0.6-0.2-0.9-0.2c-0.4,0-0.7,0.1-1.1,0.4c-0.3,0.2-0.6,0.6-0.8,1s-0.3,0.9-0.3,1.5
				c0,0.9,0.2,1.6,0.5,2S109.2,35.4,109.8,35.4z"/>
			<path class="st4" d="M117.8,39.6c-0.6,0-1.1-0.1-1.6-0.2c-0.5-0.2-0.8-0.4-1.1-0.7s-0.4-0.6-0.4-1.1c0-0.3,0.1-0.6,0.3-0.9
				s0.5-0.5,0.8-0.8v-0.1c-0.2-0.1-0.3-0.3-0.5-0.5c-0.1-0.2-0.2-0.4-0.2-0.7c0-0.3,0.1-0.6,0.3-0.8c0.2-0.2,0.4-0.4,0.5-0.5v-0.1
				c-0.2-0.2-0.4-0.5-0.6-0.8s-0.3-0.7-0.3-1.2c0-0.5,0.1-1,0.4-1.4c0.3-0.4,0.6-0.7,1-0.9c0.4-0.2,0.9-0.3,1.4-0.3
				c0.2,0,0.4,0,0.6,0.1s0.3,0.1,0.5,0.1h2.5v0.9h-1.5V30c0.2,0.2,0.3,0.4,0.4,0.6c0.1,0.2,0.2,0.5,0.2,0.9c0,0.5-0.1,1-0.4,1.3
				s-0.6,0.7-1,0.9c-0.4,0.2-0.9,0.3-1.4,0.3c-0.2,0-0.4,0-0.6-0.1c-0.2,0-0.4-0.1-0.5-0.2c-0.1,0.1-0.2,0.2-0.3,0.4
				c-0.1,0.1-0.1,0.3-0.1,0.5c0,0.2,0.1,0.4,0.3,0.6c0.2,0.1,0.5,0.2,1,0.2h1.4c0.9,0,1.5,0.1,1.9,0.4c0.4,0.3,0.6,0.7,0.6,1.3
				c0,0.5-0.2,0.9-0.5,1.2c-0.3,0.4-0.7,0.7-1.3,0.9S118.6,39.6,117.8,39.6z M118,38.8c0.5,0,0.9-0.1,1.2-0.2
				c0.3-0.1,0.6-0.3,0.8-0.6c0.2-0.2,0.3-0.5,0.3-0.7c0-0.3-0.1-0.6-0.4-0.7c-0.3-0.1-0.6-0.2-1.1-0.2h-1.3c-0.1,0-0.3,0-0.5,0
				c-0.2,0-0.3,0-0.5-0.1c-0.3,0.2-0.5,0.4-0.6,0.6c-0.1,0.2-0.2,0.4-0.2,0.6c0,0.4,0.2,0.7,0.6,0.9S117.3,38.8,118,38.8z
				 M117.8,33.1c0.3,0,0.5-0.1,0.8-0.2c0.2-0.1,0.4-0.3,0.6-0.6c0.1-0.3,0.2-0.6,0.2-0.9c0-0.5-0.1-1-0.5-1.3
				c-0.3-0.3-0.7-0.4-1.1-0.4s-0.8,0.1-1.1,0.4c-0.3,0.3-0.4,0.7-0.4,1.3c0,0.4,0.1,0.7,0.2,0.9c0.1,0.3,0.3,0.5,0.6,0.6
				C117.3,33.1,117.5,33.1,117.8,33.1z"/>
			<path class="st4" d="M125.7,36.4c-0.6,0-1.2-0.2-1.8-0.5s-1-0.7-1.3-1.3c-0.3-0.6-0.5-1.3-0.5-2.1c0-0.8,0.2-1.5,0.5-2
				c0.3-0.6,0.7-1,1.2-1.3c0.5-0.3,1-0.5,1.6-0.5c0.6,0,1.1,0.1,1.6,0.4s0.8,0.7,1,1.2c0.2,0.5,0.3,1.1,0.3,1.8c0,0.1,0,0.3,0,0.4
				c0,0.1,0,0.2-0.1,0.4H123v-1h4.2c0-0.7-0.2-1.2-0.5-1.6s-0.7-0.6-1.3-0.6c-0.3,0-0.7,0.1-1,0.3c-0.3,0.2-0.6,0.5-0.8,0.9
				c-0.2,0.4-0.3,1-0.3,1.6c0,0.6,0.1,1.1,0.3,1.6c0.2,0.4,0.5,0.7,0.9,1c0.4,0.2,0.8,0.3,1.2,0.3c0.3,0,0.7,0,1-0.2
				c0.3-0.1,0.6-0.2,0.8-0.4l0.5,0.8c-0.3,0.2-0.7,0.4-1.1,0.5C126.6,36.4,126.2,36.4,125.7,36.4z"/>
			<path class="st4" d="M132.3,36.4c-0.8,0-1.3-0.2-1.6-0.7s-0.5-1-0.5-1.8v-4h-1.1V29l1.1-0.1l0.2-2.3h1V29h2v1h-2v4
				c0,0.4,0.1,0.8,0.2,1s0.5,0.4,0.9,0.4c0.1,0,0.3,0,0.4,0c0.1,0,0.3-0.1,0.4-0.1l0.3,0.9c-0.2,0.1-0.4,0.2-0.6,0.2
				C132.8,36.4,132.5,36.4,132.3,36.4z"/>
		</g>
	</g>
</g>
<g id="Accounts_-_Inactive">
	<g>
		<g>
			<g>
				<path class="st1" d="M193.3,36.4c-0.4,0-0.8-0.1-1.1-0.2c-0.3-0.2-0.6-0.4-0.8-0.7c-0.2-0.3-0.3-0.7-0.3-1.1
					c0-0.8,0.4-1.4,1.1-1.9c0.7-0.4,1.9-0.7,3.4-0.9c0-0.3-0.1-0.6-0.1-0.9c-0.1-0.3-0.2-0.5-0.5-0.7c-0.2-0.2-0.5-0.3-0.9-0.3
					c-0.4,0-0.8,0.1-1.2,0.2s-0.7,0.3-1,0.5l-0.5-0.8c0.2-0.1,0.5-0.3,0.8-0.4c0.3-0.1,0.6-0.3,1-0.4c0.3-0.1,0.7-0.1,1.1-0.1
					c0.6,0,1.1,0.1,1.4,0.4s0.7,0.6,0.8,1c0.2,0.4,0.3,1,0.3,1.6v4.5h-1l-0.1-0.9h0c-0.4,0.3-0.7,0.5-1.1,0.7
					C194.2,36.3,193.7,36.4,193.3,36.4z M193.6,35.4c0.4,0,0.7-0.1,1-0.2s0.6-0.4,1-0.7v-2c-0.8,0.1-1.5,0.2-1.9,0.4
					c-0.5,0.2-0.8,0.3-1,0.6c-0.2,0.2-0.3,0.5-0.3,0.8c0,0.4,0.1,0.7,0.4,0.9S193.3,35.4,193.6,35.4z"/>
				<path class="st1" d="M202.1,36.4c-0.6,0-1.2-0.1-1.8-0.5c-0.5-0.3-0.9-0.7-1.2-1.3c-0.3-0.6-0.5-1.3-0.5-2.1
					c0-0.8,0.2-1.5,0.5-2.1c0.3-0.6,0.8-1,1.3-1.3c0.5-0.3,1.1-0.5,1.7-0.5c0.5,0,0.9,0.1,1.2,0.2c0.3,0.2,0.6,0.4,0.9,0.6l-0.6,0.8
					c-0.2-0.2-0.4-0.3-0.6-0.4c-0.2-0.1-0.5-0.2-0.8-0.2c-0.4,0-0.8,0.1-1.2,0.4c-0.3,0.2-0.6,0.6-0.8,1s-0.3,0.9-0.3,1.5
					c0,0.6,0.1,1,0.3,1.5c0.2,0.4,0.5,0.7,0.8,1c0.3,0.2,0.7,0.4,1.2,0.4c0.3,0,0.7-0.1,0.9-0.2s0.5-0.3,0.8-0.5l0.5,0.8
					c-0.3,0.3-0.7,0.5-1,0.7C203,36.4,202.5,36.4,202.1,36.4z"/>
				<path class="st1" d="M208.6,36.4c-0.6,0-1.2-0.1-1.8-0.5c-0.5-0.3-0.9-0.7-1.2-1.3c-0.3-0.6-0.5-1.3-0.5-2.1
					c0-0.8,0.2-1.5,0.5-2.1c0.3-0.6,0.8-1,1.3-1.3c0.5-0.3,1.1-0.5,1.7-0.5c0.5,0,0.9,0.1,1.2,0.2c0.3,0.2,0.6,0.4,0.9,0.6l-0.6,0.8
					c-0.2-0.2-0.4-0.3-0.6-0.4c-0.2-0.1-0.5-0.2-0.8-0.2c-0.4,0-0.8,0.1-1.2,0.4c-0.3,0.2-0.6,0.6-0.8,1s-0.3,0.9-0.3,1.5
					c0,0.6,0.1,1,0.3,1.5c0.2,0.4,0.5,0.7,0.8,1c0.3,0.2,0.7,0.4,1.2,0.4c0.3,0,0.7-0.1,0.9-0.2s0.5-0.3,0.8-0.5l0.5,0.8
					c-0.3,0.3-0.7,0.5-1,0.7C209.5,36.4,209.1,36.4,208.6,36.4z"/>
				<path class="st1" d="M215.1,36.4c-0.6,0-1.1-0.1-1.7-0.5c-0.5-0.3-0.9-0.7-1.2-1.3s-0.5-1.3-0.5-2.1c0-0.8,0.2-1.5,0.5-2.1
					s0.7-1,1.2-1.3c0.5-0.3,1.1-0.5,1.7-0.5c0.6,0,1.2,0.2,1.7,0.5c0.5,0.3,0.9,0.7,1.2,1.3s0.5,1.3,0.5,2.1c0,0.8-0.2,1.5-0.5,2.1
					s-0.7,1-1.2,1.3C216.2,36.3,215.7,36.4,215.1,36.4z M215.1,35.4c0.4,0,0.8-0.1,1.1-0.4c0.3-0.2,0.6-0.6,0.7-1
					c0.2-0.4,0.3-0.9,0.3-1.5c0-0.6-0.1-1.1-0.3-1.5c-0.2-0.4-0.4-0.8-0.7-1c-0.3-0.2-0.7-0.4-1.1-0.4c-0.4,0-0.8,0.1-1.1,0.4
					c-0.3,0.2-0.6,0.6-0.7,1c-0.2,0.4-0.3,0.9-0.3,1.5c0,0.6,0.1,1,0.3,1.5c0.2,0.4,0.4,0.7,0.7,1C214.3,35.3,214.6,35.4,215.1,35.4
					z"/>
				<path class="st1" d="M222.5,36.4c-0.8,0-1.3-0.2-1.7-0.7c-0.4-0.5-0.5-1.2-0.5-2.1V29h1.2v4.5c0,0.7,0.1,1.2,0.3,1.5
					c0.2,0.3,0.6,0.5,1,0.5c0.4,0,0.7-0.1,1-0.3c0.3-0.2,0.6-0.5,1-0.9V29h1.2v7.3h-1l-0.1-1.1h0c-0.3,0.4-0.7,0.7-1.1,1
					C223.4,36.3,223,36.4,222.5,36.4z"/>
				<path class="st1" d="M228.5,36.3V29h1l0.1,1h0c0.4-0.3,0.7-0.6,1.1-0.9c0.4-0.2,0.8-0.4,1.3-0.4c0.8,0,1.3,0.2,1.7,0.7
					c0.4,0.5,0.5,1.2,0.5,2.1v4.6h-1.2v-4.5c0-0.7-0.1-1.2-0.3-1.5c-0.2-0.3-0.6-0.5-1.1-0.5c-0.4,0-0.7,0.1-1,0.3
					c-0.3,0.2-0.6,0.5-1,0.8v5.3H228.5z"/>
				<path class="st1" d="M239,36.4c-0.8,0-1.3-0.2-1.6-0.7s-0.5-1-0.5-1.8v-4h-1.1V29L237,29l0.2-2.3h1V29h2v1h-2v4
					c0,0.4,0.1,0.8,0.2,1s0.5,0.4,0.9,0.4c0.1,0,0.3,0,0.4,0c0.1,0,0.3-0.1,0.4-0.1l0.3,0.9c-0.2,0.1-0.4,0.2-0.6,0.2
					C239.5,36.4,239.3,36.4,239,36.4z"/>
				<path class="st1" d="M243.5,36.4c-0.5,0-1-0.1-1.5-0.3c-0.5-0.2-0.9-0.4-1.2-0.8l0.6-0.7c0.3,0.3,0.7,0.5,1,0.6
					c0.3,0.1,0.7,0.2,1.2,0.2c0.5,0,0.8-0.1,1.1-0.3c0.2-0.2,0.4-0.5,0.4-0.8c0-0.2-0.1-0.5-0.2-0.6s-0.4-0.3-0.6-0.4
					c-0.2-0.1-0.5-0.2-0.8-0.3c-0.4-0.1-0.7-0.3-1-0.5c-0.3-0.2-0.6-0.4-0.8-0.7c-0.2-0.3-0.3-0.6-0.3-1c0-0.6,0.2-1.1,0.7-1.5
					c0.4-0.4,1.1-0.6,1.9-0.6c0.4,0,0.9,0.1,1.3,0.2c0.4,0.2,0.7,0.4,1,0.6l-0.6,0.7c-0.3-0.2-0.5-0.3-0.8-0.4
					c-0.3-0.1-0.6-0.1-0.9-0.1c-0.5,0-0.8,0.1-1,0.3c-0.2,0.2-0.3,0.5-0.3,0.7c0,0.2,0.1,0.4,0.2,0.5c0.1,0.1,0.3,0.3,0.5,0.4
					c0.2,0.1,0.5,0.2,0.8,0.3c0.4,0.1,0.7,0.3,1.1,0.5c0.3,0.2,0.6,0.4,0.8,0.7c0.2,0.3,0.3,0.6,0.3,1.1c0,0.4-0.1,0.8-0.3,1.1
					c-0.2,0.3-0.5,0.6-0.9,0.8S244.1,36.4,243.5,36.4z"/>
			</g>
		</g>
	</g>
	<g>
		<line class="st5" x1="217" y1="7.7" x2="217" y2="16.8"/>
		<line class="st5" x1="223.9" y1="7.7" x2="223.9" y2="16.8"/>
		<line class="st5" x1="210.2" y1="7.7" x2="210.2" y2="16.8"/>
		<path class="st5" d="M216.7,0.5l-7.5,3c-1,0.4-0.7,1.9,0.4,1.9h15.1c1.1,0,1.4-1.5,0.4-1.9l-7.5-3C217.2,0.4,216.9,0.4,216.7,0.5z
			"/>
	</g>
</g>
</svg>
