<?xml version="1.0" encoding="utf-8"?>
<!-- Generator: Adobe Illustrator 27.4.1, SVG Export Plug-In . SVG Version: 6.00 Build 0)  -->
<svg version="1.1" id="Layer_1" xmlns="http://www.w3.org/2000/svg" xmlns:xlink="http://www.w3.org/1999/xlink" x="0px" y="0px"
	 viewBox="0 0 340.5 21.2" style="enable-background:new 0 0 340.5 21.2;" xml:space="preserve">
<style type="text/css">
	.st0{fill:#FFFFFF;}
</style>
<g>
	<g>
		<path class="st0" d="M262.7,10.8h-1.1c-0.5,0-0.8,0.4-0.8,0.8v2.2c0,0.5,0.4,0.8,0.8,0.8h1.1c0.5,0,0.8-0.4,0.8-0.8v-2.2
			C263.5,11.2,263.1,10.8,262.7,10.8z"/>
		<path class="st0" d="M267.3,8.9h-1.1c-0.5,0-0.8,0.4-0.8,0.8v4.2c0,0.5,0.4,0.8,0.8,0.8h1.1c0.5,0,0.8-0.4,0.8-0.8V9.7
			C268.1,9.2,267.7,8.9,267.3,8.9z"/>
		<path class="st0" d="M271.9,6.9h-1.1c-0.5,0-0.8,0.4-0.8,0.8v6.2c0,0.5,0.4,0.8,0.8,0.8h1.1c0.5,0,0.8-0.4,0.8-0.8V7.7
			C272.7,7.3,272.4,6.9,271.9,6.9z"/>
		<path class="st0" d="M276.5,4.9h-1.1c-0.5,0-0.8,0.4-0.8,0.8v8.2c0,0.5,0.4,0.8,0.8,0.8h1.1c0.5,0,0.8-0.4,0.8-0.8V5.7
			C277.3,5.2,277,4.9,276.5,4.9z"/>
		<path class="st0" d="M297.8,13.2c0.2-0.2,0.2-0.5-0.1-0.7c-0.5-0.3-1.1-0.7-1.7-0.7s-1.2,0.3-1.7,0.7c-0.2,0.2-0.3,0.5-0.1,0.7
			l1.5,1.8c0.2,0.2,0.5,0.2,0.6,0L297.8,13.2z"/>
		<path class="st0" d="M292.2,11.7c-0.1,0-0.3,0-0.4-0.1c-0.3-0.2-0.3-0.6-0.1-0.9c1.1-1.4,2.7-2.2,4.3-2.2c1.6,0,3.1,0.7,4.2,2.1
			c0.2,0.3,0.2,0.7-0.1,0.9c-0.3,0.2-0.7,0.2-0.9-0.1c-0.9-1-2-1.6-3.2-1.6s-2.4,0.6-3.3,1.7C292.6,11.6,292.4,11.7,292.2,11.7z"/>
		<path class="st0" d="M302.2,9.3c-0.2,0-0.4-0.1-0.5-0.2c-1.5-1.7-3.5-2.6-5.7-2.6c-2.1,0-4.2,0.9-5.7,2.6c-0.2,0.3-0.7,0.3-0.9,0
			c-0.3-0.2-0.3-0.7,0-0.9c1.8-2,4.1-3,6.7-3c2.5,0,4.9,1.1,6.7,3c0.2,0.3,0.2,0.7,0,0.9C302.5,9.2,302.3,9.3,302.2,9.3z"/>
		<rect x="315.6" y="6.6" class="st0" width="11.8" height="7.6"/>
		<path class="st0" d="M335.6,16.1h-19.5c-1.2,0-2.1-0.9-2.1-2.1V6.8c0-1.2,0.9-2.1,2.1-2.1h19.5c1.2,0,2.1,0.9,2.1,2.1V14
			C337.7,15.1,336.8,16.1,335.6,16.1z M316.1,5.3c-0.8,0-1.5,0.7-1.5,1.5V14c0,0.8,0.7,1.5,1.5,1.5h19.5c0.8,0,1.5-0.7,1.5-1.5V6.8
			c0-0.8-0.7-1.5-1.5-1.5H316.1z"/>
		<path class="st0" d="M338.6,8.8c0-0.2,0.1-0.3,0.3-0.3c0.9,0.1,1.6,0.9,1.6,1.9s-0.7,1.7-1.6,1.9c-0.2,0-0.3-0.1-0.3-0.3V8.8z"/>
	</g>
</g>
<g>
	<g>
		<path class="st0" d="M2.6,16.6C2,16.3,1.5,16,1.1,15.5c-0.3-0.5-0.5-1-0.5-1.6l0,0c0-0.4,0.1-0.9,0.3-1.2c0.2-0.4,0.5-0.7,0.8-0.9
			c0.4-0.3,0.8-0.4,1.2-0.5l0,0c-0.6-0.2-1.1-0.5-1.4-0.9C1.2,9.9,1,9.4,1,8.8l0,0c0-0.5,0.2-1,0.5-1.4s0.7-0.8,1.3-1
			C3.3,6.2,3.9,6,4.6,6S6,6.2,6.5,6.4c0.5,0.2,1,0.6,1.3,1s0.5,0.9,0.5,1.4l0,0c0,0.6-0.2,1-0.5,1.5C7.4,10.7,7,11,6.4,11.2l0,0
			c0.5,0.1,0.9,0.3,1.2,0.5c0.3,0.3,0.6,0.6,0.8,0.9c0.2,0.4,0.3,0.8,0.3,1.2l0,0c0,0.6-0.2,1.1-0.5,1.6s-0.8,0.8-1.4,1.1
			S5.4,17,4.6,17C3.9,17,3.2,16.8,2.6,16.6z M5.8,15.4c0.3-0.2,0.6-0.4,0.8-0.6c0.2-0.3,0.3-0.6,0.3-0.9l0,0c0-0.4-0.1-0.7-0.3-1
			s-0.5-0.5-0.8-0.7S5.1,12,4.6,12s-0.9,0.1-1.2,0.2c-0.3,0.2-0.6,0.4-0.8,0.7s-0.3,0.6-0.3,1l0,0c0,0.4,0.1,0.7,0.3,0.9
			c0.2,0.3,0.5,0.5,0.8,0.6s0.7,0.2,1.2,0.2S5.5,15.6,5.8,15.4z M5.7,10.4c0.3-0.1,0.5-0.3,0.7-0.6C6.5,9.6,6.6,9.3,6.6,9l0,0
			c0-0.3-0.1-0.6-0.3-0.8C6.2,7.9,6,7.7,5.7,7.6C5.4,7.4,5,7.3,4.6,7.3s-0.7,0.1-1,0.2C3.3,7.7,3.1,7.9,2.9,8.1
			C2.7,8.4,2.7,8.7,2.7,9l0,0c0,0.3,0.1,0.6,0.3,0.8s0.4,0.4,0.7,0.6c0.3,0.1,0.6,0.2,1,0.2C5,10.6,5.4,10.6,5.7,10.4z"/>
		<path class="st0" d="M10.3,9.4C10.1,9.2,10,9,10,8.7s0.1-0.5,0.3-0.7s0.4-0.3,0.7-0.3s0.5,0.1,0.7,0.3C11.9,8.2,12,8.4,12,8.7
			s-0.1,0.5-0.3,0.7S11.3,9.7,11,9.7S10.4,9.6,10.3,9.4z M10.3,14.9c-0.2-0.2-0.3-0.4-0.3-0.7s0.1-0.5,0.3-0.7s0.4-0.3,0.7-0.3
			s0.5,0.1,0.7,0.3s0.3,0.4,0.3,0.7s-0.1,0.5-0.3,0.7s-0.4,0.3-0.7,0.3S10.4,15.1,10.3,14.9z"/>
		<path class="st0" d="M15.2,16.6c-0.6-0.3-1-0.6-1.3-1s-0.5-1-0.6-1.5V14h1.6v0.1c0,0.3,0.1,0.6,0.3,0.8s0.5,0.4,0.8,0.6
			c0.3,0.1,0.7,0.2,1.2,0.2c0.4,0,0.8-0.1,1.1-0.2c0.3-0.1,0.6-0.4,0.8-0.6s0.3-0.6,0.3-0.9l0,0c0-0.6-0.2-1.1-0.6-1.4
			c-0.4-0.3-1-0.5-1.7-0.5h-1.3v-1.3H17c0.4,0,0.8-0.1,1.1-0.2c0.3-0.1,0.5-0.3,0.7-0.6C18.9,9.6,19,9.3,19,9l0,0
			c0-0.3-0.1-0.6-0.2-0.9c-0.1-0.2-0.4-0.4-0.6-0.5c-0.3-0.1-0.6-0.2-1-0.2s-0.7,0.1-1,0.2s-0.5,0.3-0.7,0.5S15.1,8.7,15,9v0.1h-1.6
			V9c0.1-0.6,0.2-1.1,0.6-1.5c0.3-0.4,0.7-0.8,1.3-1C15.8,6.2,16.4,6,17.1,6s1.3,0.1,1.8,0.3c0.5,0.2,0.9,0.6,1.2,1s0.4,0.9,0.4,1.4
			l0,0c0,0.4-0.1,0.8-0.3,1.2c-0.2,0.3-0.5,0.6-0.8,0.8s-0.7,0.4-1.1,0.5l0,0c0.8,0.1,1.4,0.3,1.9,0.8s0.7,1,0.7,1.8l0,0
			c0,0.6-0.2,1.1-0.5,1.6s-0.8,0.8-1.4,1.1s-1.2,0.4-2,0.4S15.7,16.8,15.2,16.6z"/>
		<path class="st0" d="M27.5,14.7h-5.3v-1.4c0.3-0.5,0.6-0.9,0.9-1.4s0.6-0.9,0.9-1.4s0.6-0.9,0.9-1.4s0.6-0.9,0.9-1.4
			s0.6-0.9,0.9-1.4h2.4v7.1h1.5v1.4h-1.5v2.1h-1.6C27.5,16.9,27.5,14.7,27.5,14.7z M27.6,13.3V7.5l0,0c-0.2,0.4-0.5,0.8-0.7,1.2
			s-0.5,0.8-0.7,1.1c-0.2,0.4-0.5,0.8-0.7,1.2c-0.3,0.4-0.5,0.8-0.7,1.2s-0.5,0.8-0.7,1.2l0,0L27.6,13.3L27.6,13.3z"/>
	</g>
</g>
</svg>
