<?xml version="1.0" encoding="utf-8"?>
<!-- Generator: Adobe Illustrator 27.4.1, SVG Export Plug-In . SVG Version: 6.00 Build 0)  -->
<svg version="1.1" id="Layer_1" xmlns="http://www.w3.org/2000/svg" xmlns:xlink="http://www.w3.org/1999/xlink" x="0px" y="0px"
	 viewBox="0 0 460.2 935.3" style="enable-background:new 0 0 460.2 935.3;" xml:space="preserve">
<g>
	<g>
		<g>
			<path d="M332.9,43.7h-1.1c-0.5,0-0.8,0.4-0.8,0.8v2.2c0,0.5,0.4,0.8,0.8,0.8h1.1c0.5,0,0.8-0.4,0.8-0.8v-2.2
				C333.7,44.1,333.4,43.7,332.9,43.7z"/>
			<path d="M337.5,41.8h-1.1c-0.5,0-0.8,0.4-0.8,0.8v4.2c0,0.5,0.4,0.8,0.8,0.8h1.1c0.5,0,0.8-0.4,0.8-0.8v-4.2
				C338.3,42.1,338,41.8,337.5,41.8z"/>
			<path d="M342.1,39.8H341c-0.5,0-0.8,0.4-0.8,0.8v6.2c0,0.5,0.4,0.8,0.8,0.8h1.1c0.5,0,0.8-0.4,0.8-0.8v-6.2
				C343,40.2,342.6,39.8,342.1,39.8z"/>
			<path d="M346.8,37.8h-1.1c-0.5,0-0.8,0.4-0.8,0.8v8.2c0,0.5,0.4,0.8,0.8,0.8h1.1c0.5,0,0.8-0.4,0.8-0.8v-8.2
				C347.6,38.1,347.2,37.8,346.8,37.8z"/>
			<path d="M368,46.1c0.2-0.2,0.2-0.5-0.1-0.7c-0.5-0.3-1.1-0.7-1.7-0.7c-0.6,0-1.2,0.3-1.7,0.7c-0.2,0.2-0.3,0.5-0.1,0.7l1.5,1.8
				c0.2,0.2,0.5,0.2,0.6,0L368,46.1z"/>
			<path d="M362.5,44.6c-0.1,0-0.3,0-0.4-0.1c-0.3-0.2-0.3-0.6-0.1-0.9c1.1-1.4,2.7-2.2,4.3-2.2c1.6,0,3.1,0.7,4.2,2.1
				c0.2,0.3,0.2,0.7-0.1,0.9c-0.3,0.2-0.7,0.2-0.9-0.1c-0.9-1-2-1.6-3.2-1.6c-1.2,0-2.4,0.6-3.3,1.7
				C362.9,44.5,362.7,44.6,362.5,44.6z"/>
			<path d="M372.4,42.2c-0.2,0-0.4-0.1-0.5-0.2c-1.5-1.7-3.5-2.6-5.7-2.6c-2.1,0-4.2,0.9-5.7,2.6c-0.2,0.3-0.7,0.3-0.9,0
				c-0.3-0.2-0.3-0.7,0-0.9c1.8-2,4.1-3,6.7-3c2.5,0,4.9,1.1,6.7,3c0.2,0.3,0.2,0.7,0,0.9C372.7,42.1,372.6,42.2,372.4,42.2z"/>
			<rect x="385.8" y="39.5" width="11.8" height="7.6"/>
			<path d="M405.9,48.9h-19.5c-1.2,0-2.1-0.9-2.1-2.1v-7.2c0-1.2,0.9-2.1,2.1-2.1h19.5c1.2,0,2.1,0.9,2.1,2.1v7.2
				C408,48,407,48.9,405.9,48.9z M386.3,38.2c-0.8,0-1.5,0.7-1.5,1.5v7.2c0,0.8,0.7,1.5,1.5,1.5h19.5c0.8,0,1.5-0.7,1.5-1.5v-7.2
				c0-0.8-0.7-1.5-1.5-1.5H386.3z"/>
			<path d="M408.8,41.7c0-0.2,0.1-0.3,0.3-0.3c0.9,0.1,1.6,0.9,1.6,1.9c0,0.9-0.7,1.7-1.6,1.9c-0.2,0-0.3-0.1-0.3-0.3V41.7z"/>
		</g>
	</g>
	<g>
		<g>
			<path d="M72.8,49.5c-0.6-0.3-1.1-0.6-1.4-1.1s-0.5-1-0.5-1.6v0c0-0.4,0.1-0.9,0.3-1.2c0.2-0.4,0.5-0.7,0.8-0.9
				c0.4-0.3,0.8-0.4,1.2-0.5v0c-0.6-0.2-1.1-0.5-1.4-0.9c-0.4-0.4-0.5-0.9-0.5-1.5v0c0-0.5,0.2-1,0.5-1.4s0.7-0.8,1.3-1
				c0.5-0.2,1.2-0.4,1.9-0.4c0.7,0,1.3,0.1,1.9,0.4c0.5,0.2,1,0.6,1.3,1s0.5,0.9,0.5,1.4v0c0,0.6-0.2,1-0.5,1.5
				c-0.4,0.4-0.8,0.7-1.4,0.9v0c0.5,0.1,0.9,0.3,1.2,0.5c0.3,0.3,0.6,0.6,0.8,0.9c0.2,0.4,0.3,0.8,0.3,1.2v0c0,0.6-0.2,1.1-0.5,1.6
				c-0.3,0.5-0.8,0.8-1.4,1.1s-1.3,0.4-2.1,0.4C74.1,49.8,73.4,49.7,72.8,49.5z M76.1,48.3c0.3-0.2,0.6-0.4,0.8-0.6
				c0.2-0.3,0.3-0.6,0.3-0.9v0c0-0.4-0.1-0.7-0.3-1s-0.5-0.5-0.8-0.7s-0.7-0.2-1.2-0.2c-0.5,0-0.9,0.1-1.2,0.2s-0.6,0.4-0.8,0.7
				s-0.3,0.6-0.3,1v0c0,0.4,0.1,0.7,0.3,0.9c0.2,0.3,0.5,0.5,0.8,0.6s0.7,0.2,1.2,0.2S75.7,48.5,76.1,48.3z M75.9,43.3
				c0.3-0.1,0.5-0.3,0.7-0.6c0.2-0.2,0.3-0.5,0.3-0.8v0c0-0.3-0.1-0.6-0.3-0.8c-0.2-0.2-0.4-0.4-0.7-0.6c-0.3-0.1-0.6-0.2-1-0.2
				c-0.4,0-0.7,0.1-1,0.2c-0.3,0.1-0.5,0.3-0.7,0.6c-0.2,0.2-0.3,0.5-0.3,0.8v0c0,0.3,0.1,0.6,0.3,0.8c0.2,0.2,0.4,0.4,0.7,0.6
				c0.3,0.1,0.6,0.2,1,0.2C75.3,43.5,75.6,43.4,75.9,43.3z"/>
			<path d="M80.5,42.3c-0.2-0.2-0.3-0.4-0.3-0.7c0-0.3,0.1-0.5,0.3-0.7s0.4-0.3,0.7-0.3c0.3,0,0.5,0.1,0.7,0.3s0.3,0.4,0.3,0.7
				c0,0.3-0.1,0.5-0.3,0.7s-0.4,0.3-0.7,0.3C80.9,42.6,80.7,42.5,80.5,42.3z M80.5,47.8c-0.2-0.2-0.3-0.4-0.3-0.7
				c0-0.3,0.1-0.5,0.3-0.7s0.4-0.3,0.7-0.3c0.3,0,0.5,0.1,0.7,0.3s0.3,0.4,0.3,0.7c0,0.3-0.1,0.5-0.3,0.7s-0.4,0.3-0.7,0.3
				C80.9,48.1,80.7,48,80.5,47.8z"/>
			<path d="M85.4,49.5c-0.6-0.3-1-0.6-1.3-1c-0.3-0.4-0.5-1-0.6-1.5l0-0.1h1.6l0,0.1c0,0.3,0.1,0.6,0.3,0.8c0.2,0.2,0.5,0.4,0.8,0.6
				c0.3,0.1,0.7,0.2,1.2,0.2c0.4,0,0.8-0.1,1.1-0.2c0.3-0.1,0.6-0.4,0.8-0.6s0.3-0.6,0.3-0.9v0c0-0.6-0.2-1.1-0.6-1.4
				c-0.4-0.3-1-0.5-1.7-0.5H86v-1.3h1.2c0.4,0,0.8-0.1,1.1-0.2c0.3-0.1,0.5-0.3,0.7-0.6c0.2-0.3,0.3-0.5,0.3-0.9v0
				c0-0.3-0.1-0.6-0.2-0.9c-0.1-0.2-0.4-0.4-0.6-0.5c-0.3-0.1-0.6-0.2-1-0.2c-0.4,0-0.7,0.1-1,0.2s-0.5,0.3-0.7,0.5
				s-0.3,0.5-0.3,0.8l0,0.1h-1.6l0-0.1c0.1-0.6,0.2-1.1,0.6-1.5c0.3-0.4,0.7-0.8,1.3-1c0.5-0.2,1.1-0.4,1.8-0.4
				c0.7,0,1.3,0.1,1.8,0.3s0.9,0.6,1.2,1s0.4,0.9,0.4,1.4v0c0,0.4-0.1,0.8-0.3,1.2c-0.2,0.3-0.5,0.6-0.8,0.8
				c-0.3,0.2-0.7,0.4-1.1,0.5v0c0.8,0.1,1.4,0.3,1.9,0.8s0.7,1,0.7,1.8v0c0,0.6-0.2,1.1-0.5,1.6s-0.8,0.8-1.4,1.1s-1.2,0.4-2,0.4
				S85.9,49.7,85.4,49.5z"/>
			<path d="M97.8,47.6h-5.3v-1.4c0.3-0.5,0.6-0.9,0.9-1.4c0.3-0.5,0.6-0.9,0.9-1.4c0.3-0.5,0.6-0.9,0.9-1.4s0.6-0.9,0.9-1.4
				c0.3-0.5,0.6-0.9,0.9-1.4h2.4v7.1h1.5v1.4h-1.5v2.1h-1.6V47.6z M97.8,46.2v-5.8h0c-0.2,0.4-0.5,0.8-0.7,1.2s-0.5,0.8-0.7,1.1
				c-0.2,0.4-0.5,0.8-0.7,1.2c-0.3,0.4-0.5,0.8-0.7,1.2c-0.2,0.4-0.5,0.8-0.7,1.2v0H97.8z"/>
		</g>
	</g>
</g>
</svg>
