<?xml version="1.0" encoding="utf-8"?>
<!-- Generator: Adobe Illustrator 27.4.1, SVG Export Plug-In . SVG Version: 6.00 Build 0)  -->
<svg version="1.1" id="Layer_1" xmlns="http://www.w3.org/2000/svg" xmlns:xlink="http://www.w3.org/1999/xlink" x="0px" y="0px"
	 viewBox="0 0 339.9 12.3" style="enable-background:new 0 0 339.9 12.3;" xml:space="preserve">
<style type="text/css">
	.st0{fill:#F9F9F9;}
</style>
<g>
	<g>
		<path class="st0" d="M262.1,6.1H261c-0.5,0-0.8,0.4-0.8,0.8v2.2c0,0.5,0.4,0.8,0.8,0.8h1.1c0.5,0,0.8-0.4,0.8-0.8V6.9
			C262.9,6.5,262.5,6.1,262.1,6.1z"/>
		<path class="st0" d="M266.7,4.2h-1.1c-0.5,0-0.8,0.4-0.8,0.8v4.2c0,0.5,0.4,0.8,0.8,0.8h1.1c0.5,0,0.8-0.4,0.8-0.8V5
			C267.5,4.5,267.1,4.2,266.7,4.2z"/>
		<path class="st0" d="M271.3,2.2h-1.1c-0.5,0-0.8,0.4-0.8,0.8v6.2c0,0.5,0.4,0.8,0.8,0.8h1.1c0.5,0,0.8-0.4,0.8-0.8V3
			C272.1,2.6,271.8,2.2,271.3,2.2z"/>
		<path class="st0" d="M275.9,0.2h-1.1c-0.5,0-0.8,0.4-0.8,0.8v8.2c0,0.5,0.4,0.8,0.8,0.8h1.1c0.5,0,0.8-0.4,0.8-0.8V1
			C276.7,0.5,276.4,0.2,275.9,0.2z"/>
		<path class="st0" d="M297.2,8.5c0.2-0.2,0.2-0.5-0.1-0.7c-0.5-0.3-1.1-0.7-1.7-0.7s-1.2,0.3-1.7,0.7c-0.2,0.2-0.3,0.5-0.1,0.7
			l1.5,1.8c0.2,0.2,0.5,0.2,0.6,0L297.2,8.5z"/>
		<path class="st0" d="M291.6,7c-0.1,0-0.3,0-0.4-0.1c-0.3-0.2-0.3-0.6-0.1-0.9c1.1-1.4,2.7-2.2,4.3-2.2c1.6,0,3.1,0.7,4.2,2.1
			c0.2,0.3,0.2,0.7-0.1,0.9c-0.3,0.2-0.7,0.2-0.9-0.1c-0.9-1-2-1.6-3.2-1.6s-2.4,0.6-3.3,1.7C292,6.9,291.8,7,291.6,7z"/>
		<path class="st0" d="M301.6,4.6c-0.2,0-0.4-0.1-0.5-0.2c-1.5-1.7-3.5-2.6-5.7-2.6c-2.1,0-4.2,0.9-5.7,2.6c-0.2,0.3-0.7,0.3-0.9,0
			c-0.3-0.2-0.3-0.7,0-0.9c1.8-2,4.1-3,6.7-3c2.5,0,4.9,1.1,6.7,3c0.2,0.3,0.2,0.7,0,0.9C301.9,4.5,301.7,4.6,301.6,4.6z"/>
		<rect x="315" y="1.9" class="st0" width="11.8" height="7.6"/>
		<path class="st0" d="M335,11.4h-19.5c-1.2,0-2.1-0.9-2.1-2.1V2.1c0-1.2,0.9-2.1,2.1-2.1H335c1.2,0,2.1,0.9,2.1,2.1v7.2
			C337.1,10.4,336.2,11.4,335,11.4z M315.5,0.6c-0.8,0-1.5,0.7-1.5,1.5v7.2c0,0.8,0.7,1.5,1.5,1.5H335c0.8,0,1.5-0.7,1.5-1.5V2.1
			c0-0.8-0.7-1.5-1.5-1.5H315.5z"/>
		<path class="st0" d="M338,4.1c0-0.2,0.1-0.3,0.3-0.3c0.9,0.1,1.6,0.9,1.6,1.9s-0.7,1.7-1.6,1.9c-0.2,0-0.3-0.1-0.3-0.3V4.1z"/>
	</g>
</g>
<g>
	<g>
		<path class="st0" d="M2,11.9c-0.6-0.3-1.1-0.6-1.5-1.1C0.2,10.3,0,9.8,0,9.2l0,0C0,8.8,0.1,8.3,0.3,8c0.2-0.4,0.5-0.7,0.8-0.9
			c0.4-0.3,0.8-0.4,1.2-0.5l0,0C1.7,6.4,1.2,6.1,0.9,5.7c-0.3-0.5-0.5-1-0.5-1.6l0,0c0-0.5,0.2-1,0.5-1.4s0.7-0.8,1.3-1
			C2.7,1.5,3.3,1.3,4,1.3s1.4,0.2,1.9,0.4c0.5,0.2,1,0.6,1.3,1s0.5,0.9,0.5,1.4l0,0c0,0.6-0.2,1-0.5,1.5C6.8,6,6.4,6.3,5.8,6.5l0,0
			C6.3,6.6,6.7,6.8,7,7c0.3,0.3,0.6,0.6,0.8,0.9C8,8.3,8.1,8.7,8.1,9.1l0,0c0,0.6-0.2,1.1-0.5,1.6s-0.8,0.8-1.4,1.1S4.8,12.3,4,12.3
			C3.3,12.3,2.6,12.1,2,11.9z M5.2,10.7c0.3-0.2,0.6-0.4,0.8-0.6c0.2-0.3,0.3-0.6,0.3-0.9l0,0c0-0.4-0.1-0.7-0.3-1
			C5.8,7.9,5.5,7.7,5.2,7.5S4.5,7.3,4,7.3S3.1,7.4,2.8,7.5C2.5,7.7,2.2,7.9,2,8.2c-0.2,0.3-0.3,0.6-0.3,1l0,0c0,0.4,0.1,0.7,0.3,0.9
			c0.2,0.3,0.5,0.5,0.8,0.6c0.3,0.1,0.7,0.2,1.2,0.2S4.9,10.9,5.2,10.7z M5.1,5.7c0.3-0.1,0.5-0.3,0.7-0.6C5.9,4.9,6,4.6,6,4.3l0,0
			C6,4,5.9,3.7,5.7,3.5C5.6,3.2,5.4,3,5.1,2.9C4.8,2.7,4.4,2.6,4,2.6S3.3,2.7,3,2.8C2.7,3,2.5,3.2,2.3,3.4C2.1,3.7,2.1,4,2.1,4.3
			l0,0c0,0.3,0.1,0.6,0.3,0.8c0.2,0.2,0.4,0.4,0.7,0.6c0.3,0.1,0.6,0.2,1,0.2C4.4,5.9,4.8,5.9,5.1,5.7z"/>
		<path class="st0" d="M9.7,4.7C9.5,4.5,9.4,4.3,9.4,4s0.1-0.5,0.3-0.7S10.1,3,10.4,3s0.5,0.1,0.7,0.3c0.2,0.2,0.3,0.4,0.3,0.7
			s-0.1,0.5-0.3,0.7S10.7,5,10.4,5S9.8,4.9,9.7,4.7z M9.7,10.2C9.5,10,9.4,9.8,9.4,9.5c0-0.3,0.1-0.5,0.3-0.7
			c0.2-0.2,0.4-0.3,0.7-0.3s0.5,0.1,0.7,0.3c0.2,0.2,0.3,0.4,0.3,0.7c0,0.3-0.1,0.5-0.3,0.7c-0.2,0.2-0.4,0.3-0.7,0.3
			S9.8,10.4,9.7,10.2z"/>
		<path class="st0" d="M14.6,11.9c-0.6-0.3-1-0.6-1.3-1s-0.5-1-0.6-1.5V9.3h1.6v0.1c0,0.3,0.1,0.6,0.3,0.8c0.2,0.2,0.5,0.4,0.8,0.6
			c0.3,0.1,0.7,0.2,1.2,0.2c0.4,0,0.8-0.1,1.1-0.2c0.3-0.1,0.6-0.4,0.8-0.6s0.3-0.6,0.3-0.9l0,0c0-0.6-0.2-1.1-0.6-1.4
			c-0.4-0.3-1-0.5-1.7-0.5h-1.3V6.1h1.2c0.4,0,0.8-0.1,1.1-0.2c0.3-0.1,0.5-0.3,0.7-0.6c0.1-0.4,0.2-0.7,0.2-1l0,0
			c0-0.3-0.1-0.6-0.2-0.9c-0.1-0.2-0.4-0.4-0.6-0.5c-0.3-0.1-0.6-0.2-1-0.2s-0.7,0.1-1,0.2s-0.5,0.3-0.7,0.5S14.5,4,14.4,4.3v0.1
			h-1.6V4.3c0.1-0.6,0.2-1.1,0.6-1.5c0.3-0.4,0.7-0.8,1.3-1c0.5-0.3,1.1-0.5,1.8-0.5s1.3,0.1,1.8,0.3c0.5,0.2,0.9,0.6,1.2,1
			s0.4,0.9,0.4,1.4l0,0c0,0.4-0.1,0.8-0.3,1.2c-0.2,0.3-0.5,0.6-0.8,0.8s-0.7,0.4-1.1,0.5l0,0c0.8,0.1,1.4,0.3,1.9,0.8
			s0.7,1,0.7,1.8l0,0c0,0.6-0.2,1.1-0.5,1.6s-0.8,0.8-1.4,1.1s-1.2,0.4-2,0.4S15.1,12.1,14.6,11.9z"/>
		<path class="st0" d="M26.9,10h-5.3V8.6c0.3-0.5,0.6-0.9,0.9-1.4s0.6-0.9,0.9-1.4s0.6-0.9,0.9-1.4s0.6-0.9,0.9-1.4s0.6-0.9,0.9-1.4
			h2.4v7.1H30v1.4h-1.5v2.1h-1.6C26.9,12.2,26.9,10,26.9,10z M27,8.6V2.8l0,0c-0.2,0.4-0.5,0.8-0.7,1.2s-0.5,0.8-0.7,1.1
			c-0.2,0.4-0.5,0.8-0.7,1.2c-0.3,0.4-0.5,0.8-0.7,1.2s-0.5,0.8-0.7,1.2l0,0L27,8.6L27,8.6z"/>
	</g>
</g>
</svg>
