<?xml version="1.0" encoding="utf-8"?>
<!-- Generator: Adobe Illustrator 27.4.1, SVG Export Plug-In . SVG Version: 6.00 Build 0)  -->
<svg version="1.1" id="Layer_1" xmlns="http://www.w3.org/2000/svg" xmlns:xlink="http://www.w3.org/1999/xlink" x="0px" y="0px"
	 viewBox="0 0 338.7 21.2" style="enable-background:new 0 0 338.7 21.2;" xml:space="preserve">
<style type="text/css">
	.st0{fill:#FFFFFF;}
</style>
<path class="st0" d="M263.7,10.8h-1.1c-0.5,0-0.8,0.4-0.8,0.8v2.2c0,0.5,0.4,0.8,0.8,0.8h1.1c0.5,0,0.8-0.4,0.8-0.8v-2.2
	C264.5,11.2,264.1,10.8,263.7,10.8z"/>
<path class="st0" d="M268.3,8.9h-1.1c-0.5,0-0.8,0.4-0.8,0.8v4.2c0,0.5,0.4,0.8,0.8,0.8h1.1c0.5,0,0.8-0.4,0.8-0.8V9.7
	C269.1,9.2,268.7,8.9,268.3,8.9z"/>
<path class="st0" d="M272.9,6.9h-1.1c-0.5,0-0.8,0.4-0.8,0.8v6.2c0,0.5,0.4,0.8,0.8,0.8h1.1c0.5,0,0.8-0.4,0.8-0.8V7.7
	C273.7,7.3,273.4,6.9,272.9,6.9z"/>
<path class="st0" d="M277.5,4.9h-1.1c-0.5,0-0.8,0.4-0.8,0.8v8.2c0,0.5,0.4,0.8,0.8,0.8h1.1c0.5,0,0.8-0.4,0.8-0.8V5.7
	C278.3,5.2,278,4.9,277.5,4.9z"/>
<path class="st0" d="M298.8,13.2c0.2-0.2,0.2-0.5-0.1-0.7c-0.5-0.3-1.1-0.7-1.7-0.7c-0.6,0-1.2,0.3-1.7,0.7
	c-0.2,0.2-0.3,0.5-0.1,0.7l1.5,1.8c0.2,0.2,0.5,0.2,0.6,0L298.8,13.2z"/>
<path class="st0" d="M293.2,11.7c-0.1,0-0.3,0-0.4-0.1c-0.3-0.2-0.3-0.6-0.1-0.9c1.1-1.4,2.7-2.2,4.3-2.2c1.6,0,3.1,0.7,4.2,2.1
	c0.2,0.3,0.2,0.7-0.1,0.9c-0.3,0.2-0.7,0.2-0.9-0.1c-0.9-1-2-1.6-3.2-1.6c-1.2,0-2.4,0.6-3.3,1.7C293.6,11.6,293.4,11.7,293.2,11.7z
	"/>
<path class="st0" d="M303.2,9.3c-0.2,0-0.4-0.1-0.5-0.2c-1.5-1.7-3.5-2.6-5.7-2.6c-2.1,0-4.2,0.9-5.7,2.6c-0.2,0.3-0.7,0.3-0.9,0
	c-0.3-0.2-0.3-0.7,0-0.9c1.8-2,4.1-3,6.7-3s4.9,1.1,6.7,3c0.2,0.3,0.2,0.7,0,0.9C303.5,9.2,303.3,9.3,303.2,9.3z"/>
<rect x="316.6" y="6.6" class="st0" width="11.8" height="7.6"/>
<path class="st0" d="M336.6,16.1h-19.5c-1.2,0-2.1-0.9-2.1-2.1V6.8c0-1.2,0.9-2.1,2.1-2.1h19.5c1.2,0,2.1,0.9,2.1,2.1V14
	C338.7,15.1,337.8,16.1,336.6,16.1z M317.1,5.3c-0.8,0-1.5,0.7-1.5,1.5V14c0,0.8,0.7,1.5,1.5,1.5h19.5c0.8,0,1.5-0.7,1.5-1.5V6.8
	c0-0.8-0.7-1.5-1.5-1.5H317.1z"/>
<g>
	<g>
		<path class="st0" d="M2.6,15.6C2,15.3,1.5,15,1.1,14.5c-0.3-0.5-0.5-1-0.5-1.6v0c0-0.4,0.1-0.9,0.3-1.2c0.2-0.4,0.5-0.7,0.8-0.9
			c0.4-0.3,0.8-0.4,1.2-0.5v0C2.4,10,1.9,9.7,1.6,9.3C1.2,8.9,1,8.4,1,7.8v0c0-0.5,0.2-1,0.5-1.4s0.7-0.8,1.3-1C3.3,5.2,3.9,5,4.6,5
			C5.3,5,6,5.2,6.5,5.4c0.5,0.2,1,0.6,1.3,1s0.5,0.9,0.5,1.4v0c0,0.6-0.2,1-0.5,1.5C7.4,9.7,6.9,10,6.3,10.2v0
			c0.5,0.1,0.9,0.3,1.2,0.5c0.3,0.3,0.6,0.6,0.8,0.9c0.2,0.4,0.3,0.8,0.3,1.2v0c0,0.6-0.2,1.1-0.5,1.6c-0.3,0.5-0.8,0.8-1.4,1.1
			S5.4,16,4.6,16C3.9,16,3.2,15.8,2.6,15.6z M5.8,14.4c0.3-0.2,0.6-0.4,0.8-0.6c0.2-0.3,0.3-0.6,0.3-0.9v0c0-0.4-0.1-0.7-0.3-1
			s-0.5-0.5-0.8-0.7C5.5,11,5.1,11,4.6,11c-0.5,0-0.9,0.1-1.2,0.2c-0.3,0.2-0.6,0.4-0.8,0.7s-0.3,0.6-0.3,1v0c0,0.4,0.1,0.7,0.3,0.9
			c0.2,0.3,0.5,0.5,0.8,0.6s0.7,0.2,1.2,0.2S5.5,14.6,5.8,14.4z M5.7,9.4C6,9.3,6.2,9.1,6.4,8.8C6.5,8.6,6.6,8.3,6.6,8v0
			c0-0.3-0.1-0.6-0.3-0.8C6.2,6.9,6,6.7,5.7,6.6C5.4,6.4,5,6.3,4.6,6.3c-0.4,0-0.7,0.1-1,0.2C3.3,6.7,3.1,6.9,2.9,7.1
			C2.7,7.4,2.7,7.7,2.7,8v0c0,0.3,0.1,0.6,0.3,0.8c0.2,0.2,0.4,0.4,0.7,0.6c0.3,0.1,0.6,0.2,1,0.2C5,9.6,5.4,9.6,5.7,9.4z"/>
		<path class="st0" d="M10.3,8.4C10.1,8.2,10,8,10,7.7c0-0.3,0.1-0.5,0.3-0.7s0.4-0.3,0.7-0.3c0.3,0,0.5,0.1,0.7,0.3
			s0.3,0.4,0.3,0.7c0,0.3-0.1,0.5-0.3,0.7s-0.4,0.3-0.7,0.3C10.7,8.7,10.4,8.6,10.3,8.4z M10.3,13.9c-0.2-0.2-0.3-0.4-0.3-0.7
			c0-0.3,0.1-0.5,0.3-0.7s0.4-0.3,0.7-0.3c0.3,0,0.5,0.1,0.7,0.3s0.3,0.4,0.3,0.7c0,0.3-0.1,0.5-0.3,0.7s-0.4,0.3-0.7,0.3
			C10.7,14.2,10.4,14.1,10.3,13.9z"/>
		<path class="st0" d="M15.2,15.6c-0.6-0.3-1-0.6-1.3-1c-0.3-0.4-0.5-1-0.6-1.5l0-0.1h1.6l0,0.1c0,0.3,0.1,0.6,0.3,0.8
			c0.2,0.2,0.5,0.4,0.8,0.6c0.3,0.1,0.7,0.2,1.2,0.2c0.4,0,0.8-0.1,1.1-0.2c0.3-0.1,0.6-0.4,0.8-0.6s0.3-0.6,0.3-0.9v0
			c0-0.6-0.2-1.1-0.6-1.4c-0.4-0.3-1-0.5-1.7-0.5h-1.3V9.7H17c0.4,0,0.8-0.1,1.1-0.2c0.3-0.1,0.5-0.3,0.7-0.6C18.9,8.6,19,8.3,19,8
			v0c0-0.3-0.1-0.6-0.2-0.9c-0.1-0.2-0.4-0.4-0.6-0.5c-0.3-0.1-0.6-0.2-1-0.2c-0.4,0-0.7,0.1-1,0.2s-0.5,0.3-0.7,0.5S15.1,7.7,15,8
			l0,0.1h-1.6l0-0.1c0.1-0.6,0.2-1.1,0.6-1.5c0.3-0.4,0.7-0.8,1.3-1C15.8,5.2,16.4,5,17.1,5c0.7,0,1.3,0.1,1.8,0.3
			c0.5,0.2,0.9,0.6,1.2,1s0.4,0.9,0.4,1.4v0c0,0.4-0.1,0.8-0.3,1.2c-0.2,0.3-0.5,0.6-0.8,0.8c-0.3,0.2-0.7,0.4-1.1,0.5v0
			c0.8,0.1,1.4,0.3,1.9,0.8s0.7,1,0.7,1.8v0c0,0.6-0.2,1.1-0.5,1.6s-0.8,0.8-1.4,1.1s-1.2,0.4-2,0.4S15.7,15.8,15.2,15.6z"/>
		<path class="st0" d="M27.5,13.7h-5.3v-1.4c0.3-0.5,0.6-0.9,0.9-1.4c0.3-0.5,0.6-0.9,0.9-1.4C24.3,9,24.6,8.5,24.9,8
			s0.6-0.9,0.9-1.4c0.3-0.5,0.6-0.9,0.9-1.4h2.4v7.1h1.5v1.4h-1.5v2.1h-1.6V13.7z M27.6,12.3V6.5h0c-0.2,0.4-0.5,0.8-0.7,1.2
			c-0.2,0.4-0.5,0.8-0.7,1.1c-0.2,0.4-0.5,0.8-0.7,1.2c-0.3,0.4-0.5,0.8-0.7,1.2c-0.2,0.4-0.5,0.8-0.7,1.2v0H27.6z"/>
	</g>
</g>
</svg>
