<?xml version="1.0" encoding="utf-8"?>
<!-- Generator: Adobe Illustrator 27.4.1, SVG Export Plug-In . SVG Version: 6.00 Build 0)  -->
<svg version="1.1" id="Layer_1" xmlns="http://www.w3.org/2000/svg" xmlns:xlink="http://www.w3.org/1999/xlink" x="0px" y="0px"
	 viewBox="0 0 460.2 935.3" style="enable-background:new 0 0 460.2 935.3;" xml:space="preserve">
<style type="text/css">
	.st0{fill:#FFFFFF;}
</style>
<g>
	<g>
		<path class="st0" d="M333.9,43.7h-1.1c-0.5,0-0.8,0.4-0.8,0.8v2.2c0,0.5,0.4,0.8,0.8,0.8h1.1c0.5,0,0.8-0.4,0.8-0.8v-2.2
			C334.7,44.1,334.4,43.7,333.9,43.7z"/>
		<path class="st0" d="M338.5,41.8h-1.1c-0.5,0-0.8,0.4-0.8,0.8v4.2c0,0.5,0.4,0.8,0.8,0.8h1.1c0.5,0,0.8-0.4,0.8-0.8v-4.2
			C339.3,42.1,339,41.8,338.5,41.8z"/>
		<path class="st0" d="M343.1,39.8H342c-0.5,0-0.8,0.4-0.8,0.8v6.2c0,0.5,0.4,0.8,0.8,0.8h1.1c0.5,0,0.8-0.4,0.8-0.8v-6.2
			C344,40.2,343.6,39.8,343.1,39.8z"/>
		<path class="st0" d="M347.8,37.8h-1.1c-0.5,0-0.8,0.4-0.8,0.8v8.2c0,0.5,0.4,0.8,0.8,0.8h1.1c0.5,0,0.8-0.4,0.8-0.8v-8.2
			C348.6,38.1,348.2,37.8,347.8,37.8z"/>
		<path class="st0" d="M369,46.1c0.2-0.2,0.2-0.5-0.1-0.7c-0.5-0.3-1.1-0.7-1.7-0.7c-0.6,0-1.2,0.3-1.7,0.7
			c-0.2,0.2-0.3,0.5-0.1,0.7l1.5,1.8c0.2,0.2,0.5,0.2,0.6,0L369,46.1z"/>
		<path class="st0" d="M363.5,44.6c-0.1,0-0.3,0-0.4-0.1c-0.3-0.2-0.3-0.6-0.1-0.9c1.1-1.4,2.7-2.2,4.3-2.2c1.6,0,3.1,0.7,4.2,2.1
			c0.2,0.3,0.2,0.7-0.1,0.9c-0.3,0.2-0.7,0.2-0.9-0.1c-0.9-1-2-1.6-3.2-1.6c-1.2,0-2.4,0.6-3.3,1.7
			C363.9,44.5,363.7,44.6,363.5,44.6z"/>
		<path class="st0" d="M373.4,42.2c-0.2,0-0.4-0.1-0.5-0.2c-1.5-1.7-3.5-2.6-5.7-2.6c-2.1,0-4.2,0.9-5.7,2.6c-0.2,0.3-0.7,0.3-0.9,0
			c-0.3-0.2-0.3-0.7,0-0.9c1.8-2,4.1-3,6.7-3s4.9,1.1,6.7,3c0.2,0.3,0.2,0.7,0,0.9C373.7,42.1,373.6,42.2,373.4,42.2z"/>
		<rect x="386.8" y="39.5" class="st0" width="11.8" height="7.6"/>
		<path class="st0" d="M406.9,48.9h-19.5c-1.2,0-2.1-0.9-2.1-2.1v-7.2c0-1.2,0.9-2.1,2.1-2.1h19.5c1.2,0,2.1,0.9,2.1,2.1v7.2
			C409,48,408,48.9,406.9,48.9z M387.3,38.2c-0.8,0-1.5,0.7-1.5,1.5v7.2c0,0.8,0.7,1.5,1.5,1.5h19.5c0.8,0,1.5-0.7,1.5-1.5v-7.2
			c0-0.8-0.7-1.5-1.5-1.5H387.3z"/>
		<path class="st0" d="M409.8,41.7c0-0.2,0.1-0.3,0.3-0.3c0.9,0.1,1.6,0.9,1.6,1.9c0,0.9-0.7,1.7-1.6,1.9c-0.2,0-0.3-0.1-0.3-0.3
			V41.7z"/>
	</g>
	<g>
		<g>
			<path class="st0" d="M72.8,48.5c-0.6-0.3-1.1-0.6-1.4-1.1s-0.5-1-0.5-1.6v0c0-0.4,0.1-0.9,0.3-1.2c0.2-0.4,0.5-0.7,0.8-0.9
				c0.4-0.3,0.8-0.4,1.2-0.5v0c-0.6-0.2-1.1-0.5-1.4-0.9c-0.4-0.4-0.5-0.9-0.5-1.5v0c0-0.5,0.2-1,0.5-1.4s0.7-0.8,1.3-1
				c0.5-0.2,1.2-0.4,1.9-0.4c0.7,0,1.3,0.1,1.9,0.4c0.5,0.2,1,0.6,1.3,1s0.5,0.9,0.5,1.4v0c0,0.6-0.2,1-0.5,1.5
				c-0.4,0.4-0.8,0.7-1.4,0.9v0c0.5,0.1,0.9,0.3,1.2,0.5c0.3,0.3,0.6,0.6,0.8,0.9c0.2,0.4,0.3,0.8,0.3,1.2v0c0,0.6-0.2,1.1-0.5,1.6
				c-0.3,0.5-0.8,0.8-1.4,1.1s-1.3,0.4-2.1,0.4C74.1,48.8,73.4,48.7,72.8,48.5z M76.1,47.3c0.3-0.2,0.6-0.4,0.8-0.6
				c0.2-0.3,0.3-0.6,0.3-0.9v0c0-0.4-0.1-0.7-0.3-1s-0.5-0.5-0.8-0.7s-0.7-0.2-1.2-0.2c-0.5,0-0.9,0.1-1.2,0.2s-0.6,0.4-0.8,0.7
				s-0.3,0.6-0.3,1v0c0,0.4,0.1,0.7,0.3,0.9c0.2,0.3,0.5,0.5,0.8,0.6s0.7,0.2,1.2,0.2S75.7,47.5,76.1,47.3z M75.9,42.3
				c0.3-0.1,0.5-0.3,0.7-0.6c0.2-0.2,0.3-0.5,0.3-0.8v0c0-0.3-0.1-0.6-0.3-0.8c-0.2-0.2-0.4-0.4-0.7-0.6c-0.3-0.1-0.6-0.2-1-0.2
				c-0.4,0-0.7,0.1-1,0.2c-0.3,0.1-0.5,0.3-0.7,0.6c-0.2,0.2-0.3,0.5-0.3,0.8v0c0,0.3,0.1,0.6,0.3,0.8c0.2,0.2,0.4,0.4,0.7,0.6
				c0.3,0.1,0.6,0.2,1,0.2C75.3,42.5,75.6,42.4,75.9,42.3z"/>
			<path class="st0" d="M80.5,41.3c-0.2-0.2-0.3-0.4-0.3-0.7c0-0.3,0.1-0.5,0.3-0.7s0.4-0.3,0.7-0.3c0.3,0,0.5,0.1,0.7,0.3
				s0.3,0.4,0.3,0.7c0,0.3-0.1,0.5-0.3,0.7s-0.4,0.3-0.7,0.3C80.9,41.6,80.7,41.5,80.5,41.3z M80.5,46.8c-0.2-0.2-0.3-0.4-0.3-0.7
				c0-0.3,0.1-0.5,0.3-0.7s0.4-0.3,0.7-0.3c0.3,0,0.5,0.1,0.7,0.3s0.3,0.4,0.3,0.7c0,0.3-0.1,0.5-0.3,0.7s-0.4,0.3-0.7,0.3
				C80.9,47.1,80.7,47,80.5,46.8z"/>
			<path class="st0" d="M85.4,48.5c-0.6-0.3-1-0.6-1.3-1c-0.3-0.4-0.5-1-0.6-1.5l0-0.1h1.6l0,0.1c0,0.3,0.1,0.6,0.3,0.8
				c0.2,0.2,0.5,0.4,0.8,0.6c0.3,0.1,0.7,0.2,1.2,0.2c0.4,0,0.8-0.1,1.1-0.2c0.3-0.1,0.6-0.4,0.8-0.6s0.3-0.6,0.3-0.9v0
				c0-0.6-0.2-1.1-0.6-1.4c-0.4-0.3-1-0.5-1.7-0.5H86v-1.3h1.2c0.4,0,0.8-0.1,1.1-0.2c0.3-0.1,0.5-0.3,0.7-0.6
				c0.2-0.3,0.3-0.5,0.3-0.9v0c0-0.3-0.1-0.6-0.2-0.9c-0.1-0.2-0.4-0.4-0.6-0.5c-0.3-0.1-0.6-0.2-1-0.2c-0.4,0-0.7,0.1-1,0.2
				s-0.5,0.3-0.7,0.5s-0.3,0.5-0.3,0.8l0,0.1h-1.6l0-0.1c0.1-0.6,0.2-1.1,0.6-1.5c0.3-0.4,0.7-0.8,1.3-1c0.5-0.2,1.1-0.4,1.8-0.4
				c0.7,0,1.3,0.1,1.8,0.3s0.9,0.6,1.2,1s0.4,0.9,0.4,1.4v0c0,0.4-0.1,0.8-0.3,1.2c-0.2,0.3-0.5,0.6-0.8,0.8
				c-0.3,0.2-0.7,0.4-1.1,0.5v0c0.8,0.1,1.4,0.3,1.9,0.8s0.7,1,0.7,1.8v0c0,0.6-0.2,1.1-0.5,1.6s-0.8,0.8-1.4,1.1s-1.2,0.4-2,0.4
				S85.9,48.7,85.4,48.5z"/>
			<path class="st0" d="M97.8,46.6h-5.3v-1.4c0.3-0.5,0.6-0.9,0.9-1.4c0.3-0.5,0.6-0.9,0.9-1.4c0.3-0.5,0.6-0.9,0.9-1.4
				s0.6-0.9,0.9-1.4c0.3-0.5,0.6-0.9,0.9-1.4h2.4v7.1h1.5v1.4h-1.5v2.1h-1.6V46.6z M97.8,45.2v-5.8h0c-0.2,0.4-0.5,0.8-0.7,1.2
				s-0.5,0.8-0.7,1.1c-0.2,0.4-0.5,0.8-0.7,1.2c-0.3,0.4-0.5,0.8-0.7,1.2c-0.2,0.4-0.5,0.8-0.7,1.2v0H97.8z"/>
		</g>
	</g>
</g>
</svg>
