<?xml version="1.0" encoding="utf-8"?>
<!-- Generator: Adobe Illustrator 27.4.1, SVG Export Plug-In . SVG Version: 6.00 Build 0)  -->
<svg version="1.1" id="Layer_1" xmlns="http://www.w3.org/2000/svg" xmlns:xlink="http://www.w3.org/1999/xlink" x="0px" y="0px"
	 viewBox="0 0 144 144" style="enable-background:new 0 0 144 144;" xml:space="preserve">
<style type="text/css">
	.st0{fill:#D8D8D8;}
</style>
<path class="st0" d="M71.6,2.7C33.2,2.7,2.1,33.8,2.1,72.2c0,38.4,31.1,69.5,69.5,69.5c38.4,0,69.5-31.1,69.5-69.5
	C141.1,33.8,110,2.7,71.6,2.7z M110,44.4l-42.7,62.4c-1,1.5-2.6,2.4-4.4,2.6c-0.2,0-0.4,0-0.6,0c-1.6,0-3.1-0.6-4.2-1.8L33.9,83.4
	c-2.3-2.3-2.3-6.1,0-8.4c2.3-2.3,6.1-2.3,8.4,0l19.2,19.2l38.6-56.5c1.9-2.7,5.6-3.4,8.3-1.6C111.2,37.9,111.9,41.7,110,44.4z"/>
</svg>
