<?xml version="1.0" encoding="utf-8"?>
<!-- Generator: Adobe Illustrator 27.4.1, SVG Export Plug-In . SVG Version: 6.00 Build 0)  -->
<svg version="1.1" id="Layer_1" xmlns="http://www.w3.org/2000/svg" xmlns:xlink="http://www.w3.org/1999/xlink" x="0px" y="0px"
	 viewBox="0 0 88 88" style="enable-background:new 0 0 88 88;" xml:space="preserve">
<style type="text/css">
	.st683{fill:none;stroke:#C6C6C6;stroke-width:5.1641;stroke-miterlimit:10;}
	.st98{fill:#C6C6C6;}
	.st714{fill:none;stroke:#C6C6C6;stroke-width:4.5926;stroke-linecap:round;stroke-miterlimit:10;}
</style>
<g>
	<path class="st683" d="M71.9,38.9C71.2,24.1,59,12.1,44.2,12.1c-15.1,0-27.2,12-27.9,26.8c-6,3.5-10,9.7-10,17.3
		C6.3,67,15.2,75.9,26,75.9c1.6,0,3.1-0.2,4.7-0.7C33.3,79.9,38.2,83,44,83s10.9-3.3,13.3-8c1.8,0.4,3.3,0.9,5.3,0.9
		c10.9,0,19.7-8.9,19.7-19.7C82.3,48.6,78.1,42.2,71.9,38.9z"/>
	<ellipse class="st98" cx="26.7" cy="46.4" rx="3.5" ry="5.3"/>
	<ellipse class="st98" cx="60.6" cy="46.4" rx="3.5" ry="5.3"/>
	<line class="st683" x1="43.3" y1="61.7" x2="43.3" y2="74.1"/>
	<path class="st714" d="M50.6,70.3c-1.1,2-4,3.3-7.3,3.3s-6-1.3-7.3-3.3"/>
	<path class="st98" d="M41.8,65.2L36,59.5c-0.7-1.1,0-2.2,1.6-2.2h11.7c1.6,0,2.2,1.1,1.6,2.2l-5.8,5.8
		C44.4,66.1,42.4,66.1,41.8,65.2z"/>
	<path class="st683" d="M16.5,38.7c-3.3-1.6-6.4-4.2-8.4-7.8c-4.9-8.6-2-19.3,6-23.7s18.6-1.3,23.5,7.3"/>
	<path class="st683" d="M49.7,13.4c4.9-7.5,14.4-10.6,22.1-6.6C80.3,11,83.4,21.4,79,30.3c-1.8,3.5-4.4,6.2-7.5,8"/>
</g>
</svg>
