<?xml version="1.0" encoding="utf-8"?>
<!-- Generator: Adobe Illustrator 27.4.1, SVG Export Plug-In . SVG Version: 6.00 Build 0)  -->
<svg version="1.1" id="Layer_1" xmlns="http://www.w3.org/2000/svg" xmlns:xlink="http://www.w3.org/1999/xlink" x="0px" y="0px"
	 viewBox="0 0 23.5 13.4" style="enable-background:new 0 0 23.5 13.4;" xml:space="preserve">
<style type="text/css">
	.st0{fill:#242424;}
</style>
<g>
	<g>
		<path class="st0" d="M12.7,11.2h9.2c0.3,0,0.6-0.4,0.6-0.9V1.4c0-0.5-0.3-0.9-0.6-0.9h-7.1c-0.3,0-0.6,0.2-0.7,0.5l-2,4.4
			c-0.1,0.2,0.1,0.4,0.3,0.4h0.9c0.3,0,0.5,0.3,0.3,0.6L11.8,10c-0.1,0.3-0.1,0.6,0.1,0.8C12.1,11,12.4,11.2,12.7,11.2z"/>
	</g>
	<g>
		<path class="st0" d="M10.9,2.1H1.6C1.3,2.1,1,2.5,1,3.1v8.8c0,0.5,0.3,0.9,0.6,0.9h7.1c0.3,0,0.6-0.2,0.7-0.5l2-4.4
			c0.1-0.2-0.1-0.4-0.3-0.4h-0.9c-0.3,0-0.5-0.3-0.3-0.6l1.8-3.6c0.1-0.3,0.1-0.6-0.1-0.8C11.4,2.3,11.2,2.1,10.9,2.1z"/>
	</g>
</g>
</svg>
