<?xml version="1.0" encoding="utf-8"?>
<!-- Generator: Adobe Illustrator 27.2.0, SVG Export Plug-In . SVG Version: 6.00 Build 0)  -->
<svg version="1.1" id="Layer_1" xmlns="http://www.w3.org/2000/svg" xmlns:xlink="http://www.w3.org/1999/xlink" x="0px" y="0px"
	 viewBox="0 0 32.1 32.4" style="enable-background:new 0 0 32.1 32.4;" xml:space="preserve">
<style type="text/css">
	.st0{fill:#F47788;}
	.st1{fill:#FFFFFF;}
</style>
<circle class="st0" cx="16" cy="16.1" r="16"/>
<g>
	<path class="st1" d="M18.5,25.7c0,0.4-0.3,0.6-0.6,0.6h-3.7c-0.4,0-0.6-0.3-0.6-0.6V22c0-0.4,0.3-0.6,0.6-0.6l3.7,0
		c0.4,0,0.6,0.3,0.6,0.6V25.7z"/>
</g>
<g>
	<path class="st1" d="M18.6,18.2c0,0.4-0.3,0.7-0.6,0.7l-3.8,0c-0.4,0-0.6-0.3-0.6-0.7V6.7c0-0.4,0.3-0.7,0.6-0.7H18
		c0.4,0,0.6,0.3,0.6,0.7C18.6,6.7,18.6,18.2,18.6,18.2z"/>
</g>
</svg>
