<?xml version="1.0" encoding="utf-8"?>
<!-- Generator: Adobe Illustrator 27.4.1, SVG Export Plug-In . SVG Version: 6.00 Build 0)  -->
<svg version="1.1" id="Layer_1" xmlns="http://www.w3.org/2000/svg" xmlns:xlink="http://www.w3.org/1999/xlink" x="0px" y="0px"
	 viewBox="0 0 144 144" style="enable-background:new 0 0 144 144;" xml:space="preserve">
<style type="text/css">
	.st0{fill:#242424;}
</style>
<path class="st0" d="M72,141.3c-38.2,0-69.3-31.1-69.3-69.3S33.8,2.7,72,2.7s69.3,31.1,69.3,69.3S110.2,141.3,72,141.3z M72,15.8
	c-30.9,0-56.2,25.3-56.2,56.2s25.3,56.2,56.2,56.2s56.2-25.3,56.2-56.2S102.9,15.8,72,15.8z"/>
<path class="st0" d="M64.1,80.8c-0.4-2.8-0.3-5.4,0.5-7.6c0.7-2.2,1.8-4.3,3.2-6.1c1.4-1.8,2.8-3.5,4.3-5c1.5-1.5,2.7-3,3.7-4.4
	c1-1.4,1.5-2.9,1.5-4.3c0-1.3-0.3-2.5-0.8-3.3c-0.6-0.9-1.3-1.6-2.3-2c-1-0.5-2.1-0.7-3.3-0.7c-1.9,0-3.6,0.4-5,1.3
	c-1.4,0.9-2.8,2-4.2,3.3l-9.3-8.5c2.6-2.9,5.7-5.2,9.2-7.1c3.5-1.8,7.3-2.7,11.5-2.7c3.8,0,7.3,0.6,10.4,1.9c3.1,1.3,5.6,3.3,7.4,6
	c1.8,2.7,2.8,6.2,2.8,10.6c0,2.5-0.5,4.8-1.6,6.7c-1.1,1.9-2.4,3.7-3.9,5.4c-1.5,1.7-3,3.3-4.5,4.9c-1.5,1.6-2.7,3.4-3.6,5.2
	c-0.9,1.8-1.3,4-1.1,6.4H64.1z M71.4,107.3c-2.8,0-5.2-1-7.1-3s-2.9-4.5-2.9-7.4c0-3,1-5.5,2.9-7.5c1.9-2,4.3-3,7.1-3
	c2.9,0,5.3,1,7.2,3c1.9,2,2.8,4.5,2.8,7.5c0,2.9-0.9,5.4-2.8,7.4C76.7,106.3,74.3,107.3,71.4,107.3z"/>
</svg>
