<?xml version="1.0" encoding="utf-8"?>
<!-- Generator: Adobe Illustrator 27.4.1, SVG Export Plug-In . SVG Version: 6.00 Build 0)  -->
<svg version="1.1" id="Layer_1" xmlns="http://www.w3.org/2000/svg" xmlns:xlink="http://www.w3.org/1999/xlink" x="0px" y="0px"
	 viewBox="0 0 48 48" style="enable-background:new 0 0 48 48;" xml:space="preserve">
<style type="text/css">
	.st0{fill:#767676;}
</style>
<g>
	<path class="st0" d="M30.1,29.9c-1.6,1.6-3.7,2.5-6.1,2.5c-4.8,0-8.7-3.9-8.7-8.7c0-2.4,1-4.6,2.5-6.1l-13-13L2.8,6.9l6.3,6.3
		c-1.7,1.5-3.1,3-4.3,4.7C3.6,19.6,2.7,21.3,2,23c1.9,4.6,4.9,8.2,8.8,10.9C14.7,36.6,19.1,38,24,38c1.5,0,3-0.1,4.4-0.3
		c1.5-0.3,2.8-0.6,4-1.1l8.4,8.2l1.9-2.3L30.1,29.9z"/>
	<path class="st0" d="M24,29.5c1.6,0,3-0.6,4-1.7l-8-8c-1,1-1.7,2.4-1.7,4C18.3,26.9,20.9,29.5,24,29.5z"/>
</g>
<g>
	<path class="st0" d="M24,18.1c-0.5,0-0.9,0.1-1.3,0.2l6.8,6.8c0.1-0.4,0.2-0.9,0.2-1.3C29.7,20.7,27.1,18.1,24,18.1z"/>
	<path class="st0" d="M37.3,12.1C33.3,9.4,29,8,24.2,8c-1.7,0-3.5,0.2-5.3,0.6C17.1,9,15.6,9.5,14.4,10l5.9,5.9
		c1.1-0.5,2.3-0.8,3.7-0.8c4.8,0,8.7,3.9,8.7,8.7c0,1.3-0.3,2.5-0.8,3.7l6,6c1.8-1.3,3.5-2.8,4.8-4.6c1.3-1.8,2.4-3.8,3.3-5.9
		C44.2,18.4,41.3,14.8,37.3,12.1z"/>
</g>
</svg>
