<?xml version="1.0" encoding="utf-8"?>
<!-- Generator: Adobe Illustrator 27.4.1, SVG Export Plug-In . SVG Version: 6.00 Build 0)  -->
<svg version="1.1" id="Layer_1" xmlns="http://www.w3.org/2000/svg" xmlns:xlink="http://www.w3.org/1999/xlink" x="0px" y="0px"
	 viewBox="0 0 48 48" style="enable-background:new 0 0 48 48;" xml:space="preserve">
<style type="text/css">
	.st0{fill:#767676;}
</style>
<g>
	<path class="st0" d="M46.6,22.5L46.6,22.5C46,21,41,7.8,24.6,7.8c-4,0-7.3,0.8-10.1,2l5.5,5.5c1.3-0.8,2.9-1.3,4.6-1.3
		c4.8,0,8.7,3.9,8.7,8.7c0,1.7-0.5,3.3-1.3,4.6l6.2,6.2c5.9-4,8-9.8,8.3-10.8h0C46.6,22.7,46.6,22.6,46.6,22.5
		C46.6,22.5,46.6,22.5,46.6,22.5z"/>
	<path class="st0" d="M29.8,24.9c0.3-0.7,0.5-1.5,0.5-2.3c0-3.1-2.5-5.6-5.6-5.6c-0.8,0-1.6,0.2-2.3,0.5L29.8,24.9z"/>
	<g>
		<path class="st0" d="M41.6,40.6L4.9,3.9L1.4,7.4l6.7,6.7c-3.7,3.6-5.2,7.6-5.4,8.4h0c0,0,0,0,0,0.1c0,0,0,0.1,0,0.1h0.1
			c0.5,1.6,5.5,14.7,22,14.7c2.2,0,4.3-0.2,6.1-0.7l7.4,7.4L41.6,40.6z M24.6,31.4c-4.8,0-8.7-3.9-8.7-8.7c0-0.2,0-0.5,0-0.7
			l9.4,9.4C25.1,31.4,24.9,31.4,24.6,31.4z"/>
	</g>
</g>
</svg>
